<?xml version="1.0" encoding="utf-8"?>
<!-- Generator: Adobe Illustrator 27.5.0, SVG Export Plug-In . SVG Version: 6.00 Build 0)  -->
<svg version="1.1" xmlns="http://www.w3.org/2000/svg" xmlns:xlink="http://www.w3.org/1999/xlink" x="0px" y="0px"
	 viewBox="0 0 254.64 588.33" style="enable-background:new 0 0 254.64 588.33;" xml:space="preserve">
<style type="text/css">
	.Arched_x0020_Green{fill:url(#SVGID_1_);stroke:#FFFFFF;stroke-width:0.25;stroke-miterlimit:1;}
	.st0{fill-rule:evenodd;clip-rule:evenodd;fill:#0A2B39;}
	.st1{fill-rule:evenodd;clip-rule:evenodd;fill:#E4EEEF;}
	.st2{fill-rule:evenodd;clip-rule:evenodd;fill:#C1D4D6;}
	.st3{fill-rule:evenodd;clip-rule:evenodd;fill:#70706F;}
	.st4{fill-rule:evenodd;clip-rule:evenodd;fill:#8AAAD0;}
	.st5{fill-rule:evenodd;clip-rule:evenodd;fill:#999999;}
	.st6{fill-rule:evenodd;clip-rule:evenodd;fill:#C7B299;}
	.st7{fill-rule:evenodd;clip-rule:evenodd;fill:#E42527;}
	.st8{fill-rule:evenodd;clip-rule:evenodd;fill:#A3B6B9;}
	.st9{fill-rule:evenodd;clip-rule:evenodd;fill:#5890AE;}
	.st10{fill:#0A2B39;}
	.st11{fill:#999999;}
	.st12{fill:#5890AE;}
</style>
<linearGradient id="SVGID_1_" gradientUnits="userSpaceOnUse" x1="-533.5803" y1="733.4471" x2="-532.8732" y2="732.7401">
	<stop  offset="0" style="stop-color:#259E2E"/>
	<stop  offset="0.9831" style="stop-color:#1C381D"/>
</linearGradient>
<g id="Layer_1">
	<path class="st0" d="M91,17.48c-1.12-0.8-1.88-1.96-2.88-2.88c-3.64-0.04-5.32,1.88-7.2,3.6c-1.62-3.65-8.27-6.53-9.72-0.72
		c-1.66-3.24-6.41-2.79-8.64-0.36c-1.32-3.94-11.61-3.76-10.8,1.44c1.74,11.18,31.2,11.2,41.76,7.2c1.03,0.51,1.96-1.12,1.8,0.36
		c3.29-1.59,6.49-5.39,5.04-9.36C98.87,12.68,92.21,13.01,91,17.48z M98.92,16.4c-0.29,0.97,0.16,2.27-0.36,3.6
		c-0.83,2.13-5.93,5.93-10.08,6.48c-13.9,1.84-33.73,1.68-35.28-9.72c1.35-1.29,4.18-1.1,6.84-1.08c1.08,1.08,1.82,2.5,2.52,3.96
		c1.36-5.17,7.15-3.46,9,0c0.84-2.23,1.44-4.41,3.24-4.68c3.04-0.45,4.22,3.87,6.12,5.4c1.16-2.12,3.93-5.05,6.48-4.68
		c2.39,0.35,1.69,2.66,3.96,3.6C91.18,15.43,96.81,12.64,98.92,16.4z"/>
	<path class="st1" d="M91.36,19.28c-2.27-0.94-1.57-3.25-3.96-3.6c-2.55-0.37-5.32,2.56-6.48,4.68c-1.9-1.53-3.08-5.85-6.12-5.4
		c-1.8,0.27-2.4,2.46-3.24,4.68c-1.85-3.46-7.64-5.17-9,0c-0.7-1.46-1.44-2.88-2.52-3.96c-2.66-0.02-5.49-0.21-6.84,1.08
		c1.55,11.4,21.38,11.56,35.28,9.72c4.15-0.55,9.25-4.35,10.08-6.48c0.52-1.33,0.07-2.63,0.36-3.6
		C96.81,12.64,91.18,15.43,91.36,19.28z"/>
	<path class="st0" d="M233.2,29.72c-0.91-5.34-9.34-6.76-11.52-1.44c-2.33-5.14-10.96-4.72-12.24,1.08
		c-2.38-3.6-8.91-7.93-14.04-4.32c-2.74,15.15,16.37,20.47,30.96,18.72c8.58-1.03,15.19-5.64,19.8-9.36
		c0.12-5.22-0.26-11.71-5.4-11.52C237.32,23.01,234.83,26.69,233.2,29.72z M244.36,25.4c4.66,11.86-11.56,17.16-23.4,16.2
		c-11.39-0.92-23.11-2.56-24.84-10.44c-0.82-3.71,0.97-4.72,2.16-6.48c6.96-0.84,8.46,3.78,11.88,6.48
		c0.08-3.41,2.48-5.57,5.04-5.76c3.52-0.27,4.77,2.7,6.84,4.32c1.41-6.49,10.5-4.45,10.8,1.44C234.81,27.44,239.8,21.06,244.36,25.4
		z"/>
	<path class="st2" d="M232.84,31.16c-0.3-5.89-9.39-7.93-10.8-1.44c-2.07-1.62-3.32-4.59-6.84-4.32c-2.56,0.19-4.96,2.35-5.04,5.76
		c-3.42-2.7-4.92-7.32-11.88-6.48c-1.19,1.76-2.98,2.77-2.16,6.48c1.73,7.88,13.45,9.52,24.84,10.44
		c11.84,0.96,28.06-4.34,23.4-16.2C239.8,21.06,234.81,27.44,232.84,31.16z"/>
	<path class="st3" d="M138.52,36.92c-0.98,0.89,1.76,1.1,2.88,1.08C141.23,36.86,139,37.76,138.52,36.92z"/>
	<path class="st3" d="M136,39.44c1.81,1.1,6.6,1.85,10.8,2.52C144.22,40.11,140.46,39.43,136,39.44z"/>
	<path class="st3" d="M123.04,40.52c-2.29-0.6-5.36,1.12-6.12,3.24C119.04,42.77,120.59,41.19,123.04,40.52z"/>
	<path class="st3" d="M129.52,41.6c0.72,1.32,3.93,0.15,5.04,1.08C135.08,41.55,131.22,41.71,129.52,41.6z"/>
	<path class="st3" d="M125.92,42.68c2.91,2.19,8.58,2.08,12.24,2.52C135.27,43.17,129.97,43.56,125.92,42.68z"/>
	<path class="st3" d="M118.36,47.36c2.32-0.56,6.39-0.92,10.08-1.8C124.99,44.3,119.79,43.52,118.36,47.36z"/>
	<path class="st3" d="M112.6,46.28c0.91-0.15,1.65-1.23,1.08-1.8C112.97,44.73,112.72,45.45,112.6,46.28z"/>
	<path class="st3" d="M117.28,48.44c7.67,1.14,15.07-0.26,25.56,1.8C135.35,45.2,127.29,46.83,117.28,48.44z"/>
	<path class="st3" d="M116.92,50.6c1.2,2.47,7.72,0.41,7.92-0.36C123.06,49.87,119.89,51,116.92,50.6z"/>
	<path class="st3" d="M124.12,52.04c7.86,1.5,16.68,3.96,23.04,5.76C141.01,54.21,132.36,50.34,124.12,52.04z"/>
	<path class="st3" d="M127.36,55.28c2.54,1.56,4.25,1.62,7.2,1.44C133.03,55.37,130.21,55.31,127.36,55.28z"/>
	<path class="st3" d="M115.84,56.36c0.71,0.85,2.39,0.73,3.96,0.72C118.78,56.54,117.31,56.45,115.84,56.36z"/>
	<path class="st1" d="M79.33,65.49c-1.25-1.51-1.73-3.79-3.6-4.68c-5.43-0.42-8.26,1.19-9.72,5.4c-2.15-4.43-10.03-9.82-12.24-1.8
		c-3.02-3.49-9.79-3.7-11.16,1.44c-3.09-1.36-5.07-5.3-10.08-3.6c-0.36,1.44-1.71,1.89-1.44,3.96c-2.71-0.63-3.19-4.22-6.12-4.68
		c-3.48-0.54-5.32,2-7.2,4.68c1.22,5.48,11.51,7.51,18.36,8.28c10.58,1.18,22.91-0.01,35.28,1.08c8.38,0.74,19.26-1.77,19.8-7.2
		c0.17-1.7-1.5-4.99-2.16-5.76C85.96,59.04,81.62,62.38,79.33,65.49z"/>
	<path class="st3" d="M146.08,58.88c0.38,0.82,1.09,1.31,2.16,1.44C148.36,59,146.93,59.24,146.08,58.88z"/>
	<path class="st3" d="M154.36,71.48c-1,1.5,0.59,3.48,0.72,5.04C155.99,75.12,154.1,73.44,154.36,71.48z"/>
	<path class="st3" d="M156.52,72.92c0.09,3.15,0.94,8.66,2.88,11.16C160.32,79.89,156.8,77.11,156.52,72.92z"/>
	<path class="st4" d="M136.36,75.44c-3.26-0.64-6.48,8.43-2.88,10.44C139.55,89.27,142.96,76.73,136.36,75.44z M138.88,79.4
		c-0.82,2.52-5.05,4.92-5.76,0.72c1.78,0.34,2.5-0.38,2.16-2.16c1.39,0.15,1.28,0.39,2.16-0.36
		C137.17,78.95,137.84,79.36,138.88,79.4z"/>
	<path class="st4" d="M139.96,75.44c1.76,2.37,1.93,7.42,0,9.72c4.58-0.22,5.68-3.92,10.08-4.32
		C147.84,77.88,144.27,76.29,139.96,75.44z"/>
	<path class="st0" d="M137.44,77.6c-0.88,0.75-0.77,0.51-2.16,0.36c0.34,1.78-0.38,2.5-2.16,2.16c0.71,4.2,4.94,1.8,5.76-0.72
		C137.84,79.36,137.17,78.95,137.44,77.6z"/>
	<path class="st3" d="M157.24,82.28c-0.94,3.35,1.25,6.67,1.08,10.44C159.26,89.38,157.16,85.97,157.24,82.28z"/>
	<path class="st3" d="M163.72,83.72c0.01,6.74-0.14,13.36,1.8,18.36C166.29,95.31,165.55,89.12,163.72,83.72z"/>
	<path class="st5" d="M240.76,88.04c-1.25,0.24-1.74,3.85,0,3.96C242.41,91.66,241.07,88.76,240.76,88.04z"/>
	<path class="st3" d="M159.76,89.12c0.51,6.93,0.79,14.04,1.44,21.6C162.7,105.42,161.06,95.1,159.76,89.12z"/>
	<path class="st3" d="M168.76,90.2c-0.86,3.9,2.25,7.78,0.72,12.96C171.3,99.57,169.53,93.58,168.76,90.2z"/>
	<path class="st6" d="M25.12,117.56c-1.72-2.8-0.16-7.15-0.36-10.08c-2.16,2.76-0.51,9.33-3.96,10.8
		c0.23-5.19,1.84-11.07,3.24-16.92c-4.54,1.82-2.64,10.08-6.48,12.6c-3.47-4.04-0.81-11.58,0.36-16.2c-3.63,1.88-4.37,12.78-4.32,18
		c0.06,6.21,4.3,12.39,7.92,16.2c3.02,3.18,7.66,5.84,7.2,12.6c2.22-0.15,8.15-0.95,10.44-1.08c1.19-9.37,9.66-11.46,11.88-19.8
		c0.02-1.34-2.26-0.38-2.52-1.44c-0.01-1.19-0.61-1.79-0.36-3.24c-4.4,11.39-21.89,4.13-19.44-7.2c1.6-7.39,7.87-15.13,15.84-10.08
		c0.38-0.34,0.11-1.33,1.08-1.08c-4.97-6.65-14.14-5.98-16.92,1.44c-1.06,2.82-1.66,7.24-2.16,10.44
		C26.3,114.21,27.31,116.74,25.12,117.56z M26.92,123.68c-0.42,0.3-0.96,0.47-1.8,0.36c-0.48-0.69,0.26-1.45-0.36-2.52
		c0.5,0.02,0.79-0.17,1.08-0.36C26.53,121.67,26.49,122.91,26.92,123.68z M21.16,121.52c-0.05,1.03-0.45,1.71-1.8,1.44
		C19.12,121.6,20.19,120.6,21.16,121.52z M38.44,129.08c0,0.72,0,1.44,0,2.16c-3.29-1.51-7.98-1.62-8.64-5.76
		C33.17,124.87,34.49,129.1,38.44,129.08z"/>
	<path class="st3" d="M167.32,98.84c-1.21,11.16,1.58,19.97,2.16,30.96C171.35,119.71,168.17,108.6,167.32,98.84z"/>
	<path class="st5" d="M201.52,99.93c-1.28,0.04-1.45,1.19-1.44,2.52c0.6,0,1.2,0,1.8,0C202.01,101.21,202.43,100.61,201.52,99.93z"
		/>
	<path class="st1" d="M53.56,109.28c-3.88-7.01-15.79-0.27-7.56,5.04c12.03-1.5,28.11,2.61,37.08-2.88c0.08-3.68-1.2-6-4.68-6.12
		c-1.18,0.85-1.87,2.05-1.8,3.24c-2.66-0.68-1.85-3.81-4.68-4.32c-3.29-0.6-5.55,1.77-6.12,5.4c-1.76-2.56-4.05-7.93-9.36-6.48
		C54.48,103.7,53.4,106.75,53.56,109.28z"/>
	<path class="st3" d="M172,103.52c-1.81,4.06-1.02,10.56-0.36,15.12C172.7,114.4,172.36,108.97,172,103.52z"/>
	<path class="st3" d="M46.36,103.52c0.67,0.67,2.5,2.04,3.6,1.08C49.36,103.36,47.92,104.28,46.36,103.52z"/>
	<path class="st4" d="M191.08,109.28c-1.69-4.68-8.67-4.2-7.92,0.72c0.54,3.52,8.76,5.31,11.52,2.88c5.34,2.02,14.16,2.51,13.32-5.4
		c-3.51-2.65-7.36,0.44-8.64,3.24C198.3,106.76,192.1,102.53,191.08,109.28z"/>
	<path class="st3" d="M165.16,106.76c-1.28-1.14-0.52,2.82-0.72,3.96C166.22,109.69,164,108.03,165.16,106.76z"/>
	<path class="st3" d="M175.96,108.93c-0.87,10.54,3.42,20.31,1.8,31.68C180.2,130.04,177.73,119.63,175.96,108.93z"/>
	<path class="st0" d="M219.16,116.84c-0.03,1.59,0.65,2.47,2.52,2.16C221.42,117.77,220.67,115.68,219.16,116.84z"/>
	<path class="st5" d="M195.04,116.84c-1.45,0.33-0.27,3.73,0.72,3.96C195.63,119.37,196.21,117.24,195.04,116.84z"/>
	<path class="st3" d="M51.4,118.28c-1.68,0.28-1.91,1.68-1.44,3.24C52.35,122.2,51.86,119.44,51.4,118.28z"/>
	<path class="st3" d="M173.8,119c-1.45,11.1-0.17,20.17-1.08,30.24C176.39,140.65,173.67,129.56,173.8,119z"/>
	<path class="st3" d="M166.6,119.36c-0.33,4.3,0.45,10.59,1.44,14.76C168.39,129.63,167.38,122.92,166.6,119.36z"/>
	<path class="st0" d="M25.84,121.16c-0.29,0.19-0.58,0.38-1.08,0.36c0.62,1.07-0.12,1.83,0.36,2.52c0.84,0.11,1.38-0.06,1.8-0.36
		C26.49,122.91,26.53,121.67,25.84,121.16z"/>
	<path class="st0" d="M19.36,122.97c1.35,0.27,1.75-0.41,1.8-1.44C20.19,120.6,19.12,121.6,19.36,122.97z"/>
	<path class="st0" d="M29.8,125.48c0.66,4.14,5.35,4.25,8.64,5.76c0-0.72,0-1.44,0-2.16C34.49,129.1,33.17,124.87,29.8,125.48z"/>
	<path class="st0" d="M213.04,125.84c-2.5,0.02-2.51,2.53-4.68,2.88c-1.29,0.24-2.79-1.16-3.24,0.36
		C207.54,132.17,212.67,129.16,213.04,125.84z"/>
	<path class="st0" d="M142.84,130.16c-0.47,0.13-0.57,0.63-1.08,0.72c4.19,10.01,6.81,22.57,0,31.68c6.21-2.9,8.7-9.04,7.56-18.36
		C148.52,137.72,143.96,135.13,142.84,130.16z"/>
	<path class="st0" d="M64.51,294.94c-0.98-2.28-6.05-2.89-7.14-0.25c-1.53-2.49-5.95-2.41-6.37,1.27c-0.55,4.8,5.48,5.2,10.96,5.86
		c7.76,0.94,19.2,3.26,20.39-5.35c-0.66-2.4-2.71-3.4-5.61-3.57c-1.31,0.64-2.23,1.68-3.31,2.55
		C71.28,291.2,67.18,290.12,64.51,294.94z M68.84,292.13c2.47,0,2.55,3.1,4.33,4.59c1.46-0.75,1.59-2.33,3.31-2.55
		c1.15-0.15,4.91,1.05,4.33,4.08c-0.51,2.69-6.91,4.04-10.7,4.08c-1.71,0.02-4.17-0.54-6.37-0.76c-4.72-0.49-11.54-0.91-11.98-4.59
		c-0.22-1.87,1.35-3.51,2.29-3.57c2.13-0.14,1.9,2.24,3.57,3.06c0.31-2.2,1.79-3,3.57-2.8c1.73,0.2,2.18,2.17,3.57,2.29
		C66.16,294.46,66.83,292.13,68.84,292.13z"/>
	<path class="st2" d="M64.77,295.96c-1.38-0.12-1.84-2.1-3.57-2.29c-1.78-0.2-3.26,0.6-3.57,2.8c-1.67-0.82-1.44-3.19-3.57-3.06
		c-0.94,0.06-2.52,1.7-2.29,3.57c0.44,3.67,7.25,4.1,11.98,4.59c2.2,0.23,4.66,0.78,6.37,0.76c3.79-0.03,10.19-1.38,10.7-4.08
		c0.58-3.02-3.18-4.22-4.33-4.08c-1.72,0.22-1.85,1.8-3.31,2.55c-1.78-1.48-1.86-4.58-4.33-4.59
		C66.83,292.13,66.16,294.46,64.77,295.96z"/>
	<path class="st3" d="M171.28,138.44c-0.63,8.95-3.6,17.57-6.12,27C169.19,158.43,171.57,149.77,171.28,138.44z"/>
	<path class="st3" d="M163,140.24c-1.19,4.21-0.53,10.27-1.8,14.4C162.95,151,162.71,145.36,163,140.24z"/>
	<path class="st3" d="M177.76,142.04c-1.39,0.41-0.97,2.63-1.08,4.32C177.4,145.29,177.43,143.52,177.76,142.04z"/>
	<path class="st7" d="M122.32,143.48c0.15,1.05,1.23,1.17,1.8,1.8c2.31-0.92,6-1.59,9-0.72
		C131.68,141.67,125.12,141.98,122.32,143.48z"/>
	<path class="st2" d="M29.44,155.72c1.82-1.25,0.06-5.56,3.24-6.12c3.58,0.02,0.6,6.6,3.6,7.2c1.61-2.46-0.39-7.13,3.96-7.92
		c2.25,0.63,1.21,4.54,2.52,6.12c6.93-7.66-7.21-11.59-14.76-8.28C27.19,149.57,26.23,154.99,29.44,155.72z"/>
	<path class="st7" d="M133.12,146.01c-3.74-0.03-6.11,1.9-11.16,1.44C123.42,152.35,133.27,149.02,133.12,146.01z"/>
	<path class="st2" d="M215.2,148.52c-1.42,2.38-2.57,6.94-1.08,10.08c4.88,0.44,4.25-4.63,6.48-6.84c3.58-0.1,1.07,5.9,3.24,7.2
		c5.21-1.23,0.23-8.66,5.04-10.44c3.45,1.1,2.06,5.48,3.24,8.28c5.1,0.22,5.52-8.31,2.52-10.08
		C229.58,147.54,221.49,146.66,215.2,148.52z"/>
	<path class="st3" d="M174.52,149.6c-3.24,6.96-5.91,14.49-7.56,23.04C171.64,167.13,173.02,158.31,174.52,149.6z"/>
	<path class="st1" d="M39.52,155.01c-1.05,4.45-5.95,4.96-7.2,0.36c-0.6,2.13-2.24,4.02-3.96,3.96c-0.07,18.45-5.01,36.53-5.4,52.92
		c-0.35,14.93,1.14,30.69,1.8,44.28c0.6,12.44,2.14,25.49,3.24,38.16c1.29,14.97,4.08,30.47,9,42.48
		c4.95,12.08,14.87,24.19,25.92,28.08c19.72,6.94,38.2-4.59,41.4-22.68c1.94-10.94-0.24-22.75,0.36-32.4
		c0.22-3.56,1.6-7.02,1.8-10.8c0.71-13.62,0.29-28.13,2.88-40.68c1.28-6.2,4.06-11.92,4.32-18c-7.36,14.62-7.39,32.93-10.44,51.12
		c-1.43,8.53-2.37,17.04-2.52,25.2c-0.24,12.39-1.76,25.18-8.28,33.84c-5.9,3.89-16.41,5.95-23.76,2.52c-3.06-1.43-5.99-4.42-9-6.84
		c-5.38-4.33-9.23-8.68-12.24-15.84c-2.04-4.86-1.75-13.1-2.88-20.16c-1.1-6.84-3.55-13.41-3.96-19.08c-0.6-8.22,0.45-17.46,0.36-27
		c-0.14-14.14-1.03-28.14,0-44.64c0.27-4.29,0.26-8.31,0.36-12.6c0.07-3.13,1.28-6.29,1.44-9.36c0.16-2.96-0.54-6.02-0.72-9
		c-0.19-3.11,0.45-6.19,0.36-9c-0.25-7.6-0.4-14.52,0-20.88C42.14,156.94,39.34,157.46,39.52,155.01z"/>
	<path class="st1" d="M165.88,349.76c6.42,3.55,13.87,7.73,23.04,8.28c2.58,0.16,4.82-0.64,7.2-0.72c3.5-0.12,6.97,0.75,10.44,0
		c12.24-6.18,19.13-15.95,24.48-29.88c2.16-5.62,3.08-11.2,4.32-17.64c1.25-6.46,0.91-13.68,1.08-21.24
		c0.31-13.38,1.83-28.73,1.44-43.2c-0.21-7.97-2.84-15.88-3.96-23.76c-2.2-15.46-1.84-30.94-2.88-45.36
		c-0.25-3.43-0.16-7.01,0-10.44c0.15-3.18,1.29-7.24-1.8-9.72c-0.86,2.47-1.11,4.69-3.6,5.04c-2.97,0.41-3.23-1.88-5.4-3.24
		c-2.96,2.15-1.8,6.66-1.8,10.44c0,27.12,0.31,49.24-0.36,75.24c-0.05,1.96-0.73,3.8-0.72,5.76c0.01,2.27,0.9,4.56,1.08,6.84
		c0.86,10.67-0.53,22.82,0,34.2c0.38,8.1,1.6,16.22,0,23.4c-0.26,0.98,0.72,0.72,0.72,1.44c-3.16,15.29-9.13,30.07-27.36,29.88
		c-8.28-0.09-16.35-4.78-18.72-11.16c-0.63-1.71-0.86-5.01-1.44-7.92c-2.41-12.05-2.47-25.87-2.16-41.04
		c0.07-3.59-0.57-6.91-0.36-9.72c0.37-4.96,1.91-8.25,1.44-14.76c-0.66-9.16-4.23-24.42-8.64-26.28c-9.22-3.88-12.4,6.31-13.32,14.4
		c-1.14,10.04-0.52,23.51,0,35.28c0.33,7.46,2.11,14.68,2.52,19.8c0.2,2.53-0.48,4.83-0.36,6.48
		C151.83,324.8,157.38,340.94,165.88,349.76z"/>
	<path class="st0" d="M89.92,166.52c-2.04-3.29-8.47-6.08-10.8-1.44c-5.32-6.07-15.23,0.78-7.2,6.48
		c2.01,1.42,11.12,4.49,15.48,5.04c6.11,0.78,9.23-1.86,14.04-1.44c2.31-1.41,5.87-1.57,7.92-3.24c4.08-6.4-5.55-13.65-8.64-6.12
		C98.18,161.07,91.69,161.17,89.92,166.52z M100,168.32c3.15-0.94,3.47-5.78,7.92-4.32c0.97,1.86,1.15,3.81,0.36,5.76
		c-4.14,4.1-11.77,5.38-20.52,5.4c-5.05,0.01-16.3-3.88-17.64-6.48c-1.73-3.35,1.91-5.84,4.68-5.4c2.2,0.35,2.61,3.32,4.32,3.6
		c2.05-6.36,9.34-2.31,11.16,1.44C91.42,161.99,98.69,162.6,100,168.32z"/>
	<path class="st4" d="M90.28,168.32c-1.82-3.75-9.11-7.8-11.16-1.44c-1.71-0.28-2.12-3.25-4.32-3.6c-2.77-0.44-6.41,2.05-4.68,5.4
		c1.34,2.6,12.59,6.49,17.64,6.48c8.75-0.02,16.38-1.3,20.52-5.4c0.79-1.95,0.61-3.9-0.36-5.76c-4.45-1.46-4.77,3.38-7.92,4.32
		C98.69,162.6,91.42,161.99,90.28,168.32z"/>
	<path class="st3" d="M166.96,166.52c-3.36,5.64-4.83,13.17-10.08,16.92C162.59,180.92,165.84,174.23,166.96,166.52z"/>
	<path class="st3" d="M161.56,171.56c-2.79,5.01-6.94,8.66-8.64,14.76C156.29,181.9,159.64,177.45,161.56,171.56z"/>
	<path class="st3" d="M153.28,174.08c-5.43,5.37-11.56,10.04-16.92,15.48c3.79-1.49,6.61-3.95,10.44-5.4
		C149.18,181.02,150.79,177.11,153.28,174.08z"/>
	<path class="st6" d="M142.12,179.49c-2.52-0.27-5.4,0.52-9.36,0.36c-0.01,2.27,0.14,4.7-0.36,6.48
		C136.13,184.54,139.37,182.26,142.12,179.49z"/>
	<path class="st3" d="M160.48,183.09c-3.07,2.33-6.92,3.88-9,7.2C155.16,188.57,158.57,186.58,160.48,183.09z"/>
	<path class="st3" d="M148.24,193.16c-2.68,0.34-7.22,0.95-9.72,3.24C142.09,195.66,145.67,194.92,148.24,193.16z"/>
	<path class="st6" d="M144.64,197.13c-3.44,0.28-6.01,1.43-9.72,1.44c-0.89,3.77,0.13,8.3-1.44,12.6c0.99-0.98,0.34,0.53,1.08,0.72
		c-1.18,3.51,0.14,7.5,2.52,8.64c1.99-0.29,4.2-0.36,5.76-1.08C144.39,212.17,144.03,203.61,144.64,197.13z"/>
	<path class="st0" d="M181.48,207.21c-1.75-3.86-7.8-2.86-7.2,2.88c0.75,7.09,18.91,10.27,27,6.84c1.5-0.63,2.48-2.46,4.32-3.24
		c2.88-6.46-4.98-13.17-7.92-6.12c-1.67-3.77-6.58-3.8-8.28,0C188.18,203.91,182.69,202.72,181.48,207.21z M189.4,210.09
		c0.78-2.43,2.68-4.91,4.68-4.68c2.71,0.32,1.48,3.54,3.96,4.68c-0.33-1.65,0.9-1.74,0.72-3.24c3.56-1.91,6.51,0.85,6.12,5.04
		c-4.56,5.67-18.16,7.87-25.56,2.88c-2.44-1.64-2.94-4.44-3.96-6.84c0.31-1.61,2.07-1.77,3.96-1.8c0.91,0.65,0.87,2.25,1.44,3.24
		c1.93-0.59,1.75-3.29,3.24-4.32C188.17,204.36,187.86,208.15,189.4,210.09z"/>
	<path class="st2" d="M184,205.05c-1.49,1.03-1.31,3.73-3.24,4.32c-0.57-0.99-0.53-2.59-1.44-3.24c-1.89,0.03-3.65,0.19-3.96,1.8
		c1.02,2.4,1.52,5.2,3.96,6.84c7.4,4.99,21,2.79,25.56-2.88c0.39-4.19-2.56-6.95-6.12-5.04c0.18,1.5-1.05,1.59-0.72,3.24
		c-2.48-1.14-1.25-4.36-3.96-4.68c-2-0.23-3.9,2.25-4.68,4.68C187.86,208.15,188.17,204.36,184,205.05z"/>
	<path class="st8" d="M148.96,210.45c-2.25,1.53-1.23,4.38-1.8,6.48c-1.16,4.27-4.64,5.93-7.92,7.92c0.45,1.59,1.03,3.05,2.16,3.96
		C148.31,226.99,156.62,214.9,148.96,210.45z"/>
	<path class="st8" d="M133.12,228.09c0.85-0.12,1.35-0.57,2.52-0.36c1.15-1.16,1.12-2.76,0.72-4.68c-7.41,0.75-4.24-7.07-5.76-10.8
		C122.17,211.91,129.12,226.31,133.12,228.09z"/>
	<path class="st2" d="M143.2,258.69c1.97,3.93,2.03,15.01-7.92,12.96c0.28,3.73-0.43,9.34-0.72,13.68c4.18-0.58,5.19,2.01,7.2,3.6
		c0.33,3.45-0.67,5.57-1.44,7.92c-1.23,0.29-2.67,0.42-5.04,0.36c-1.49,3.31-0.83,8.77-1.44,12.96c10.36-1.33,11.16,5.7,8.28,12.6
		c-2.62,0.39-4.16,0.4-7.2,0c-2.89,6.07-0.66,16.68-1.44,24.84c7.9,1.8,18.67,0.6,27,1.08c-8.14-11.74-11.42-29.61-12.96-50.76
		c-1.03-14.17-1.25-29.84-0.72-43.2c0.26-6.65,0-15.03,3.24-19.08c3.72-4.65,12.17-5.84,15.84-1.08c5.67,7.36,6.71,18.76,7.56,28.8
		c0.41,4.86,0.69,9.95,0.36,14.04c-0.48,5.9-1.8,10.48-1.8,16.2c0,11.13,1.31,21.49,3.24,31.32c2.89-20.7,3.34-43.72,1.08-64.44
		c-1.03-9.49-3.24-18.85-6.84-25.92c-3.68-7.23-9.57-12.23-14.76-17.64c-3.12,5.15-9.82,19.19-17.28,11.16
		c-1.12,10.09-1.77,18.42-1.8,29.52C138.14,257.81,141.41,258.94,143.2,258.69z M156.88,229.17c-7.79,1.09-9.09,8.67-12.6,14.04
		c0.36-7.57,4.72-14.23,12.6-15.48C156.85,228.71,157.48,228.45,156.88,229.17z"/>
	<path class="st2" d="M124.48,218.01c-0.31-0.07-0.34,0.14-0.36,0.36c-8.81,14.96-10.42,33.43-11.88,51.84
		c-0.72,9.03-3.42,18.54-2.52,27.36c-1.74,18.24-2.76,32.77-1.08,49.68c7.42-1.18,14.98,2.41,22.68,0.36
		c-1.08-10.08,0.21-15.76,0.72-25.2c-3.6-1.53-4.92,1.96-7.92,2.16c-6.81,0.44-10.43-7.3-6.84-13.68c4.44-2.84,8.35,0.25,14.4-0.72
		c0.91-3.89,0.51-9.09,1.08-13.32c-1.55-0.37-3.29-0.55-4.68-1.08c-7.63,4.95-15-3.83-12.96-10.44c1.52-4.93,10.45-3.83,12.6,0.36
		c1.86-0.3,3.85-0.47,6.12-0.36c-0.63-6.27,0.55-9.51,0-14.04c-5.46-3.08-6.41,2.02-12.96,1.44c-4.63-4.44-6.69-20.15,4.32-17.64
		c3.02,0.69,3.66,4.85,9.36,2.88c-0.47-8.41,0.77-21.43,2.52-28.8C129.88,231.77,125.59,224.77,124.48,218.01z"/>
	<path class="st0" d="M156.88,227.72c-7.88,1.25-12.24,7.91-12.6,15.48c3.51-5.37,4.81-12.95,12.6-14.04
		C157.48,228.45,156.85,228.71,156.88,227.72z"/>
	<path class="st9" d="M122.68,257.61c-5.47-0.82-2.97,12.78,1.8,12.6C130.33,269.99,126.55,258.19,122.68,257.61z M122.32,261.93
		c1.16-4.1,6.69,2.25,2.16,3.96C123.38,264.93,121.84,263.6,122.32,261.93z"/>
	<path class="st8" d="M130.6,260.13c0.88,2.25,2.05,5.28,1.08,8.28c3.35-0.1,5.79,1.35,8.64,0.72
		C146.03,262.92,136.75,257.94,130.6,260.13z"/>
	<path class="st0" d="M124.48,265.88c4.53-1.71-1-8.06-2.16-3.96C121.84,263.6,123.38,264.93,124.48,265.88z"/>
	<path class="st9" d="M118.36,285.69c-2.15,4.61,0.97,9.05,5.4,9.36C129.27,292.14,123.26,281.58,118.36,285.69z M124.12,291.45
		c-2.61,0.36-2.02-3.38-0.36-3.6C124.56,288.34,124.82,290.57,124.12,291.45z M121.24,290.01c-0.8,0.28-1.4,0.76-2.52,0.72
		c-0.62-1.2,0.33-1.76,0.72-2.88c0.48,0,0.96,0,1.44,0C120.87,288.69,121.5,288.91,121.24,290.01z"/>
	<path class="st0" d="M123.76,287.84c-1.66,0.22-2.25,3.96,0.36,3.6C124.82,290.57,124.56,288.34,123.76,287.84z"/>
	<path class="st0" d="M120.88,287.84c-0.48,0-0.96,0-1.44,0c-0.39,1.12-1.34,1.68-0.72,2.88c1.12,0.04,1.72-0.44,2.52-0.72
		C121.5,288.91,120.87,288.69,120.88,287.84z"/>
	<path class="st8" d="M137.08,288.57c-2.9,0.07-4.79,0.29-8.28,0.36c0.3,2.08,0.8,3.4,0.36,5.4c3.19,0.26,6.06,2.04,9.36,1.08
		C138.76,292.05,137.74,291.43,137.08,288.57z"/>
	<path class="st8" d="M127.36,311.97c0.95,2.65,1.6,5.6,2.52,8.28c3.12,0.51,6.58,1.12,9-0.36c0.23-2.05,0.8-3.76,0.72-6.12
		C136.85,311.83,132.13,311.87,127.36,311.97z"/>
	<path class="st9" d="M119.08,314.13c-1.5,4.68,0.59,9.29,6.12,9C128.97,318.79,124.75,309.11,119.08,314.13z M124.84,318.8
		c-0.82,0.23-2.17,0.71-2.88,0c-0.5-1.94,1.37-1.51,1.08-3.24c0.6,0,1.2,0,1.8,0C125.69,316.46,124.84,317.68,124.84,318.8z
		 M119.08,318.8c-0.25-1.33,0.62-1.54,0.36-2.88c0.48,0,0.96,0,1.44,0C120.74,317.34,120.86,319.02,119.08,318.8z"/>
	<path class="st0" d="M124.84,315.57c-0.6,0-1.2,0-1.8,0c0.29,1.73-1.58,1.3-1.08,3.24c0.71,0.71,2.06,0.23,2.88,0
		C124.84,317.68,125.69,316.46,124.84,315.57z"/>
	<path class="st0" d="M120.88,315.93c-0.48,0-0.96,0-1.44,0c0.26,1.33-0.61,1.54-0.36,2.88
		C120.86,319.02,120.74,317.34,120.88,315.93z"/>
	<path class="st9" d="M133.12,350.84c0.31,1.58,3.46,0.94,5.4,1.08c5.24,0.37,15.13-0.64,21.96-1.44c-5.59-1.27-13.7-0.01-20.88,0
		C137.44,350.49,134.85,349.18,133.12,350.84z"/>
	<path class="st9" d="M108.64,351.93c7.11,1,16.24,2.85,23.4,2.16c-5.49-0.58-12.26-2.23-18-2.88
		C112.56,351.04,109.51,350.27,108.64,351.93z"/>
	<path class="st9" d="M133.84,354.09c10.05,2.45,19.28-0.27,30.6-1.44c0.92,0.02,0.44-0.27,0.36-0.72
		C155.7,352.2,142.14,354.17,133.84,354.09z"/>
	<path class="st9" d="M114.4,354.8c7.73,3.21,17.91,2.75,27.72,2.52c9.12-0.21,18.54,0.12,26.64-1.8
		c-3.14-3.33-10.33,0.31-16.2,0.72C141.39,357.03,127.45,355.83,114.4,354.8z"/>
	<path class="st9" d="M108.28,357.69c0.7,2.47,3.53,1.29,5.04,1.44c7.66,0.78,14.93,1.28,21.96,2.16
		c10.39,1.3,20.49-0.35,29.52-2.16c1.94-0.39,5.51,0.64,6.12-2.16c-5.75,1.25-10.22,1.49-17.28,1.8c-7.7,0.34-16.77,1.76-23.76,1.08
		c-3.21-0.31-6.46-0.96-9.72-1.44c-3.25-0.48-7.09-1.93-9.72-1.8C109.22,356.67,108.73,356.5,108.28,357.69z"/>
	<path class="st2" d="M169.48,360.93c-8.95,0.79-17.42,2.99-27.36,2.52c-11.61-0.55-22.69-3.01-33.48-2.52
		c-0.3,11.56,1.56,23.14,1.44,34.92c-0.06,6.32-0.91,12.55-1.44,19.08c-0.49,5.94,0.27,12.1-0.36,18
		c-0.88,8.18-1.31,16.73-2.52,24.84c-1.21,8.18-2.98,16.28-3.96,24.48c-1.01,8.47-0.09,17.24-1.44,25.56
		c-0.64,3.97-1.67,7.96-2.52,11.88c-0.91,4.22-0.72,8.41-1.44,12.6c-0.45,2.63-2.83,5.51-2.52,8.64c6.05,0.31,12-0.83,18-0.72
		c10.06,0.19,20.07,1.33,29.52,1.08c12.17-0.33,23.93-1.88,34.92,1.44c-0.57-9.16-5.89-17.42-6.84-25.92
		c-0.58-5.17-0.51-10.02-1.44-15.12c-0.81-4.47-2.33-9.08-2.88-13.68c-2.17-18.14,0.29-36.24-0.36-54.72
		c-0.49-14.08,1.1-29.16,2.52-42.12c1.09-9.99,1.03-19.66,2.52-29.16C170.72,361.97,169.91,360.81,169.48,360.93z"/>
	<path class="st7" d="M154.72,542.37c2.31,3.04-0.89,18.56,3.96,18.36c3.63-0.15,2.67-14.98,2.52-18
		C159.26,542.38,157.08,542.28,154.72,542.37z"/>
	<path class="st7" d="M113.32,543.81c-1.88-0.08-3.59,0.01-5.04,0.36c0.79,5.21-2.23,14.23,3.24,14.76
		C114.37,555.95,113.63,548.93,113.32,543.81z"/>
	<path class="st3" d="M134.92,36.56c-4.36,0.08-8.1,0.78-11.52,1.8c1.15,1.16,2.35-0.43,3.96-0.72
		C130.06,37.16,133.84,38.11,134.92,36.56z"/>
	<path class="st3" d="M135.28,42.32c3.57,2.31,8.59,3.17,12.96,4.68c-0.64-1.76-5.17-2.74-7.2-4.32
		C139.5,43.32,137.78,42.49,135.28,42.32z"/>
	<path class="st3" d="M157.96,48.44c-0.79,1.16,1.59,2.24,1.8,3.6C160.64,50.79,158.27,49.71,157.96,48.44z"/>
	<path class="st3" d="M148.6,48.8c0.73,0.03,5.56,4,6.84,4.68C153.47,51.62,151.92,49.32,148.6,48.8z"/>
	<path class="st3" d="M112.6,48.8c-0.15,1.23,1.08,1.08,1.44,1.8C114.49,50.48,113.88,48.39,112.6,48.8z"/>
	<path class="st3" d="M163.36,73.64c-2.15-10.09-7.97-19.63-16.92-24.12c-0.54,0.65,1.04,1.5,1.8,2.16
		c2.57,2.21,5.72,5.64,8.28,7.92C158.38,64.7,161.93,68.11,163.36,73.64z"/>
	<path class="st3" d="M134.2,50.6c6.75,2.61,14.26,4.46,19.08,9c-0.57-2.82-6.95-5.99-10.44-8.28
		C139.57,51.47,137.17,50.75,134.2,50.6z"/>
	<path class="st3" d="M112.96,51.68c0.22,1.1,1.19,1.45,1.8,2.16c2.64,0.24,5.26,0.5,8.28,0.36c0.71-0.33,0.71-1.21,0-0.36
		C119.97,53.46,115.57,53.46,112.96,51.68z"/>
	<path class="st0" d="M79.7,64.41c-1.97-6.31-11.4-4.98-14.04,0c-2.12-3.51-9.39-8.45-12.24-1.08c-2.91-3.51-9.63-2.92-11.16,1.44
		c-2.93-3.1-10.38-6.26-11.88,0.36c-2-1.08-2.75-3.88-5.4-4.32c-3.59-0.59-7.73,2.84-7.56,6.12c0.43,8.32,26.65,8.61,35.64,8.64
		c17.58,0.06,35.62,2.64,39.24-6.84C94.65,62.58,82.3,56.4,79.7,64.41z M89.05,62.61c0.66,0.77,2.33,4.06,2.16,5.76
		c-0.54,5.43-11.42,7.94-19.8,7.2c-12.37-1.09-24.7,0.1-35.28-1.08c-6.85-0.77-17.14-2.8-18.36-8.28c1.88-2.68,3.72-5.22,7.2-4.68
		c2.93,0.46,3.41,4.05,6.12,4.68c-0.27-2.07,1.08-2.52,1.44-3.96c5.01-1.7,6.99,2.24,10.08,3.6c1.37-5.14,8.14-4.93,11.16-1.44
		c2.21-8.02,10.09-2.63,12.24,1.8c1.46-4.21,4.29-5.82,9.72-5.4c1.87,0.89,2.35,3.17,3.6,4.68C81.62,62.38,85.96,59.04,89.05,62.61z
		"/>
	<path class="st3" d="M165.16,56.72c-0.88-0.33,0.51,2.69,0.72,3.6C166.87,59.31,165.02,58.08,165.16,56.72z"/>
	<path class="st3" d="M149.32,58.88c0.23,1.09,1.63,1,2.16,1.8C152.11,60.14,150.2,59.1,149.32,58.88z"/>
	<path class="st3" d="M166.6,60.68c-0.46,1.55,0.35,4.93,1.8,5.76C167.47,64.86,167.04,62.76,166.6,60.68z"/>
	<path class="st3" d="M151.12,67.16c1.09-0.82-2.74-4.57-0.72-2.16C150.23,66.14,150.91,66.41,151.12,67.16z"/>
	<path class="st3" d="M155.44,65.36c1.61,4.15,4.2,7.32,5.4,11.88C160.25,73.51,158.53,67.8,155.44,65.36z"/>
	<path class="st4" d="M121.96,80.48c0.91,4.73,4.98,6.3,10.08,6.84c-2.28-2.27-3.98-7.91-1.08-11.52
		C129.2,75.77,124.42,78.84,121.96,80.48z"/>
	<path class="st3" d="M166.6,80.84c-1.03,0.82,0.75,1.87,0.72,2.88C168.12,83.13,166.66,81.77,166.6,80.84z"/>
	<path class="st6" d="M197.56,118.28c0.31,0.13-0.8,3.63-1.8,4.68c3.54,10.26,17.68,9.92,18.72,22.68
		c5.65-0.52,11.03,0.75,16.92-0.36c-1.21-20.19,11.41-32.68,10.08-51.84c-3.85,1.55-3.59-4.85-2.88-6.12
		c-3.68-0.12-0.61,3.67-0.36,5.4c0.59,4.15-0.95,8.97-0.72,12.24c-0.3,0.78-1.58,0.58-2.16,1.08c-2.32-5.72-5.18-10.9-10.8-13.32
		c3.47,3.84,5.87,8.77,6.48,15.48c-0.6,0-1.2,0-1.8,0c-0.89-6.57-4.73-13.7-9.72-17.28c-2.9-2.08-6.96,0.64-10.44,2.16
		c9.96-1.97,20.93,12.91,12.24,22.32c-0.95-2.1,2.06-6.76,1.08-11.52c-1.29-6.27-13.78-12.49-19.44-5.76
		c0.93,1.67,0.77,2.24,1.44,3.96c-0.95,0.86-2.56,2.95-4.32,1.8c2.78,4.22,5.82-5.48,11.16-4.68c6.55,0.98,3.63,14.99,1.8,20.16
		c-1.13,3.19-4.22,7.08-6.48,7.2C201.96,126.8,199.23,121.95,197.56,118.28z M221.68,119c-1.87,0.31-2.55-0.57-2.52-2.16
		C220.67,115.68,221.42,117.77,221.68,119z M205.12,129.08c0.45-1.52,1.95-0.12,3.24-0.36c2.17-0.35,2.18-2.86,4.68-2.88
		C212.67,129.16,207.54,132.17,205.12,129.08z"/>
	<path class="st0" d="M138.52,94.16c0.3,0.78,0.93,1.23,0.72,2.52c1.23,0.27,0.59-1.33,1.44-1.44c0.54,0.3,0.52,1.16,0.72,1.8
		c0.53-0.31,0.77-0.91,0.72-1.8C140.51,95.29,139.89,94.36,138.52,94.16z"/>
	<path class="st6" d="M50.68,115.76c-2-0.32-1.42,1.94-2.52,2.52C48.73,118.6,50.4,116.94,50.68,115.76z"/>
	<path class="st3" d="M168.76,139.52c-0.2-0.81-0.56,0.44-1.08-0.36c-0.86-4.1-2.08-11.04-2.16-15.48
		c-0.31,8.94-0.17,18.75-0.36,28.44C167.93,148.7,167.95,142.17,168.76,139.52z"/>
	<path class="st3" d="M165.88,155.01c-3.02,6.34-4.63,14.09-7.92,20.16C161.77,171.05,164.77,163.02,165.88,155.01z"/>
	<path class="st3" d="M159.04,169.76c-2.4,2.45-4.82,5.38-7.2,9c-1.14,1.74-1.98,4.1-3.24,5.4c-5.03,5.21-14.21,5.32-18,11.88
		C143.03,190.24,154.03,183,159.04,169.76z"/>
	<path class="st3" d="M169.84,174.08c-2.03,1.81-4.57,6.23-6.84,9C165.63,180.43,167.98,177.51,169.84,174.08z"/>
	<path class="st3" d="M147.88,194.24c6.38-0.46,10.81-5.99,14.76-10.08c-1.18-0.41-3.29,3.34-5.04,4.68
		C154.71,191.05,150.68,192.47,147.88,194.24z"/>
	<path class="st3" d="M152.56,183.8c-3.23,3.13-7.03,5.69-10.44,8.64C146.14,191.54,151.45,188.82,152.56,183.8z"/>
	<path class="st3" d="M134.56,188.84c-1.26-0.41-4.47,1.35-5.76,2.88C130.35,191.83,133,189.93,134.56,188.84z"/>
	<path class="st3" d="M133.12,191.72c-1.44,0.49-5.44,1.51-5.76,4.32C129.78,195.1,130.91,192.87,133.12,191.72z"/>
	<path class="st3" d="M138.88,192.8c-1.65,1.11-3.35,2.17-5.4,2.88C135.13,196.01,138.01,194.46,138.88,192.8z"/>
	<path class="st3" d="M123.04,197.84c-0.69-0.43-1.68,1.91-1.8,3.24C122.3,200.47,122.27,198.76,123.04,197.84z"/>
	<path class="st6" d="M114.4,57.44c1.72,7.73,1.04,15.82,0,25.92c-0.95,9.26-6.57,19.14-7.92,29.16c-0.5,3.7-1.69,6.78-1.8,10.44
		c1.99,2.18,6.34,1.91,9.36,0.72c1.86-0.22-0.56-0.99,0-2.16c1.19-1.33,2.86-2.18,4.68-2.88c2.05,0.83,2.78,2.98,3.6,5.04
		c2.54,0.57,5.49,0.18,7.56-0.72c2.22-3.74-1.67-6.8-4.68-6.48c2.76-2.89,6.51,1.19,6.84,3.24c1.1,6.94-6.23,7.24-12.6,6.84
		c0.17,5.38,2.61,9.9,2.16,14.76c5.85-3.46,12.82,0.87,17.64,3.6c0.93,2.65-2.03,2.25-3.96,3.24c-3.44,1.78-7.04,5.28-14.04,3.24
		c0,2.77-1.39,5.56-1.44,8.28c-0.14,7.21,5.91,17.37,10.8,18c7.64,0.99,14.05-2.19,18.72-4.68c7.7-8.74,8.95-21.38,9.72-37.08
		c0.22-4.54-0.26-9.3-0.72-13.68c-1.52-14.41-2.78-29.09-5.04-41.76c-5.63,1.99-10.68,7.78-17.64,8.64c-3.22,0.4-6.17-1.11-9.36,0
		c2.64,2.4,5.85,4.23,10.44,4.68c0.61,0.85,0.63,2.04,0.36,2.88c-1.48,0.04-0.48-2.4-1.8-2.52c-8.14,1.43-13.27-5.76-16.2-11.88
		c4.12-4.24,10.44-9.79,17.64-9.72c6.66,0.06,10.87,5.16,16.2,7.2c-2.37-10.5-3.13-15.72-11.16-19.44
		c-4.94-2.29-13.08-2.54-18.72-2.16C119.73,58.39,116.77,59.97,114.4,57.44z M142.12,95.24c0.05,0.89-0.19,1.49-0.72,1.8
		c-0.2-0.64-0.18-1.5-0.72-1.8c-0.85,0.11-0.21,1.71-1.44,1.44c0.21-1.29-0.42-1.74-0.72-2.52
		C139.89,94.36,140.51,95.29,142.12,95.24z M149.32,144.2c1.14,9.32-1.35,15.46-7.56,18.36c6.81-9.11,4.19-21.67,0-31.68
		c0.51-0.09,0.61-0.59,1.08-0.72C143.96,135.13,148.52,137.72,149.32,144.2z"/>
	<g id="XMLID_00000138540614458965049120000008437731406783009672_">
		<g>
			<path class="st10" d="M12.88,104.96c-0.09,1.21,0.39,2.1,0.36,3.24c-0.01,0.53-0.04,1.07-0.08,1.61l0.67,0.05
				c0.43-5.1,1.56-10.79,4.09-12.1c-0.81,3.19-2.33,7.78-2.04,11.64l1.3-0.12c-0.38-5.1,6.66-15.74,1.1-16.56
				C14.28,92.13,13.09,102.13,12.88,104.96z"/>
			<path class="st10" d="M15.88,109.4c0.12,1.73,0.61,3.31,1.68,4.56c0.84-0.55,1.41-1.38,1.83-2.35l-1.11-0.17
				c-0.7-0.46-1.02-1.22-1.1-2.16L15.88,109.4z"/>
			<path class="st11" d="M47.08,100.64c-0.49,0.39-0.76,0.77-0.87,1.15c-0.25,0.86,0.36,1.62,1.16,2.05
				c0.68,0.36,1.49,0.48,2.01,0.2c0.56-0.4,0.22-1.26-0.38-2.02C48.4,101.26,47.55,100.61,47.08,100.64z"/>
			<path class="st10" d="M46.21,101.79c0.11-0.38,0.38-0.76,0.87-1.15c0.47-0.03,1.32,0.62,1.92,1.38c0.6,0.76,0.94,1.62,0.38,2.02
				c-0.52,0.28-1.33,0.16-2.01-0.2C46.57,103.41,45.96,102.65,46.21,101.79z M51.04,102.44c-4.25-5.6-11.5-10.18-20.88-7.56
				c-3.91,5.57-13.26,5.7-11.88,16.56l1.11,0.17c1.49-3.48,1.1-8.83,4.65-10.25c-1.4,5.85-3.01,11.73-3.24,16.92
				c3.45-1.47,1.8-8.04,3.96-10.8c0.2,2.93-1.36,7.28,0.36,10.08c1.41-0.52,1.5-1.75,1.45-3.01c-0.03-0.7-0.1-1.42-0.01-2.03
				c0.5-3.2,1.1-7.62,2.16-10.44c2.78-7.42,11.95-8.09,16.92-1.44c-0.97-0.25-0.7,0.74-1.08,1.08c-7.97-5.05-14.24,2.69-15.84,10.08
				c-0.2,0.94-0.27,1.86-0.21,2.73c0.34,5.78,5.83,9.96,11.05,10.19l0.03-1.39c-5.32-0.34-10.56-6.62-8.71-13.33
				c2.57-1.82,4.28-7.37,7.92-7.92c2.91-0.44,4.06,1.78,6.84,2.88c-2.07,1.13-3.1,3.5-2.9,5.68l0.43-0.05
				c-0.27-3.4,5.38-5.9,8.87-3.13l0.18-0.22C51.05,106.42,51.62,103.86,51.04,102.44z"/>
			<path class="st11" d="M51.4,118.28c-1.68,0.28-1.91,1.68-1.44,3.24C52.36,122.2,51.86,119.44,51.4,118.28z"/>
			<path class="st10" d="M68.68,353.36c3.75,1.75,8.32,2.07,12.68,1.45l-0.15-1.24c-0.58,0.08-1.16,0.13-1.73,0.15
				c-6.96,0.23-15.71-4.91-19.8-9.72c-4.35-5.11-7.72-14.01-10.08-22.32c-2.35-8.29-4.74-18.13-5.4-26.64
				c-0.59-7.68-0.08-15.52-0.36-23.04c-0.37-9.86,0.16-20.43-0.72-30.6c-1.25-14.49-0.97-29.98-0.05-43.54l-0.31-0.02
				c-0.16,3.07-1.37,6.23-1.44,9.36c-0.1,4.29-0.09,8.31-0.36,12.6c-1.03,16.5-0.14,30.5,0,44.64c0.09,9.54-0.96,18.78-0.36,27
				c0.41,5.67,2.86,12.24,3.96,19.08c1.13,7.06,0.84,15.3,2.88,20.16c3.01,7.16,6.86,11.51,12.24,15.84
				C62.69,348.94,65.62,351.93,68.68,353.36z"/>
			<path class="st10" d="M89.92,543.08c1.52-0.39,3.09-0.49,4.69-0.44l0.06-1.69c-0.26,0-0.53-0.02-0.79-0.03
				c-0.31-3.13,2.07-6.01,2.52-8.64c0.72-4.19,0.53-8.38,1.44-12.6c0.85-3.92,1.88-7.91,2.52-11.88c1.35-8.32,0.43-17.09,1.44-25.56
				c0.5-4.16,1.19-8.29,1.92-12.42l-1.74-0.31c-1.01,6.03-2.83,11.96-3.78,18.13c-0.8,5.21-0.38,10.59-0.72,15.84
				C96.6,516.88,91.22,529.62,89.92,543.08z"/>
			<path class="st10" d="M103.24,291.8c2.48-14.78,2.96-29.63,7-42.53l-1.31-0.33c-0.8,2.59-1.6,5.32-2.45,8.3
				c-1.92,6.75-2.61,14.1-4.32,22.68c-1.87,9.43-1.74,22.43-3.6,33.48c-1.83,10.84-3.13,22.1-4.68,30.96
				c-0.82,4.68-7.01,8.4-12.67,9.21l0.15,1.24c4.19-0.6,8.19-2.06,11.08-3.97c6.52-8.66,8.04-21.45,8.28-33.84
				C100.87,308.84,101.81,300.33,103.24,291.8z"/>
			<path class="st10" d="M119.08,314.12c5.67-5.01,9.89,4.67,6.12,9C119.67,323.41,117.58,318.8,119.08,314.12z M124.12,324.56
				c2.6-0.17,3.94-2.81,6.59-2.53l0.26-1.62c-0.36-0.05-0.73-0.11-1.09-0.17c-0.92-2.68-1.57-5.63-2.52-8.28
				c0.61-0.01,1.21-0.02,1.81-0.02l-0.02-1.58c-4.68,0-8.08-1.9-11.87,0.52C113.69,317.26,117.31,325,124.12,324.56z"/>
			<path class="st10" d="M119.44,126.56c6.37,0.4,13.7,0.1,12.6-6.84c-0.33-2.05-4.08-6.13-6.84-3.24c3.01-0.32,6.9,2.74,4.68,6.48
				c-2.07,0.9-5.02,1.29-7.56,0.72c-0.82-2.06-1.55-4.21-3.6-5.04c-1.82,0.7-3.49,1.55-4.68,2.88c-0.56,1.17,1.86,1.94,0,2.16
				c-3.02,1.19-7.37,1.46-9.36-0.72c0.11-3.66,1.3-6.74,1.8-10.44c0.13-0.94,0.29-1.88,0.48-2.81l-1.35-0.33
				c-0.41,1.92-0.81,3.71-1.29,5.3c-0.82,2.75-3.59,6.53-1.44,9.72c2.44,3.64,9.46,2.17,14.04,2.52c0.08,4.5,3.07,8.1,3.24,12.6
				c0.02,0.58,0.03,1.17,0,1.77l1.44,0.03C122.05,136.46,119.61,131.94,119.44,126.56z"/>
			<path class="st12" d="M130.96,349.76c-1.2,0-3.01-0.05-4.96-0.07c-2.58-0.01-5.39,0.05-7.28,0.43c1.06,0.42,2.38,0.79,3.81,1.07
				c2.69,0.51,5.8,0.66,8.43,0.01C130.96,350.72,130.96,350.24,130.96,349.76z"/>
			<path class="st10" d="M136.72,93.8c-0.46-0.04-0.92-0.1-1.35-0.18l-0.09,0.54c1.32,0.12,0.32,2.56,1.8,2.52
				C137.35,95.84,137.33,94.65,136.72,93.8z"/>
			<path class="st10" d="M114.04,50.6c-0.36-0.72-1.59-0.57-1.44-1.8C113.88,48.39,114.49,50.47,114.04,50.6z M112.6,46.28
				c0.12-0.84,0.37-1.55,1.08-1.8C114.25,45.05,113.51,46.13,112.6,46.28z M115.84,56.36c1.48,0.09,2.94,0.18,3.96,0.72
				C118.23,57.09,116.55,57.21,115.84,56.36z M123.04,40.52c-2.45,0.67-4,2.24-6.12,3.24C117.68,41.64,120.75,39.92,123.04,40.52z
				 M123.04,53.84c0.71-0.85,0.71,0.03,0,0.36c-3.02,0.14-5.64-0.12-8.28-0.36c-0.61-0.71-1.58-1.06-1.8-2.16
				C115.57,53.46,119.97,53.45,123.04,53.84z M123.4,38.36c3.42-1.02,7.16-1.72,11.52-1.8c-1.07,1.54-4.86,0.59-7.56,1.08
				C125.75,37.93,124.55,39.52,123.4,38.36z M141.1,40.98c-2.2-0.43-4.1-0.93-5.1-1.54c1.3-0.01,2.53,0.05,3.7,0.18l0.18-1.7
				c-1.05-0.13-2-0.42-1.36-1l0.32-1.85c-7.48-1.31-15.18-0.28-21.56,4.73c-3.88,3.05-11.07,12.3-4.68,16.56
				c1.9,8.56,1.1,17.84,0,27.36c-0.55,4.78-3.19,10.19-4.68,15.48c-0.97,3.46-1.64,6.99-2.31,10.18l1.35,0.33
				c1.88-9.06,6.58-17.96,7.44-26.35c1.03-10.1,1.72-18.19,0-25.92c2.37,2.53,5.33,0.95,8.64,0.72c2.51-0.17,5.51-0.21,8.51-0.01
				l0.1-1.4c-1.44-0.11-2.71-0.49-4.29-1.47c1.78,0.02,3.55,0.05,5,0.4l0.42-1.73c-2.91-0.71-5.85-1.37-8.66-1.91
				c0.13-0.03,0.27-0.05,0.4-0.07l-0.23-1.28c-1.62,0.87-6.36,1.98-7.37-0.09c2.55,0.33,5.22-0.44,7.06-0.44l0.03-1.22
				c-2.27-0.05-4.49-0.17-6.73-0.5c0.41-0.07,0.82-0.13,1.22-0.2l-0.14-0.88c1.35-3.63,6.06-3.13,9.49-2.01l0.5-1.47
				c-0.92-0.3-1.75-0.69-2.43-1.2c1.53,0.33,3.25,0.48,4.94,0.64l0.11-1.05c-0.66-0.05-1.2-0.21-1.45-0.67
				c1.49,0.1,4.66-0.02,5.05,0.72h0.71c2.34,0.15,3.99,0.88,5.45,0.47L141.1,40.98z"/>
			<path class="st10" d="M113.32,543.8c0.31,5.13,1.05,12.15-1.8,15.12c-5.47-0.53-2.45-9.55-3.24-14.76
				C109.73,543.81,111.44,543.72,113.32,543.8z M141.4,541.28c-9.45,0.25-19.46-0.89-29.52-1.08c-5.74-0.11-11.43,0.94-17.21,0.75
				l-0.06,1.69c3.97,0.14,8.16,1.27,12.23,1.52c0.17,4.63-0.39,9.99,0.36,14.04c-5.41,2.95-17.31,10.84-15.48,18.36
				c5.49,4.11,16.09,1.13,18-3.96c0.97,2.15,1,5.24,4.68,4.68c2.12-3.27,2.32-7.63,1.8-11.88c-0.26-2.09-1.67-3.98-1.8-5.76
				c-0.39-5.26,2.87-10.33,1.08-15.84c13.93-0.46,22.3,0.02,37.8-1.8l-0.04-1.22C149.34,540.93,145.39,541.17,141.4,541.28z"/>
			<path class="st10" d="M122.68,257.6c3.87,0.58,7.65,12.38,1.8,12.6C119.71,270.38,117.21,256.78,122.68,257.6z M130.6,260.12
				c6.15-2.18,15.43,2.79,9.72,9c-2.85,0.63-5.29-0.81-8.64-0.72C132.65,265.4,131.48,262.37,130.6,260.12z M135.28,271.64
				c6.86,1.41,8.96-3.41,8.96-7.83c0-2-0.43-3.91-1.04-5.13c-1.78,0.26-5.06-0.88-7.56-1.08c0.03-10.68,0.63-18.81,1.68-28.41
				l-0.24-0.03c-1.75,7.37-2.99,20.39-2.52,28.8c-5.7,1.97-6.34-2.19-9.36-2.88c-11.01-2.51-8.95,13.2-4.32,17.64
				c6.55,0.58,7.5-4.52,12.96-1.44c0.55,4.53-0.63,7.77,0,14.04h0.72C134.85,280.98,135.56,275.37,135.28,271.64z"/>
			<path class="st10" d="M123.76,295.04c-4.43-0.3-7.55-4.75-5.4-9.36C123.26,281.58,129.27,292.13,123.76,295.04z M138.52,295.4
				c-3.3,0.96-6.17-0.82-9.36-1.08c0.44-2-0.06-3.32-0.36-5.4c3.49-0.07,5.38-0.29,8.28-0.36
				C137.74,291.43,138.76,292.05,138.52,295.4z M133.84,354.08c4.59,0.04,10.79-0.54,16.95-1.12l-0.13-1.46
				c-4.61,0.39-9.14,0.63-12.14,0.42c-1.94-0.14-5.09,0.5-5.4-1.08c1.73-1.67,4.32-0.35,6.48-0.36c4.78-0.01,9.97-0.57,14.55-0.57
				l-0.01-1.34c-6.99,0.04-14.65,0.41-20.66-0.97c0.78-8.16-1.45-18.77,1.44-24.84c3.04,0.4,4.58,0.39,7.2,0
				c2.88-6.9,2.08-13.93-8.28-12.6c0.61-4.19-0.05-9.65,1.44-12.96c2.37,0.06,3.81-0.07,5.04-0.36c0.77-2.35,1.77-4.47,1.44-7.92
				c-2.01-1.59-3.02-4.18-7.2-3.6h-0.72c-2.27-0.11-4.26,0.06-6.12,0.36c-2.15-4.19-11.08-5.29-12.6-0.36
				c-2.04,6.61,5.33,15.39,12.96,10.44c1.39,0.53,3.13,0.72,4.68,1.08c-0.57,4.24-0.17,9.43-1.08,13.32
				c-0.89,0.14-1.73,0.2-2.53,0.2l0.02,1.58c4.13-0.05,8.03,0.13,10.43,1.82c0.08,2.36-0.49,4.07-0.72,6.12
				c-2.14,1.31-5.09,0.98-7.91,0.53l-0.26,1.62c0.41,0.05,0.85,0.17,1.33,0.37c-0.51,9.44-1.8,15.12-0.72,25.2
				c-1.78,0.47-3.55,0.65-5.31,0.65l-0.01,1.44c1.95,0.02,3.76,0.07,4.96,0.07c0,0.48,0,0.96,0,1.44c-2.63,0.65-5.74,0.5-8.43-0.01
				l-0.24,1.33c3.38,0.61,6.76,1.24,9.75,1.56c-2.22,0.21-4.63,0.18-7.11,0.01l-0.11,1.52c6.02,0.44,12.03,0.8,17.68,0.87l0.02-1.41
				C139.65,355.07,136.78,354.8,133.84,354.08z"/>
			<path class="st10" d="M132.04,87.32c-5.1-0.54-9.17-2.11-10.08-6.84c2.47-1.64,7.25-4.72,9-4.68
				C128.06,79.41,129.76,85.05,132.04,87.32z M136.36,75.44c6.6,1.29,3.19,13.83-2.88,10.44C129.88,83.87,133.1,74.8,136.36,75.44z
				 M150.04,80.84c-4.4,0.4-5.5,4.1-10.08,4.32c1.93-2.3,1.76-7.35,0-9.72C144.27,76.29,147.84,77.88,150.04,80.84z M135.64,89.12
				c6.93-0.86,11.96-6.6,17.56-8.61l-0.28-0.75c-5.33-2.04-9.54-7.14-16.2-7.2c-7.2-0.07-13.52,5.48-17.64,9.72
				c2.93,6.12,8.06,13.31,16.2,11.88l0.09-0.54c-3.88-0.65-6.72-2.34-9.09-4.5C129.47,88.01,132.42,89.52,135.64,89.12z"/>
			<path class="st10" d="M42.76,155c-1.31-1.57-0.27-5.49-2.52-6.12c-4.35,0.79-2.35,5.46-3.96,7.92c-3-0.6-0.02-7.18-3.6-7.2
				c-3.18,0.56-1.42,4.87-3.24,6.12c-3.21-0.74-2.24-6.15-1.44-9C35.55,143.41,49.69,147.34,42.76,155z M48.16,118.28
				c1.1-0.58,0.52-2.83,2.52-2.52C50.4,116.93,48.74,118.6,48.16,118.28z M51.4,118.28c0.46,1.16,0.96,3.92-1.44,3.24
				C49.49,119.96,49.72,118.56,51.4,118.28z M153.64,358.76c0.78-0.04,1.54-0.07,2.26-0.11l-0.08-1.59
				c-4.51,0.19-9.14,0.16-13.7,0.26c-9.81,0.23-19.99,0.69-27.72-2.52c3.43,0.27,6.93,0.56,10.42,0.81l0.11-1.52
				c-5.52-0.39-11.38-1.48-16.29-2.17c0.87-1.66,3.92-0.89,5.4-0.72c2.61,0.29,5.44,0.8,8.25,1.32l0.24-1.33
				c-1.43-0.28-2.75-0.65-3.81-1.07c1.89-0.38,4.7-0.44,7.28-0.43l0.01-1.44c-5.87,0-11.66-1.92-17.37-1.01
				c-1.68-16.91-0.66-31.44,1.08-49.68c-0.9-8.82,1.8-18.33,2.52-27.36c1.32-16.68,2.77-33.42,9.58-47.54l-1.73-0.67
				c-1.63,3.4-3.18,7.01-4.97,10.77c-2.59,5.47-4.42,10.48-6.19,16.18l1.31,0.33c0.94-2.97,2.06-5.85,3.44-8.59
				c-0.26,6.08-3.04,11.8-4.32,18c-2.59,12.55-2.17,27.06-2.88,40.68c-0.2,3.78-1.58,7.25-1.8,10.8c-0.6,9.65,1.58,21.47-0.36,32.4
				c-3.2,18.09-21.68,29.62-41.4,22.68c-11.05-3.89-20.97-16-25.92-28.08c-4.92-12.01-7.71-27.51-9-42.48
				c-1.1-12.67-2.64-25.72-3.24-38.16c-0.66-13.59-2.15-29.35-1.8-44.28c0.39-16.39,5.33-34.47,5.4-52.92
				c1.72,0.06,3.36-1.83,3.96-3.96c1.25,4.6,6.15,4.09,7.2-0.36c-0.17,2.45,2.62,1.94,2.88,3.96c-0.4,6.37-0.25,13.28,0,20.88
				c0.09,2.81-0.55,5.89-0.36,9c0.18,2.98,0.88,6.04,0.72,9l0.31,0.02c0.13-1.85,0.26-3.66,0.41-5.42c0.24-2.94,1.28-5.85,1.44-8.64
				c0.37-6.68,0.31-11.95,0-18.72c-0.12-2.58-0.64-5.87-0.36-7.92c0.47-3.45,3.89-7.76,1.8-13.68c-1.74-0.1-2.89,0.79-4.32,0
				c2.92-10.31,13.71-14.57,11.88-28.44c9.75-1.03,24.05,2.18,29.88-3.6c0.67-5.46-4.68-9.1-7.92-5.4
				c-2.63-3.79-9.46-2.78-10.44,1.8c-1.93-2.99-3.56-6.28-9.36-5.4c-1.71,1.05-2.69,2.83-3.24,5.04c-0.25-0.04-0.45-0.12-0.62-0.24
				l-0.18,0.22c0.58,0.46,1.1,1.06,1.52,1.82c-0.16-2.53,0.92-5.58,2.88-6.12c5.31-1.45,7.6,3.93,9.36,6.48
				c0.57-3.63,2.83-6,6.12-5.4c2.83,0.51,2.02,3.64,4.68,4.32c-0.06-1.19,0.62-2.39,1.8-3.24c3.48,0.12,4.76,2.44,4.68,6.12
				c-8.97,5.49-25.05,1.38-37.08,2.88c-1.9-1.23-2.73-2.54-2.83-3.73l-0.43,0.05c0.19,2.13,1.58,4.07,4.34,4.4
				c-1.51,3.73-2.5,7.95-6.48,8.28c-0.34,0.03-0.67,0.03-1.01,0.01l-0.03,1.39c3.55,0.16,6.97-1.5,8.6-5.72
				c-0.25,1.45,0.34,2.06,0.36,3.24c0.26,1.06,2.54,0.1,2.52,1.44c-2.22,8.34-10.69,10.43-11.88,19.8
				c-2.29,0.13-8.22,0.93-10.44,1.08c0.45-6.76-4.18-9.42-7.2-12.6c-3.62-3.81-7.86-9.98-7.92-16.2c-0.02-1.58,0.04-3.69,0.23-5.9
				l-0.67-0.05c-0.31,4.48-1.2,9.33,0.8,14.59c1.01,2.66,3.1,7.02,4.68,8.64c2.54,2.62,10.42,5.15,8.64,11.88
				c-0.37,1.42-2.14,1.38-2.52,3.24c-0.34,1.68,0.55,2.94,0.72,4.68c1.56,15.98-1.18,32.14-3.24,45.36
				c-2.18,13.98-0.4,27.49-2.52,39.24c2.44,14.85,2.52,31.06,4.32,46.08c0.76,6.35,2.49,12.53,3.24,18.72
				c0.97,8.06,0.21,16.17,1.8,23.4c0.81,3.69,2.84,8.79,4.32,12.6c1.76,4.54,6.18,8.48,9,12.6c0.61,0.89,1.14,2.38,1.8,3.24
				c1.69,2.2,4.37,3.62,6.84,5.76c2.33,2.02,4.27,4.91,6.48,6.12c1.09,0.6,2.85,0.54,4.32,1.08c1.28,0.47,2.42,1.55,3.6,1.8
				c9.39,2.04,24.47-1.35,30.6-5.76c3.98-2.86,5.69-7.33,8.28-11.16c1.1,4.62,0.21,10.27,0.36,14.04c0.17,4.12,1.82,8.48,1.8,12.6
				c-0.01,1.84-1.05,3.58-1.08,5.4c-0.07,4.04,0.57,9.63,1.08,13.68c0.6,4.75-0.65,8.81-1.08,13.68c-0.85,9.69-0.61,19.36-1.44,28.8
				c-0.75,8.58-0.7,16.85-1.44,25.2c-0.12,1.41-0.31,2.8-0.54,4.19l1.74,0.31c0.71-4.01,1.44-8.03,2.04-12.06
				c1.21-8.11,1.64-16.66,2.52-24.84c0.63-5.9-0.13-12.06,0.36-18c0.53-6.53,1.38-12.76,1.44-19.08
				c0.12-11.78-1.74-23.35-1.44-34.92c3.38-0.15,6.8-0.02,10.24,0.26l0.11-1.52c-1.86-0.17-3.76-0.34-5.67-0.54
				c-1.51-0.15-4.34,1.03-5.04-1.44c0.45-1.19,0.94-1.02,2.16-1.08c2.63-0.13,6.47,1.32,9.72,1.8c3.26,0.48,6.51,1.13,9.72,1.44
				C136.87,360.52,145.94,359.1,153.64,358.76z"/>
			<path class="st10" d="M161.92,559.64c0.12-0.47,0.24-0.95,0.36-1.44l-1.54-0.36c-0.42,1.7-1.07,2.84-2.06,2.88
				c-4.85,0.2-1.65-15.32-3.96-18.36l-1.31,0.27c0.74,3.82,0.69,9.33,0.95,15.93c-3.25,2.58-15.53,7.73-13.32,14.4
				c1.44,4.35,13.49,2.03,15.48-1.08c1.28,1.63,0.54,3.21,2.52,3.6C164.34,576.52,165,563.27,161.92,559.64z"/>
			<path class="st10" d="M168.04,501.68c0.1,0.52,0.18,1.04,0.26,1.56l1.47-0.23c-0.39-2.31-0.72-4.67-1.01-7.09
				c-0.74-6.25,0.26-12.45-0.36-19.44c-0.46-5.17-1.59-10.01-1.8-14.76c-0.03-0.65-0.03-1.29-0.01-1.92l-2.15-0.06
				c-0.29,9.45-0.41,18.85,0.72,28.26C165.71,492.6,167.23,497.21,168.04,501.68z"/>
			<path class="st10" d="M169.48,360.92c0.44-0.11,1.24,1.04,0.36,1.08c-1.49,9.5-1.43,19.17-2.52,29.16
				c-1.42,12.97-3.01,28.04-2.52,42.12c0.31,8.89-0.09,17.7-0.36,26.46l2.15,0.06c0.12-4.01,1.03-7.73,1.09-11.76
				c0.07-4.93-0.75-9.95-0.36-15.12c0.76-10.24,2.77-20.74,3.6-31.68c1.09-14.29,1.4-27.85,2.52-43.92l-2.52-0.36
				c-0.61,2.8-4.18,1.77-6.12,2.16c-9.03,1.81-19.13,3.46-29.52,2.16c-5.27-0.66-10.68-1.11-16.29-1.62l-0.11,1.52
				c7.55,0.61,15.27,1.88,23.24,2.26C152.06,363.91,160.53,361.71,169.48,360.92z"/>
			<path class="st10" d="M168.3,503.24c0.66,4.54,0.66,8.92,1.18,13.56c0.95,8.5,6.27,16.76,6.84,25.92
				c-7.38-2.23-15.11-2.26-23.08-1.94l0.04,1.22c0.05,0.2,0.09,0.41,0.13,0.63l1.31-0.27c2.37-0.09,4.54,0.02,6.48,0.36
				c0.11,2.19,0.65,10.62-0.46,15.12l1.54,0.36c1.06-4.34,2.02-9.73,1.08-14.76c6.46-0.36,11.62,3.67,17.28,1.8
				c-3.49-12.31-8.22-26.04-10.87-42.23L168.3,503.24z"/>
			<path class="st10" d="M148.68,48.82c3.27,0.54,4.81,2.81,6.76,4.66C154.2,52.82,149.63,49.08,148.68,48.82z M166.6,60.68
				c0.44,2.08,0.87,4.17,1.8,5.76C166.95,65.61,166.14,62.23,166.6,60.68z M165.16,56.72c-0.14,1.36,1.71,2.59,0.72,3.6
				C165.67,59.41,164.28,56.39,165.16,56.72z M163.72,83.72c1.83,5.4,2.57,11.58,1.8,18.36C163.58,97.08,163.73,90.46,163.72,83.72z
				 M168.76,90.2c0.77,3.38,2.55,9.36,0.72,12.96C171.01,97.98,167.9,94.1,168.76,90.2z M171.19,115.14
				c-0.44-4-0.57-8.52,0.81-11.62c0.36,5.44,0.7,10.88-0.36,15.12l2.16,0.36l2.53-0.3c-0.41-3.23-0.64-6.47-0.37-9.78
				c0.14,0.85,0.29,1.7,0.44,2.55l2.59-0.44c-0.45-2.68-0.63-5.59-1.23-8.23c-0.7-3.06-2.21-5.71-2.52-9
				c-0.52-5.6,0.09-10.62-0.36-15.48c-0.83-8.95-4.1-20.09-8.28-26.28c-4.82-7.15-16.03-14.92-27.76-16.97l-0.32,1.85
				c0.49,0.83,2.71-0.07,2.88,1.08c-0.39,0.01-0.97-0.01-1.52-0.08l-0.18,1.7c2.85,0.29,5.27,1.02,7.1,2.34
				c-1.89-0.3-3.89-0.62-5.7-0.98l-0.37,1.81c0.1-0.03,0.21-0.07,0.31-0.11c2.03,1.58,6.56,2.56,7.2,4.32
				c-4.37-1.51-9.39-2.37-12.96-4.68h-0.71c0.05,0.11,0.05,0.22-0.01,0.36c-0.73-0.61-2.35-0.32-3.59-0.41l-0.11,1.05
				c2.78,0.29,5.5,0.62,7.3,1.88c-2.8-0.34-6.79-0.35-9.81-1.32l-0.5,1.47c0.2,0.07,0.4,0.14,0.59,0.21
				c-3.69,0.88-7.76,1.24-10.08,1.8l0.14,0.88c9.45-1.53,17.16-2.83,24.34,2v1.08c2.51,1.65,6.51,3.75,8.77,5.84l1.84-0.49
				c-1.77-1.75-3.6-3.61-5.21-4.99c-0.77-0.66-2.34-1.51-1.8-2.16c8.95,4.49,14.77,14.03,16.92,24.12
				c-0.62-2.42-1.66-4.43-2.78-6.36l-2.63,1.16c1.54,2.73,2.48,6.24,2.89,8.8c-0.45-1.71-1.1-3.22-1.81-4.67l-2.51,0.35
				c0.28,4.18,3.8,6.96,2.88,11.16c-0.46-0.59-0.85-1.35-1.19-2.2l-0.97,0.4c-0.06,2.83,1.16,5.49,1.31,8.08l1.29-0.09
				c-0.02-0.39-0.05-0.77-0.08-1.15c1.04,4.75,2.29,12.27,2,17.81l2.67,0.18c0.08-0.52,0.28-0.75,0.73-0.35l1.9-0.08
				c-0.09-2.52-0.04-5.11,0.26-7.84c0.46,5.23,1.58,10.84,2.24,16.47L171.19,115.14z M159.76,52.04c-0.21-1.36-2.59-2.44-1.8-3.6
				C158.27,49.7,160.64,50.78,159.76,52.04z M167.32,83.72c0.03-1.01-1.75-2.06-0.72-2.88C166.66,81.76,168.13,83.12,167.32,83.72z"
				/>
			<path class="st10" d="M151.48,190.28c2.08-3.32,5.93-4.87,9-7.2C158.57,186.57,155.17,188.57,151.48,190.28z M169.84,174.08
				c-1.86,3.42-4.21,6.35-6.84,9C165.28,180.31,167.81,175.89,169.84,174.08z M166.96,166.52c-1.12,7.7-4.37,14.4-10.08,16.92
				C162.13,179.69,163.6,172.16,166.96,166.52z M176.68,146.36c0.11-1.69-0.31-3.91,1.08-4.32
				C177.43,143.51,177.4,145.28,176.68,146.36z M166.96,172.64c1.65-8.55,4.32-16.08,7.56-23.04
				C173.03,158.31,171.64,167.12,166.96,172.64z M153.88,193.51c11.88-6.74,21.44-18.72,23.16-34.55
				c1.29-11.85,6.86-21.45,4.32-37.8c-0.43-2.77-1.49-5.79-2.16-9c-0.08-0.37-0.15-0.75-0.21-1.13l-2.59,0.44
				c1.69,9.81,3.62,19.4,1.36,29.13c1.11-7.8-0.56-14.84-1.43-21.9l-2.53,0.3c-0.13,10.56,2.59,21.64-1.08,30.24
				c0.28-3.05,0.35-6,0.36-8.95l-1.78-0.01c0,10.44-2.33,18.53-6.14,25.16c0.23-0.88,0.47-1.75,0.71-2.61l-1.55-0.43
				c-1.02,3.58-2.39,6.9-3.98,9.54l0.74,0.44c0.17-0.27,0.33-0.54,0.48-0.82c-1.92,5.88-5.27,10.33-8.64,14.76
				c0.12-0.42,0.25-0.84,0.39-1.24l-1-0.37c-1.51,4.41-6.36,6.86-10.12,7.71l0.45,1.82c2-0.61,4.09-0.89,5.6-1.08
				c-0.16,0.11-0.32,0.22-0.49,0.32l1.23,0.11c2.69-1.49,6.09-2.82,8.62-4.75c1.75-1.34,3.86-5.09,5.04-4.68
				c-2.72,2.81-5.66,6.3-9.31,8.36L153.88,193.51z"/>
			<path class="st10" d="M173.08,333.92c1.41,3.79,4.82,6.98,9.1,8.97l0.62-1.73c-1.36-0.45-2.58-1.06-3.6-1.84
				c-3.61-3.09-3.89-6.52-2.88-12.96c0.06-0.4,0.13-0.81,0.19-1.23l-1.27-0.21c-1.93-9.83-3.24-20.18-3.24-31.32
				c0-5.72,1.32-10.3,1.8-16.2c0.33-4.09,0.05-9.18-0.36-14.04c-0.53-6.28-1.14-13.08-2.9-19.1c-1.06-3.61-2.53-6.94-4.66-9.7
				c-3.67-4.76-12.12-3.57-15.84,1.08c-3.24,4.06-2.98,12.43-3.24,19.08c-0.01,0.16-0.01,0.32-0.02,0.48l1.32,0.04
				c0.1-2.33,0.26-4.56,0.5-6.64c0.92-8.09,4.1-18.28,13.32-14.4c4.41,1.86,7.98,17.12,8.64,26.28c0.47,6.51-1.07,9.8-1.44,14.76
				c-0.21,2.82,0.43,6.13,0.36,9.72c-0.31,15.17-0.25,28.99,2.16,41.04C172.22,328.91,172.45,332.21,173.08,333.92z"/>
			<path class="st10" d="M121.24,201.08c0.12-1.33,1.11-3.67,1.8-3.24C122.27,198.75,122.3,200.46,121.24,201.08z M127.36,196.04
				c0.32-2.81,4.32-3.83,5.76-4.32C130.91,192.87,129.78,195.1,127.36,196.04z M122.32,143.48c2.81-1.5,9.36-1.81,10.8,1.08
				c-3-0.87-6.69-0.2-9,0.72C123.55,144.65,122.47,144.53,122.32,143.48z M121.96,147.44c5.05,0.46,7.42-1.47,11.16-1.44
				C133.28,149.02,123.42,152.34,121.96,147.44z M134.56,188.84c-1.56,1.08-4.21,2.99-5.76,2.88
				C130.09,190.2,133.3,188.43,134.56,188.84z M136.36,223.04c0.4,1.92,0.43,3.52-0.72,4.68c-1.17-0.21-1.67,0.25-2.52,0.36
				c-4-1.77-10.95-16.17-2.52-15.84C132.12,215.97,128.95,223.79,136.36,223.04z M142.84,219.44c-1.56,0.72-3.77,0.79-5.76,1.08
				c-2.38-1.14-3.7-5.13-2.52-8.64c-0.74-0.19-0.09-1.7-1.08-0.72c1.57-4.3,0.55-8.83,1.44-12.6c3.71-0.01,6.28-1.15,9.72-1.44
				C144.03,203.6,144.39,212.16,142.84,219.44z M132.76,179.84c3.96,0.16,6.84-0.63,9.36-0.36c-2.75,2.77-5.98,5.06-9.72,6.84
				C132.9,184.54,132.75,182.11,132.76,179.84z M138.88,192.8c-0.87,1.66-3.75,3.21-5.4,2.88
				C135.53,194.97,137.23,193.91,138.88,192.8z M146.08,58.88c0.85,0.35,2.28,0.12,2.16,1.44C147.17,60.19,146.46,59.7,146.08,58.88
				z M153.28,174.08c-2.49,3.03-4.1,6.94-6.48,10.08c-3.83,1.45-6.65,3.91-10.44,5.4C141.72,184.12,147.85,179.45,153.28,174.08z
				 M148.96,210.44c7.66,4.45-0.65,16.54-7.56,18.36c-1.13-0.91-1.71-2.37-2.16-3.96c3.28-1.99,6.76-3.65,7.92-7.92
				C147.73,214.82,146.71,211.97,148.96,210.44z M150.4,65c-2.02-2.41,1.81,1.34,0.72,2.16C150.91,66.41,150.23,66.13,150.4,65z
				 M149.32,58.88c0.89,0.21,2.79,1.26,2.16,1.8C150.95,59.89,149.55,59.97,149.32,58.88z M155.08,76.52
				c-0.13-1.56-1.72-3.54-0.72-5.04C154.1,73.43,155.99,75.12,155.08,76.52z M159.04,169.76c-2.37,6.25-6.07,11.16-10.63,15.2
				c-5.09,4.55-11.25,8.01-17.81,11.08c3.67-6.36,12.4-6.66,17.52-11.41c0.16-0.15,0.32-0.31,0.48-0.47c1.26-1.3,2.1-3.66,3.24-5.4
				C154.22,175.14,156.64,172.21,159.04,169.76z M163,140.24c-0.29,5.11-0.05,10.76-1.8,14.4
				C162.47,150.51,161.81,144.45,163,140.24z M166.6,119.36c0.78,3.55,1.79,10.26,1.44,14.76
				C167.05,129.95,166.27,123.66,166.6,119.36z M165.16,152.12c0.19-9.69,0.05-19.5,0.36-28.44c0.08,4.44,1.3,11.38,2.16,15.48
				c0.52,0.8,0.88-0.45,1.08,0.36C167.95,142.17,167.93,148.69,165.16,152.12z M169.48,234.56c1.38,2.7,2.55,5.74,3.52,8.98
				c1.6,5.26,2.68,11.08,3.32,16.94c2.26,20.72,1.81,43.74-1.08,64.44l1.27,0.21c1.59-10.17,3.47-23.58,3.77-34.41
				c0.24-8.84-1.14-18.05-1.8-25.92c-1.86-22.36-8.67-38.82-23.76-50.04c-1.09-4.31-4.05-6.75-7.2-9c0.11-3.13,0.57-5.91,0.36-9.36
				c2.05-0.82,4.06-1.78,6-2.89l-0.55-0.99c-1.65,0.94-3.46,1.58-5.45,1.72c0.35-0.22,0.72-0.44,1.1-0.65l-1.23-0.11
				c-2.52,1.53-5.88,2.23-9.23,2.92c1.09-1,2.58-1.68,4.12-2.16l-0.45-1.82c-0.02,0.01-0.05,0.01-0.07,0.02
				c3.41-2.95,7.21-5.51,10.44-8.64c-0.07,0.31-0.15,0.62-0.25,0.91l1,0.37c1.77-5.05,5.21-8.43,7.77-12.7l-0.74-0.44
				c-0.75,1.23-1.55,2.32-2.38,3.22c3.29-6.07,4.9-13.82,7.92-20.16c-0.34,2.51-0.87,5.01-1.56,7.4l1.55,0.43
				c2.34-8.43,4.84-16.27,5.41-24.39c0.02,0.62,0.02,1.24,0.02,1.84l1.78,0.01c0.03-6.79-0.29-13.54,0.72-21.29l-2.16-0.36
				c-0.16-1.08-0.32-2.26-0.45-3.5l-1.63,0.17c0.57,4.9,0.79,9.8-0.08,14.49c-0.44-8.3-2.14-15.36-2.42-23.12l-1.9,0.08
				c-1.16,1.26,1.07,2.92-0.72,3.96c0.13-0.74-0.14-2.65-0.01-3.61l-2.67-0.18c-0.08,1.42-0.25,2.71-0.56,3.79
				c-0.61-7.14-0.9-13.89-1.36-20.45l-1.29,0.09c0.04,0.8-0.01,1.58-0.23,2.36c0.17-3.77-2.02-7.09-1.08-10.44l0.97-0.4
				c-1.11-2.77-1.62-6.55-1.69-8.96l2.51-0.35c-1.19-2.41-2.58-4.62-3.59-7.21c0.97,0.76,1.8,1.84,2.51,3.08l2.63-1.16
				c-1.43-2.48-3.01-4.81-4.06-7.68c-0.96-0.86-2-1.87-3.07-2.93l-1.84,0.49c0.89,0.83,1.51,1.65,1.67,2.44
				c-4.82-4.54-12.33-6.39-19.08-9c2.98,0.14,5.37,0.87,8.64,0.72v-1.08c-7.43-1.46-13.31-1.18-18.83-1.3l-0.03,1.22
				c0.31,0,0.6,0.03,0.86,0.08c-0.03,0.12-0.23,0.28-0.55,0.45l0.23,1.28c8.12-1.51,16.59,2.3,22.64,5.83
				c-4.08-1.16-9.18-2.58-14.38-3.85l-0.42,1.73c0.87,0.21,1.63,0.53,2.2,1.04c-1.11,0.07-2.05,0.1-2.91,0.03l-0.1,1.4
				c3.74,0.26,7.47,0.9,10.21,2.17c8.03,3.72,8.79,8.94,11.16,19.44l0.28,0.75c0.03-0.01,0.05-0.02,0.08-0.03
				c2.26,12.67,3.52,27.35,5.04,41.76c0.46,4.39,0.94,9.14,0.72,13.68c-0.77,15.7-2.02,28.34-9.72,37.08
				c-4.67,2.49-11.08,5.67-18.72,4.68c-4.89-0.63-10.94-10.79-10.8-18c0.05-2.72,1.44-5.51,1.44-8.28c7,2.04,10.6-1.46,14.04-3.24
				c1.93-0.99,4.89-0.59,3.96-3.24c-4.82-2.73-11.79-7.05-17.64-3.6l-1.44-0.03c-0.24,11.06-6.35,23.47,1.08,33.15
				c2.83,2.45,6.04,4.52,8.28,7.56c0.07,2-1.18,4.57-0.36,6.12c-5.52,3.85-10.27,10.36-10.8,18c4.87,1.18,5.88-5.88,11.52-6.12
				c0.14,1.88,0.05,5.56,0.36,9c-0.28,1.23-1.98-0.07-2.88,1.08c-2.98,3.52-5.19,7.54-7.27,11.91l1.73,0.67
				c0.71-1.46,1.47-2.9,2.3-4.3c0.02-0.22,0.05-0.43,0.36-0.36c1.11,6.76,5.41,13.77,12.6,11.16l0.24,0.03
				c0.04-0.36,0.08-0.74,0.12-1.11c7.46,8.03,14.16-6.01,17.28-11.16C159.91,222.33,165.8,227.33,169.48,234.56z"/>
			<path class="st10" d="M208.36,106.4c-1.06-0.38-2.39-0.49-3.24-1.08c1.56-1.56,3.64-2.6,6.12-3.24c4.93,5.82-0.28,16.2-2.52,21.6
				c-5.61,2.19-8.55-3.72-9.72-8.28c5.39,0.23,8.86-1.46,10.44-5.04C209.05,109.07,208.53,107.91,208.36,106.4z M195.04,116.84
				c1.17,0.39,0.59,2.53,0.72,3.96C194.77,120.57,193.59,117.17,195.04,116.84z M199.36,110.72c1.28-2.8,5.13-5.89,8.64-3.24
				c0.84,7.91-7.98,7.42-13.32,5.4c-2.76,2.43-10.98,0.64-11.52-2.88c-0.75-4.92,6.23-5.39,7.92-0.72
				C192.11,102.52,198.31,106.75,199.36,110.72z M200.08,102.44c-0.01-1.33,0.16-2.48,1.44-2.52c0.91,0.69,0.49,1.28,0.36,2.52
				C201.28,102.44,200.68,102.44,200.08,102.44z M215.2,148.52c3.54-1.05,7.65-1.23,11.47-1.33l-0.02-1.45
				c-4.11,0.09-8.07-0.48-12.17-0.1c-1.04-12.76-15.18-12.42-18.72-22.68c0.92-0.97,1.94-4.02,1.84-4.59
				c-0.01-0.03-0.03-0.06-0.04-0.09c0.02,0.01,0.04,0.04,0.04,0.09c1.68,3.65,4.41,8.43,8.96,8.19c2.26-0.12,5.35-4.01,6.48-7.2
				c1.83-5.17,4.75-19.18-1.8-20.16c-5.34-0.8-8.38,8.9-11.16,4.68c1.76,1.15,3.37-0.94,4.32-1.8c-0.67-1.72-0.51-2.29-1.44-3.96
				c5.66-6.73,18.15-0.51,19.44,5.76c0.98,4.76-2.03,9.42-1.08,11.52c8.69-9.41-2.28-24.29-12.24-22.32
				c3.03-1.32,6.5-3.56,9.26-2.74l0.27-1.14c-4.04-0.97-8.02-1.38-11.33,1.36c-0.67,0.77-0.96,1.92-1.08,3.24
				c-4.26,1.98-7.41,5.07-9,9.72c0.35,2.78,5.21,3.02,2.88,5.4c-2.14,0.6-2.63-4.16-5.4-4.32c-1.58-0.09-2.69,0.91-3.6,2.88
				c-3.45-4.82-10.67-1.2-8.28,3.96c1.19,2.57,5.88,2.24,9,3.6c0.9,9.1,3.78,14.01,9.72,18.72c3.74,2.97,9.88,4.43,10.08,11.16
				c0.11,3.65-3.3,8.89-0.72,13.68c1.84,0.8,2.7,2.58,5.4,2.52c-1.62,31.23,0.07,64.23-2.52,99c-0.37,4.96-0.69,10.16-0.36,14.76
				c0.45,6.18,1.95,12.1,2.16,17.64c0.6,15.84-0.36,32.43-7.56,43.56c-3.26,5.05-16.81,7.93-25.2,5.08l-0.62,1.73
				c2.93,1.36,6.26,2.15,9.62,2.19c18.23,0.19,24.2-14.59,27.36-29.88c0-0.71-0.98-0.46-0.72-1.44c1.6-7.18,0.38-15.3,0-23.4
				c-0.53-11.38,0.86-23.53,0-34.2c-0.18-2.28-1.07-4.57-1.08-6.84c-0.01-1.96,0.67-3.8,0.72-5.76c0.67-26,0.36-48.12,0.36-75.24
				c0-3.78-1.16-8.29,1.8-10.44c1.12,0.7,1.73,1.66,2.48,2.36l1.12-1.28c-2.17-1.3,0.34-7.3-3.24-7.2c-2.23,2.21-1.6,7.28-6.48,6.84
				C212.63,155.46,213.78,150.91,215.2,148.52z"/>
			<path class="st10" d="M222.72,160.24c0.68,0.65,1.49,1.08,2.92,0.88c2.49-0.34,2.74-2.57,3.6-5.04c0.54,0.43,0.95,0.91,1.26,1.42
				l1.62-0.7c-1.18-2.8,0.21-7.18-3.24-8.28c-4.81,1.78,0.17,9.21-5.04,10.44L222.72,160.24z"/>
			<path class="st10" d="M231.04,165.8c-0.16,3.43-0.25,7.01,0,10.44c0.03,0.48,0.07,0.96,0.1,1.44l2.8-0.19
				c-0.04-0.79-0.05-1.57-0.02-2.33c0.23-5.74,2.78-11.67,2.16-16.56c1.75-1.61,2.32-3.79,2.53-6.16l-2.15-0.21
				c-0.3,2.44-1.69,4.68-4.34,4.57l-1.62,0.7C231.96,159.94,231.16,163.17,231.04,165.8z"/>
			<path class="st10" d="M233.94,177.49l-2.8,0.19c0.92,14.01,0.65,28.97,2.78,43.92c0.55,3.88,1.47,7.78,2.29,11.68l2.59-0.54
				c-0.43-1.96-0.81-3.96-0.92-6.1c-0.46-8.26-1.59-15.44-2.52-23.4c-0.55-4.72-0.08-10.08-0.36-15.12
				C234.8,184.44,234.11,180.85,233.94,177.49z"/>
			<path class="st10" d="M234.64,146.72c1.44,0.85,2.09,3.26,1.82,5.51l2.15,0.21c0.2-2.08,0.12-4.31,0.35-6.44
				c-0.84-0.97-2.49-1.13-4.35-1.09L234.64,146.72z"/>
			<path class="st10" d="M188.92,358.04c-9.17-0.55-16.62-4.73-23.04-8.28c-8.5-8.83-14.05-24.97-15.12-39.6
				c-0.12-1.65,0.56-3.95,0.36-6.48c-0.41-5.12-2.19-12.34-2.52-19.8c-0.41-9.33-0.89-19.73-0.5-28.64l-1.32-0.04
				c-0.11,2.79-0.18,5.68-0.22,8.63c-0.15,11.07,0.16,23.04,0.96,34.09c1.54,21.15,4.82,39.02,12.96,50.76
				c-2-0.11-4.14-0.13-6.34-0.11l0.01,1.34c2.31,0,4.46,0.14,6.33,0.57c-2.91,0.34-6.39,0.72-9.82,1.02l0.13,1.46
				c4.98-0.46,9.94-0.92,14.01-1.04c0.08,0.45,0.56,0.74-0.36,0.72c-8.01,0.83-14.97,2.43-21.92,2.43l-0.02,1.41
				c3.52,0.05,6.9-0.02,10.06-0.24c5.87-0.41,13.06-4.05,16.2-0.72c-4.05,0.96-8.43,1.36-12.94,1.54l0.08,1.59
				c5.81-0.27,9.91-0.58,15.02-1.69l2.52,0.36c8.54,2.91,15.12,7.56,25.92,6.48c6.45-0.65,12.2-4.81,16.56-8.64
				c9.33-8.19,17.16-19.36,20.88-33.84c4.18-16.24,2.47-34.92,3.24-51.84c0.43-9.48,1.5-21.24,0.36-29.16
				c-0.37-2.58-1.04-5.05-1.6-7.58l-2.59,0.54c0.83,4.01,1.56,8.04,1.67,12.08c0.39,14.47-1.13,29.82-1.44,43.2
				c-0.17,7.56,0.17,14.78-1.08,21.24c-1.24,6.44-2.16,12.02-4.32,17.64c-5.35,13.93-12.24,23.7-24.48,29.88
				c-3.47,0.75-6.94-0.12-10.44,0C193.74,357.4,191.5,358.2,188.92,358.04z"/>
			<path class="st10" d="M240.76,92c-1.74-0.11-1.25-3.72,0-3.96C241.07,88.75,242.42,91.65,240.76,92z M224.56,92.72
				c5.62,2.42,8.48,7.6,10.8,13.32c0.58-0.5,1.86-0.3,2.16-1.08c-0.23-3.27,1.31-8.09,0.72-12.24c-0.25-1.73-3.32-5.52,0.36-5.4
				c-0.71,1.27-0.97,7.67,2.88,6.12c1.33,19.16-11.29,31.65-10.08,51.84c-1.61,0.3-3.19,0.43-4.75,0.46l0.02,1.45
				c0.74-0.02,1.47-0.03,2.18-0.05c2.14-0.06,4.13-0.15,5.79-0.42l-0.03-1.81c-0.23,0-0.46,0-0.69,0.01
				c-0.04-10.36,2.17-18.14,5.76-27.36c2.84-7.28,3.74-15.56,4.32-23.04c0.16-2.01,0.4-5.32-0.36-7.2
				c-1.39-3.44-7.6-4.73-10.44-1.44c0.99,5.92,1.92,9.86,2.16,16.2c-0.57-0.75-0.93-1.48-1.44-2.52c-2.37-3.27-4.62-6.66-8.28-8.64
				c-2.29-0.42-4.67-1.16-7.03-1.72l-0.27,1.14c0.41,0.12,0.81,0.31,1.18,0.58c4.99,3.58,8.83,10.71,9.72,17.28c0.6,0,1.2,0,1.8,0
				C230.43,101.49,228.04,96.57,224.56,92.72z"/>
		</g>
		<g>
		</g>
	</g>
</g>
<g id="Layer_2">
	<path class="st5" d="M220.22,183.18c4.07,0.53,8.61,0.5,11.52-1.08c0.65-1.6,0.77-3.02-0.36-4.32c-2.98,1.24-3.29-0.94-6.12,0
		C222.24,174.44,217.76,179.9,220.22,183.18z"/>
	<path class="st5" d="M30.3,177.06c-5.18,6.61,12.07,11.27,10.44,1.44c-0.63-1.27-3.18-2.18-3.96-0.36c-1.33-0.56-2.61-1.67-3.6,0
		C31.83,178.17,32.09,176.59,30.3,177.06z"/>
	<path class="st5" d="M34.82,197.58c-1.13,0.17-0.95-0.97-1.8-1.08c-0.9-0.06-1.13,0.55-1.44,1.08c-2.31-2.33-6.59-0.12-6.12,3.6
		c3.17,1.41,8.79,2.06,12.6,0.72C40.72,199.61,37.43,194.16,34.82,197.58z"/>
	<path class="st5" d="M226.14,205.14c-0.69-0.15-0.28-1.4-1.44-1.08c-5.03,4.97,2.1,8.4,8.28,7.56c1.63-1.48,0.74-3.9,0.72-6.48
		C231.3,203.53,228.14,203.26,226.14,205.14z"/>
	<path class="st5" d="M31.46,223.5c-0.79-0.41-1.2-1.2-2.16-1.44c-8.07,5.01,4.81,8.29,10.8,6.12c-0.05-2.96,0.93-5.17-1.44-6.12
		c-1.69-0.37-2.05,0.59-2.88,1.08C34.44,221.12,32.72,221.95,31.46,223.5z"/>
	<path class="st5" d="M220.94,224.22c-1.52,1.87-3.44,3.5-2.52,6.84c5.32,3.55,16.13-2,9.72-6.84
		C224.74,225.21,224.48,223.89,220.94,224.22z"/>
	<path class="st5" d="M26.38,244.74c-0.75-0.93-2.04-1.32-3.96-1.08c0,1.32,0,2.64,0,3.96c2.11,3.98,13.01,4.68,15.84,0.72
		c0.15-1.95-1.2-2.4-1.44-3.96C32.91,246.27,29.02,241.58,26.38,244.74z"/>
	<path class="st5" d="M128.05,241.39c-0.95-0.25-0.76-1.64-1.8-1.8c-1.04,0.16-1.64,0.76-1.8,1.8c-1-0.68-1.2-2.16-3.24-1.8
		c-1.73,0.67-2.6,2.2-3.6,3.6c1.61,3.73,14.72,5.78,15.84,0.72C134.13,240.81,130.46,237.2,128.05,241.39z"/>
	<path class="st5" d="M153.26,252.66c-0.68,8.57,18.72,6.26,14.4-1.8C163,250.94,156.78,247.35,153.26,252.66z"/>
	<path class="st5" d="M235.7,251.58c-1.79-0.11-2.91,0.45-3.6,1.44c-0.91-0.16-0.6-1.56-1.44-1.8c-1.73-0.17-2.36,0.76-3.24,1.44
		c-2.34-4.35-8.04,0.27-5.04,4.32C226.82,259.99,238.77,258.74,235.7,251.58z"/>
	<path class="st5" d="M154.7,272.82c-0.63-0.33-0.66-1.26-1.08-1.8c-5.4-0.04-5.98,3.29-5.76,8.28c5.64,2.11,16.62,0.32,15.84-5.4
		c-0.57-4.16-4.59-1.64-7.2-2.52C155.92,271.88,155.36,272.4,154.7,272.82z"/>
	<path class="st5" d="M30.14,274.62c-2.31,0.81-4.31,1.93-3.96,5.4c4.95,2.09,17.1,1.29,11.52-4.68c-2.68,1.89-3.6-2.11-5.4,0.36
		C31.23,275.7,31.08,274.77,30.14,274.62z"/>
	<path class="st5" d="M229.74,278.22c-1.51,0.07-1.11-1.77-2.88-1.44c-4.75,4.65,1.46,10.97,9,9c2.72-1.42,3.12-8.35,0-9
		c-1.78-0.37-1.16,1.4-2.52,1.44C232.79,278.24,230.28,275.56,229.74,278.22z"/>
	<path class="st5" d="M161.34,296.94c-0.87,0.81-1.92,1.44-2.52,2.52c-1.02-0.3-0.99-1.65-2.16-1.8
		c-7.21,5.88,3.34,11.33,10.8,10.44c3.56-3.26,3.71-11.48-0.72-11.52C164.06,296.56,163.97,300.22,161.34,296.94z"/>
	<path class="st5" d="M230.66,304.86c-2.06,1.59-3.27-0.28-5.4,1.08c-0.74-0.1-0.72-0.96-1.08-1.44
		C214.19,312.15,238.9,314.38,230.66,304.86z"/>
	<path class="st5" d="M162.62,325.02c-0.51-0.69-1.11-1.29-1.8-1.8c-1.72,1.34-2.29,0.03-3.96-0.36c-5.24,3.29,0.82,10.18,5.76,9
		c2.41-0.58,2.13-3.74,4.68-4.68C168.69,322.65,163.28,321.54,162.62,325.02z"/>
	<path class="st5" d="M225.26,326.82c-2.37,1-3.22,3.1-5.04,0.36c-1.58,0.73-2.73,1.15-4.32,1.08c-0.51,1.61,0.97,3.08,0,3.96
		c3.61,4.69,19.51,1.64,13.32-5.4c-0.76,0.32-1.6,0.56-2.16,1.08C226.25,327.75,225.91,327.13,225.26,326.82z"/>
	<path class="st5" d="M39.14,331.86c0.39,4.76,6.88,3.43,11.52,3.96c0.95-0.94,2.01-2.56,1.08-4.32
		C47.41,330.8,41.92,329.2,39.14,331.86z"/>
	<path class="st5" d="M126.46,341.02c1.11-1.72,0.7-3.99-0.72-5.04c-1.22-0.14-1.54,0.62-2.16,1.08c-1.39-0.05-1.42-1.46-2.52-1.8
		c-1.82-0.27-2.12,2.12-2.88,2.16c-1,0.05-5.76-5.69-6.48,0C111,343.01,120.72,343.34,126.46,341.02z"/>
	<path class="st5" d="M148.38,332.02c-2.33,0.17-3.32,0.49-4.68-0.72c-2.83,1.35-5.88-1.76-6.12,2.16
		C137.2,339.66,152.62,338.24,148.38,332.02z"/>
	<path class="st5" d="M167.3,343.74c-0.29,4.58,3.85,6.49,7.92,5.76c1.7-0.3,2.58-2.46,4.32-1.8c0.73-1.56,0.33-3.84-0.72-4.68
		c-2.15-0.35-2.93,0.67-3.96,1.44c-0.92-0.03-0.51-1.41-1.44-1.44c-1.06,0.02-1.34,0.82-1.8,1.44
		C170.71,342.71,168.61,341.4,167.3,343.74z"/>
	<path class="st5" d="M209.78,348.93c-1.37-0.07-1.37-1.51-2.88-1.44c-1.24,0.08-1.57,1.07-1.8,2.16c-1.52-0.4-1.91-1.93-4.32-1.44
		c-5.07,7.84,14.48,6.7,14.04,1.44C214.59,346.86,211.41,346.97,209.78,348.93z"/>
	<path class="st5" d="M86.9,357.02c-0.73-1.04-2.61-1.54-3.24,0c-1.37-0.07-1.37-1.51-2.88-1.44c-1.17,1.21-0.67,3.69,0.36,4.68
		c3.59,0.65,9.79,0.86,9.72-2.52C90.83,356.44,88.31,354.26,86.9,357.02z"/>
	<path class="st5" d="M60.62,358.46c-0.88-0.69-1.9-1.46-3.24-0.72c-0.3,0.9-0.47,1.93-0.36,3.24c3.27,2.43,10.94,2.18,15.12,0.72
		c0.2-2-0.07-3.54-1.44-3.96c-2.21,1.96-3.69-1.15-5.76,1.08C63.46,358.06,61.92,356.54,60.62,358.46z"/>
	<path class="st5" d="M141.38,381.18c-1.88-3.4-7.33-0.18-5.4,3.6c1.88,3.68,18.24,5.37,22.68,1.8c1.24-2.25,0.49-5.11-1.8-5.76
		c-1.83-0.15-2.1,1.26-3.24,1.8c-1.13-0.55-1.1-2.26-2.52-2.52c-2.24-0.08-2.75,1.57-3.6,2.88
		C146.29,381.38,142.82,377.2,141.38,381.18z"/>
	<path class="st5" d="M140.62,408.54c0.21-3.93-1.86-5.58-4.32-6.84c-1.14,0.06-2.15,0.25-2.16,1.44c-2.02-0.89-2.12-2.1-3.96-2.16
		c-1.57-0.05-1.4,1.65-2.52,1.8c-1.7,0.23-1.85-2.54-3.96-1.8c-1.18,0.5-2.39,0.97-2.88,2.16c-2.83-5.56-9.15,0.75-8.28,5.04
		C114.15,416.12,135.34,411.3,140.62,408.54z"/>
	<path class="st5" d="M137.78,427.26c-8.71,11.96,30.33,14.47,19.44,0.72c-1.48,0.2-2.18,1.18-2.88,2.16
		c-0.87-0.57-1.19-1.69-2.16-2.16c-1.71,0.33-3.16,0.92-3.6,2.52c-1.27-0.41-1.32-2.04-2.52-2.52c-1.59,0.08-2.57,0.79-2.88,2.16
		C141.07,429.5,141.24,426.57,137.78,427.26z"/>
	<path class="st5" d="M142.1,463.62c0.73-1.16,1.81-3.85,0.36-5.04c-1.53-0.09-2.85,0.03-3.24,1.08c-0.91-2.52-4.93-1.3-5.76,0.36
		c-1.1-0.46-0.96-2.16-2.52-2.16c-1.87-0.07-2.68,0.92-3.24,2.16c-1.37-0.43-1.15-2.45-2.52-2.88c-2-0.2-2.35,1.25-3.24,2.16
		c-1.02-3.55-7.05-3.79-6.48,0.72C116.13,465.29,136.29,467.31,142.1,463.62z"/>
	<path class="st5" d="M153.26,489.54c-1.02-0.3-0.99-1.65-2.16-1.8c-1.47,0.33-2.5,1.1-2.88,2.52c-1.57-0.23-1.73-1.87-3.24-2.16
		c-1.7-0.02-1.84,1.52-2.88,2.16c-0.8-1.84-3.9-3.57-6.12-1.8c-0.23,8.97,22,10.38,21.6,2.16
		C157.46,488.02,154.61,486.42,153.26,489.54z"/>
	<path class="st5" d="M120.1,506.5c-1.42-0.15-1.54-1.58-2.88-1.8c-1.22-0.02-1.56,0.84-2.16,1.44c-1.51-0.84-3.04-2.1-5.04-1.44
		c-2.1,10.04,16.61,9.16,24.48,6.48c1.31-1.72,1.75-4.08,0.36-6.12c-2.04-0.24-3.06,0.54-3.6,1.8c-1.58,0.14-0.94-1.94-2.16-2.16
		c-1.78,0.14-2.86,0.98-3.6,2.16C124.64,504.19,121.28,503.74,120.1,506.5z"/>
	<path class="st5" d="M136.7,526.58c-1.16,0.91-1.99,3.15-1.08,5.04c6.79,3.36,19.82,5.94,26.64,1.08c0.67-1.85,1-3.72-0.36-5.4
		c-2.42-0.38-3.04,1.04-4.32,1.8c-0.78-0.54-0.84-1.8-2.16-1.8c-1.47,0.33-2.6,1-3.24,2.16c-1.03-0.65-1.49-1.87-2.88-2.16
		c-1.28-0.08-2.16,0.24-2.52,1.08c-1.31-1.24-4.29-2.24-5.76-0.36C139.85,527.28,138.9,526.3,136.7,526.58z"/>
</g>
</svg>
