<?xml version="1.0" encoding="utf-8"?>
<!-- Generator: Adobe Illustrator 27.5.0, SVG Export Plug-In . SVG Version: 6.00 Build 0)  -->
<svg version="1.1" id="Layer_1" xmlns="http://www.w3.org/2000/svg" xmlns:xlink="http://www.w3.org/1999/xlink" x="0px" y="0px"
	 viewBox="0 0 513.62 367.31" style="enable-background:new 0 0 513.62 367.31;" xml:space="preserve">
<style type="text/css">
	.Arched_x0020_Green{fill:url(#SVGID_1_);stroke:#FFFFFF;stroke-width:0.25;stroke-miterlimit:1;}
	.st0{fill:#0A2B39;}
	.st1{fill:#A3B6B9;}
	.st2{fill:#C1D4D6;}
	.st3{fill:#E4EEEF;}
	.st4{fill:#C7B299;}
	.st5{fill:#8AAAD0;}
	.st6{fill:#70706F;}
	.st7{fill:#E42527;}
	.st8{fill:#999999;}
</style>
<linearGradient id="SVGID_1_" gradientUnits="userSpaceOnUse" x1="-401.8596" y1="590.5637" x2="-401.1526" y2="589.8566">
	<stop  offset="0" style="stop-color:#259E2E"/>
	<stop  offset="0.9831" style="stop-color:#1C381D"/>
</linearGradient>
<g id="XMLID_00000083775382319457592800000004075365144749131193_">
	<path class="st0" d="M497.95,89.51c0.24,9.48,3.29,20.34,3.24,30.96c-0.11,22.88-1.73,45.62-4.32,64.44
		c-0.5,3.67-0.55,7.49-1.08,11.16c-2.25,15.65-3.08,37.38-1.44,54.72c1.29,13.59,2.5,27.63,0.72,40.68c-0.35,2.57-1.5,5.03-1.8,7.56
		c-1.5,12.53,1.68,24.87,1.08,37.8c-3.49,2.32-8,2.68-12.24,3.6c-12.32,2.68-26.7,4.05-40.68,6.84c-4.34,0.87-8.38,2.63-12.6,3.24
		c-4.41,0.64-8.95,0.39-13.68,0.72c-9.25,0.65-18.53,2.44-28.08,2.16c-24.43-0.72-48.22-1.63-70.8-6.67l0.6-2.69
		c8.78,1.98,19.06,2.84,29.68,3.6c4.83,0.35,9.73,0.68,14.6,1.08c46.22,3.83,91.35-4.77,127.44-17.28
		c-0.09-11.76,0.86-23.05,0.72-34.2c-0.34-27.59-3.08-54.58-0.72-81.36c0.59-6.67,1.16-13.21,2.16-19.8
		c0.99-6.55,2.85-13.25,3.24-19.8c0.83-13.79,0.3-27.79,0.36-42.12c0.03-7.26,1.61-14.61,1.44-21.96c-0.07-2.86-0.63-5.91-0.72-9
		c-0.26-9.35-0.88-19.14-2.16-28.08c-1.81-12.66-0.61-25.39-1.8-38.16c-19.81-3.53-38.29-14.16-60.84-17.28
		c-3.33-0.46-6.92-0.04-10.44-0.36c-3.55-0.32-6.95-1.25-10.44-1.44c-8.49-0.45-17.6,0.14-26.64,1.08
		c-9.72,1.02-19.79,0.23-29.16,1.08c-3.65,0.33-7.3,0.81-10.94,1.37l-0.25-1.6c4.08-0.61,8.19-1.37,12.27-1.93
		c11.06-1.53,22.2-1.21,33.12-1.8c5.12-0.27,9.78-1.72,14.76-1.8c4.81-0.08,9.83,0.41,14.76,0.72c28.74,1.81,56.37,9.32,77.76,19.44
		C497.72,52.55,497.5,71.62,497.95,89.51z"/>
	<path class="st1" d="M495.79,112.19c0.17,7.35-1.41,14.7-1.44,21.96c-0.06,14.33,0.47,28.33-0.36,42.12
		c-0.39,6.55-2.25,13.25-3.24,19.8c-1,6.59-1.57,13.13-2.16,19.8c-2.36,26.78,0.38,53.77,0.72,81.36
		c0.14,11.15-0.81,22.44-0.72,34.2c-36.09,12.51-81.22,21.11-127.44,17.28c-4.87-0.4-9.77-0.73-14.6-1.08l0.08-1.04
		c15.53,1.18,31.76-0.32,48-1.48c8.14-0.58,15.64-0.32,22.68-1.08c19.17-2.08,41.23-7.3,60.48-14.04
		c-1.74-19.72-3.04-47.25-2.52-69.12c0.44-18.4,2.73-35.59,3.6-52.92c0.29-5.77,0.03-11.84,0.36-18
		c1.01-18.52,3.39-41.25,4.68-62.64c1.67-27.64-1.72-55.91-3.6-83.88c-14.34-6.02-29.53-13.38-46.8-16.2
		c-9.03-1.48-17.77-3.07-27-3.96c-9.16-0.88-18.62-0.77-28.8-0.72c-18.88,0.1-37.96,1.23-55.08,6.12
		c-11.62,3.32-23.05,6.13-33.13,10.36c-4.64,1.94-8.99,4.19-12.95,6.92c-0.43,0.5-0.14,0.03,0-0.36
		c11.73-10.43,28.63-17.16,47.88-20.88c6.07-1.17,12.14-2.36,18.22-3.31c3.64-0.56,7.29-1.04,10.94-1.37
		c9.37-0.85,19.44-0.06,29.16-1.08c9.04-0.94,18.15-1.53,26.64-1.08c3.49,0.19,6.89,1.12,10.44,1.44c3.52,0.32,7.11-0.1,10.44,0.36
		c22.55,3.12,41.03,13.75,60.84,17.28c1.19,12.77-0.01,25.5,1.8,38.16c1.28,8.94,1.9,18.73,2.16,28.08
		C495.16,106.28,495.72,109.33,495.79,112.19z"/>
	<path class="st0" d="M480.31,43.43c1.88,27.97,5.27,56.24,3.6,83.88c-1.29,21.39-3.67,44.12-4.68,62.64
		c-0.33,6.16-0.07,12.23-0.36,18c-0.87,17.33-3.16,34.52-3.6,52.92c-0.52,21.87,0.78,49.4,2.52,69.12
		c-19.25,6.74-41.31,11.96-60.48,14.04c-7.04,0.76-14.54,0.5-22.68,1.08l-0.07-1.22c13.27-0.8,26.21-2.2,38.23-4.54
		c7.41-1.44,13.79-3.86,20.52-6.12c6.95-2.33,14.46-2.97,20.16-6.84c1.21-16.88-4.41-32.81-3.6-49.32
		c0.42-8.53-0.15-16.78,0.36-25.2c0.48-7.86,1.88-15.69,2.88-23.76c1.02-8.18,1.44-16.37,1.8-24.48c0.37-8.25-0.78-16.41-0.72-24.48
		c0.05-6.96,1.04-14.19,1.8-20.88c0.92-8.08,3.53-15.68,3.96-23.4c0.38-6.75-0.43-14.11-0.72-21.6c-0.31-7.98-0.26-15.99-1.08-23.4
		c-0.85-7.66-0.82-15.47-1.44-23.04c-0.58-7.19-0.6-14.37-0.36-21.24c-13.02-5.68-27.05-11.78-43.56-14.76
		c-17.85-3.23-40.73-3.89-61.7-4.34c-5.4-0.11-10.67-0.21-15.7-0.34c-17.69-0.45-33.31,4.9-47.88,9c-6.05,1.7-11.92,3.52-17.24,5.74
		l-0.77-1.86c10.08-4.23,21.51-7.04,33.13-10.36c17.12-4.89,36.2-6.02,55.08-6.12c10.18-0.05,19.64-0.16,28.8,0.72
		c9.23,0.89,17.97,2.48,27,3.96C450.78,30.05,465.97,37.41,480.31,43.43z"/>
	<path class="st2" d="M479.23,113.27c0.29,7.49,1.1,14.85,0.72,21.6c-0.43,7.72-3.04,15.32-3.96,23.4
		c-0.76,6.69-1.75,13.92-1.8,20.88c-0.06,8.07,1.09,16.23,0.72,24.48c-0.36,8.11-0.78,16.3-1.8,24.48c-1,8.07-2.4,15.9-2.88,23.76
		c-0.51,8.42,0.06,16.67-0.36,25.2c-0.81,16.51,4.81,32.44,3.6,49.32c-5.7,3.87-13.21,4.51-20.16,6.84
		c-6.73,2.26-13.11,4.68-20.52,6.12c-12.02,2.34-24.96,3.74-38.23,4.54c-3.44,0.2-6.9,0.37-10.37,0.5
		c-16.8,0.63-32.94-1.66-48.6-3.6c-12.94-1.6-25.31-3.49-36.04-7.39c-2.48-0.91-4.87-1.91-7.16-3.05c-0.55-0.19-0.02-0.38,0.36-0.36
		c4.66,1.16,9.76,2.55,15.14,3.89c11.26,2.82,23.7,5.46,35.62,5.47c6.85,0.01,13.77-0.82,20.88-0.72c14.9,0.22,30.12-0.38,43.2-1.8
		c6.31-0.68,12.33-3.02,18.36-4.68c2.4-0.66,4.8-1.27,7.18-1.86c10.33-2.57,20.32-4.74,29.18-8.94c-1.7-14.23-4.19-25.36-3.96-42.48
		c0.05-3.88-0.41-7.73-0.36-11.16c0.1-7.38-0.25-15.7,0.36-24.12c1.31-18.02,5.47-35.42,8.28-52.92c1.38-8.57,1.68-17.75,2.16-26.64
		c0.47-8.8,1.57-17.62,2.16-26.28c0.36-5.31,0.99-10.83,1.08-16.2c0.1-6.2-1.79-12.48-1.8-18.72c-0.03-17.85,1.25-36.13-0.72-55.44
		c-2.91-1.07-5.88-2.11-8.92-3.09c-10.08-3.3-20.82-6.09-31.76-8.07c-4.61-0.83-9.3-1.69-14.06-2.5
		c-14.03-2.41-28.67-4.49-43.74-4.82l0.06-2.42c20.97,0.45,43.85,1.11,61.7,4.34c16.51,2.98,30.54,9.08,43.56,14.76
		c-0.24,6.87-0.22,14.05,0.36,21.24c0.62,7.57,0.59,15.38,1.44,23.04C478.97,97.28,478.92,105.29,479.23,113.27z"/>
	<path class="st0" d="M470.23,102.83c0.01,6.24,1.9,12.52,1.8,18.72c-0.09,5.37-0.72,10.89-1.08,16.2
		c-0.59,8.66-1.69,17.48-2.16,26.28c-0.48,8.89-0.78,18.07-2.16,26.64c-2.81,17.5-6.97,34.9-8.28,52.92
		c-0.61,8.42-0.26,16.74-0.36,24.12c-0.05,3.43,0.41,7.28,0.36,11.16c-0.23,17.12,2.26,28.25,3.96,42.48
		c-8.86,4.2-18.85,6.37-29.18,8.94l-0.57-2.29c9.82-2.4,19.17-5.1,26.15-9.89c-3.81-21.1-5.28-44.71-4.32-64.44
		c0.51-10.37-0.07-20.94,1.08-30.96c0.05-0.4,0.1-0.81,0.15-1.21c0.82-6.09,2.56-12.42,3.81-18.23c1.48-6.89,2.16-13.47,2.88-20.52
		c1.41-13.71,3.33-27.59,4.32-42.12c0.34-5-0.78-9.98-0.72-15.12c0.07-6.25,1.12-12.63,1.08-19.08c-0.04-6.78-0.38-13.58-0.36-20.52
		c0.01-1.85,0.05-3.71,0.12-5.57c0.39-10.74,1.44-21.55-0.84-31.15c-1.86-1.28-3.86-2.24-5.95-2.98l0.63-1.91
		c3.04,0.98,6.01,2.02,8.92,3.09C471.48,66.7,470.2,84.98,470.23,102.83z"/>
	<path class="st3" d="M466.99,106.43c0.04,6.45-1.01,12.83-1.08,19.08c-0.06,5.14,1.06,10.12,0.72,15.12
		c-0.99,14.53-2.91,28.41-4.32,42.12c-0.72,7.05-1.4,13.63-2.88,20.52c-1.25,5.81-2.99,12.14-3.81,18.23l-2.84-0.41
		c1.49-10.37,3.69-20.78,4.13-31.5c0.61-14.97,2.49-29.72,3.6-44.64c1.14-15.28,0.63-30.49,2.16-45.72
		c0.63-6.34,1.09-12.67,1.31-18.99l2.77,0.1c-0.07,1.86-0.11,3.72-0.12,5.57C466.61,92.85,466.95,99.65,466.99,106.43z"/>
	<path class="st3" d="M465.91,49.19c2.28,9.6,1.23,20.41,0.84,31.15l-2.77-0.1c0.31-8.83,0.17-17.63-0.59-26.37
		c-6.64-3.8-13.93-6.51-21.66-8.54c-1.41-0.37-2.84-0.72-4.29-1.04l0.52-2.29c0.56,0.12,1.11,0.24,1.67,0.35
		c6.9,1.36,14.05,1.64,20.33,3.86C462.05,46.95,464.05,47.91,465.91,49.19z"/>
	<path class="st0" d="M463.39,53.87c0.76,8.74,0.9,17.54,0.59,26.37c-0.22,6.32-0.68,12.65-1.31,18.99
		c-1.53,15.23-1.02,30.44-2.16,45.72c-1.11,14.92-2.99,29.67-3.6,44.64c-0.44,10.72-2.64,21.13-4.13,31.5
		c-0.2,1.42-0.39,2.84-0.56,4.26l-2.05-0.24c0.63-5.28,1.38-10.48,1.7-15.72c1.05-17.1,1.79-30.08,2.52-45.36
		c0.58-12.04,1.44-24,1.8-36c0.37-12.32,2.75-24.51,2.88-36.72c0.13-11.95,0.4-23.55,0-34.92c-4.99-4.24-11.1-6.6-18.06-8.34
		l0.72-2.72C449.46,47.36,456.75,50.07,463.39,53.87z"/>
	<path class="st0" d="M460.59,44.3l-0.63,1.91c-6.28-2.22-13.43-2.5-20.33-3.86c-0.56-0.11-1.11-0.23-1.67-0.35
		c-7.8-1.7-15.53-4.43-23.6-5.85l0.41-2.42c4.76,0.81,9.45,1.67,14.06,2.5C439.77,38.21,450.51,41,460.59,44.3z"/>
	<path class="st3" d="M459.07,56.39c0.4,11.37,0.13,22.97,0,34.92c-0.13,12.21-2.51,24.4-2.88,36.72c-0.36,12-1.22,23.96-1.8,36
		c-0.73,15.28-1.47,28.26-2.52,45.36c-0.32,5.24-1.07,10.44-1.7,15.72c-0.34,2.89-0.64,5.8-0.82,8.76
		c-0.52,8.61-2.47,16.93-3.24,25.2c-1.58,16.96,1.67,36.22,1.08,52.92c-15.92,3.23-30.86,5.96-47.88,7.56
		c-4.14,0.39-8.46,0.96-12.24,2.16c-6.94,2.21-13.67,4.17-23.4,4.68c-8.28,0.44-16.92-0.08-25.2-0.36c-9.04-0.3-17.85-2.66-27-3.96
		c-8.4-1.19-16.2-3.89-24.48-5.76c-8.51-1.92-17.2-3.94-24.84-7.56c0.62-20.83,3.98-40.73,4.32-61.2
		c0.34-20.1-1.44-40.28-1.44-60.12c0-6.28-0.03-12.38-0.03-18.27c0-9.24,0.07-18.02,0.39-26.37c0.59-15.07,0.01-35.43,0.36-55.44
		c0.15-8.4,1.56-18.04,1.08-28.08c2.59-0.98,5.31-1.7,8.1-2.32c4.96-1.09,10.16-1.84,15.3-3.08c13.11-3.14,27.35-6.47,41.84-9.06
		c10.88-1.96,21.89-3.51,32.68-4.26c6.24-0.44,15.55,0.77,23.4,1.08c14.37,0.57,29.25,1.81,42.84,4.32c3.5,0.65,6.85,1.31,10.02,2.1
		C447.97,49.79,454.08,52.15,459.07,56.39z M413.38,124.52c0.12-1.34-0.46-2.79-0.31-4.12c0.98-8.6,4.73-16.94-0.31-23.31
		c1.16-2.56-1.02-4.7-1.54-7.13c-0.7-3.28-0.86-6.8-2.16-9.87c-0.89-2.12-3.21-4.77-4.32-6.58c-0.59-0.97-0.44-1.99-0.92-2.74
		c-0.77-1.19-1.99-2.44-5.59-4.62c-8.5-4.3-21.75-7.65-35.32-8c-1.71-0.04-4.4,0.9-6.47,1.1c-1.41,0.14-2.72-0.17-4.01,0
		c-6.59,0.86-12.13,4.05-18.19,4.39c-4.16,0.23-7.47-1.3-11.1-0.28c-4.52,1.27-7.9,7.86-6.79,13.44c0.52,2.56,1.69,3.33,2.56,5.67
		c0.65,1.71,1.58,3.85,2.07,5.85c1.52,6.22,4.37,11.65,3.7,19.47c-0.68,7.93-2.97,16.86-5.56,25.74
		c-4.97,16.97-11.06,33.72-9.12,42.81c1.91,2.32,7.5,1.82,11.29,2.47c-1.54,4.12,0.14,7.98,0,12.34c-0.12,3.6-1.9,7.83-0.93,11.52
		c0.32,1.2,1.57,2,1.85,3.29c0.25,1.16-0.36,2.57,0,4.11c0.43,1.8,2.04,2.78,2.78,4.39c1.72,3.78,0.17,9.52-0.62,13.71
		c-0.65,3.45-2.75,6.36-3.39,9.33c-1.14,5.29-0.66,11.41,2.16,15.08c5.19,6.77,17.45,9.58,21.27,17.28c1.81,3.65,2.47,7.3,2.2,11.56
		c-0.11,1.73-0.94,3.77-0.96,5.44c-0.11,7.71-2.59,16.86-0.03,25.16c2.21,1.57,8.32-0.42,11.45-0.33c6.32,0.2,16.27,2.02,20.61,0.12
		c4.1-1.79,1.98-12.6,2.16-18.1c0.32-10.12-2.08-26.3,5.17-34.55c5.57-4.79,10-11.96,12.95-19.47c1.7-4.32,1.44-8.27,2.47-12.61
		c1.75-7.45,3.49-15.93,3.08-24.41c-0.84-17.64,0.47-33.21,0.31-49.64c0-0.09,0-0.18,0-0.27c4.19-3.64,4.63-9.27,6.78-15.63
		C411.93,133.21,413.03,128.33,413.38,124.52z"/>
	<path class="st3" d="M455.62,221.5c-0.05,0.4-0.1,0.81-0.15,1.21c-1.15,10.02-0.57,20.59-1.08,30.96
		c-0.96,19.73,0.51,43.34,4.32,64.44c-6.98,4.79-16.33,7.49-26.15,9.89c-0.76,0.18-1.52,0.37-2.29,0.55
		c-10.35,2.47-20.99,5.11-32.4,6.12c-12.14,1.07-25.53,1.32-38.16,0.72c-12-0.57-23.85-0.02-34.56-1.08
		c-5.93-0.59-11.44-1.62-16.63-2.95c-15.6-3.96-28.44-10.52-42.05-15.41c6.56,1.05,13.44,1.88,20.16,3.6c7.8,2,15.41,5.12,23.04,7.2
		c1.62,0.44,4.02,0.92,5.76,1.08c7.34,0.69,15.03,0.43,22.97,0.72c0.02,0,0.05,0,0.07,0c14.06,0.52,28.67,2.94,42.48,0.72
		c5.91-0.95,11.46-2.96,17.64-3.6c17.67-1.82,36.17-7.08,52.92-10.8c-0.43-6.46-0.78-13.25-1.44-19.8
		c-1.03-10.23-1.44-22.28-0.72-33.48c0.6-9.3,1.69-18.57,2.16-28.08c0.13-2.72,0.38-5.44,0.71-8.16c0.17-1.42,0.36-2.84,0.56-4.26
		L455.62,221.5z"/>
	<path class="st0" d="M450.17,225.11l2.05,0.24c-0.33,2.72-0.58,5.44-0.71,8.16c-0.47,9.51-1.56,18.78-2.16,28.08
		c-0.72,11.2-0.31,23.25,0.72,33.48c0.66,6.55,1.01,13.34,1.44,19.8c-16.75,3.72-35.25,8.98-52.92,10.8
		c-6.18,0.64-11.73,2.65-17.64,3.6c-13.81,2.22-28.42-0.2-42.48-0.72c-0.02,0-0.05,0-0.07,0l0.07-2.52
		c8.28,0.28,16.92,0.8,25.2,0.36c9.73-0.51,16.46-2.47,23.4-4.68c3.78-1.2,8.1-1.77,12.24-2.16c17.02-1.6,31.96-4.33,47.88-7.56
		c0.59-16.7-2.66-35.96-1.08-52.92c0.77-8.27,2.72-16.59,3.24-25.2C449.53,230.91,449.83,228,450.17,225.11z"/>
	<path class="st0" d="M441.73,45.33l-0.72,2.72c-3.17-0.79-6.52-1.45-10.02-2.1c-13.59-2.51-28.47-3.75-42.84-4.32
		c-7.85-0.31-17.16-1.52-23.4-1.08c-10.79,0.75-21.8,2.3-32.68,4.26l-0.44-2.46c6.22-1.1,12.33-2.63,18.72-3.24
		c13.46-1.28,27.14-2.47,40.32-1.08c16.11,1.7,32.14,2.93,46.77,6.26C438.89,44.61,440.32,44.96,441.73,45.33z"/>
	<path class="st3" d="M437.96,42l-0.52,2.29c-14.63-3.33-30.66-4.56-46.77-6.26c-13.18-1.39-26.86-0.2-40.32,1.08
		c-6.39,0.61-12.5,2.14-18.72,3.24c-6.45,1.14-12.89,1.11-18.72,2.16c-13.2,2.37-27.08,6.37-38.52,10.08
		c-0.18-0.39,0.04-0.78,0.38-1.13c0.44-0.44,1.09-0.81,1.42-1.03c7.41-4.85,14.84-5.71,25.92-8.28c9.98-2.32,22.94-7.28,34.25-9.65
		c2.61-0.54,5.13-0.95,7.51-1.15c3.15-0.27,5.73-0.32,7.92-0.36c10.53-0.17,21.37-0.5,31.68,0.36c9.89,0.82,19.86,1.13,29.16,2.52
		c0.58,0.09,1.16,0.18,1.73,0.28C422.43,37.57,430.16,40.3,437.96,42z"/>
	<path class="st0" d="M432.56,328l0.57,2.29c-2.38,0.59-4.78,1.2-7.18,1.86c-6.03,1.66-12.05,4-18.36,4.68
		c-13.08,1.42-28.3,2.02-43.2,1.8c-7.11-0.1-14.03,0.73-20.88,0.72c-11.92-0.01-24.36-2.65-35.62-5.47l0.63-2.52
		c5.19,1.33,10.7,2.36,16.63,2.95c10.71,1.06,22.56,0.51,34.56,1.08c12.63,0.6,26.02,0.35,38.16-0.72
		c11.41-1.01,22.05-3.65,32.4-6.12C431.04,328.37,431.8,328.18,432.56,328z"/>
	<path class="st0" d="M414.77,33.73l-0.41,2.42c-0.57-0.1-1.15-0.19-1.73-0.28c-9.3-1.39-19.27-1.7-29.16-2.52
		c-10.31-0.86-21.15-0.53-31.68-0.36c-2.19,0.04-4.77,0.09-7.92,0.36c-2.38,0.2-4.9,0.61-7.51,1.15l-0.5-2.46
		c5.88-1.22,11.81-2.18,17.73-2.65c5.87-0.47,11.69-0.6,17.44-0.48C386.1,29.24,400.74,31.32,414.77,33.73z"/>
	<path class="st0" d="M413.07,120.4c-0.15,1.33,0.43,2.78,0.31,4.12c-0.35,3.81-1.45,8.69-2.78,12.61
		c-2.15,6.36-2.59,11.99-6.78,15.63c0,0.09,0,0.18,0,0.27l-2.16,0.01c-4.4-1.66-8.71-3.44-8.02-9.33c0.62-5.18,4.1-10.05,5.86-15.9
		c0.81-2.67,1.27-5.68,2.16-8.5c1.55-4.91,2.3-8.68,1.65-15.09c-0.76-7.47-0.73-12.64-5.57-15.63c-4.82-1.06-12.5-1.42-15.34,1.14
		c-2.65,2.29-0.41,20-2.2,21.35c-2.72,1.52-8.1,1.73-10.81,1.37c-3.23-0.42-4.09-2.66-4.2-5.6c-0.13-3.24,0.65-7.34,0.19-10.85
		c-0.22-1.66-1.11-3.11-1.23-4.39c-0.5-5.12,1.64-9.32-3.7-10.15c-15.75-1.02-24.78,5.01-38.85,1.37
		c1.29,7.24,4.55,12.31,5.24,20.02c0.14,1.52,0.18,2.99,0.15,4.43c-0.18,9.75-3.76,17.89-6.29,26.72l-1.58-0.47
		c2.59-8.88,4.88-17.81,5.56-25.74c0.67-7.82-2.18-13.25-3.7-19.47c-0.49-2-1.42-4.14-2.07-5.85c-0.87-2.34-2.04-3.11-2.56-5.67
		c-1.11-5.58,2.27-12.17,6.79-13.44c3.63-1.02,6.94,0.51,11.1,0.28c6.06-0.34,11.6-3.53,18.19-4.39c1.29-0.17,2.6,0.14,4.01,0
		c2.07-0.2,4.76-1.14,6.47-1.1c13.57,0.35,26.82,3.7,35.32,8c3.6,2.18,4.82,3.43,5.59,4.62c0.48,0.75,0.33,1.77,0.92,2.74
		c1.11,1.81,3.43,4.46,4.32,6.58c1.3,3.07,1.46,6.59,2.16,9.87c0.52,2.43,2.7,4.57,1.54,7.13
		C417.8,103.46,414.05,111.8,413.07,120.4z"/>
	<path class="st0" d="M403.82,153.03c0.16,16.43-1.15,32-0.31,49.64c0.41,8.48-1.33,16.96-3.08,24.41
		c-1.03,4.34-0.77,8.29-2.47,12.61c-2.95,7.51-7.38,14.68-12.95,19.47c-7.25,8.25-4.85,24.43-5.17,34.55
		c-0.18,5.5,1.94,16.31-2.16,18.1c-4.34,1.9-14.29,0.08-20.61-0.12c-3.13-0.09-9.24,1.9-11.45,0.33c-2.56-8.3-0.08-17.45,0.03-25.16
		c0.02-1.67,0.85-3.71,0.96-5.44c0.27-4.26-0.39-7.91-2.2-11.56c-3.82-7.7-16.08-10.51-21.27-17.28c-2.82-3.67-3.3-9.79-2.16-15.08
		c0.64-2.97,2.74-5.88,3.39-9.33c0.79-4.19,2.34-9.93,0.62-13.71c-0.74-1.61-2.35-2.59-2.78-4.39c-0.36-1.54,0.25-2.95,0-4.11
		c-0.28-1.29-1.53-2.09-1.85-3.29c-0.97-3.69,0.81-7.92,0.93-11.52c0.14-4.36-1.54-8.22,0-12.34l1.21,0.07
		c-0.49,8.09,1.09,14.51-0.6,21.87c1.25-0.05,2.09-1.34,3.7-1.92c3.34-1.2,9.55-1.3,13.88-1.64c6.35-0.5,15.44,0.86,19.42,2.19
		c3.06,1.02,10.35,4.86,8.33,7.13c-7.76,0.58-14.17,7.13-22.82,8.23c-5.03,0.64-11.35-0.18-16.65-0.55
		c2.68,10.67-6.82,22.55-4.01,32.63c2.45,8.77,11.37,12.3,19.12,16.45c4.08,5.11,7.04,11.01,7.09,18.1
		c0.04,4.31-1.42,9.04-1.85,13.71c-0.44,4.89-1.38,9.74-0.61,14.54c6.11,1.02,21.12-0.36,28.64-1.37
		c2.96-5.38,1.56-14.49,0.85-22.76c-0.21-2.47,0.06-4.99,0-7.41c-0.05-2.5-0.33-4.84,0-7.13c1.95-13.18,13.41-19.07,17.27-31.53
		c0.74-2.37,0.75-5.13,1.24-7.68c1.54-8.07,2.98-16.27,4.31-23.31c0.9-4.76,0.94-9.98,0.62-15.08c-0.87-13.63,0.92-25.83,1.23-40.31
		L403.82,153.03z M360.14,206.51c-6.65,0.35-11.77,2.02-17.88,1.65c-6.5-0.4-13.72-2.86-17.58-0.28c-0.39,1.64-0.24,2.09,0,3.57
		C338.01,215.31,352.62,211.21,360.14,206.51z M338.86,205.96c9.87,0.27,18.14-0.89,25.59-1.64c-7.5-2.35-15.48-6.23-26.82-5.49
		c-4.89,0.32-13.96,0.63-14.18,5.21C327.74,206.54,332.82,205.8,338.86,205.96z"/>
	<path class="st4" d="M403.31,104.22c0.65,6.41-0.1,10.18-1.65,15.09c-0.89,2.82-1.35,5.83-2.16,8.5
		c-1.76,5.85-5.24,10.72-5.86,15.9c-0.69,5.89,3.62,7.67,8.02,9.33c-0.31,14.48-2.1,26.68-1.23,40.31
		c0.32,5.1,0.28,10.32-0.62,15.08c-1.33,7.04-2.77,15.24-4.31,23.31c-0.49,2.55-0.5,5.31-1.24,7.68
		c-3.86,12.46-15.32,18.35-17.27,31.53c-0.33,2.29-0.05,4.63,0,7.13c0.06,2.42-0.21,4.94,0,7.41c0.71,8.27,2.11,17.38-0.85,22.76
		c-7.52,1.01-22.53,2.39-28.64,1.37c-0.77-4.8,0.17-9.65,0.61-14.54c0.43-4.67,1.89-9.4,1.85-13.71c-0.05-7.09-3.01-12.99-7.09-18.1
		c-7.75-4.15-16.67-7.68-19.12-16.45c-2.81-10.08,6.69-21.96,4.01-32.63c5.3,0.37,11.62,1.19,16.65,0.55
		c8.65-1.1,15.06-7.65,22.82-8.23c2.02-2.27-5.27-6.11-8.33-7.13c-3.98-1.33-13.07-2.69-19.42-2.19
		c-4.33,0.34-10.54,0.44-13.88,1.64c-1.61,0.58-2.45,1.87-3.7,1.92c1.69-7.36,0.11-13.78,0.6-21.87c0-0.11,0.01-0.23,0.02-0.34
		c2.1-0.99,4.53,0.56,7.09,0.27c2.94-0.33,6.97-3.26,7.4-4.93c0.66-2.53-1.38-5.96-4-6.04c-1.24,2.73,2.31,3.19,2.15,5.49
		c-0.22,3.13-4.99,3.98-9.56,3.56c3.4-6.23-7.83-5.9-4.62,0c-3.69,0.08-7.42-0.13-9.03-1.9c0.47-5.95,2.3-12.16,3.32-17.89
		c0.97-5.47,2.8-11.21,3.86-16.68c0.42-2.2,0.97-4.33,1.57-6.42c2.53-8.83,6.11-16.97,6.29-26.72l2.24,0.04
		c0,0.16,0.02,0.32,0.07,0.47c5.39,5.87,12.56,12.56,23.75,11.52c-6.36-0.8-14.39-2.53-17.58-7.68c2.1,0.29,3.06,1.81,4.63,2.47
		c6.35,2.65,12.8-1.04,19.11-2.47c1.56-1.27,3.37-2.31,3.7-4.66l2.28-0.12c0.11,2.94,0.97,5.18,4.2,5.6
		c2.71,0.36,8.09,0.15,10.81-1.37c1.79-1.35-0.45-19.06,2.2-21.35c2.84-2.56,10.52-2.2,15.34-1.14
		C402.58,91.58,402.55,96.75,403.31,104.22z M398.27,118.21c3.71-9.45,2.85-15.83-0.62-23.86c-1.86-1.17-2.76-3.2-4.62-4.39
		c-11.46-2.21-13.17,11.69-6.79,16.46c1.91,0.24,3.43,0.38,4.94-0.28c1.7-4.47-5.57-6.94-1.54-10.96c1.03-0.09,2.67,0.36,2.46-0.83
		c-0.88-0.52-3.07-0.3-4,0c-3.73,3.63-0.65,8.06,0.61,10.97c-3.71-1.64-6.38-12.55-0.92-13.71c3.98-0.85,8.08,2.28,9.25,4.66
		c4.05,8.26,1.08,18.26-3.09,24.68c-0.84,1.3-2.35,2.11-3.39,3.29c-2.43,2.77-4.88,6.65-6.16,9.33c-1.35,2.8-0.25,6.63,0,9.59
		c-1,0.37-2.29,0.77-3.4,0.28c-0.81-2.26-0.11-3.44-0.61-5.49c-4.09-0.5-2.61,3.51-2.78,5.21c2.01,1.2,2.74,2.69,5.86,3.29
		c2.81-0.88,5.25-2.09,5.24-5.48c-4.45-6.73,3.01-10.77,6.48-16.45C396.41,122.52,397.56,120.01,398.27,118.21z M387.17,124.52
		c0.28-4.3,5.82-5.99,3.39-10.97c-2.01-0.59-3.29-1.83-3.7-3.84c-1.21,0.02-1.92,0.48-2.77,0.82c-1.23,2.76,2.82,4.29,5.24,5.49
		C387.3,117.68,382.86,122.16,387.17,124.52z M375.18,218.2c6.01-11.12,1.17-29.32-6.41-37.02c-0.2,0-0.41,0-0.62,0
		c-0.04,0.33-0.54,0.63,0,0.83c10.08,16.09,4.95,34.46-3.7,48.81c2.88-0.3,3.68-3.62,5.25-6.03
		C371.06,222.69,373.98,220.42,375.18,218.2z"/>
	<path class="st0" d="M397.65,94.35c3.47,8.03,4.33,14.41,0.62,23.86c-0.71,1.8-1.86,4.31-3.08,6.31
		c-3.47,5.68-10.93,9.72-6.48,16.45c0.01,3.39-2.43,4.6-5.24,5.48c-3.12-0.6-3.85-2.09-5.86-3.29c0.17-1.7-1.31-5.71,2.78-5.21
		c0.5,2.05-0.2,3.23,0.61,5.49c1.11,0.49,2.4,0.09,3.4-0.28c-0.25-2.96-1.35-6.79,0-9.59c1.28-2.68,3.73-6.56,6.16-9.33
		c1.04-1.18,2.55-1.99,3.39-3.29c4.17-6.42,7.14-16.42,3.09-24.68c-1.17-2.38-5.27-5.51-9.25-4.66c-5.46,1.16-2.79,12.07,0.92,13.71
		c-1.26-2.91-4.34-7.34-0.61-10.97c0.93-0.3,3.12-0.52,4,0c0.21,1.19-1.43,0.74-2.46,0.83c-4.03,4.02,3.24,6.49,1.54,10.96
		c-1.51,0.66-3.03,0.52-4.94,0.28c-6.38-4.77-4.67-18.67,6.79-16.46C394.89,91.15,395.79,93.18,397.65,94.35z"/>
	<path class="st0" d="M394.56,343.89l0.07,1.22c-16.24,1.16-32.47,2.66-48,1.48c-3.97-0.3-7.9-0.78-11.76-1.48
		c-12.76-2.31-24.58-6.02-35.92-10l0.6-1.71c10.73,3.9,23.1,5.79,36.04,7.39c15.66,1.94,31.8,4.23,48.6,3.6
		C387.66,344.26,391.12,344.09,394.56,343.89z"/>
	<path class="st0" d="M390.56,113.55c2.43,4.98-3.11,6.67-3.39,10.97c-4.31-2.36,0.13-6.84,2.16-8.5c-2.42-1.2-6.47-2.73-5.24-5.49
		c0.85-0.34,1.56-0.8,2.77-0.82C387.27,111.72,388.55,112.96,390.56,113.55z"/>
	<path class="st0" d="M368.77,181.18c7.58,7.7,12.42,25.9,6.41,37.02c-1.2,2.22-4.12,4.49-5.48,6.59c-1.57,2.41-2.37,5.73-5.25,6.03
		c8.65-14.35,13.78-32.72,3.7-48.81c-0.54-0.2-0.04-0.5,0-0.83C368.36,181.18,368.57,181.18,368.77,181.18z"/>
	<path class="st2" d="M371.09,26.49l-0.06,2.42c-5.75-0.12-11.57,0.01-17.44,0.48c-5.92,0.47-11.85,1.43-17.73,2.65
		c-8.17,1.68-16.23,3.88-24.03,5.99c-13.82,3.74-28.57,5.78-38.52,14.04c4.19-4.8,10.12-8.32,16.96-11.18
		c5.32-2.22,11.19-4.04,17.24-5.74c14.57-4.1,30.19-9.45,47.88-9C360.42,26.28,365.69,26.38,371.09,26.49z"/>
	<path class="st4" d="M365.38,96c0.46,3.51-0.32,7.61-0.19,10.85l-2.28,0.12c-0.76-1.41-2.2-0.92-3.7-1.65
		c-1.98-0.96-3.42-3.08-5.55-3.84c-0.86-0.31-2.42-0.01-3.7-0.27c-1.16-0.24-2.21-1.03-3.08-1.1c-4.98-0.39-10.34,0.78-13.87,3.02
		c-1.28,0.8-3.78,2.56-3.78,4.19l-2.24-0.04c0.03-1.44-0.01-2.91-0.15-4.43c-0.69-7.71-3.95-12.78-5.24-20.02
		c14.07,3.64,23.1-2.39,38.85-1.37c5.34,0.83,3.2,5.03,3.7,10.15C364.27,92.89,365.16,94.34,365.38,96z"/>
	<path class="st0" d="M362.91,106.97c-0.33,2.35-2.14,3.39-3.7,4.66c-6.31,1.43-12.76,5.12-19.11,2.47
		c-1.57-0.66-2.53-2.18-4.63-2.47c3.19,5.15,11.22,6.88,17.58,7.68c-11.19,1.04-18.36-5.65-23.75-11.52
		c-0.05-0.15-0.07-0.31-0.07-0.47c0-1.63,2.5-3.39,3.78-4.19c3.53-2.24,8.89-3.41,13.87-3.02c0.87,0.07,1.92,0.86,3.08,1.1
		c1.28,0.26,2.84-0.04,3.7,0.27c2.13,0.76,3.57,2.88,5.55,3.84C360.71,106.05,362.15,105.56,362.91,106.97z M349.04,111.9
		c5.46-0.17,9.2-1.87,11.72-4.66c-3.47-1.12-6.05-3.04-10.49-3.29C352.85,106.2,350.23,109.33,349.04,111.9z M351.5,102.58
		c1.08,0.15,2.65,1.29,3.4,0.82C354.22,102.9,352.73,101.68,351.5,102.58z M349.96,108.61c0.76-6.86-11.2-4.68-7.7,2.2
		c1.28,0.78,3.15,1.03,5.24,1.09C348.58,110.65,349.79,110.17,349.96,108.61z M340.1,112.73c2.81,1.84,8.59,1.89,11.4,0
		C348.22,113.11,344.45,113.85,340.1,112.73z M342.87,101.21c-1-0.16-1.43,0.18-2.16,0.27
		C340.74,102.68,342.83,101.75,342.87,101.21z M341.33,111.08c-0.56-1.82-1.1-4.89,0-6.58c-3.35,0.86-6.83,1.6-9.25,3.29
		C335.06,108.98,337.62,110.54,341.33,111.08z M337.94,103.13c0.77-0.23,1.65-0.36,1.54-1.37
		C338.41,101.72,337.69,101.99,337.94,103.13z M332.39,105.32c1.34-0.64,4.59-1.03,4.31-2.19
		C335.39,103.07,332.8,103.72,332.39,105.32z"/>
	<path class="st5" d="M360.76,107.24c-2.52,2.79-6.26,4.49-11.72,4.66c1.19-2.57,3.81-5.7,1.23-7.95
		C354.71,104.2,357.29,106.12,360.76,107.24z"/>
	<path class="st5" d="M354.9,103.4c-0.75,0.47-2.32-0.67-3.4-0.82C352.73,101.68,354.22,102.9,354.9,103.4z"/>
	<path class="st5" d="M342.26,110.81c-3.5-6.88,8.46-9.06,7.7-2.2c-0.17,1.56-1.38,2.04-2.46,3.29
		C345.41,111.84,343.54,111.59,342.26,110.81z M343.18,109.16c1.81,0.67,5.09,0.89,4.93-1.64c-0.39-0.38-1.45-0.38-1.85,0
		c-0.51-2.29-2.06-1.08-3.39-0.83C343.52,107.52,342.78,107.99,343.18,109.16z"/>
	<path class="st0" d="M348.11,107.52c0.16,2.53-3.12,2.31-4.93,1.64c-0.4-1.17,0.34-1.64-0.31-2.47c1.33-0.25,2.88-1.46,3.39,0.83
		C346.66,107.14,347.72,107.14,348.11,107.52z"/>
	<path class="st5" d="M351.5,112.73c-2.81,1.89-8.59,1.84-11.4,0C344.45,113.85,348.22,113.11,351.5,112.73z"/>
	<path class="st6" d="M346.63,346.59l-0.08,1.04c-10.62-0.76-20.9-1.62-29.68-3.6c-14.18-3.2-27.71-10.03-39.24-16.56
		c7,2.47,14.06,5.11,21.32,7.64c11.34,3.98,23.16,7.69,35.92,10C338.73,345.81,342.66,346.29,346.63,346.59z"/>
	<path class="st7" d="M342.26,208.16c6.11,0.37,11.23-1.3,17.88-1.65c-7.52,4.7-22.13,8.8-35.46,4.94c-0.24-1.48-0.39-1.93,0-3.57
		C328.54,205.3,335.76,207.76,342.26,208.16z"/>
	<path class="st7" d="M364.45,204.32c-7.45,0.75-15.72,1.91-25.59,1.64c-6.04-0.16-11.12,0.58-15.41-1.92
		c0.22-4.58,9.29-4.89,14.18-5.21C348.97,198.09,356.95,201.97,364.45,204.32z"/>
	<path class="st0" d="M342.4,19.8l0.25,1.6c-6.08,0.95-12.15,2.14-18.22,3.31c-19.25,3.72-36.15,10.45-47.88,20.88
		c-0.14,0.39-0.43,0.86,0,0.36c3.96-2.73,8.31-4.98,12.95-6.92l0.77,1.86c-6.84,2.86-12.77,6.38-16.96,11.18l1.46,1.39
		c-0.34,0.35-0.56,0.74-0.38,1.13l0.54,2.36c-2.79,0.62-5.51,1.34-8.1,2.32c0.48,10.04-0.93,19.68-1.08,28.08
		c-0.35,20.01,0.23,40.37-0.36,55.44c-0.32,8.35-0.39,17.13-0.39,26.37l-2.76,0.01c0-2.55-0.03-5.1-0.09-7.66
		c-0.82-33.71-0.33-63.56,0-98.64c-6.05-1.44-12.14-5.2-18.36-6.48c-0.2-0.04-0.4-0.08-0.61-0.12l0.38-2
		c2.22,0.44,4.44,0.74,6.71,0.68c-30.07-10.03-67.58-12.84-100.08-15.84c-9.27-0.86-18.54-2.76-27.25-3.23l0.06-1.84
		c0.3,0.02,0.61,0.02,0.91,0.03c4.68,0.08,9.16-0.69,13.68-0.36c4.68,0.34,9.31,0.74,14.04,1.44c9.2,1.36,18.22,1.49,27.36,2.16
		c4.94,0.36,10.02,2.37,15.48,2.88c17.96,1.67,34.72,4.55,49.32,8.64c2.52,0.71,2.65,0.73,1.08,0c-0.57-0.26-2.7-0.89-3.24-1.08
		c-6.54-2.27-12.33-4.65-18.72-6.12c-7.27-1.67-15.87-4.51-23.94-5.71l0.27-1.7c1.31,0.21,2.6,0.4,3.87,0.57
		c4.06,0.53,7.96,0.21,11.52,1.08c2.59,0.63,4.82,2.24,7.2,2.88c1.58,0.43,3.45-0.02,5.04,0.36c1.52,0.36,2.81,1.43,4.32,1.8
		c7.55,1.82,14.71,3.83,20.16,6.84c0.4-0.04,0.56,0.52,0.72,0c-1.01-0.53-2.02-1.06-3.05-1.58l1.35-2.62
		c5.25,3.73,9.75,8.14,13.94,13.2c12.79-22.12,45.05-33,73.8-36.36C339.53,20.22,340.96,20.02,342.4,19.8z M271.51,50.27
		c0.84-1.57,4.12-2.59,3.96-3.96C274.52,47.76,271.35,48.9,271.51,50.27z"/>
	<path class="st5" d="M340.71,101.48c0.73-0.09,1.16-0.43,2.16-0.27C342.83,101.75,340.74,102.68,340.71,101.48z"/>
	<path class="st5" d="M341.33,104.5c-1.1,1.69-0.56,4.76,0,6.58c-3.71-0.54-6.27-2.1-9.25-3.29
		C334.5,106.1,337.98,105.36,341.33,104.5z"/>
	<path class="st5" d="M339.48,101.76c0.11,1.01-0.77,1.14-1.54,1.37C337.69,101.99,338.41,101.72,339.48,101.76z"/>
	<path class="st0" d="M338.47,326.03l-0.07,2.52c-7.94-0.29-15.63-0.03-22.97-0.72c-1.74-0.16-4.14-0.64-5.76-1.08
		c-7.63-2.08-15.24-5.2-23.04-7.2c-6.72-1.72-13.6-2.55-20.16-3.6c13.61,4.89,26.45,11.45,42.05,15.41l-0.63,2.52
		c-5.38-1.34-10.48-2.73-15.14-3.89c-0.38-0.02-0.91,0.17-0.36,0.36c2.29,1.14,4.68,2.14,7.16,3.05l-0.6,1.71
		c-7.26-2.53-14.32-5.17-21.32-7.64c11.53,6.53,25.06,13.36,39.24,16.56l-0.6,2.69c-3.55-0.79-7.07-1.68-10.56-2.69
		c-7.89-2.29-16.54-4.85-23.04-8.28c-7.6-4.01-14.82-10.16-19.44-17.64c-5.23,6.56-11.5,14.16-19.44,19.44
		c-3.88,2.58-9.61,6.45-14.04,8.28c-5.27,2.19-13.26,3.31-20.16,5.04c-19.74,4.96-41.24,5.79-63.36,6.84
		c-8.02,0.38-16.3,0.62-24.51,0.4c-6.44-0.17-12.84-0.61-19.05-1.48c-7.08-0.99-14.03-0.1-20.88-1.08c-13.87-1.98-26.11-4.8-38.52-9
		c-6.42-2.17-12.42-4.54-18-6.12c-5.11-25.09-8.64-51.83-7.92-77.04c0.8-28.14,1.07-55.44,1.44-84.6
		c0.18-14.06-0.06-27.57,0.72-41.04c0.07-1.32,0.13-2.63,0.16-3.95l2.57,0.08c-0.14,4.58,0.07,9.19-0.21,13.95
		c-0.34,5.79,0.47,11.84,0.72,17.64c0.24,5.64-0.26,11.31,0,16.92c0.13,2.82,0.78,5.6,0.72,8.28c-0.06,3-1.05,5.92-1.08,9
		c-0.02,1.64,0.68,3.37,0.72,5.04c0.02,0.89,0.01,1.78-0.03,2.68c-0.19,4.35-0.94,8.84-1.05,13.16
		c-0.48,18.62-0.89,34.51-0.72,50.76c0.22,21.64,4.02,41.76,9.66,61.38c0.25,0.9,0.51,1.8,0.78,2.7c12,6.77,25.9,13,43.92,14.4
		c9.98,0.78,21.14,2.43,32.04,3.24c10.76,0.8,21.81,0.33,32.64-0.05c3.43-0.13,6.83-0.24,10.2-0.31c8.41-0.16,16.67,0.21,25.2-0.72
		c26.51-2.9,55.38-7.5,69.12-21.24c1.53-1.53,4.18-3.21,3.6-4.68c-2.73,1.61-5.59,3.1-8.56,4.48l-1.08-2.37
		c4.83-2.27,9.19-4.95,12.88-8.23c-0.37,0.15-0.73,0.29-1.1,0.44l-0.85-2.13c2.95-1.13,5.69-2.53,8.07-4.43
		c-2.56,0.44-5.06,1.12-7.53,1.94l-0.69-2.1c3.13-1.03,6.23-2.07,9.3-3.08c0.25-6.88,0.43-13.97,0.36-21.24
		c-0.07-7.45,1.73-14.81,1.8-21.96c0.09-9.14-0.61-18.6-0.72-28.08c-0.12-9.71,1.03-19.53,1.08-29.52c0.07-13.45,0.81-27,0.81-40.58
		l2.76-0.01c0,5.89,0.03,11.99,0.03,18.27c0,19.84,1.78,40.02,1.44,60.12c-0.34,20.47-3.7,40.37-4.32,61.2
		c7.64,3.62,16.33,5.64,24.84,7.56c8.28,1.87,16.08,4.57,24.48,5.76C320.62,323.37,329.43,325.73,338.47,326.03z"/>
	<path class="st0" d="M333.01,167.84c2.62,0.08,4.66,3.51,4,6.04c-0.43,1.67-4.46,4.6-7.4,4.93c-2.56,0.29-4.99-1.26-7.09-0.27
		c-0.01,0.11-0.02,0.23-0.02,0.34l-1.21-0.07c-3.79-0.65-9.38-0.15-11.29-2.47c-1.94-9.09,4.15-25.84,9.12-42.81l1.58,0.47
		c-0.6,2.09-1.15,4.22-1.57,6.42c-1.06,5.47-2.89,11.21-3.86,16.68c-1.02,5.73-2.85,11.94-3.32,17.89c1.61,1.77,5.34,1.98,9.03,1.9
		c-3.21-5.9,8.02-6.23,4.62,0c4.57,0.42,9.34-0.43,9.56-3.56C335.32,171.03,331.77,170.57,333.01,167.84z"/>
	<path class="st5" d="M336.7,103.13c0.28,1.16-2.97,1.55-4.31,2.19C332.8,103.72,335.39,103.07,336.7,103.13z"/>
	<path class="st0" d="M335.86,32.04l0.5,2.46c-11.31,2.37-24.27,7.33-34.25,9.65c-11.08,2.57-18.51,3.43-25.92,8.28
		c-0.33,0.22-0.98,0.59-1.42,1.03l-1.46-1.39c9.95-8.26,24.7-10.3,38.52-14.04C319.63,35.92,327.69,33.72,335.86,32.04z"/>
	<path class="st0" d="M331.63,42.35l0.44,2.46c-14.49,2.59-28.73,5.92-41.84,9.06c-5.14,1.24-10.34,1.99-15.3,3.08l-0.54-2.36
		c11.44-3.71,25.32-7.71,38.52-10.08C318.74,43.46,325.18,43.49,331.63,42.35z"/>
	<path class="st6" d="M275.47,46.31c0.16,1.37-3.12,2.39-3.96,3.96C271.35,48.9,274.52,47.76,275.47,46.31z"/>
	<path class="st3" d="M262.15,161.51c0.06,2.56,0.09,5.11,0.09,7.66c0,13.58-0.74,27.13-0.81,40.58c-0.05,9.99-1.2,19.81-1.08,29.52
		c0.11,9.48,0.81,18.94,0.72,28.08c-0.07,7.15-1.87,14.51-1.8,21.96c0.07,7.27-0.11,14.36-0.36,21.24c-3.07,1.01-6.17,2.05-9.3,3.08
		c-16.89,5.57-34.78,11.08-54.42,12.76c-7.87,0.67-15.88,0.83-24.12,1.8c-15.7,1.84-32.47-1.06-48.6-2.88
		c-7.73-0.87-16.17-1.89-23.4-2.52c-14.4-1.26-27.23,0.55-37.8-3.96c-2.76-17.6-7.47-35.74-7.92-55.08
		c-0.45-19.05-0.72-37.97-0.72-58.32c0-41.16-0.9-81.31,1.08-117c0.78-14.05-0.55-26.61,2.52-39.24c5.66-1.35,11.79-2.67,18-3.24
		c2.3-0.21,4.54,0.38,6.84,0.36c4.45-0.04,8.93-0.86,13.68-0.72c4.44,0.14,8.88-0.15,13.32-0.36c12.44-0.59,23.11-0.62,33.78-0.31
		c5.23,0.14,10.47,0.38,15.9,0.67c3.65,0.2,7.39,0.53,10.8,1.08c3.18,0.51,6.44-0.21,7.92,1.8c2.07-0.56-1.4-1.04-0.36-1.44
		c12.89,1.64,25.96,3.38,38.88,5.4c4.78,0.75,9.15,2.6,14.04,2.88c4.7,0.27,9.62,0.12,14.15,0.96c0.21,0.04,0.41,0.08,0.61,0.12
		c6.22,1.28,12.31,5.04,18.36,6.48C261.82,97.95,261.33,127.8,262.15,161.51z M200.23,195.35c6.76-6.26,4-14.49,2.52-23.04
		c-3.07-17.75-6.73-34.97-7.2-52.56c-0.13-5.06-0.5-10.71,0-15.48c0.35-3.39,1.9-7.07,2.52-10.8c0.32-1.95-0.11-4.38,0.36-6.12
		c0.55-2,2.64-3.38,2.88-5.76c0.36-3.56-1.43-5.3-2.16-8.28c-3.7-2.4-6.11-7.61-10.8-10.44c-1.92-1.16-4.3-1.88-6.9-2.36
		c-5.38-1.01-11.76-1.04-17.22-1.96c-4.09-0.69-8.19-2.55-11.52-2.52c-2.73,0.02-5.35,1.45-7.92,1.8c-7.17,0.97-13.5,2.17-19.8,4.32
		c-6.31,2.16-11.33,5.31-16.2,7.2c-9.82,11.33-16.31,20.81-21.96,37.8c-2.77,8.31-4.92,16.81-6.48,25.92
		c-1.61,9.43-2.23,19.43-3.24,29.16c-1.01,9.73-0.75,19.36-1.73,28.51c-0.02,0.22-0.05,0.43-0.07,0.65
		c-1.46,12.85-0.16,23.87,4.32,33.48c5.28,11.32,12.94,19.19,24.12,23.4c2.05,5.66,2.33,9.58,5.04,14.04
		c3.74,6.16,13.69,9.8,16.2,14.76c1.95,3.86,2.24,9.73,2.16,14.04c-0.15,7.57-2.45,15.97-1.44,25.56c5.35,2.9,12.27,1.58,20.52,1.44
		c4.47-0.08,10.45,1.05,11.88-2.52c0.88-2.19-0.08-5.49,0-7.92c0.07-2.42,0.11-6.22,0.3-10.17c0.26-5.61,0.82-11.55,2.22-14.31
		c1.67-3.32,7.53-5.03,10.08-7.92c2.13-2.41,4.61-6.18,5.4-9c2.26-8.06-1.79-16.97-3.39-24.7c-0.29-1.41-0.5-2.78-0.57-4.1
		c-0.11-2.01-0.09-5.39,0.72-7.56c0.86-2.3,3.55-2.23,3.96-5.4c0.37-2.85-1.43-4.17-1.8-6.48c1.39-3.44,3.15-6.14,2.16-9.72
		c-0.42-1.52-1.9-2.63-2.52-4.32c-0.5-1.36-0.8-2.65-0.87-3.96c-0.08-1.61,0.19-3.23,0.87-5.04c7.45-0.16,14.35,0.41,20.66,0.45
		C197,195.46,198.64,195.43,200.23,195.35z M180.79,48.11c0.92,1.01,4.06,1.69,5.4,1.08C184.56,48.66,182.23,48.83,180.79,48.11z"/>
	<path class="st8" d="M249.02,46.17c1.03,0.52,2.04,1.05,3.05,1.58c-0.16,0.52-0.32-0.04-0.72,0c-5.45-3.01-12.61-5.02-20.16-6.84
		c-1.51-0.37-2.8-1.44-4.32-1.8c-1.59-0.38-3.46,0.07-5.04-0.36c-2.38-0.64-4.61-2.25-7.2-2.88c-3.56-0.87-7.46-0.55-11.52-1.08
		c-1.27-0.17-2.56-0.36-3.87-0.57c-5.75-0.9-11.8-2.13-17.73-3.03c-7.43-1.13-14.44-3.08-20.88-3.6c-8.24-0.67-16.72-0.86-25.2-1.8
		c-4.23-0.47-8.55-0.74-12.97-0.9l0.09-2.03c0.57,0.02,1.15,0.04,1.72,0.05c15.37,0.31,30.47,1.67,44.64,3.24
		c8.42,0.93,16.49,1,24.12,2.16C214.31,31.56,232.8,37.92,249.02,46.17z"/>
	<path class="st1" d="M250.61,320.35c0.37-0.15,0.73-0.29,1.1-0.44c-3.69,3.28-8.05,5.96-12.88,8.23
		c-14.49,6.78-33.25,9.71-51.2,13.01c-7.9,1.46-15.67,3.84-23.04,4.68c-2.42,0.28-4.87,0.51-7.34,0.7
		c-26.56,2.14-55.19-0.19-76.9-5.38c-5.14-1.23-10.73-1.65-16.56-3.24c-3.73-1.01-7.53-2.78-11.77-4.42l0.52-1.34
		c2.33,0.9,4.76,1.65,7.29,2.16c17.3,3.45,35.54,7.82,54.36,9.36c5.75,0.47,11.98-0.06,18,0c18.77,0.2,36.82-3.66,55.08-5.4
		c12.05-1.15,23.62-3.04,34.2-6.84C231.79,327.72,241.54,323.98,250.61,320.35z"/>
	<path class="st2" d="M250.3,315.73c2.47-0.82,4.97-1.5,7.53-1.94c-2.38,1.9-5.12,3.3-8.07,4.43c-5.91,2.28-12.67,3.51-19.16,5.69
		l-0.16-0.47C237.27,321.14,243.68,317.93,250.3,315.73z"/>
	<path class="st0" d="M249.76,318.22l0.85,2.13c-9.07,3.63-18.82,7.37-29.14,11.08c-10.58,3.8-22.15,5.69-34.2,6.84
		c-18.26,1.74-36.31,5.6-55.08,5.4c-6.02-0.06-12.25,0.47-18,0c-18.82-1.54-37.06-5.91-54.36-9.36c-2.53-0.51-4.96-1.26-7.29-2.16
		c-2.99-1.15-5.83-2.54-8.55-3.96c-3.65-19.89-8.07-40.33-9-61.92c-0.9-20.87,0.36-42.69,0-63.72c-0.37-21.87-0.53-42.41-1.08-63.36
		c-0.3-11.35,0.41-21.92,1.08-32.76c0.28-4.58,0.15-9.15,0.72-13.68c0.61-4.87,2.02-9.83,2.52-14.76c0.47-4.68,0.23-9.46,1.08-14.04
		c0.89-4.79,2.89-9.8,4.32-14.4c1.49-4.79,2.72-9.65,4.68-14.04c18.81-3.24,39.19-3.06,55.8-2.88c6.4,0.07,12.6,1.22,18.89,1.41
		l-0.06,1.84c-2.36-0.13-4.68-0.15-6.95-0.01c-7.43,0.45-16.69,1.05-24.84,1.44c-4.1,0.2-8.14,0.74-12.07,1.24
		c-3.52,0.44-6.95,0.84-10.25,0.92c-6.24,0.14-12.51-1.16-18,1.44c-14.82,43.75-14.2,94.49-12.6,140.04
		c0.82,23.36,0.58,46.75,0.72,64.08c0.06,6.86-0.04,15.03,0.36,23.04c0.22,4.5,1.3,9.45,1.8,14.4c1.59,15.67,4.45,30.07,9,42.84
		c6.04,1.28,11.22,3.42,16.2,5.76c18.04,4.48,37.02,8.47,56.88,7.92c19.4-0.54,39.15-0.6,57.96-3.96c6.17-1.1,12.22-2.79,18.72-3.6
		s13.5-1.44,19.44-2.88c3.09-0.75,6.22-2.79,9.36-3.96c0.64-0.24,1.29-0.47,1.93-0.68C237.09,321.73,243.85,320.5,249.76,318.22z"/>
	<path class="st0" d="M250.37,43.55l-1.35,2.62c-16.22-8.25-34.71-14.61-55.99-17.86c-7.63-1.16-15.7-1.23-24.12-2.16
		c-14.17-1.57-29.27-2.93-44.64-3.24c-0.57-0.01-1.15-0.03-1.72-0.05c-15.51-0.59-31.12-4.82-44.36-4.27
		c-10.07,0.42-20.67,1.92-30.24,3.24c-4.73,0.65-10.42,1.15-12.6,3.24c-3.45,3.31-6.37,17.95-7.2,23.04
		c-0.67,4.14-0.45,8.79-1.44,12.96c-2.72,11.42-2.1,25.57-2.88,38.88c-0.44,7.44-0.05,14.55-0.21,21.17
		c-0.03,1.24-0.08,2.47-0.15,3.67c-0.13,2.07-0.93,4.09-1.08,6.12c-0.07,0.99-0.12,1.98-0.15,2.97l-2.57-0.08
		c0.31-12.04-0.96-24.03-0.88-36.01c0.04-6.41,1.01-12.82,1.44-19.44c0.45-6.93,0.13-13.81,1.08-20.52
		c1.86-13.18,5.6-26.16,5.76-39.96c10.72-2.03,23.24-2.23,36-2.88c3.87-0.2,7.2-1.82,10.8-2.16c1.51-0.14,2.97-0.2,4.38-0.2
		c8.64,0,15.63,2.28,24.42,2c7.34-0.24,14.81-0.21,21.96,0.36c5.78,0.46,11.3,2.41,16.92,2.88c7.12,0.59,14.45-0.52,21.6,0
		c7.55,0.55,16.09,2.52,23.76,4.68c7.72,2.18,15.79,3.33,23.4,5.04c7.18,1.61,14.43,4.51,21.6,6.84
		C239.11,36.77,245.12,39.81,250.37,43.55z"/>
	<path class="st0" d="M249.61,313.63l0.69,2.1c-6.62,2.2-13.03,5.41-19.86,7.71c-0.82,0.28-1.65,0.54-2.49,0.79
		c-5.63,1.67-11.89,2.24-18,3.6c-12.75,2.84-25.57,4.61-38.16,5.4c-6.59,0.41-12.51-0.56-19.44-1.08
		c-8.31-0.62-16.85-0.23-25.2-1.08c-26.12-2.64-50.74-2.57-72.72-9.36c-1.85-26.95-5.55-53.25-6.48-81
		c-0.29-8.72,1.18-17.14,1.44-25.92c0.36-12.3-1.36-24.85-1.44-37.44c-0.08-12.67,0.13-25.45,0.36-38.16
		c0.23-12.72-1.38-25.21,0-37.8c2.13-19.46,1.19-39.05,5.4-56.52c8.94,0.08,17.16-2.76,25.68-3.78c0.56-0.07,1.12-0.13,1.68-0.18
		c21.65-1.93,39.78,1.34,60.84,1.8l-0.06,2.21c-10.67-0.31-21.34-0.28-33.78,0.31c-4.44,0.21-8.88,0.5-13.32,0.36
		c-4.75-0.14-9.23,0.68-13.68,0.72c-2.3,0.02-4.54-0.57-6.84-0.36c-6.21,0.57-12.34,1.89-18,3.24c-3.07,12.63-1.74,25.19-2.52,39.24
		c-1.98,35.69-1.08,75.84-1.08,117c0,20.35,0.27,39.27,0.72,58.32c0.45,19.34,5.16,37.48,7.92,55.08c10.57,4.51,23.4,2.7,37.8,3.96
		c7.23,0.63,15.67,1.65,23.4,2.52c16.13,1.82,32.9,4.72,48.6,2.88c8.24-0.97,16.25-1.13,24.12-1.8
		C214.83,324.71,232.72,319.2,249.61,313.63z"/>
	<path class="st2" d="M250.27,54.95c-2.27,0.06-4.49-0.24-6.71-0.68c-3.38-0.66-6.75-1.66-10.21-2.2
		c-5.84-0.92-11.62-1.91-17.64-2.52c-17.77-1.79-33.09-4.92-53.28-6.48c-3.79-0.29-7.56-0.03-11.16-0.36c-3.4-0.31-6.19,0.07-9.36,0
		c-21.06-0.46-39.19-3.73-60.84-1.8c-0.56,0.05-1.12,0.11-1.68,0.18l-0.31-2.54c3.93-0.5,7.97-1.04,12.07-1.24
		c8.15-0.39,17.41-0.99,24.84-1.44c2.27-0.14,4.59-0.12,6.95,0.01c8.71,0.47,17.98,2.37,27.25,3.23
		C182.69,42.11,220.2,44.92,250.27,54.95z"/>
	<path class="st8" d="M248.47,326.03c0.58,1.47-2.07,3.15-3.6,4.68c-13.74,13.74-42.61,18.34-69.12,21.24
		c-8.53,0.93-16.79,0.56-25.2,0.72c-3.37,0.07-6.77,0.18-10.2,0.31l-0.07-1.97c2.93-0.08,5.88-0.24,8.83-0.5
		c2.35-0.21,4.64-1.23,6.84-1.44c0.49-0.05,0.99-0.09,1.48-0.13c7.36-0.54,14.35,0.1,21.2-0.95c14.03-2.14,28.4-5.86,41.76-10.08
		c6.83-2.15,13.4-4.56,19.52-7.4C242.88,329.13,245.74,327.64,248.47,326.03z"/>
	<path class="st1" d="M244.87,48.83c1.57,0.73,1.44,0.71-1.08,0c-14.6-4.09-31.36-6.97-49.32-8.64c-5.46-0.51-10.54-2.52-15.48-2.88
		c-9.14-0.67-18.16-0.8-27.36-2.16c-4.73-0.7-9.36-1.1-14.04-1.44c-4.52-0.33-9,0.44-13.68,0.36c-0.3-0.01-0.61-0.01-0.91-0.03
		c-6.29-0.19-12.49-1.34-18.89-1.41c-16.61-0.18-36.99-0.36-55.8,2.88c-1.96,4.39-3.19,9.25-4.68,14.04
		c-1.43,4.6-3.43,9.61-4.32,14.4c-0.85,4.58-0.61,9.36-1.08,14.04c-0.5,4.93-1.91,9.89-2.52,14.76c-0.57,4.53-0.44,9.1-0.72,13.68
		c-0.67,10.84-1.38,21.41-1.08,32.76c0.55,20.95,0.71,41.49,1.08,63.36c0.36,21.03-0.9,42.85,0,63.72c0.93,21.59,5.35,42.03,9,61.92
		c2.72,1.42,5.56,2.81,8.55,3.96l-0.52,1.34c-0.86-0.34-1.73-0.66-2.63-0.98c-5.16-1.82-11.41-4.15-12.96-6.48
		c-1.03-1.54-1.61-4.55-2.05-7.92c-0.44-3.36-0.74-7.1-1.19-10.08c-2.71-17.93-2.13-38.5-3.6-57.24c-1-12.71-0.46-25.3-0.72-38.16
		c-0.25-12.27-0.87-26.3-0.36-38.52c1.03-24.64-0.65-43.86,0.61-67.36c0.13-2.34,0.28-4.73,0.47-7.16
		c1.97-25.31,7.45-48.51,14.4-69.48c18.71-1.49,37.36-3.13,56.65-3.13c7.99,0,16.09,0.28,24.35,0.97
		c17.86,1.49,35.97,3.68,52.56,6.12c6.17,0.91,11.92,0.91,18,1.44c1.13,0.1,2.27,0.24,3.42,0.41c8.07,1.2,16.67,4.04,23.94,5.71
		c6.39,1.47,12.18,3.85,18.72,6.12C242.17,47.94,244.3,48.57,244.87,48.83z"/>
	<path class="st0" d="M243.56,54.27l-0.38,2c-4.53-0.84-9.45-0.69-14.15-0.96c-4.89-0.28-9.26-2.13-14.04-2.88
		c-12.92-2.02-25.99-3.76-38.88-5.4c-1.04,0.4,2.43,0.88,0.36,1.44c-1.48-2.01-4.74-1.29-7.92-1.8c-3.41-0.55-7.15-0.88-10.8-1.08
		c-5.43-0.29-10.67-0.53-15.9-0.67l0.06-2.21c3.17,0.07,5.96-0.31,9.36,0c3.6,0.33,7.37,0.07,11.16,0.36
		c20.19,1.56,35.51,4.69,53.28,6.48c6.02,0.61,11.8,1.6,17.64,2.52C236.81,52.61,240.18,53.61,243.56,54.27z"/>
	<path class="st0" d="M238.83,328.14l1.08,2.37c-6.12,2.84-12.69,5.25-19.52,7.4c-13.36,4.22-27.73,7.94-41.76,10.08
		c-6.85,1.05-13.84,0.41-21.2,0.95l-0.18-2.41c2.47-0.19,4.92-0.42,7.34-0.7c7.37-0.84,15.14-3.22,23.04-4.68
		C205.58,337.85,224.34,334.92,238.83,328.14z"/>
	<path class="st2" d="M230.44,323.44l0.16,0.47c-0.64,0.21-1.29,0.44-1.93,0.68c-3.14,1.17-6.27,3.21-9.36,3.96
		c-5.94,1.44-12.94,2.07-19.44,2.88s-12.55,2.5-18.72,3.6c-18.81,3.36-38.56,3.42-57.96,3.96c-19.86,0.55-38.84-3.44-56.88-7.92
		c-4.98-2.34-10.16-4.48-16.2-5.76c-4.55-12.77-7.41-27.17-9-42.84c-0.5-4.95-1.58-9.9-1.8-14.4c-0.4-8.01-0.3-16.18-0.36-23.04
		c-0.14-17.33,0.1-40.72-0.72-64.08c-1.6-45.55-2.22-96.29,12.6-140.04c5.49-2.6,11.76-1.3,18-1.44c3.3-0.08,6.73-0.48,10.25-0.92
		l0.31,2.54c-8.52,1.02-16.74,3.86-25.68,3.78c-4.21,17.47-3.27,37.06-5.4,56.52c-1.38,12.59,0.23,25.08,0,37.8
		c-0.23,12.71-0.44,25.49-0.36,38.16c0.08,12.59,1.8,25.14,1.44,37.44c-0.26,8.78-1.73,17.2-1.44,25.92
		c0.93,27.75,4.63,54.05,6.48,81c21.98,6.79,46.6,6.72,72.72,9.36c8.35,0.85,16.89,0.46,25.2,1.08c6.93,0.52,12.85,1.49,19.44,1.08
		c12.59-0.79,25.41-2.56,38.16-5.4c6.11-1.36,12.37-1.93,18-3.6C228.79,323.98,229.62,323.72,230.44,323.44z"/>
	<path class="st0" d="M202.75,172.31c1.48,8.55,4.24,16.78-2.52,23.04c-1.59,0.08-3.23,0.11-4.9,0.09l0.02-2.19
		c8.9,0,5.62-9.72,4.52-16.26c-1.85-11-3.4-23.18-5.04-34.92c-1.9-13.62-2.32-26.15-1.11-37.99l1.83,0.19
		c-0.5,4.77-0.13,10.42,0,15.48C196.02,137.34,199.68,154.56,202.75,172.31z"/>
	<path class="st0" d="M199.15,73.31c0.73,2.98,2.52,4.72,2.16,8.28c-0.24,2.38-2.33,3.76-2.88,5.76c-0.47,1.74-0.04,4.17-0.36,6.12
		c-0.62,3.73-2.17,7.41-2.52,10.8l-1.83-0.19c0.53-5.22,1.38-10.31,2.55-15.29c-3.61,1.43-7.27,2.82-10.8,4.32
		c-0.75,0.21-2.36-0.44-2.52,0.36c-0.42,0-0.76,0-1.02,0.01l-0.06-1.81c3.34-1.1,7.17-1.71,10.08-3.24
		c0.08-0.45,0.56-0.74-0.36-0.72l0.72-1.44c1.3-0.14,2.41-0.47,3.6-0.72c-0.11-0.97,1.5-2.06,0.36-2.88l-0.06-1.37
		c1.07,0,1.28-2.79,0.06-2.59l-0.72-1.44c-0.13-1.07-0.62-1.78-1.44-2.16c0,0.17,0,0.34,0,0.51h-1.76c0-0.83-1.18-3.17-2.17-3.17
		l0.72-1.28c0.61,0.33,1.3,0.59,1.77,1.06c-0.42-1.86-2.14-2.42-3.24-3.6c-0.01,0.07-0.01,0.14-0.01,0.2l-2.15-0.2
		c-0.42-1.2-1.59-2.2-2.89-2.83l0.43-0.86c0.73,0.36,1.43,0.75,2.1,1.17c-1.14-1.63-3.55-3.2-5.84-3.57l0.38-2.03
		c2.6,0.48,4.98,1.2,6.9,2.36C193.04,65.7,195.45,70.91,199.15,73.31z"/>
	<path class="st4" d="M143.34,233.87c-6.9-5.05-15.8-21.68-7.91-31.68c1.09-1.38,3.27-1.47,3.6-3.6
		C121.37,200.9,127.83,233.87,143.34,233.87z M199.87,176.99c1.1,6.54,4.38,16.26-4.52,16.26c-0.39,0-0.8-0.02-1.24-0.06
		c-5.25-0.46-11.37-1.65-17.64-0.72c2.29-5.26-5.04-7.42-7.92-4.32c0,1.8,0,3.6,0,5.4c-7.34,0.74-9.14-4.06-8.64-11.16
		c0.68-0.66,2.48-3.58,3.24-1.8c-0.22-1.39,1.68-1.62,1.8-3.6c-6.87-2.68-9.6,7.31-7.2,14.04c2.76,3.69,9.23,5.54,14.4,4.68
		c-0.03,1.14,0.02,2.76,0.12,4.41c0.13,2.2,0.35,4.45,0.6,5.67c-11.79,1.29-18.62,7.54-30.6,8.64c3.95,2.28,7.36,3.43,10.8,6.12
		c5.35,4.19,8.78,10.53,17.64,9c-1.13,4.29-0.76,8.41,0.06,12.4c1.22,5.97,3.45,11.64,3.18,17.12c-0.15,3.06-2.64,10.51-4.68,12.96
		c-3.18,3.81-11.17,6.53-12.6,11.16c-1.27,4.1-0.25,8.86-0.36,12.96c-0.01,0.41-0.03,0.82-0.05,1.23
		c-0.36,6.15-2.12,12.07-2.11,18.21c-6.72-0.65-17.84,1.14-24.48-1.44c-0.68-4.19-0.37-8.51,0.72-12.96c-0.93-3.19-0.9-6.68-0.78-10
		c0.07-2.18,0.17-4.29,0.06-6.2c-0.6-10.36-7.32-14.94-14.04-19.8c-2.96-5.2-6.82-9.5-8.64-15.84c1.7,0.23,3.41,0.55,5.13,0.9
		c5.39,1.08,10.86,2.41,16.47,1.98c9.94-0.77,17.77-6.59,25.56-9.36c-0.9-2.87-7.87-1.69-9-2.16c-15-2.88-20.45-15.31-28.44-25.2
		c-5.96-12.58-9.76-25.17-9-42.48c0.48-10.83,3.16-21.04,3.96-30.6c1-11.95,6.46-24.39,11.16-34.56c6.54-4.4,8.85-12.04,18-14.04
		c12.34-2.7,28.56,1.5,41.76,0.36c-1.35-0.48-2.06-0.68-0.66-0.71c0.26-0.01,0.6-0.01,1.02-0.01c0.16-0.8,1.77-0.15,2.52-0.36
		c3.53-1.5,7.19-2.89,10.8-4.32c-1.17,4.98-2.02,10.07-2.55,15.29c-1.21,11.84-0.79,24.37,1.11,37.99
		C196.47,153.81,198.02,165.99,199.87,176.99z M186.91,120.47c-4.43-4.64-8.11-9.47-14.4-12.6c-9.22-4.57-19-4.01-27.72-1.17
		c-1.1,0.35-2.18,0.75-3.24,1.17c-4.91,5.05-13.68,6.24-18.72,11.16c5.77,5.85,13.05,14.97,24.15,16.81
		c0.23,0.04,0.46,0.08,0.69,0.11C164.35,138.23,182.93,132.9,186.91,120.47z"/>
	<path class="st0" d="M199.24,34.22l-0.27,1.7c-1.15-0.17-2.29-0.31-3.42-0.41c-6.08-0.53-11.83-0.53-18-1.44
		c-16.59-2.44-34.7-4.63-52.56-6.12c-8.26-0.69-16.36-0.97-24.35-0.97l0.01-2.34c7.52,0.03,14.78,0,21.81,0.25
		c4.42,0.16,8.74,0.43,12.97,0.9c8.48,0.94,16.96,1.13,25.2,1.8c6.44,0.52,13.45,2.47,20.88,3.6
		C187.44,32.09,193.49,33.32,199.24,34.22z"/>
	<path class="st6" d="M196.27,78.71c1.22-0.2,1.01,2.59-0.06,2.59c-0.1,0-0.2-0.02-0.3-0.07C195.93,79.66,195.37,79.58,196.27,78.71
		z"/>
	<path class="st6" d="M196.27,82.67c1.14,0.82-0.47,1.91-0.36,2.88c-1.19,0.25-2.3,0.58-3.6,0.72
		C192.72,84.16,195.55,84.47,196.27,82.67z"/>
	<path class="st0" d="M195.55,77.27l0.72,1.44c-0.9,0.87-0.34,0.95-0.36,2.52c0.1,0.05,0.2,0.07,0.3,0.07l0.06,1.37
		c-0.72,1.8-3.55,1.49-3.96,3.6l-0.72,1.44c-4,1.89-8.83,2.38-13.96,2.56l-0.08-2.2c-1.23-0.59-2.7-0.99-4.31-1.24l0.35-2.1
		c3.75,0.58,7.55,0.76,10.44-0.26c-2.62,0.05-5.12-0.29-7.57-0.58l0.14-1.26c1.01,0.11,2.03,0.14,3.11,0.04
		c-0.2-0.12-0.42-0.23-0.66-0.33l1.38-0.03c2.42-0.16,6.36,2.34,7.56,0c-0.27,0.01-0.53,0.01-0.78-0.01l0.07-2.35
		c1.14,0,2.24-0.33,3.23-1.24c-2.09-0.43-3.26-1.78-5.76-1.8l-0.03-1.23c0.38-0.02,0.75-0.08,1.11-0.21
		c-1.38-0.76-3.81-1.61-6.05-1.47l-0.07-2.13c-0.46-0.14-0.97-0.3-1.5-0.47l0.41-1.27c0.8,0.28,1.62,0.41,2.17-0.06
		c-0.83,0.03-2.39-0.62-3.29-0.86l0.45-1.99c1.48,0.35,2.92,0.55,4.28,0.33c-1.33-0.55-3.32-1.27-5.34-1.74l0.38-1.69
		c0.81,0.19,1.62,0.37,2.44,0.55l1.44,0.36c2.05,1.19,3.74,2.74,6.12,3.6l2.15,0.2c-0.08,1.36,0.64,1.91,1.48,2.34l-0.72,1.28
		c-0.14,0-0.27,0.05-0.39,0.14c1.57,0.35,1.06,2.78,2.52,3.24c0.03-0.05,0.04-0.12,0.04-0.21h1.76c0,0.55,0,1.1,0,1.65
		C194.59,77.27,195.07,77.27,195.55,77.27z M191.23,82.67c1.04-0.16,1.64-0.76,1.8-1.8C192.04,81.08,191.01,81.25,191.23,82.67z
		 M182.95,72.23c0.87,0.12,1.91,1.9,2.88,0.72C185.67,72.13,183.75,71.22,182.95,72.23z"/>
	<path class="st6" d="M195.55,77.27c-0.48,0-0.96,0-1.44,0c0-0.55,0-1.1,0-1.65c0-0.17,0-0.34,0-0.51
		C194.93,75.49,195.42,76.2,195.55,77.27z"/>
	<path class="st0" d="M195.35,193.25l-0.02,2.19c-6.31-0.04-13.21-0.61-20.66-0.45c-0.68,1.81-0.95,3.43-0.87,5.04l-1.53,0.09
		c-0.1-1.65-0.15-3.27-0.12-4.41c-5.17,0.86-11.64-0.99-14.4-4.68c-2.4-6.73,0.33-16.72,7.2-14.04c-0.12,1.98-2.02,2.21-1.8,3.6
		c-0.76-1.78-2.56,1.14-3.24,1.8c-0.5,7.1,1.3,11.9,8.64,11.16c0-1.8,0-3.6,0-5.4c2.88-3.1,10.21-0.94,7.92,4.32
		c6.27-0.93,12.39,0.26,17.64,0.72C194.55,193.23,194.96,193.25,195.35,193.25z"/>
	<path class="st6" d="M192.35,75.62c0,0.09-0.01,0.16-0.04,0.21c-1.46-0.46-0.95-2.89-2.52-3.24c0.12-0.09,0.25-0.14,0.39-0.14
		C191.17,72.45,192.35,74.79,192.35,75.62z"/>
	<path class="st6" d="M191.59,87.71c0.92-0.02,0.44,0.27,0.36,0.72c-2.91,1.53-6.74,2.14-10.08,3.24c-2.21-0.96-4.88-0.38-7.2,0.36
		c-2.42-0.7-5.58-0.66-7.92-1.44c3.65-0.2,7.34-0.19,10.88-0.32C182.76,90.09,187.59,89.6,191.59,87.71z"/>
	<path class="st6" d="M193.03,80.87c-0.16,1.04-0.76,1.64-1.8,1.8C191.01,81.25,192.04,81.08,193.03,80.87z"/>
	<path class="st6" d="M189.43,68.63c1.1,1.18,2.82,1.74,3.24,3.6c-0.47-0.47-1.16-0.73-1.77-1.06c-0.84-0.43-1.56-0.98-1.48-2.34
		C189.42,68.77,189.42,68.7,189.43,68.63z"/>
	<path class="st6" d="M184.75,76.91c2.5,0.02,3.67,1.37,5.76,1.8c-0.99,0.91-2.09,1.24-3.23,1.24c-2.44,0-5.06-1.55-7.21-2.32
		c0.75-0.49,3.34,0.25,4.68,0.36C184.75,77.63,184.75,77.27,184.75,76.91z"/>
	<path class="st6" d="M187.21,82.3c0.25,0.02,0.51,0.02,0.78,0.01c-1.2,2.34-5.14-0.16-7.56,0
		C182.81,81.52,184.52,82.24,187.21,82.3z"/>
	<path class="st0" d="M113.1,232.77c-1.58-2.85-3.52-5.35-5.75-7.54C108.11,228.9,111.01,230.42,113.1,232.77z M187.28,79.95
		l-0.07,2.35c-2.69-0.06-4.4-0.78-6.78,0.01l-1.38,0.03c-2.67-1.12-7.67-1.15-10.5-0.75c3.01,0.07,5.49,0.78,8.05,1.04l-0.14,1.26
		c-2.68-0.31-5.3-0.55-7.91-0.14c1.61,0.36,3.32,0.72,5.04,0.98l-0.35,2.1c-4.79-0.75-10.87-0.19-15.86,0.51l-0.11-0.83
		c2.36-0.34,4.7-0.69,6.6-0.96c-6.27-1.3-11.93,0.67-16.56,2.16l0.08,2.07c-4.64,0.2-9.88,1.16-12.32,3.69
		c1.75-0.48,3.57-0.9,5.42-1.27l0.34,1.63c-9.15,2-11.46,9.64-18,14.04c-4.7,10.17-10.16,22.61-11.16,34.56
		c-0.8,9.56-3.48,19.77-3.96,30.6c-0.76,17.31,3.04,29.9,9,42.48c7.99,9.89,13.44,22.32,28.44,25.2c1.13,0.47,8.1-0.71,9,2.16
		c-7.79,2.77-15.62,8.59-25.56,9.36c-5.61,0.43-11.08-0.9-16.47-1.98l0.44-2.21c0.8,0.19,1.73,0.12,1.99-0.13
		c-0.92-0.52-2.54-0.34-3.24-1.08l0.22-0.6c0.6,0.22,1.24,0.43,1.94,0.6c-2.22-3.18-7.35-3.45-9.72-6.48
		c0.48-0.05,1.09,1.46,1.44,0.36c-3.69-3.15-7.94-5.74-10.08-10.44c-1.78-0.03-1.9-3.61-3.24-2.88c3.05,4.87,5.9,9.94,11.16,12.6
		c-0.02,0.36-0.29,0.46-0.35,0.77l-2.53-0.05c-2.01-0.4-3.14-3.57-4.68-3.24c1.13,0.5,2.01,2.12,3.05,2.9l-1.37,0.16
		c-1.18-0.95-2.27-1.85-3.23-2.52c-0.01-0.07-0.07-0.13-0.25-0.18l-1.8-1.44c-3.98-5.03-6.36-10.15-9-16.92
		c-0.17-1.13,1.1-0.81,0.72-2.16c-3.99-6.95-4-17.24-5.4-26.28l-2.81-0.29c0.98-9.15,0.72-18.78,1.73-28.51
		c1.01-9.73,1.63-19.73,3.24-29.16c1.56-9.11,3.71-17.61,6.48-25.92c5.65-16.99,12.14-26.47,21.96-37.8
		c4.87-1.89,9.89-5.04,16.2-7.2c6.3-2.15,12.63-3.35,19.8-4.32c2.57-0.35,5.19-1.78,7.92-1.8c3.33-0.03,7.43,1.83,11.52,2.52
		c5.46,0.92,11.84,0.95,17.22,1.96l-0.38,2.03c-0.59-0.1-1.17-0.11-1.72-0.03c1.85,0.78,3.72,1.54,5.46,2.43l-0.43,0.86
		c-1.12-0.55-2.33-0.83-3.23-0.77l-1.44-0.36c-1.78-3.18-8.69-3.84-12.6-2.16c0.27,0.01,0.54,0.03,0.8,0.05l-0.08,1.39
		c-3.33-0.78-7.72-1.68-11.16-0.36l-1.44-2.16c-11.84,0.22-22.26,3.12-30.24,7.56c5.17-2.02,10.95-3.63,16.81-4.95l0.62,2.81
		c-1.22,0.09,0.12,0.39,1.32,0.33l0.09,1.8c-0.04,0.01-0.08,0.01-0.12,0.01c-0.14,0.62,0.53,0.92,0,1.08
		c-1.66-1.01-3.11,0.85-4.32,1.44c5.38-0.51,8.04-1.54,13.68-1.8c-0.13-0.06-0.26-0.12-0.39-0.17l0.39-0.91
		c0.77,0.7,1.76,1.02,2.83,1.15l-0.16,1.14c-0.63-0.07-1.2-0.02-1.59,0.23c1.66-0.09,3.39,1.64,4.68,0.72h1.08
		c0.99-0.12,2.53,1.03,3.24,0l0.31-0.98c2.36,0.77,6.16,2.91,8.69,0.98c-0.81-0.34-1.86-0.69-2.99-0.97l0.27-1.03
		c3.51,0.88,7.66,1.75,10.28,2l0.07,2.13c-0.65,0.03-1.28,0.16-1.87,0.39c1.69-0.11,4.43,1.44,6.81,1.29l0.03,1.23
		c0,0.36,0,0.72,0,1.08c-1.34-0.11-3.93-0.85-4.68-0.36C182.22,78.4,184.84,79.95,187.28,79.95z M173.59,72.59
		c0.72,0.15,2.67,0.89,3.24,0C176.11,72.44,174.16,71.7,173.59,72.59z M171.07,78.35c-4.54-0.21,2.11,1.41,3.24,0.72
		C173.7,78.87,172.3,78.41,171.07,78.35z M145.51,76.91c6.33-0.98,11.07-1.87,18.36-1.8C158.18,73.96,148.86,75.43,145.51,76.91z
		 M157.75,60.71c2.02,0.27,5.14,1.33,7.2,0.36C162.48,60.49,159.87,60.02,157.75,60.71z M159.55,76.19
		c-3.65-0.31-9.06,0.66-11.88,1.44C151.86,78.41,156.79,76.92,159.55,76.19z M154.87,80.15c-3.85-0.73-6.75,0.69-9.36,2.16
		C149.01,81.97,151.86,80.98,154.87,80.15z M150.55,83.39c-3.81-0.21-6.06,1.14-8.64,2.16C144.91,84.95,147.75,84.19,150.55,83.39z
		 M140.11,241.43c0.87,1.99,6.7,3.19,7.56,1.8C144.51,242.8,142.73,242.73,140.11,241.43z M142.27,245.39
		c-2.89-0.25-4.19,1.09-6.12,1.8C138.66,247.06,140.71,246.47,142.27,245.39z M133.27,77.63c5.04-1.2,11.05-1.43,15.48-3.24
		C142.1,74.97,136.92,73.94,133.27,77.63z M136.51,89.51c1.12-0.56,3.01-0.35,3.6-1.44C138.71,88.35,137.04,88.36,136.51,89.51z
		 M134.71,74.03c2.16,0,4.2-0.12,5.04-1.44C137.85,72.85,135.89,73.05,134.71,74.03z M130.75,243.95c1.06,1.34,3.25,1.55,5.76,1.44
		C135.65,243.85,132.72,244.39,130.75,243.95z M128.23,75.11c3.73-2.39,9.43-2.81,12.6-5.76C135.7,70.1,130.37,72.57,128.23,75.11z
		 M132.55,63.95c1.36-0.32,3.09-0.27,3.96-1.08C135.04,63.08,133.31,63.03,132.55,63.95z M131.11,95.63c1.34-0.46,1.75-1.84,3.6-1.8
		c-0.41-1.13,0.57-0.87,0.72-1.44C133.64,92.88,131.01,94.44,131.11,95.63z M127.15,241.43c2.53,0.59,5.96,2.2,8.64,1.44
		C132.98,242.5,130.18,239.32,127.15,241.43z M132.55,78.35c-0.06-0.42,0.06-1.02-0.36-1.08c-0.76,1.04-2.67,0.93-3.24,2.16
		C130.18,79.1,131.53,78.89,132.55,78.35z M126.07,73.67c1.85-1.63,5.44-1.52,6.84-3.6C129.92,70.32,126.99,72.55,126.07,73.67z
		 M127.51,239.27c-1.81,0.01-4.68-1.71-6.84-1.08C122.3,238.92,125.89,241.95,127.51,239.27z M126.43,246.83
		c-3.25,0.01-7.12-1.28-9-1.44C119.13,246.93,123.28,247.94,126.43,246.83z M121.39,243.95c1.44,0.25,3.74,1.53,4.68,1.08
		C124.68,244.73,122.62,243.22,121.39,243.95z M120.67,102.83c2.63-2.29,6.97-4.78,7.92-7.56
		C126.05,97.65,121.45,99.89,120.67,102.83z M121.75,77.27c1.75-1.25,4.3-1.7,5.4-3.6c-0.91,0.55-2.04,0.62-2.52,0.72
		c0.88,0.36-1.34,1.59-1.8,0.72C123.13,76.27,120.7,76.54,121.75,77.27z M124.63,240.71c-1.71,0.16-2.01-1.11-3.24-1.44
		C120.73,239.84,123.65,241.78,124.63,240.71z M131.47,237.47c-6.24-3.24-11.08-9.8-15.12-14.04
		C119.9,229.37,124.71,235.95,131.47,237.47z M122.83,88.43c0.72-0.72,1.7-1.18,2.16-2.16C123.88,86.38,122,87.57,122.83,88.43z
		 M122.47,81.95c-1.51-0.07-1.11,1.77-2.88,1.44c0.37-1.31,1.91-1.45,2.16-2.88c-2.57,1.15-4.26,3.19-5.76,5.4
		c1.91-0.01,1.53-2.31,3.6-2.16c-0.91,1.74-4.41,2.79-3.96,4.68C117.35,85.71,120.61,84.53,122.47,81.95z M125.71,82.31
		c-3.51,1.89-6.76,4.04-9,7.2C119.98,87.39,123.02,85.02,125.71,82.31z M118.15,74.39c1.27-1.25,3.46-1.58,4.32-3.24
		C120.91,71.87,117.59,72.74,118.15,74.39z M117.43,233.15c0.52,1.41,1.86,3.89,3.24,3.24
		C119.67,235.24,118.72,234.02,117.43,233.15z M114.19,116.87c1.49-3.71,5.71-9.17,5.4-12.24
		C117.72,108.4,114.94,113.17,114.19,116.87z M117.07,93.83c0.91-2.21,3.47-2.77,4.32-5.04C119.34,89.62,116.98,92.05,117.07,93.83z
		 M112.03,101.39c4.07-3.13,7.26-7.14,10.44-11.16C117.71,92.67,114.93,97.09,112.03,101.39z M116.35,233.87
		c0.02-1.24-1.52-2.78-2.16-2.16C114.91,232.43,115.37,233.41,116.35,233.87z M114.91,83.03c1.59-1.77,3.91-2.81,5.76-4.32
		C118.38,79.54,114.89,81.08,114.91,83.03z M113.11,78.71c1.66-0.26,2.38-1.46,3.24-2.52C114.69,76.45,113.97,77.65,113.11,78.71z
		 M111.67,226.31c0.42,1.38,0.42,3.18,2.52,2.88C113.96,227.62,112.42,227.36,111.67,226.31z M109.15,101.39
		c2.73-3.99,5.56-8.24,8.64-11.16c-5.47,2.81-8.36,8.21-11.16,13.68C107.37,104.18,108.47,102.38,109.15,101.39z M109.15,108.23
		c1.24-2.96,4.9-5.42,5.4-7.92C112.74,102.7,109.42,105.49,109.15,108.23z M101.95,86.27c5.51-6.97,11.91-13.05,19.44-18
		C113.01,72.13,105.05,78.33,101.95,86.27z M109.15,119.03c1.19-1.27,3.44-5.12,2.52-6.12
		C111.19,115.31,109.82,116.82,109.15,119.03z M105.19,229.55c3.39,4.42,8.21,9.31,13.32,10.8
		C114.05,236.77,109.9,232.88,105.19,229.55z M108.79,144.95c0.38-8.5,3.86-15.82,4.32-23.04
		C109.87,127.52,107.08,138.9,108.79,144.95z M104.83,98.15c3.72-3.84,7.76-9.28,10.08-13.32
		C111.23,88.71,106.32,93.27,104.83,98.15z M113.11,219.47c-1.75-3.78-4.22-8.32-5.4-13.68
		C107.81,212.05,109.69,216.53,113.11,219.47z M115.99,241.43c-4.45-1.8-7.52-6.88-10.8-8.64
		C108.03,236.2,111.46,240.92,115.99,241.43z M112.39,225.23c-2.12-4.6-3.39-10.05-7.2-12.96
		C105.96,218.22,108.42,222.48,112.39,225.23z M106.99,222.71c0.96,0.85,1.58,3.93,2.88,3.24
		C108.69,225.32,108.2,222.12,106.99,222.71z M108.07,84.47c1.56-1.56,3.24-3,4.68-4.68C110.78,80.51,108.04,84.13,108.07,84.47z
		 M108.07,119.03c-0.29-1.04,1.99-2.43,0.36-2.52C108.54,117.38,106.86,118.25,108.07,119.03z M102.31,118.31
		c2.89-7.55,7.64-15.16,10.8-21.24C109.17,103.57,102.8,109.56,102.31,118.31z M105.55,122.99c1.49,0.16,2.39-2.84,1.44-2.88
		C106.92,121.48,105.48,121.48,105.55,122.99z M105.19,166.19c1.62-8.83,2.16-18.9,1.44-27.36c-2.16,10.43-1.41,19.29-1.8,28.08
		C104.71,169.34,105.47,167.71,105.19,166.19z M104.47,120.83c1.34-0.59,2.37-3.38,2.16-4.32
		C105.91,117.95,105.19,119.39,104.47,120.83z M104.11,201.11c1.41,0.16,0.95,4.08,2.16,3.24c-0.64-5.72-1.34-11.38-2.88-16.2
		C102.37,192.27,105.05,199.99,104.11,201.11z M102.67,142.43c1.17-6.75,4.71-13.05,6.12-18.36
		C105.9,129.1,102.87,135.91,102.67,142.43z M103.03,233.51c0.22,1.71,2.02,3.72,3.24,3.24
		C104.82,236.04,104.53,234.17,103.03,233.51z M104.47,90.23c0.21-0.89,2.14-1.91,1.08-2.88C105.35,88.25,103.87,89.72,104.47,90.23
		z M105.91,210.11c-0.5-2.02-0.51-4.53-2.16-5.4C104.04,206.95,104.31,209.19,105.91,210.11z M100.87,113.63
		c1.22-2.14,4.48-5.53,3.6-7.92c-1.31,3.37-3.76,5.6-4.32,9.72C99.85,117.16,100.81,113.74,100.87,113.63z M104.47,174.83
		c0.21-0.92,0.73-5.11,0-5.4C104.95,171.49,103.39,173.37,104.47,174.83z M105.91,221.27c-0.8-3.08-2.87-4.63-4.32-7.56
		c-2.04-4.12-1.49-9.87-3.96-12.6C99.51,208.71,101.07,216.63,105.91,221.27z M103.03,184.19c0.34,1.1-0.77,3.65,0.72,3.6
		C103.3,187.02,103.63,183.62,103.03,184.19z M101.23,138.47c1.22-5.14,2.86-11.78,4.68-15.12
		C103.74,126.15,100.03,132.31,101.23,138.47z M101.95,170.87c0.67-5.62,2.07-12.51,1.08-16.92
		C102.86,160.72,100.98,164.76,101.95,170.87z M103.75,221.63c-1.09-1.21-1.55-3.74-2.52-5.76c-0.74-1.55-3.14-4.06-2.16-3.96
		c0.02,0.22,0.05,0.43,0.36,0.36c-2.82-10.91-5.43-21.65-5.76-31.32c-0.53-15.68,1.04-28.17,2.16-42.84
		c-2.47,6.29-2.88,14.12-3.24,21.96c-0.67,14.69,0.17,34.06,3.24,45C97.17,209.87,99.54,218.23,103.75,221.63z M103.75,212.27
		c-0.9-5.39-2.45-11.48-3.24-15.84C99.81,203.49,101.78,207.88,103.75,212.27z M101.95,153.95c0.5-1.7,0.75-3.77,0.36-4.68
		c-0.73,1.67-0.79,4.01-0.72,6.48C101.89,157.69,102.06,154.67,101.95,153.95z M95.11,99.59c2.91-3.33,5.62-8.78,7.2-12.24
		C99.3,90.82,97.08,95.08,95.11,99.59z M105.91,228.47c-5.09-7.15-9.72-14.76-12.6-24.12C94.27,215.63,97.48,224.66,105.91,228.47z
		 M98.71,101.75c0.45-1.59,1.4-2.68,1.8-4.32C99.37,98.1,98.39,100.81,98.71,101.75z M99.43,200.39c-0.1-8.83-0.69-16.15-3.24-20.16
		C95.87,186.9,95.43,193.75,99.43,200.39z M98.71,157.55c-2.15-2.73,1.91-9.93,0-15.12c-0.28,5.51-1.25,10.81-1.08,17.28
		C98.74,159.74,98.7,158.62,98.71,157.55z M96.55,111.11c0.46-1.66,2.96-4.86,1.8-5.76C97.9,107.18,95.82,109.29,96.55,111.11z
		 M98.71,182.75c-0.64-8.48-0.04-17.2-1.44-22.68C97.3,168.52,95.4,176.03,98.71,182.75z M100.87,233.15
		c-2.62-5.78-4.73-12.07-9-16.2C92.83,224.39,96.89,228.73,100.87,233.15z M95.47,129.83c0.59-1.58,2.48-7.8,2.16-9
		C96.94,123.42,94.27,127.74,95.47,129.83z M93.31,111.47c1.79-3.46,4.39-10.75,4.32-12.6C95.61,102.25,93.5,107.46,93.31,111.47z
		 M93.67,136.67c0.26-1.18,1.99-4.33,0.72-4.68C94.34,133.52,92.59,135.21,93.67,136.67z M94.03,103.19c-0.36,0-0.72,0-1.08,0
		c-1.35,3.81-3.09,9.15-3.24,12.96C91.26,111.94,92.87,107.79,94.03,103.19z M90.43,125.51c1.66-2.26,3.62-7.8,2.88-10.08
		c-0.86,2.74-1.57,5.63-3.24,7.56C91.17,123.48,90.18,123.99,90.43,125.51z M88.63,108.23c2.19-3.69,4.58-9.1,5.4-12.96
		C92.19,99.31,89.17,104.09,88.63,108.23z M90.79,203.63c0.34,0.9,0.42,4.35,1.8,2.88c-2.24-7.77-1.95-14.54-3.96-22.68
		C88.45,191.37,88.86,198.51,90.79,203.63z M92.59,192.11c-0.96-4.57-0.17-11.1-1.08-15.48C91.89,181.81,90.18,188.04,92.59,192.11z
		 M90.07,208.31c0.09,3.27,1.69,6.95,3.24,7.56C91.93,213.65,91.4,210.58,90.07,208.31z M94.75,233.87
		c-2.99-3.49-4.82-8.14-7.2-12.24C88.75,227.13,91.73,232.21,94.75,233.87z M90.43,127.67c-1.39-0.57-0.17-3.42-0.72-3.96
		c-3.42,5.11-3.26,13.78-4.68,20.88c1.36-0.58,1.07-2.51,1.44-3.96C87.59,136.19,89.48,131.49,90.43,127.67z M89.71,151.07
		c0.34-0.3,0.77-2.29,0-2.52C89.71,149.19,88.74,150.64,89.71,151.07z M85.03,161.51c2.44-11.63,4.5-24.55,6.84-35.64
		C88.96,137.37,84.16,148.24,85.03,161.51z M86.11,122.63c1.23-2.87,3.2-8.76,2.52-11.16C88.02,115.42,86.3,118.26,86.11,122.63z
		 M87.55,193.19c-0.93-12.32,1.21-25.08-0.36-36.36c-0.11,2.78-0.89,4.87-1.08,7.56c1.59,0-0.33-1.45,1.08-1.8
		c0.49,2.17-1.3,2.06-1.44,3.6c1.16,0.45,0.28-1.16,1.44-0.72C85.55,174.43,85.07,182.92,87.55,193.19z M88.99,215.15
		c-0.99-2.25-1.65-4.83-2.88-6.84C86.62,211.04,87.44,213.46,88.99,215.15z M86.83,200.03c-1.11-2.26-1.28-4.3-1.44-6.84
		c-0.62,0.14-0.92-0.53-1.08,0C85.41,195.18,84.41,199.19,86.83,200.03z M85.39,218.75c-0.51-4.53-1.97-8.11-3.6-11.52
		C82.28,211.78,83.87,215.23,85.39,218.75z M83.59,178.43c-0.08-3.88-0.33-7.59-1.44-10.44C81.26,171.53,82.34,175.87,83.59,178.43z
		 M81.79,158.63c-0.13-0.97,0.33-4.38-0.36-3.6C81.9,156.61,80.51,158.4,81.79,158.63z M81.07,198.23c-0.11-1.09,0.4-2.8-0.72-2.88
		C80.38,196.52,80.54,197.56,81.07,198.23z"/>
	<path class="st6" d="M185.83,72.95c-0.97,1.18-2.01-0.6-2.88-0.72C183.75,71.22,185.67,72.13,185.83,72.95z"/>
	<path class="st0" d="M186.19,49.19c-1.34,0.61-4.48-0.07-5.4-1.08C182.23,48.83,184.56,48.66,186.19,49.19z"/>
	<path class="st6" d="M186.91,66.11c-0.67-0.42-1.37-0.81-2.1-1.17c-1.74-0.89-3.61-1.65-5.46-2.43c0.55-0.08,1.13-0.07,1.72,0.03
		C183.36,62.91,185.77,64.48,186.91,66.11z"/>
	<path class="st6" d="M184.38,65.8c1.3,0.63,2.47,1.63,2.89,2.83c-2.38-0.86-4.07-2.41-6.12-3.6
		C182.05,64.97,183.26,65.25,184.38,65.8z"/>
	<path class="st6" d="M185.83,75.47c-0.36,0.13-0.73,0.19-1.11,0.21c-2.38,0.15-5.12-1.4-6.81-1.29c0.59-0.23,1.22-0.36,1.87-0.39
		C182.02,73.86,184.45,74.71,185.83,75.47z"/>
	<path class="st6" d="M176.46,83.89c2.45,0.29,4.95,0.63,7.57,0.58c-2.89,1.02-6.69,0.84-10.44,0.26c-1.72-0.26-3.43-0.62-5.04-0.98
		C171.16,83.34,173.78,83.58,176.46,83.89z"/>
	<path class="st0" d="M181.87,91.67l0.06,1.81c-1.4,0.03-0.69,0.23,0.66,0.71c-13.2,1.14-29.42-3.06-41.76-0.36l-0.34-1.63
		c3.93-0.81,8-1.46,11.86-2.33c-1.43-0.12-3.15-0.16-4.96-0.09l-0.08-2.07c2.04-0.08,6.02-0.62,9.96-1.2l0.11,0.83
		c-1.72,0.24-3.31,0.5-4.67,0.73c8.45,0.55,16.86,0.1,24.84,0l0.08,2.2c-3.54,0.13-7.23,0.12-10.88,0.32
		c2.34,0.78,5.5,0.74,7.92,1.44C176.99,91.29,179.66,90.71,181.87,91.67z"/>
	<path class="st6" d="M182.23,67.55c-1.36,0.22-2.8,0.02-4.28-0.33c-2.23-0.5-4.57-1.33-6.88-1.47c1.44-0.64,3.65-0.44,5.82,0.06
		C178.91,66.28,180.9,67,182.23,67.55z"/>
	<path class="st0" d="M172.51,107.87c6.29,3.13,9.97,7.96,14.4,12.6c-3.98,12.43-22.56,17.76-39.24,15.48
		c-0.23-0.03-0.46-0.07-0.69-0.11l0.33-2.05c0.01-0.59,1-0.2,1.08-0.72c-0.49-0.41-0.48-1.32-1.27-1.43l0.23-1.55
		c0.22,0.04,0.45,0.07,0.68,0.1c-3.64-4.43-3.61-10.91-1.8-16.2c0.5-0.94,3.15-3.17,1.8-3.6c-0.54,0.13-1.09,0.27-1.64,0.39
		l-0.36-1.49c0.75-0.15,1.38-0.42,1.64-1.06c-0.86-0.01-1.66,0.03-2.33,0.2l-0.55-1.73C153.51,103.86,163.29,103.3,172.51,107.87z
		 M172.87,131.27c5.49-0.27,8.8-4.63,10.44-7.56C180.63,127.03,175.59,127.99,172.87,131.27z M162.79,131.63
		c9.12-0.01,15.08-6.27,20.52-11.16c-3.42-5.14-11.47-12.08-20.16-10.8C169.25,113.61,168.9,126.73,162.79,131.63z M159.19,131.27
		c5.51-2.14,4.76-11.3,4.32-16.56c-2.18-1.84-3.67-5.02-6.48-5.04c-1.18-0.01-6.61,2.72-7.2,3.24c-5.11,4.45-3.43,13.78,1.08,17.28
		C153.45,130.77,156.33,131.01,159.19,131.27z M157.75,107.87c5.17-0.33-0.09-1.55-1.44-0.36
		C156.94,107.48,157.43,107.59,157.75,107.87z M152.71,133.43c0.43,0.59,2.28,1.31,2.52,0
		C154.93,133.09,152.93,132.66,152.71,133.43z M155.59,107.51c-0.89-0.7-2.14-1-2.52,0.36C153.64,108.44,155,107.97,155.59,107.51z
		 M149.11,108.23c0.01,0.55,2.67,0.79,2.16-0.36C151.26,107.32,148.6,107.08,149.11,108.23z M151.27,133.79
		c0.25-1.33-0.57-1.59-1.8-1.44c0,0.48,0,0.96,0,1.44C150.07,133.79,150.67,133.79,151.27,133.79z"/>
	<path class="st6" d="M177.5,69.21c0.9,0.24,2.46,0.89,3.29,0.86c-0.55,0.47-1.37,0.34-2.17,0.06c-0.68-0.24-1.35-0.6-1.79-0.78
		C176.72,69.07,177.01,69.08,177.5,69.21z"/>
	<path class="st5" d="M183.31,123.71c-1.64,2.93-4.95,7.29-10.44,7.56C175.59,127.99,180.63,127.03,183.31,123.71z"/>
	<path class="st6" d="M179.05,82.34c0.24,0.1,0.46,0.21,0.66,0.33c-1.08,0.1-2.1,0.07-3.11-0.04c-2.56-0.26-5.04-0.97-8.05-1.04
		C171.38,81.19,176.38,81.22,179.05,82.34z"/>
	<path class="st6" d="M178.21,71.4c0.53,0.17,1.04,0.33,1.5,0.47c-2.62-0.25-6.77-1.12-10.28-2c-1.74-0.44-3.32-0.88-4.48-1.24
		c-1.95-0.61-2.72-0.91,0.36-0.72C167.86,68.07,174,70.06,178.21,71.4z"/>
	<path class="st0" d="M178.62,70.13l-0.41,1.27c-4.21-1.34-10.35-3.33-12.9-3.49c-3.08-0.19-2.31,0.11-0.36,0.72
		c1.16,0.36,2.74,0.8,4.48,1.24l-0.27,1.03c-1.96-0.47-4.2-0.69-6.01-0.11c0.1,0.03,0.2,0.06,0.31,0.1l-0.31,0.98
		c-0.72-0.15-2.67-0.89-3.24,0h-1.08c-0.66-0.35-1.96-0.84-3.09-0.95l0.16-1.14c1.94,0.24,4.15-0.15,5.81-0.07
		c1.7,0.18,0.87-0.65-0.36-0.36c-3.46-0.87-5.06-0.32-8.28-0.72l-0.39,0.91c-2.51-1.02-5.89-0.69-8.85-0.56l-0.09-1.8
		c0.77-0.03,1.47-0.22,1.41-0.71c-0.63-0.03-1.12,0.08-1.44,0.36c-0.59-0.01-1.01,0-1.29,0.02l-0.62-2.81
		c4.51-1.02,9.07-1.87,13.43-2.61l1.44,2.16c3.74,0.62,7.27,1.13,11.16,0.36l0.08-1.39c3.42,0.21,6.39,0.89,9.36,1.56l-0.38,1.69
		c-2.17-0.5-4.38-0.7-5.82-0.06c2.31,0.14,4.65,0.97,6.88,1.47l-0.45,1.99c-0.49-0.13-0.78-0.14-0.67,0.14
		C177.27,69.53,177.94,69.89,178.62,70.13z"/>
	<path class="st6" d="M179.71,64.67c-0.82-0.18-1.63-0.36-2.44-0.55c-2.97-0.67-5.94-1.35-9.36-1.56c-0.26-0.02-0.53-0.04-0.8-0.05
		C171.02,60.83,177.93,61.49,179.71,64.67z"/>
	<path class="st0" d="M177.19,208.31c0.99,3.58-0.77,6.28-2.16,9.72c0.37,2.31,2.17,3.63,1.8,6.48c-0.41,3.17-3.1,3.1-3.96,5.4
		c-0.81,2.17-0.83,5.55-0.72,7.56c0.07,1.32,0.28,2.69,0.57,4.1l-1.95,0.38c-0.82-3.99-1.19-8.11-0.06-12.4
		c-8.86,1.53-12.29-4.81-17.64-9c-3.44-2.69-6.85-3.84-10.8-6.12c11.98-1.1,18.81-7.35,30.6-8.64c-0.25-1.22-0.47-3.47-0.6-5.67
		l1.53-0.09c0.07,1.31,0.37,2.6,0.87,3.96C175.29,205.68,176.77,206.79,177.19,208.31z M172.15,216.95
		c3.24-1.38,2.96-5.68,2.16-8.64c-8.43-0.74-13.88,4.6-21.24,6.12C159.04,216.01,166.51,215.95,172.15,216.95z M173.95,225.59
		c3.03-9.57-14-6.67-20.16-8.28C157.02,223.15,165.56,227.3,173.95,225.59z"/>
	<path class="st0" d="M172.72,241.57c1.6,7.73,5.65,16.64,3.39,24.7c-0.79,2.82-3.27,6.59-5.4,9c-2.55,2.89-8.41,4.6-10.08,7.92
		c-1.4,2.76-1.96,8.7-2.22,14.31l-2.15-0.12c0.02-0.41,0.04-0.82,0.05-1.23c0.11-4.1-0.91-8.86,0.36-12.96
		c1.43-4.63,9.42-7.35,12.6-11.16c2.04-2.45,4.53-9.9,4.68-12.96c0.27-5.48-1.96-11.15-3.18-17.12L172.72,241.57z"/>
	<path class="st6" d="M176.83,72.59c-0.57,0.89-2.52,0.15-3.24,0C174.16,71.7,176.11,72.44,176.83,72.59z"/>
	<path class="st5" d="M183.31,120.47c-5.44,4.89-11.4,11.15-20.52,11.16c6.11-4.9,6.46-18.02,0.36-21.96
		C171.84,108.39,179.89,115.33,183.31,120.47z"/>
	<path class="st7" d="M174.31,208.31c0.8,2.96,1.08,7.26-2.16,8.64c-5.64-1-13.11-0.94-19.08-2.52
		C160.43,212.91,165.88,207.57,174.31,208.31z"/>
	<path class="st7" d="M153.79,217.31c6.16,1.61,23.19-1.29,20.16,8.28C165.56,227.3,157.02,223.15,153.79,217.31z"/>
	<path class="st6" d="M173.24,86.83c1.61,0.25,3.08,0.65,4.31,1.24c-7.98,0.1-16.39,0.55-24.84,0c1.36-0.23,2.95-0.49,4.67-0.73
		C162.37,86.64,168.45,86.08,173.24,86.83z"/>
	<path class="st6" d="M174.31,79.07c-1.13,0.69-7.78-0.93-3.24-0.72C172.3,78.41,173.7,78.87,174.31,79.07z"/>
	<path class="st6" d="M172.15,71.87c-2.53,1.93-6.33-0.21-8.69-0.98c-0.11-0.04-0.21-0.07-0.31-0.1c1.81-0.58,4.05-0.36,6.01,0.11
		C170.29,71.18,171.34,71.53,172.15,71.87z"/>
	<path class="st6" d="M167.83,63.95c-3.89,0.77-7.42,0.26-11.16-0.36C160.11,62.27,164.5,63.17,167.83,63.95z"/>
	<path class="st6" d="M163.87,75.11c-7.29-0.07-12.03,0.82-18.36,1.8C148.86,75.43,158.18,73.96,163.87,75.11z"/>
	<path class="st5" d="M163.51,114.71c0.44,5.26,1.19,14.42-4.32,16.56c-2.86-0.26-5.74-0.5-8.28-1.08
		c-4.51-3.5-6.19-12.83-1.08-17.28c0.59-0.52,6.02-3.25,7.2-3.24C159.84,109.69,161.33,112.87,163.51,114.71z M149.83,120.47
		c1.32,5.27,12.83,5.15,11.16-2.88c-0.54-1.49-4.1-2.85-5.04-0.72C152.99,113.04,148.84,116.52,149.83,120.47z"/>
	<path class="st6" d="M164.95,61.07c-2.06,0.97-5.18-0.09-7.2-0.36C159.87,60.02,162.48,60.49,164.95,61.07z"/>
	<path class="st6" d="M163.15,71.87c-0.71,1.03-2.25-0.12-3.24,0C160.48,70.98,162.43,71.72,163.15,71.87z"/>
	<path class="st6" d="M161.35,69.35c1.23-0.29,2.06,0.54,0.36,0.36c-1.66-0.08-3.87,0.31-5.81,0.07c-1.07-0.13-2.06-0.45-2.83-1.15
		C156.29,69.03,157.89,68.48,161.35,69.35z"/>
	<path class="st0" d="M160.99,117.59c1.67,8.03-9.84,8.15-11.16,2.88c-0.99-3.95,3.16-7.43,6.12-3.6
		C156.89,114.74,160.45,116.1,160.99,117.59z"/>
	<path class="st6" d="M147.31,87.71c4.63-1.49,10.29-3.46,16.56-2.16c-1.9,0.27-4.24,0.62-6.6,0.96
		C153.33,87.09,149.35,87.63,147.31,87.71z"/>
	<path class="st6" d="M147.67,77.63c2.82-0.78,8.23-1.75,11.88-1.44C156.79,76.92,151.86,78.41,147.67,77.63z"/>
	<path class="st5" d="M156.31,107.51c1.35-1.19,6.61,0.03,1.44,0.36C157.43,107.59,156.94,107.48,156.31,107.51z"/>
	<path class="st0" d="M156.26,297.38l2.15,0.12c-0.19,3.95-0.23,7.75-0.3,10.17c-0.08,2.43,0.88,5.73,0,7.92
		c-1.43,3.57-7.41,2.44-11.88,2.52c-8.25,0.14-15.17,1.46-20.52-1.44c-1.01-9.59,1.29-17.99,1.44-25.56l2.46,0.08
		c-0.12,3.32-0.15,6.81,0.78,10c-1.09,4.45-1.4,8.77-0.72,12.96c6.64,2.58,17.76,0.79,24.48,1.44
		C154.14,309.45,155.9,303.53,156.26,297.38z"/>
	<path class="st6" d="M158.83,71.87c-1.29,0.92-3.02-0.81-4.68-0.72c0.39-0.25,0.96-0.3,1.59-0.23
		C156.87,71.03,158.17,71.52,158.83,71.87z"/>
	<path class="st0" d="M157.25,346.53l0.18,2.41c-0.49,0.04-0.99,0.08-1.48,0.13c-2.2,0.21-4.49,1.23-6.84,1.44
		c-2.95,0.26-5.9,0.42-8.83,0.5c-5.4,0.15-10.75,0.04-16.01-0.14c-8.15-0.28-15.99-1.73-24.12-2.52c-13.46-1.3-26.16-2.27-37.8-5.76
		c-3.48-1.04-6.71-3.13-10.44-4.32c-6.55-2.09-12.84-3.56-19.08-6.12c-0.36-4.71-0.84-9.24-1.37-13.68l2.92-0.36
		c0.44,3.37,1.02,6.38,2.05,7.92c1.55,2.33,7.8,4.66,12.96,6.48c0.9,0.32,1.77,0.64,2.63,0.98c4.24,1.64,8.04,3.41,11.77,4.42
		c5.83,1.59,11.42,2.01,16.56,3.24C102.06,346.34,130.69,348.67,157.25,346.53z"/>
	<path class="st5" d="M155.23,133.43c-0.24,1.31-2.09,0.59-2.52,0C152.93,132.66,154.93,133.09,155.23,133.43z"/>
	<path class="st5" d="M153.07,107.87c0.38-1.36,1.63-1.06,2.52-0.36C155,107.97,153.64,108.44,153.07,107.87z"/>
	<path class="st6" d="M145.51,82.31c2.61-1.47,5.51-2.89,9.36-2.16C151.86,80.98,149.01,81.97,145.51,82.31z"/>
	<path class="st6" d="M152.68,69.54c0.13,0.05,0.26,0.11,0.39,0.17c-5.64,0.26-8.3,1.29-13.68,1.8c1.21-0.59,2.66-2.45,4.32-1.44
		c0.53-0.16-0.14-0.46,0-1.08c0.04,0,0.08,0,0.12-0.01C146.79,68.85,150.17,68.52,152.68,69.54z"/>
	<path class="st5" d="M151.27,107.87c0.51,1.15-2.15,0.91-2.16,0.36C148.6,107.08,151.26,107.32,151.27,107.87z"/>
	<path class="st5" d="M149.47,132.35c1.23-0.15,2.05,0.11,1.8,1.44c-0.6,0-1.2,0-1.8,0C149.47,133.31,149.47,132.83,149.47,132.35z"
		/>
	<path class="st6" d="M141.91,85.55c2.58-1.02,4.83-2.37,8.64-2.16C147.75,84.19,144.91,84.95,141.91,85.55z"/>
	<path class="st6" d="M147.39,89.78c1.81-0.07,3.53-0.03,4.96,0.09c-3.86,0.87-7.93,1.52-11.86,2.33c-1.85,0.37-3.67,0.79-5.42,1.27
		C137.51,90.94,142.75,89.98,147.39,89.78z"/>
	<path class="st5" d="M148.03,110.39c1.35,0.43-1.3,2.66-1.8,3.6c-1.81,5.29-1.84,11.77,1.8,16.2c-0.23-0.03-0.46-0.06-0.68-0.1
		c-8.35-1.2-14.61-4.23-18.76-10.34c-0.6,0-1.2,0-1.8,0c4.1-5.42,11.92-7.12,19.6-8.97C146.94,110.66,147.49,110.52,148.03,110.39z"
		/>
	<path class="st5" d="M147.12,131.64c0.79,0.11,0.78,1.02,1.27,1.43c-0.08,0.52-1.07,0.13-1.08,0.72c-0.99-0.01-0.86-1.7-0.36-2.16
		C147.01,131.63,147.07,131.63,147.12,131.64z"/>
	<path class="st5" d="M147.67,108.23c-0.26,0.64-0.89,0.91-1.64,1.06c-0.75,0.16-1.61,0.2-2.32,0.38c0.29-0.66,0.88-1.04,1.63-1.24
		C146.01,108.26,146.81,108.22,147.67,108.23z"/>
	<path class="st0" d="M147.35,130.09l-0.23,1.55c-0.05-0.01-0.11-0.01-0.17-0.01c-0.5,0.46-0.63,2.15,0.36,2.16l-0.33,2.05
		c-11.1-1.84-18.38-10.96-24.15-16.81c5.04-4.92,13.81-6.11,18.72-11.16c1.06-0.42,2.14-0.82,3.24-1.17l0.55,1.73
		c-0.75,0.2-1.34,0.58-1.63,1.24c0.71-0.18,1.57-0.22,2.32-0.38l0.36,1.49c-7.68,1.85-15.5,3.55-19.6,8.97c0.6,0,1.2,0,1.8,0
		C132.74,125.86,139,128.89,147.35,130.09z M140.47,131.27c1.2,0.24,3.62,2.7,4.32,1.08C143.55,132.02,141.28,130.84,140.47,131.27z
		"/>
	<path class="st6" d="M147.67,243.23c-0.86,1.39-6.69,0.19-7.56-1.8C142.73,242.73,144.51,242.8,147.67,243.23z"/>
	<path class="st6" d="M145.15,66.47c0.06,0.49-0.64,0.68-1.41,0.71c-1.2,0.06-2.54-0.24-1.32-0.33c0.28-0.02,0.7-0.03,1.29-0.02
		C144.03,66.55,144.52,66.44,145.15,66.47z"/>
	<path class="st5" d="M144.79,132.35c-0.7,1.62-3.12-0.84-4.32-1.08C141.28,130.84,143.55,132.02,144.79,132.35z"/>
	<path class="st6" d="M155.23,61.43c-4.36,0.74-8.92,1.59-13.43,2.61c-5.86,1.32-11.64,2.93-16.81,4.95
		C132.97,64.55,143.39,61.65,155.23,61.43z"/>
	<path class="st6" d="M136.15,247.19c1.93-0.71,3.23-2.05,6.12-1.8C140.71,246.47,138.66,247.06,136.15,247.19z"/>
	<path class="st6" d="M148.75,74.39c-4.43,1.81-10.44,2.04-15.48,3.24C136.92,73.94,142.1,74.97,148.75,74.39z"/>
	<path class="st8" d="M140.28,351.01l0.07,1.97c-10.83,0.38-21.88,0.85-32.64,0.05c-10.9-0.81-22.06-2.46-32.04-3.24
		c-18.02-1.4-31.92-7.63-43.92-14.4c-0.27-0.9-0.53-1.8-0.78-2.7l1.86-0.54c6.24,2.56,12.53,4.03,19.08,6.12
		c3.73,1.19,6.96,3.28,10.44,4.32c11.64,3.49,24.34,4.46,37.8,5.76c8.13,0.79,15.97,2.24,24.12,2.52
		C129.53,351.05,134.88,351.16,140.28,351.01z"/>
	<path class="st6" d="M140.11,88.07c-0.59,1.09-2.48,0.88-3.6,1.44C137.04,88.36,138.71,88.35,140.11,88.07z"/>
	<path class="st6" d="M139.75,72.59c-0.84,1.32-2.88,1.44-5.04,1.44C135.89,73.05,137.85,72.85,139.75,72.59z"/>
	<path class="st0" d="M139.03,198.59c-0.33,2.13-2.51,2.22-3.6,3.6c-7.89,10,1.01,26.63,7.91,31.68
		C127.83,233.87,121.37,200.9,139.03,198.59z"/>
	<path class="st6" d="M136.51,245.39c-2.51,0.11-4.7-0.1-5.76-1.44C132.72,244.39,135.65,243.85,136.51,245.39z"/>
	<path class="st6" d="M140.83,69.35c-3.17,2.95-8.87,3.37-12.6,5.76C130.37,72.57,135.7,70.1,140.83,69.35z"/>
	<path class="st6" d="M136.51,62.87c-0.87,0.81-2.6,0.76-3.96,1.08C133.31,63.03,135.04,63.08,136.51,62.87z"/>
	<path class="st6" d="M134.71,93.83c-1.85-0.04-2.26,1.34-3.6,1.8c-0.1-1.19,2.53-2.75,4.32-3.24
		C135.28,92.96,134.3,92.7,134.71,93.83z"/>
	<path class="st6" d="M135.79,242.87c-2.68,0.76-6.11-0.85-8.64-1.44C130.18,239.32,132.98,242.5,135.79,242.87z"/>
	<path class="st6" d="M132.19,77.27c0.42,0.06,0.3,0.66,0.36,1.08c-1.02,0.54-2.37,0.75-3.6,1.08
		C129.52,78.2,131.43,78.31,132.19,77.27z"/>
	<path class="st6" d="M132.91,70.07c-1.4,2.08-4.99,1.97-6.84,3.6C126.99,72.55,129.92,70.32,132.91,70.07z"/>
	<path class="st0" d="M129.67,284.99c0.11,1.91,0.01,4.02-0.06,6.2l-2.46-0.08c0.08-4.31-0.21-10.18-2.16-14.04
		c-2.51-4.96-12.46-8.6-16.2-14.76c-2.71-4.46-2.99-8.38-5.04-14.04c-11.18-4.21-18.84-12.08-24.12-23.4
		c-4.48-9.61-5.78-20.63-4.32-33.48c0.02-0.22,0.05-0.43,0.07-0.65l2.81,0.29c-0.77,7.3,0.58,12.87,2.16,19.44
		c2.66,11.06,4.36,21.66,11.52,25.92l1.8,1.44c0.08,0.06,0.16,0.11,0.25,0.18c0.02,0.19-0.31,0.47-0.25,0.9
		c3.07,2.34,6.88,5.84,10.8,6.12c-2.67-0.92-5.16-2.79-7.32-4.5l1.37-0.16c0.5,0.38,1.03,0.56,1.63,0.34l2.53,0.05
		c-0.03,0.09-0.03,0.19-0.01,0.31c3.35,1.97,5.46,3.9,8.86,5.16l-0.22,0.6c-0.09,0.66,0.53,1.04,1.25,1.21l-0.44,2.21
		c-1.72-0.35-3.43-0.67-5.13-0.9c1.82,6.34,5.68,10.64,8.64,15.84C122.35,270.05,129.07,274.63,129.67,284.99z"/>
	<path class="st6" d="M120.67,238.19c2.16-0.63,5.03,1.09,6.84,1.08C125.89,241.95,122.3,238.92,120.67,238.19z"/>
	<path class="st6" d="M117.43,245.39c1.88,0.16,5.75,1.45,9,1.44C123.28,247.94,119.13,246.93,117.43,245.39z"/>
	<path class="st6" d="M126.07,245.03c-0.94,0.45-3.24-0.83-4.68-1.08C122.62,243.22,124.68,244.73,126.07,245.03z"/>
	<path class="st6" d="M128.59,95.27c-0.95,2.78-5.29,5.27-7.92,7.56C121.45,99.89,126.05,97.65,128.59,95.27z"/>
	<path class="st6" d="M127.15,73.67c-1.1,1.9-3.65,2.35-5.4,3.6c-1.05-0.73,1.38-1,1.08-2.16c0.46,0.87,2.68-0.36,1.8-0.72
		C125.11,74.29,126.24,74.22,127.15,73.67z"/>
	<path class="st6" d="M121.39,239.27c1.23,0.33,1.53,1.6,3.24,1.44C123.65,241.78,120.73,239.84,121.39,239.27z"/>
	<path class="st6" d="M116.35,223.43c4.04,4.24,8.88,10.8,15.12,14.04C124.71,235.95,119.9,229.37,116.35,223.43z"/>
	<path class="st6" d="M124.99,86.27c-0.46,0.98-1.44,1.44-2.16,2.16C122,87.57,123.88,86.38,124.99,86.27z"/>
	<path class="st8" d="M122.55,22.86l-0.09,2.03c-7.03-0.25-14.29-0.22-21.81-0.25c-9.39-0.03-19.15-0.14-29.3-1.01
		c-9.45-0.81-20.87,0.28-31.32,3.96c-1.42,6.63-2.92,13.43-4.68,20.16c-2.58,9.83-6.7,18.75-7.56,29.52
		c-0.76,9.51-0.08,19.48-0.62,29.37c-0.03,0.53-0.06,1.06-0.1,1.59c-0.3,4.38-0.5,8.69-0.62,12.98l-2.83-0.09
		c0.16-6.62-0.23-13.73,0.21-21.17c0.78-13.31,0.16-27.46,2.88-38.88c0.99-4.17,0.77-8.82,1.44-12.96
		c0.83-5.09,3.75-19.73,7.2-23.04c2.18-2.09,7.87-2.59,12.6-3.24c9.57-1.32,20.17-2.82,30.24-3.24
		C91.43,18.04,107.04,22.27,122.55,22.86z"/>
	<path class="st6" d="M119.59,83.39c1.77,0.33,1.37-1.51,2.88-1.44c-1.86,2.58-5.12,3.76-6.84,6.48c-0.45-1.89,3.05-2.94,3.96-4.68
		c-2.07-0.15-1.69,2.15-3.6,2.16c1.5-2.21,3.19-4.25,5.76-5.4C121.5,81.94,119.96,82.08,119.59,83.39z"/>
	<path class="st6" d="M116.71,89.51c2.24-3.16,5.49-5.31,9-7.2C123.02,85.02,119.98,87.39,116.71,89.51z"/>
	<path class="st6" d="M122.47,71.15c-0.86,1.66-3.05,1.99-4.32,3.24C117.59,72.74,120.91,71.87,122.47,71.15z"/>
	<path class="st6" d="M120.67,236.39c-1.38,0.65-2.72-1.83-3.24-3.24C118.72,234.02,119.67,235.24,120.67,236.39z"/>
	<path class="st6" d="M119.59,104.63c0.31,3.07-3.91,8.53-5.4,12.24C114.94,113.17,117.72,108.4,119.59,104.63z"/>
	<path class="st6" d="M121.39,88.79c-0.85,2.27-3.41,2.83-4.32,5.04C116.98,92.05,119.34,89.62,121.39,88.79z"/>
	<path class="st6" d="M122.47,90.23c-3.18,4.02-6.37,8.03-10.44,11.16C114.93,97.09,117.71,92.67,122.47,90.23z"/>
	<path class="st6" d="M114.19,231.71c0.64-0.62,2.18,0.92,2.16,2.16C115.37,233.41,114.91,232.43,114.19,231.71z"/>
	<path class="st6" d="M120.67,78.71c-1.85,1.51-4.17,2.55-5.76,4.32C114.89,81.08,118.38,79.54,120.67,78.71z"/>
	<path class="st6" d="M116.35,76.19c-0.86,1.06-1.58,2.26-3.24,2.52C113.97,77.65,114.69,76.45,116.35,76.19z"/>
	<path class="st6" d="M114.19,229.19c-2.1,0.3-2.1-1.5-2.52-2.88C112.42,227.36,113.96,227.62,114.19,229.19z"/>
	<path class="st6" d="M117.79,90.23c-3.08,2.92-5.91,7.17-8.64,11.16c-0.68,0.99-1.78,2.79-2.52,2.52
		C109.43,98.44,112.32,93.04,117.79,90.23z"/>
	<path class="st6" d="M114.55,247.91c-0.26,0.25-1.19,0.32-1.99,0.13c-0.72-0.17-1.34-0.55-1.25-1.21
		C112.01,247.57,113.63,247.39,114.55,247.91z"/>
	<path class="st6" d="M114.55,100.31c-0.5,2.5-4.16,4.96-5.4,7.92C109.42,105.49,112.74,102.7,114.55,100.31z"/>
	<path class="st6" d="M121.39,68.27c-7.53,4.95-13.93,11.03-19.44,18C105.05,78.33,113.01,72.13,121.39,68.27z"/>
	<path class="st6" d="M113.47,246.83c-0.7-0.17-1.34-0.38-1.94-0.6c-3.4-1.26-5.51-3.19-8.86-5.16c-0.02-0.12-0.02-0.22,0.01-0.31
		c0.06-0.31,0.33-0.41,0.35-0.77c-5.26-2.66-8.11-7.73-11.16-12.6c1.34-0.73,1.46,2.85,3.24,2.88c2.14,4.7,6.39,7.29,10.08,10.44
		c-0.35,1.1-0.96-0.41-1.44-0.36C106.12,243.38,111.25,243.65,113.47,246.83z"/>
	<path class="st6" d="M111.67,112.91c0.92,1-1.33,4.85-2.52,6.12C109.82,116.82,111.19,115.31,111.67,112.91z"/>
	<path class="st6" d="M118.51,240.35c-5.11-1.49-9.93-6.38-13.32-10.8C109.9,232.88,114.05,236.77,118.51,240.35z"/>
	<path class="st6" d="M113.11,121.91c-0.46,7.22-3.94,14.54-4.32,23.04C107.08,138.9,109.87,127.52,113.11,121.91z"/>
	<path class="st6" d="M114.91,84.83c-2.32,4.04-6.36,9.48-10.08,13.32C106.32,93.27,111.23,88.71,114.91,84.83z"/>
	<path class="st6" d="M107.71,205.79c1.18,5.36,3.65,9.9,5.4,13.68C109.69,216.53,107.81,212.05,107.71,205.79z"/>
	<path class="st6" d="M105.19,232.79c3.28,1.76,6.35,6.84,10.8,8.64C111.46,240.92,108.03,236.2,105.19,232.79z"/>
	<path class="st6" d="M113.1,232.77c-2.09-2.35-4.99-3.87-5.75-7.54C109.58,227.42,111.52,229.92,113.1,232.77z"/>
	<path class="st6" d="M105.19,212.27c3.81,2.91,5.08,8.36,7.2,12.96C108.42,222.48,105.96,218.22,105.19,212.27z"/>
	<path class="st6" d="M109.87,225.95c-1.3,0.69-1.92-2.39-2.88-3.24C108.2,222.12,108.69,225.32,109.87,225.95z"/>
	<path class="st6" d="M112.75,79.79c-1.44,1.68-3.12,3.12-4.68,4.68C108.04,84.13,110.78,80.51,112.75,79.79z"/>
	<path class="st6" d="M108.43,116.51c1.63,0.09-0.65,1.48-0.36,2.52C106.86,118.25,108.54,117.38,108.43,116.51z"/>
	<path class="st6" d="M113.11,97.07c-3.16,6.08-7.91,13.69-10.8,21.24C102.8,109.56,109.17,103.57,113.11,97.07z"/>
	<path class="st6" d="M106.99,120.11c0.95,0.04,0.05,3.04-1.44,2.88C105.48,121.48,106.92,121.48,106.99,120.11z"/>
	<path class="st6" d="M106.63,138.83c0.72,8.46,0.18,18.53-1.44,27.36c0.28,1.52-0.48,3.15-0.36,0.72
		C105.22,158.12,104.47,149.26,106.63,138.83z"/>
	<path class="st6" d="M106.63,116.51c0.21,0.94-0.82,3.73-2.16,4.32C105.19,119.39,105.91,117.95,106.63,116.51z"/>
	<path class="st6" d="M106.27,204.35c-1.21,0.84-0.75-3.08-2.16-3.24c0.94-1.12-1.74-8.84-0.72-12.96
		C104.93,192.97,105.63,198.63,106.27,204.35z"/>
	<path class="st6" d="M108.79,124.07c-1.41,5.31-4.95,11.61-6.12,18.36C102.87,135.91,105.9,129.1,108.79,124.07z"/>
	<path class="st6" d="M106.27,236.75c-1.22,0.48-3.02-1.53-3.24-3.24C104.53,234.17,104.82,236.04,106.27,236.75z"/>
	<path class="st6" d="M105.55,87.35c1.06,0.97-0.87,1.99-1.08,2.88C103.87,89.72,105.35,88.25,105.55,87.35z"/>
	<path class="st6" d="M103.75,204.71c1.65,0.87,1.66,3.38,2.16,5.4C104.31,209.19,104.04,206.95,103.75,204.71z"/>
	<path class="st6" d="M104.47,105.71c0.88,2.39-2.38,5.78-3.6,7.92c-0.06,0.11-1.02,3.53-0.72,1.8
		C100.71,111.31,103.16,109.08,104.47,105.71z"/>
	<path class="st6" d="M104.47,169.43c0.73,0.29,0.21,4.48,0,5.4C103.39,173.37,104.95,171.49,104.47,169.43z"/>
	<path class="st6" d="M101.59,213.71c1.45,2.93,3.52,4.48,4.32,7.56c-4.84-4.64-6.4-12.56-8.28-20.16
		C100.1,203.84,99.55,209.59,101.59,213.71z"/>
	<path class="st6" d="M103.75,187.79c-1.49,0.05-0.38-2.5-0.72-3.6C103.63,183.62,103.3,187.02,103.75,187.79z"/>
	<path class="st6" d="M105.91,123.35c-1.82,3.34-3.46,9.98-4.68,15.12C100.03,132.31,103.74,126.15,105.91,123.35z"/>
	<path class="st6" d="M103.03,153.95c0.99,4.41-0.41,11.3-1.08,16.92C100.98,164.76,102.86,160.72,103.03,153.95z"/>
	<path class="st6" d="M101.23,215.87c0.97,2.02,1.43,4.55,2.52,5.76c-4.21-3.4-6.58-11.76-7.92-16.56
		c-3.07-10.94-3.91-30.31-3.24-45c0.36-7.84,0.77-15.67,3.24-21.96c-1.12,14.67-2.69,27.16-2.16,42.84
		c0.33,9.67,2.94,20.41,5.76,31.32c-0.31,0.07-0.34-0.14-0.36-0.36C98.09,211.81,100.49,214.32,101.23,215.87z"/>
	<path class="st6" d="M100.51,196.43c0.79,4.36,2.34,10.45,3.24,15.84C101.78,207.88,99.81,203.49,100.51,196.43z"/>
	<path class="st6" d="M102.31,149.27c0.39,0.91,0.14,2.98-0.36,4.68c0.11,0.72-0.06,3.74-0.36,1.8
		C101.52,153.28,101.58,150.94,102.31,149.27z"/>
	<path class="st0" d="M100.65,24.64l-0.01,2.34c-19.29,0-37.94,1.64-56.65,3.13c-6.95,20.97-12.43,44.17-14.4,69.48
		c-0.19,2.43-0.34,4.82-0.47,7.16l-1.95-0.11c0.54-9.89-0.14-19.86,0.62-29.37c0.86-10.77,4.98-19.69,7.56-29.52
		c1.76-6.73,3.26-13.53,4.68-20.16c10.45-3.68,21.87-4.77,31.32-3.96C81.5,24.5,91.26,24.61,100.65,24.64z"/>
	<path class="st6" d="M100.15,240.71c-0.6,0.22-1.13,0.04-1.63-0.34c-1.04-0.78-1.92-2.4-3.05-2.9
		C97.01,237.14,98.14,240.31,100.15,240.71z"/>
	<path class="st6" d="M102.31,87.35c-1.58,3.46-4.29,8.91-7.2,12.24C97.08,95.08,99.3,90.82,102.31,87.35z"/>
	<path class="st6" d="M93.31,204.35c2.88,9.36,7.51,16.97,12.6,24.12C97.48,224.66,94.27,215.63,93.31,204.35z"/>
	<path class="st6" d="M104.47,245.03c-3.92-0.28-7.73-3.78-10.8-6.12c-0.06-0.43,0.27-0.71,0.25-0.9c0.96,0.67,2.05,1.57,3.23,2.52
		C99.31,242.24,101.8,244.11,104.47,245.03z"/>
	<path class="st6" d="M100.51,97.43c-0.4,1.64-1.35,2.73-1.8,4.32C98.39,100.81,99.37,98.1,100.51,97.43z"/>
	<path class="st6" d="M96.19,180.23c2.55,4.01,3.14,11.33,3.24,20.16C95.43,193.75,95.87,186.9,96.19,180.23z"/>
	<path class="st6" d="M98.71,142.43c1.91,5.19-2.15,12.39,0,15.12c-0.01,1.07,0.03,2.19-1.08,2.16
		C97.46,153.24,98.43,147.94,98.71,142.43z"/>
	<path class="st6" d="M98.35,105.35c1.16,0.9-1.34,4.1-1.8,5.76C95.82,109.29,97.9,107.18,98.35,105.35z"/>
	<path class="st6" d="M97.27,160.07c1.4,5.48,0.8,14.2,1.44,22.68C95.4,176.03,97.3,168.52,97.27,160.07z"/>
	<path class="st6" d="M91.87,216.95c4.27,4.13,6.38,10.42,9,16.2C96.89,228.73,92.83,224.39,91.87,216.95z"/>
	<path class="st6" d="M97.63,120.83c0.32,1.2-1.57,7.42-2.16,9C94.27,127.74,96.94,123.42,97.63,120.83z"/>
	<path class="st6" d="M97.63,98.87c0.07,1.85-2.53,9.14-4.32,12.6C93.5,107.46,95.61,102.25,97.63,98.87z"/>
	<path class="st6" d="M94.39,131.99c1.27,0.35-0.46,3.5-0.72,4.68C92.59,135.21,94.34,133.52,94.39,131.99z"/>
	<path class="st6" d="M92.95,103.19c0.36,0,0.72,0,1.08,0c-1.16,4.6-2.77,8.75-4.32,12.96C89.86,112.34,91.6,107,92.95,103.19z"/>
	<path class="st6" d="M93.92,238.01c-0.09-0.07-0.17-0.12-0.25-0.18C93.85,237.88,93.91,237.94,93.92,238.01z"/>
	<path class="st6" d="M93.31,115.43c0.74,2.28-1.22,7.82-2.88,10.08c-0.25-1.52,0.74-2.03-0.36-2.52
		C91.74,121.06,92.45,118.17,93.31,115.43z"/>
	<path class="st6" d="M94.03,95.27c-0.82,3.86-3.21,9.27-5.4,12.96C89.17,104.09,92.19,99.31,94.03,95.27z"/>
	<path class="st6" d="M92.59,206.51c-1.38,1.47-1.46-1.98-1.8-2.88c-1.93-5.12-2.34-12.26-2.16-19.8
		C90.64,191.97,90.35,198.74,92.59,206.51z"/>
	<path class="st6" d="M91.51,176.63c0.91,4.38,0.12,10.91,1.08,15.48C90.18,188.04,91.89,181.81,91.51,176.63z"/>
	<path class="st6" d="M93.31,215.87c-1.55-0.61-3.15-4.29-3.24-7.56C91.4,210.58,91.93,213.65,93.31,215.87z"/>
	<path class="st6" d="M87.55,221.63c2.38,4.1,4.21,8.75,7.2,12.24C91.73,232.21,88.75,227.13,87.55,221.63z"/>
	<path class="st6" d="M89.71,123.71c0.55,0.54-0.67,3.39,0.72,3.96c-0.95,3.82-2.84,8.52-3.96,12.96c-0.37,1.45-0.08,3.38-1.44,3.96
		C86.45,137.49,86.29,128.82,89.71,123.71z"/>
	<path class="st6" d="M89.71,148.55c0.77,0.23,0.34,2.22,0,2.52C88.74,150.64,89.71,149.19,89.71,148.55z"/>
	<path class="st6" d="M91.87,125.87c-2.34,11.09-4.4,24.01-6.84,35.64C84.16,148.24,88.96,137.37,91.87,125.87z"/>
	<path class="st6" d="M88.63,111.47c0.68,2.4-1.29,8.29-2.52,11.16C86.3,118.26,88.02,115.42,88.63,111.47z"/>
	<path class="st6" d="M82.87,219.47c2.64,6.77,5.02,11.89,9,16.92c-7.16-4.26-8.86-14.86-11.52-25.92
		c-1.58-6.57-2.93-12.14-2.16-19.44c1.4,9.04,1.41,19.33,5.4,26.28C83.97,218.66,82.7,218.34,82.87,219.47z"/>
	<path class="st6" d="M87.19,156.83c1.57,11.28-0.57,24.04,0.36,36.36c-2.48-10.27-2-18.76-0.36-27.72
		c-1.16-0.44-0.28,1.17-1.44,0.72c0.14-1.54,1.93-1.43,1.44-3.6c-1.41,0.35,0.51,1.8-1.08,1.8C86.3,161.7,87.08,159.61,87.19,156.83
		z"/>
	<path class="st6" d="M86.11,208.31c1.23,2.01,1.89,4.59,2.88,6.84C87.44,213.46,86.62,211.04,86.11,208.31z"/>
	<path class="st6" d="M85.39,193.19c0.16,2.54,0.33,4.58,1.44,6.84c-2.42-0.84-1.42-4.85-2.52-6.84
		C84.47,192.66,84.77,193.33,85.39,193.19z"/>
	<path class="st6" d="M81.79,207.23c1.63,3.41,3.09,6.99,3.6,11.52C83.87,215.23,82.28,211.78,81.79,207.23z"/>
	<path class="st6" d="M82.15,167.99c1.11,2.85,1.36,6.56,1.44,10.44C82.34,175.87,81.26,171.53,82.15,167.99z"/>
	<path class="st6" d="M81.43,155.03c0.69-0.78,0.23,2.63,0.36,3.6C80.51,158.4,81.9,156.61,81.43,155.03z"/>
	<path class="st6" d="M80.35,195.35c1.12,0.08,0.61,1.79,0.72,2.88C80.54,197.56,80.38,196.52,80.35,195.35z"/>
	<path class="st0" d="M34.38,318.11l-2.92,0.36c-1.14-9.41-2.54-18.39-3.67-27.72c-3.35-27.66-3.29-55.48-2.17-83.25
		c0.11-2.85,0.24-5.7,0.37-8.55c0.46-9.76-0.36-19.5-0.36-29.52c0-4.94,0.73-9.76,0.72-14.76c-0.04-11.37-0.21-22.32,0.1-33.46
		c0.12-4.29,0.32-8.6,0.62-12.98c0.04-0.53,0.07-1.06,0.1-1.59l1.95,0.11c-1.26,23.5,0.42,42.72-0.61,67.36
		c-0.51,12.22,0.11,26.25,0.36,38.52c0.26,12.86-0.28,25.45,0.72,38.16c1.47,18.74,0.89,39.31,3.6,57.24
		C33.64,311.01,33.94,314.75,34.38,318.11z"/>
	<path class="st8" d="M32.83,332.15l-1.86,0.54c-5.64-19.62-9.44-39.74-9.66-61.38c-0.17-16.25,0.24-32.14,0.72-50.76
		c0.11-4.32,0.86-8.81,1.05-13.16l2.54,0.11c-1.12,27.77-1.18,55.59,2.17,83.25c1.13,9.33,2.53,18.31,3.67,27.72
		C31.99,322.91,32.47,327.44,32.83,332.15z"/>
	<path class="st8" d="M23.62,121.12l2.83,0.09c-0.31,11.14-0.14,22.09-0.1,33.46c0.01,5-0.72,9.82-0.72,14.76
		c0,10.02,0.82,19.76,0.36,29.52c-0.13,2.85-0.26,5.7-0.37,8.55l-2.54-0.11c0.04-0.9,0.05-1.79,0.03-2.68
		c-0.04-1.67-0.74-3.4-0.72-5.04c0.03-3.08,1.02-6,1.08-9c0.06-2.68-0.59-5.46-0.72-8.28c-0.26-5.61,0.24-11.28,0-16.92
		c-0.25-5.8-1.06-11.85-0.72-17.64c0.28-4.76,0.07-9.37,0.21-13.95c0.03-0.99,0.08-1.98,0.15-2.97c0.15-2.03,0.95-4.05,1.08-6.12
		C23.54,123.59,23.59,122.36,23.62,121.12z"/>
</g>
</svg>
