<?xml version="1.0" encoding="utf-8"?>
<!-- Generator: Adobe Illustrator 27.5.0, SVG Export Plug-In . SVG Version: 6.00 Build 0)  -->
<svg version="1.1" xmlns="http://www.w3.org/2000/svg" xmlns:xlink="http://www.w3.org/1999/xlink" x="0px" y="0px"
	 viewBox="0 0 803.8 275.8" style="enable-background:new 0 0 803.8 275.8;" xml:space="preserve">
<style type="text/css">
	.Arched_x0020_Green{fill:url(#SVGID_1_);stroke:#FFFFFF;stroke-width:0.25;stroke-miterlimit:1;}
	.st0{fill-rule:evenodd;clip-rule:evenodd;fill:#0A2B39;}
</style>
<linearGradient id="SVGID_1_" gradientUnits="userSpaceOnUse" x1="-500.092" y1="619.5869" x2="-499.3849" y2="618.8798">
	<stop  offset="0" style="stop-color:#259E2E"/>
	<stop  offset="0.9831" style="stop-color:#1C381D"/>
</linearGradient>
<g id="Layer_1">
	<path class="st0" d="M642,29.3c0.9,1.6,3.4,0.1,4,1.4C647.2,28.9,643.4,28.7,642,29.3z"/>
	<path class="st0" d="M636.6,30.8c1.6,0.2,2.2-0.6,4-0.4C640,28.6,637,29.5,636.6,30.8z"/>
	<path class="st0" d="M630.4,75.1c-0.4,0-0.7,0-1.1,0c0.3,1.6-0.2,2.9,0.7,4.3C631.7,78.7,630.1,76.6,630.4,75.1z"/>
	<path class="st0" d="M631.2,90.2c-0.8,1.7-0.3,4.2,0,5.4C633.5,95,631.5,91.4,631.2,90.2z"/>
	<path class="st0" d="M632.6,96.3c-0.4,0-0.7,0-1.1,0c0,1.5-0.7,3.2,1.1,3.6C632.3,98.4,633.1,96.9,632.6,96.3z"/>
	<path class="st0" d="M631.9,108.5c-1.2,0.7-0.4,2.6-0.7,5C633,113.5,633,109.5,631.9,108.5z"/>
	<path class="st0" d="M630.8,114.3c-0.2,2,0.4,4-0.4,5.8c-1.3-0.6-1.9,1-2.5,2.2c1.1-0.4,2.6-0.5,2.9-1.8c0.4,1.2,2.5,0.6,4,0.7
		c0.2-1.9-0.9-1.2-2.2-1.1C633.5,117.8,631.5,116.1,630.8,114.3z"/>
	<path class="st0" d="M621.1,128c-1.6,0-1.3,1.8-2.9,1.8c0.7,1.7,2.1-0.6,3.2-0.7C621.2,128.8,621.1,128.5,621.1,128z"/>
	<path class="st0" d="M674,129.1c0.3,1.5,3.5,1.6,4.3,1.4C678.2,128.7,675.4,129.6,674,129.1z"/>
	<path class="st0" d="M680.8,130.9c-0.1,1.9,1.4,1.1,1.4,2.2c1.5-0.1,2.4-0.7,3.6-1.1C685.2,130.4,682.5,130.4,680.8,130.9z"/>
	<path class="st0" d="M621.4,143.8c-1.5,1.2-2.3,4.4-1.8,6.5C620.9,148.8,622.1,146.1,621.4,143.8z"/>
	<path class="st0" d="M703.9,157.1c0.8,1.3,3,2.6,4.7,1.8C708.5,156.2,705.9,156.7,703.9,157.1z"/>
	<path class="st0" d="M692.4,156.8c-2-0.1-3.9-0.1-5,0.7c1.4,1.4,2.7,0.6,5,0.7C692.4,157.7,692.4,157.3,692.4,156.8z"/>
	<path class="st0" d="M682.3,157.9c-1.4,0-2.9,0-4.3,0C677.5,160,682.8,160,682.3,157.9z"/>
	<path class="st0" d="M668.6,158.9c0.1,2.1,3.5,0.8,4.3,0.4C672.9,157,669.5,158.1,668.6,158.9z"/>
	<path class="st0" d="M710.7,159.7c0.4,1.3,1.1,2.3,2.9,2.2C713.9,159.9,712.3,159.8,710.7,159.7z"/>
	<path class="st0" d="M665,159.7c-1.9-0.1-2.9,0.7-4,1.4C662.1,161.8,665,161.3,665,159.7z"/>
	<path class="st0" d="M717.9,162.5c-0.5,0-1,0-1.4,0c-0.1,1.7,1.4,2,2.5,2.5C719.2,163.6,717.6,164,717.9,162.5z"/>
	<path class="st0" d="M653.8,170.8c-1.1-0.1-1.3,1.3-0.7,1.8C653.9,172.6,653.9,171.7,653.8,170.8z"/>
	<path class="st0" d="M601.6,185.6c0.2,1.3,3.3,1.7,4.3,1.1C605.9,184.9,603.2,185.8,601.6,185.6z"/>
	<path class="st0" d="M592.3,186.7c1.7,0.3,3.9,1.2,4.3,0C596.1,185.6,592.4,184.9,592.3,186.7z"/>
	<path class="st0" d="M610.6,186.7c1.2,1.2,2.2,0.4,4.3,0.7C615,184.9,612.3,186.8,610.6,186.7z"/>
	<path class="st0" d="M584.4,187c0.9,1.5,2.4,0.7,4.3,0.7C588.7,186.1,585,185.7,584.4,187z"/>
	<path class="st0" d="M577.2,189.2c1.4,0.7,3.3,0.1,4.3-0.7C580.8,187,577.2,187.7,577.2,189.2z"/>
	<path class="st0" d="M574.3,189.9c-1.5,0-3-0.1-4,0.4C570.3,192,574.6,191.8,574.3,189.9z"/>
	<path class="st0" d="M560.6,190.6C557.4,190.7,560.1,193.4,560.6,190.6L560.6,190.6z"/>
	<path class="st0" d="M566,191c-0.4,0.1-0.3,0.7-0.4,1.1c0.6,0,1.2,0,1.8,0C568,190.6,565.9,191.9,566,191z"/>
	<path class="st0" d="M577.5,221.6c-0.8-0.9-2.8,0-2.9,1.1C576.2,222.9,577.1,222.5,577.5,221.6z"/>
	<path class="st0" d="M570,223.4c0.7,1.7,2-0.5,3.2-0.4C572.6,221.4,570.9,223.1,570,223.4z"/>
	<path class="st0" d="M616.4,222.7c0,0.6-0.4,0.8-0.4,1.4c0.9,0.6,3.9,0.7,4.3-0.4C620,222.4,617.6,223.1,616.4,222.7z"/>
	<path class="st0" d="M625,224.1c0.2,1.3,4,2.9,4.3,0.7C628.1,224.6,627,224.3,625,224.1z"/>
	<path class="st0" d="M683.4,224.5c-1,0-0.9,1.7-0.4,2.2c0.3-0.3,0.8-0.4,1.4-0.4C684.2,225.5,683.7,225.1,683.4,224.5z"/>
	<path class="st0" d="M680.5,224.8c-0.5,0-1,0-1.4,0c-0.3,1.1-0.3,0.7,0,1.8C680.5,226.7,681,225.9,680.5,224.8z"/>
	<path class="st0" d="M676.9,225.2c-1.2,0.3-1.8,1.4-0.7,2.2c0.7,0,0.5-1,1.4-0.7C677.9,225.6,676.9,225.9,676.9,225.2z"/>
	<path class="st0" d="M685.5,227c0.2,0.7,0.6,1.4,1.8,1.1C687.3,227,686.3,226.2,685.5,227z"/>
	<path class="st0" d="M672.6,228.8c0.6-0.6,2.1-0.3,1.8-1.8C673.1,226,671.6,227.5,672.6,228.8z"/>
	<path class="st0" d="M676.9,235.6c-2.2,0-6.7-1.8-6.5,1.1c5.3-0.7,6.2,1.4,11.2,1.4c2.2-2.7-1.1-5.9,1.4-9c0.1-1.2-1.4-0.8-1.4-1.8
		c-2.2,0-1.6,3.2-2.5,5C678.4,233.8,676.6,234,676.9,235.6z"/>
	<path class="st0" d="M671.5,228.8c-0.7,0-0.5,1-1.4,0.7c0.1,0.6,0.6,0.8,1.4,0.7C671.4,229.2,672.1,229.5,671.5,228.8z"/>
	<path class="st0" d="M670,231.3c-1.4-0.5-0.9,1-1.8,1.1c0.3,0.8,1.9,1.3,2.5,0.7C670.8,232.2,670.2,232,670,231.3z"/>
	<path class="st0" d="M669.3,237.8c0-0.2,0-0.5,0-0.7C667.3,235.7,667.9,239.2,669.3,237.8z"/>
	<path class="st0" d="M690.9,237.1c-1.2-0.2-1.3,0.6-1.4,1.4C690.5,239.6,692,238,690.9,237.1z"/>
	<path class="st0" d="M669,239.6c-0.4,0.1-0.2,0.7-0.7,0.7c0.1,0.6,0.6,0.8,1.4,0.7C669.9,240,669,240.3,669,239.6z"/>
	<path class="st0" d="M689.5,240.3c-1.4-0.3-1.7,1.2-1.1,1.8C689.1,241.9,689.8,241.5,689.5,240.3z"/>
	<path class="st0" d="M686.6,241c-0.9-0.1-0.8,0.7-1.8,0.4c-0.3,1.3,0.4,1.8,1.4,1.8C686.7,242.7,686.6,241.9,686.6,241z"/>
	<path class="st0" d="M682.3,242.5c-0.2,1.1,0.3,1.6,1.4,1.4c0-0.6,0.4-0.8,0.4-1.4C683.6,242,682.8,242,682.3,242.5z"/>
	<path class="st0" d="M680.8,242.8c-1.1-0.2-1.2,0.8-1.1,1.8C681.2,245,681.5,243.5,680.8,242.8z"/>
	<path class="st0" d="M624.3,41.9c-1.6,4.6-1.4,10.5-0.7,14.4c-1,1.2-4,0.5-5.4,1.4c-1.1,11.4-5.1,24.8-6.5,36.7
		c-0.4,3.8,0.1,7.5-0.4,11.5c-0.3,3.1-2.1,7.2-1.8,11.5c-8,1.5-15.2,1.6-22.7,3.6c-4.7,5.6-5.3,15.3-9.4,21.6
		c3,2.6,3.2,6.5,3.2,11.5c-7.3,1.5-16.3,1.2-22.3,4c-3,7.9-1.9,18-2.9,26.6c-0.3,2.8-1.5,5.4-1.1,8.3c0.2,1,1.1,1.9,1.4,2.9
		c2,6,0.9,12.9,1.4,19.8c0.3,3.4,1.7,7.3,1.1,12.2c0.1,1.7-1.4-0.5-1.4,1.1c1.2,0.6,1.8,1.1,1.4,4c2.4,2,5.1,3.6,6.5,6.5
		c3.3,0,5.9,2.4,9.4,2.9c6.4,0.9,13.3,0.6,20.2,0.7c12,0.1,23.1,1.4,36-1.4c2.7-4.3,7.5-6.6,9.4-12.2c1.7-5.4,1.1-17.8,1.4-25.9
		c0.1-2.5-0.5-5,0-7.2c0.4-1.6,1.9-2.5,2.2-4.3c0.2-1.5-0.6-2.7-0.7-4.3c-0.5-9.3,0.2-20.7-2.2-29.2c-3.6,0.2-5.7-1.2-10.1-1.1
		c0.3-2.3,0.6-8.1,0-11.5c7.9,0,16.8,3.6,24.5,4c-2.5,3.4-4.5,8.8-6.5,15.5c-2,6.9-3.4,12.5,0.4,16.9c-2,15.5-7.3,36.1-2.9,51.8
		c5.1,13.8,15.2,23.6,33.1,25.2c7.8,0.7,16.2-0.1,24.1-2.2c4.2-1.1,10.9-4,13-6.5c3.3-4,4.2-13.2,5.8-20.9
		c2.3-11.2,4.1-20.8,4.3-32.4c0.1-2.6-0.7-5.5,0-7.9c0.8-2.8,4.4-4.5,4.7-9c0.1-2.2-0.7-5.7-1.1-9c-0.8-6.3-1.1-14.5-3.2-19.8
		c-3.9-9.3-10.6-17.4-18.4-22.7c1-9.4,1-17.8,2.2-26.3c1.5-2.5,5.4-2.9,6.1-6.1c0.7-3.1-1.4-11.9-2.2-15.1
		c-1.1-5.1-3.5-9.6-4.7-12.6c-15.3-6.1-33-9.7-51.8-12.2c0-3.7-2-7.6-1.4-11.2c0.3-2,2.3-3.2,2.9-5c1.8-6-0.4-10.9-4-16.2
		c-4.8-3.1-13.2-4.6-20.5-4.7c-3.1,0-7.7,0-9.7,1.8c-1.8,1.6-3.7,8.1-3.6,11.2C621.5,35,624,39.3,624.3,41.9z M613.5,134.8
		c-0.1,0.3,0,0.7-0.4,0.7c-1.5-10.3,0.2-20.8,0.7-31c4.6,0.2,11.5,1.3,16.9,1.8c0.7,0.1,0.3,1.3,1.1,1.4c0.8-1.7,0.8-1.2,2.2-1.4
		c4.7-0.7,10.7,1.1,16.2,1.4c6.1,0.3,12,1.3,17.6,1.8c5.6,0.5,11.1-0.4,16.2,0.4c3.7,0.6,6.9,2.6,10.4,2.2
		c-3.2,13-5.2,27.3-10.4,39.6c-12.4-1.3-24.8-3-35.6-5.4c-11.3-2.5-23.7-3.9-34.6-8.6c-1.3-3,4.2-3.8,2.9-6.8
		C615.5,132,615.1,134,613.5,134.8z M637.3,23.6c0.3-0.5,0.9-0.8,1.8-0.7c4.7,2.4,12.7,1.5,15.1,6.1c-1,2.7-4.3,2.8-6.5,2.5
		c0,0.5,0.6,0.3,0.7,0.7c-4.7,1.4-11.7,4-16.6,1.1c-0.1-1.5,2.1-0.8,2.2-2.2c-1.2-0.9-1.8,1.4-3.6,1.1c-2.6-1.2-4.4-4.5-3.6-7.9
		C630.2,23.6,634.2,22.7,637.3,23.6z M656.4,40.5c-5.2,3.5-9.9,7.1-17.3,5.4c-3.6-0.8-9.3-4.6-11.5-6.1c0-0.6,0-1.2,0-1.8
		c-0.8-0.4-1.4-1-2.2-1.4c0.1-1.5-1.4-2.9-0.4-4.3c0.4-0.6,1.5,1.1,2.5,1.1c1,1-1.2,0.9-0.7,2.5c1.4,0.1,1.1-1.5,2.5-1.4
		c8.2,5,19.8,1.9,25.9-3.2C657.2,33.4,655.3,37.4,656.4,40.5z M653.1,46.6c1,5.1,1,12.9,1.4,19.1c-0.9-0.4-2.3-2.3-3.2-1.4
		c9.8,6.7-7.2,10.7-16.2,9.4c-4.4-0.7-5.6-4-6.8-7.2c-0.4-1.6,1.2-1.2,1.1-2.5c-0.7-0.7-0.9,0-1.8,0c-1.5-7.6-4.2-13.3-1.1-19.8
		C632,48.9,646,50.7,653.1,46.6z M632.2,74.7c4.6,1.4,19.4-0.5,22.3-2.5c4.2-2.9,2.9-8.5,3.2-13.7c16.1,3.1,34.5,5.7,47.9,12.6
		c-1,10.2-7.7,14.9-10.1,23.8c-21.5-4.3-43.1-6.6-64.1-8.3c-0.9-0.4,0.3-3-1.4-2.5c-1.1,0.4,0.4,1.2,0,2.2c-6.2,0.4-8.8-1-14.8-1.1
		c1.2-8.1,2.8-18.4,5-26.6c1.8,0.3,2.4-0.4,3.2-1.1C625.1,64.9,625.7,72.7,632.2,74.7z M712.9,90.2c0.2,2.2,1,4.2,1.1,6.1
		c0.1,3.1-10.1,8-12.2,9.4c-1.3,0.9-2.8,2.2-4,1.8c-1-13.4,6.7-22.2,10.4-33.1C709,79,712.4,84.5,712.9,90.2z M627.2,88.4
		c1.4,0.2,2.9,1.3,4.3,1.4c0.7,0.1,1.7-0.7,2.5-0.7c1,0,2.4,0.3,3.2,0.4c8.3,0.9,17.4,1.9,24.8,2.9c11.6,1.5,23.4,2.3,33.8,5
		c0.4,3,1.2,10.1-1.1,12.6c-26.8-4-56.6-4.4-81.4-8.6c0.7-4.5,0.8-9.5,1.4-14C619.2,88.1,623.1,87.7,627.2,88.4z M705,137.7
		c-1.7,0.6-3.5-0.8-5.4-1.1c0.4,2,3,1.8,5,2.2c-4.1,5.1-11.9,6.5-17.3,10.4c1.3-5,2.9-9.8,4-15.1c1.6-0.5,2.4,0.5,3.6-0.4
		c-0.1-1.2-2.1-0.6-3.2-0.7c1.3-7.4,3.5-13.7,4.7-21.2c3.4-2.5,8.9-4.7,11.9-6.5C707.2,115.1,705.6,126.6,705,137.7z M609.2,134.1
		c-6,1.1-12.3,0.9-18.7,2.9c-0.7-4.9-1.8-8-1.4-14.4c7.4-0.1,12.9-0.9,19.8-1.4C610,125.4,608.9,128.2,609.2,134.1z M588.3,151
		c-2-2.3-6.2-4.7-6.8-8.6c-0.6-4.1,1.9-8.6,3.6-11.9C588.8,136.2,587.9,143.9,588.3,151z M721.9,169.7
		c-5.3,11.2-14.5,18.7-29.9,16.9c-3-0.3-6.3-1.6-9.7-2.2c-5.9-1-11.1-0.7-15.1-3.2c-3.5-4.9-7.2-9.6-9-16.2c-0.2-1.4,1.4-1,1.1-2.5
		c-0.6-1.2-1.4,1.4-1.4-0.4c-0.1-4.2-0.1-8.2,0.7-11.5c8.5,0.7,18.7,2.4,25.9,3.2c3.9-3.5,7.6-5.8,13-8.6c3.1-1.7,8-3.4,9.4-5.8
		c1.3-2.1,0.1-4.8,1.8-7.2C717.6,140,724.6,152.5,721.9,169.7z M609.6,138.1c3.5,5.1,12.8,4.3,18.4,7.2c1.3,2.8,0.2,7.3,0.7,10.1
		c-2.2,1.2-6.4,0.5-9.7,0.7c-0.8-1,1.2-3.8,0-5c-0.5,1.6-1.4,3-1.8,4.7c-2.4,0-5,0.2-6.8-0.4c-1.5-3.9-2.2-8.6-5.4-10.8
		c-2.6,2.7-4.6,6-6.1,9.7c-2.1,0-4.1-0.2-5.8-0.7c-2.1-3.3-0.4-9.4-1.1-14C598.7,139.7,603.2,138.9,609.6,138.1z M608.5,155.3
		c-0.7,0-1.4,0-2.2,0c-0.2-2.4-1.3-5.6-0.7-7.6C607,149.9,608,152.3,608.5,155.3z M587.6,154.6c0.6,2.6-0.8,5.6,0,9
		c-0.4,1-2.5,0.4-2.2,2.2c0.8-0.1,1.4-0.6,2.5-0.4c-0.2,1.2,0.5,3.3-0.4,4c-0.7-2.2-2.7-1.5-4-3.2c-2.8-3.9-0.8-12.9-1.4-17.6
		C583.4,150.9,586.9,151.7,587.6,154.6z M602.4,155c-1.1,0.3-1.3-0.4-2.2-0.4c0.6-1.9,1.7-5.3,3.2-5
		C602.8,151.1,602.5,152.9,602.4,155z M603.4,155c0.1-1.6,0.4-3,1.1-4C604,152.8,606.1,155.1,603.4,155z M624,176.6
		c-10.7,0.1-21.9-1.8-31.3-3.2c-3.5-4-2.5-10.3-2.9-17.6c1-0.1,2.7,0.5,2.2-1.1c2,0.3,4,0.6,5.8,1.1c-0.4,2.1-1.2,3.9-1.4,6.1
		c-1.4,0.7-3.5,0.8-4.7,1.8c1,0.6,2.3,0,4-0.4c-0.2,1.8-0.5,3.4-0.7,5c1,1.8,3.4,3.3,5.8,1.8c1.1,0.5,1.4,1.8,2.9,1.8
		c3.6-2.4,8.5,1.9,10.8-2.5c-0.9-1.3-0.1-4.2-1.4-5c2.7-1,4.5,1.6,5.8,3.2c1.5-2.7-3.1-3.2-2.2-5.4c-1.6,0.5-1.4,0.7-3.6,0.7
		c-0.5-2.2-1.5-3.8-1.8-6.1c6.6,0,12.4,1.4,17.6,0c-1.4,5.6-2.6,11.3-4,16.9c-2.3-2-3-5.5-5.8-6.1
		C620.6,170.5,623.5,172.3,624,176.6z M579.3,156.4c0.2-0.4,1.5-2.3,1.4-0.7c-0.2,4,0.1,7,0,11.5c4.2,1.8,6.5,5.5,10.4,7.6
		c8.7,0.5,23,3.7,31.3,3.2c5.9-0.3,5.1-14.5,7.6-19.1c2.6,0.3,4.2,1.6,6.8,1.8c-1.3,3.7-3.3,6.3-5.4,10.1c-1.6,2.9-4,8.2-6.8,9
		c-5.3,1.6-13.6-0.1-19.8,0c-13.5,0.2-25.8-2.7-38.2-2.2c-1.5-6.3-3.6-13.9-4.7-19.4C567.9,156.8,573,156.6,579.3,156.4z
		 M654.6,168.3c0.5,0,0.5-0.5,1.1-0.4c0,0.2,0,0.5,0,0.7c0.8,4.5,2.7,6.1,4.7,9.7c6.1,5.8,13.9,10,24.5,10.8
		c7.3,0.5,15.4-1.1,22-1.4c-0.1,0,0.8-0.3,1.1-0.4c5.3-1.5,10.5-7.7,13.3-12.2c2.4-3.9,3.4-8,4.7-12.2c5.3,16.7-1.3,30.2-14.8,33.5
		c-15.4,3.8-34,3.8-47.2-4.3c-4.9-3.1-12.7-9.1-13.7-13.3c-1.7-7.8,2-16.5,4-22.7C653.5,160.2,655.5,164.8,654.6,168.3z
		 M604.9,169.4c-1.2,0.3-1.4-0.5-2.5-0.4c-1.4-3.9-0.4-10.4,1.8-13C607,158.6,605.9,165.7,604.9,169.4z M597.7,168.7
		c-0.2-0.5-0.8-0.7-1.4-0.7c0.5-4.5,1.9-8.2,3.2-11.9c0.8,0,1.7,0,2.5,0C600.5,160.2,602,167.3,597.7,168.7z M609.2,156.8
		c1,4.1,2.5,7.8,2.9,12.6c-1.4-0.1-2.2-0.3-4.3-0.4c-0.4-4-0.7-8.2-1.1-12.2C607.5,156.8,608.4,156.8,609.2,156.8z M634.8,190.6
		c0.5,0.9,1.9,0.7,2.5,1.4c-2.1,2.2-3.6,5-6.1,6.8c-0.8-3.8-0.9-7.3-1.8-11.2c-0.5-2.2-2.4-4.6-2.2-6.8c0.3-2.5,4.1-5.9,5.8-7.9
		c2.2-2.7,4.1-5.1,6.1-7.6c1,8,1.1,15.4,1.1,23.8c-1.3,1.3-3.8,2-5.8,0.7C634.4,190.3,634.7,190.3,634.8,190.6z M562.8,182
		c0.1,5.1-2.7,9.6-1.8,14c-3.9-1.9-3.2-5.6-2.9-10.4c0.4-6-0.9-14.4,0.7-16.2C559.6,173.6,562.6,177.5,562.8,182z M622.5,182.7
		c0,2.1,0.8,3.5,0.7,5.8c-0.1,0.8-1.6,0.3-1.8,1.1c1.4-0.2,1.7,0.7,2.5,1.1c0.8,5.2,2,10,3.6,14.4c-4.8,0.1-8,0.4-12.6-0.4
		c-0.2-5,0.5-11.1-2.9-13c-11.8,0.9-20.8,4.7-24.8,13.3c-9,0.1-14.5-1.5-22.7-3.2c-1.3-5.2,0.4-13.6,0-21.2
		C584.9,178,602.5,184,622.5,182.7z M671.1,199.3c8.7,3.2,20.4,2.6,30.2,1.4c8.5-1,16.1-5.3,22-8.3c0.3,18.3-2.8,33.5-7.2,46.1
		c-0.9-6.1-1.9-11.6-5.8-15.8c-6.7-7.4-25.1-11.5-37.1-10.8c-12.2,0.7-21.1,9.5-25.9,16.9c-0.6-15.2-0.6-32.7,4.7-43.2
		C656.1,190.8,663.6,196.5,671.1,199.3z M612.1,193.5c2.1,3.5,1,6.5,1.1,11.2c-2.4,1-4.1,0.4-7.6,0.4c0.4-2.3,3.3-4.1,2.5-6.5
		c-2.9,0.7-2.7,4.5-5.4,5.4c-0.7-1.3-0.5-3.6-2.2-4c-0.8,1.2-0.8,3-0.7,5c-2.8,0.4-8.6,1-10.8-0.4
		C593.8,198,601.6,193.3,612.1,193.5z M638.4,227c-1.5,0-2.3-1.2-4,0c1.2,0.6,3.3,0.3,3.6,1.8c-1.6,2.3-3.1,4.6-5.4,6.1
		c1.3-10.4-0.1-18-1.1-29.2c2.4-3.1,4.4-6.7,7.2-9.4C638.4,206.3,638.4,217.7,638.4,227z M564.2,206.1c-2.2,9.3,1,21,1.8,29.5
		c-2.8-1.5-5.6-3-5.4-7.6c1.5-0.2,3.3,0,3.2-1.8c-1.6-0.1-1.9,1-3.2,1.1c-0.2-10.4,0.5-20.9-0.7-27.7
		C561.1,202,562.6,204,564.2,206.1z M585.1,207.9c-1.4,3.9-3.2,7.4-3.6,12.2c-0.8,1-1.9,0.2-2.5,0.7c3.1,0.7,2.4,5.1,4.3,6.8
		c-2.7,2.2-7.9,3.5-7.9,7.2c0,0.6,0.9,0.3,0.7,1.1c5.8,0.9,7.4-6.4,12.6-7.2c1.5-0.2,2.6,0.7,4,0.7c6.4,0.2,10-2,13.3-4.3
		c5.6-3.9,6.1-9.6,9-16.9c4.7,0,8.1-1.2,13-1.1c2.7,10.1,2.6,23,0.7,32c-18.7,2.6-40,1.6-57.6,0c-4.2-11.3-2.8-20.4-3.2-33.5
		C575.5,205.9,579.5,206.7,585.1,207.9z M608.5,220.9c-0.4,0.3-1,0.5-1.8,0.4c0.4,0.5,0.4,0.9,0,1.4c-4,3.4-9.6,5.4-16.9,4.7
		c1.7-3.3,6.2-7,8.3-11.2c3.6-0.5,8.1,1.7,9.7-1.1c-1.7-1.3-3.8-2.2-6.5-2.5c0.4-1.5,1.3-2.5,1.8-4c3.8-0.2,6.1,0,9.4-0.4
		C612.2,213.6,610,216.8,608.5,220.9z M599.8,209c-2.4,2.4-4.5,5.1-6.8,7.6c-1.3-1.6-1.4-4.4-4-4.7c0.1,3.7,0.4,6.7,1.1,9
		c-1.6,1.7-3.2,3.3-4.7,5c-4.1-4.7-0.9-12.9,1.4-17.3C590.2,208.7,596.1,208.2,599.8,209z M660.3,250c-3.4-3.1-11-12-11.2-17.3
		c-0.2-7.5,7.1-10.8,12.6-14c2.9-1.7,6.4-3.3,9-4c14.5-3.6,27.9,2.9,36,6.8c6.4,7,9.7,22.8,2.9,31c-12.3,4.7-28.6,5.3-42.5,1.8
		C665,252.7,662.3,251.8,660.3,250z"/>
	<path class="st0" d="M626.5,124.7c-1.5,0.3-2.8,0.8-3.6,1.8C623.5,126.8,626.6,126.4,626.5,124.7z"/>
	<path class="st0" d="M617.5,157.9c-1.4,0.2-1.8,1.3-1.8,2.9c0.6-0.1,0.7,0.3,0.7,0.7C616.4,160.4,617.5,159.9,617.5,157.9z"/>
	<path class="st0" d="M652.4,35.1c0.6,0.7,1.2,1.5,1.4,2.5c0.8-0.1,0.8-0.9,0.7-1.8C653.4,36,653.7,34.7,652.4,35.1z"/>
	<path class="st0" d="M629,62.1c0.1,1.7,1.4-0.1,2.5,0.4c0.7,8.9,15.9,8.8,17.6,0.4c0.2-4.7-0.2-9.5-4.3-11.2
		c-5.2-2.1-14.8,0.6-13.7,8.6C631.2,61.6,629.4,61.1,629,62.1z M646.6,57.8c-2.2,4.7-12.8,3.9-11.9-3.2
		C638.1,51.3,645.4,53.7,646.6,57.8z M633.3,61.7c-0.4-1.1-0.4-1.8,0.4-2.9C634.2,59.4,634.4,61.7,633.3,61.7z M634.4,64.3
		c-1.1-1.3,0.7-1.9,0.4-3.6c0.4,0,0.7,0,1.1,0C636,62.5,634.9,63.1,634.4,64.3z M645.9,63.9c-0.4-0.8-0.6-1.8-1.1-2.5
		C646.9,59.7,647.8,63.4,645.9,63.9z M644.1,65.3c-0.1-1.3-0.5-2.4-0.7-3.6c0.4,0,0.7,0,1.1,0C644.7,62.6,645.4,65.1,644.1,65.3z
		 M635.5,66.4c-0.7-1.6,0.7-3.7,1.8-4.7C637.8,63.1,637.1,66,635.5,66.4z M643,66.4c-0.7,0.1-2,1.3-2.5,0.4c1.4-1.2,1.3-2.6,1.1-4.7
		C644,62.2,643,64.6,643,66.4z M637.6,66.8c-0.2-0.8,0.2-3.7,1.1-4.7C639.3,63.8,639,65.6,637.6,66.8z M639.4,66.4
		c0.8-1.3-0.6-3.2,1.1-4C641.4,63.7,640.3,65.7,639.4,66.4z"/>
	<path class="st0" d="M636.9,120.8c-0.1,0.8,1.3,0.2,1.8,0.4c-1.6,5.2-5.5,21.6,5,20.5c2.3-2.5,3.4-3.5,4-5.8c0.4-1.5-0.7-3,0.4-5
		c1.1-2.1,3.6-2.5,5.8-1.4c4.8,2.3-1.8,16.8,8.6,14.4c4.8-3.4,3.6-9.4,5-15.5c0.5-1.1,2.6,1.2,3.2,0c0-1.3-1.6-1-2.9-1.1
		c0.1-6.4,9.5-0.6,13.7-5c0.7-0.8,2.5-3.4,1.8-6.5c-0.8-3.8-8.5-5.6-13.3-4c-4.1,1.4-5.9,5.2-10.4,5.8c-7.5,1-16.9-3.9-20.2,2.9
		C638.5,120.4,637.4,120.3,636.9,120.8z M677.6,119c-1.8-0.1-2.2-1.6-2.9-2.9C676.8,114.6,678.8,117.1,677.6,119z"/>
	<path class="st0" d="M696,156.1c0,2.1,4.9,2.7,4.7,0C698.6,156.4,697.2,155.5,696,156.1z"/>
	<path class="st0" d="M695.2,235.3c1.5,0.7,3.8,3.6,6.8,4c8.2-4.2,2.3-21.8-7.6-14.8c-0.5,1-0.3,2.8-0.7,4
		c-3.4-4.1-9.8-7.5-17.3-6.5c-5.7,0.8-9.1,4.8-12.2,8.6c-4.3,11.7,0.5,22.2,13.3,22c4.4-0.1,11.7-3.3,14-5.4
		C694.6,244.4,694.4,239.9,695.2,235.3z M692.4,240.7c-2.5,4.7-16,7.2-21.2,5.4c-3.8-1.3-6.9-6.8-5.8-12.2c1.8-8.8,13.2-13.4,23-8.6
		C691.9,229.5,695.7,234.4,692.4,240.7z M701.4,237.4c-2.5-0.5-4.7-3.2-4.3-5.4c0.6,0.6,1.3,1.1,2.5,1.1c0.1-0.7,1.3-0.3,1.4-1.1
		c0.9-2,0.3-5.3-2.2-5c-1.8,0-1.5,2.1-3.6,1.8c-0.2-1.7,0.6-2.3,0.7-3.6C704,221.6,707,234.2,701.4,237.4z"/>
</g>
<g id="Layer_2">
	<path class="st0" d="M522.1,153.5c-0.7,1.9,2.9,0.5,4.7,0.7c0-0.4,0-0.7,0-1.1C525.5,152.1,522.9,154.2,522.1,153.5z"/>
	<path class="st0" d="M518.8,152.8c-1.8,0.5-4.5-0.3-5.8,1.4C515.6,153.1,517.8,155.6,518.8,152.8z"/>
	<path class="st0" d="M509.8,153.2c-2.3-0.2-3.6,1.1-6.1,1.4C505.2,155.5,509.2,155.1,509.8,153.2z"/>
	<path class="st0" d="M510.6,221.2c1.1,1.1,3.8,2.3,5.4,1.8C515.8,220.9,511.7,221.2,510.6,221.2z"/>
	<path class="st0" d="M536.8,131.6c-12.4-2-24.6-2.9-36.7-1.1c-11.9,10.2-6.1,29.2-6.1,46.8c0,5.5-0.4,11.3,0,16.6
		c0.1,1.3,0.9,2.3,1.1,3.6c0.3,3.2,0,6.7,0.4,10.1c0.3,3,0.9,6,1.1,8.6c0.2,2.6-0.5,4.8,0,6.8c0.7,2.9,3.5,6.4,5.4,9.7
		c1.8,3.1,4.4,7.5,6.8,8.3c3.1,1,8.9,0.4,13.3,0.4c5,0,9.8,0.4,13.3-1.1c2.3-1,9.6-7.5,10.4-10.1c0.9-2.9-0.3-7.6-0.4-11.9
		c-0.2-10.2-0.4-20-1.4-31.7c-1-11.5-2.7-23.4-2.2-32.4C542.4,146.6,538.8,138,536.8,131.6z M514.5,131.2c6.6,0.8,14.1,0.1,19.8,2.5
		c-0.9,3.5-2.7,9.3-4.3,13.3c-10.5-1.1-16.5-1-27-2.9c-2-2.6-0.7-7.9-0.7-11.2C505.5,131.4,511.8,130.9,514.5,131.2z M539.4,153.9
		c-1.2,1.1-2.1,0.3-4,0.4c-1.5-4.9-0.8-10.2,0.4-15.1C537.2,143.8,538.6,148.5,539.4,153.9z M497.6,151.4c-3.1-2.6-0.7-9.4,0.4-12.2
		C499.5,142.6,497.2,148.1,497.6,151.4z M530.7,151c0.5,2-0.2,5.4,0,9c-8.1,3.5-18.7,1.7-27.7,2.5c-1.8-4.6,0.1-8.8-0.7-14.4
		C512.7,149.1,521,148.8,530.7,151z M537.9,156.1c-0.7,0.2-1.2,0.8-1.8,1.1c-0.2-0.7-1-0.7-0.7-1.8
		C536.5,155.3,537.4,155.5,537.9,156.1z M497.6,173c0.3,6.2,1.2,12.8,1.8,19.1c0.8,8.3,1.4,16.4,2.5,23.8c0.2,1,1.1,3.4-0.4,4.3
		c-2.7,0.6-1.5-2.5-1.8-3.6c-4.5-18.9-2.6-39.9-4.7-58.7c0-0.2,0.1-0.4,0.4-0.4C499.6,160.8,497.3,167.4,497.6,173z M543.3,227.7
		c-1.1,1-2.8-1.6-3.6,0c1,0.8,2.6,1,2.9,2.5c-1.9,2.1-3,4.9-5.8,6.1c0.2-23.5,2.2-53.4-1.1-76.7c1.3,0.1,1.7-0.7,2.9-0.7
		C542.4,183,542.6,205.3,543.3,227.7z M534.7,225.5c-1.9,0.1-2.5-1.1-4.7-0.7c-3.3-20.5-12.3-35.2-18.7-52.6c-1.2-0.4-3-3.2-5.8-2.5
		c-5.8,1.5-1.1,10.8,0.7,15.8c1.4,4.1,2.2,8.2,3.6,12.2c2.7,8.1,7.8,16.2,9.7,22c2,6.1,3.6,17.1,10.4,12.2c0.4-2.1,1.1-3.8,0.4-6.1
		c2-0.3,2.4,0.9,4,1.1c-0.3,4.5,0,7.6-0.7,11.9c-10,0.2-15.7,0.4-24.5,0c-0.2-6.1-1.9-10.8-2.9-16.2c-0.6-1.3,1.2-0.2,1.1-1.1
		c-0.3-1.1-1.9-1-1.8-2.5c-4.2-16.8-4.2-36.6-3.6-54.7c10.9-0.5,21.8,1.2,31.7-3.2C533.9,180.5,535.8,203.3,534.7,225.5z
		 M506.6,178.7c-2-0.2-2.7-7.7,0.4-6.8C509.6,172.7,509,179,506.6,178.7z M508.8,183.8c2.4,0.3,2.7-1.4,4.3-1.8
		C513.5,184.7,509.2,187.1,508.8,183.8z M511.3,191c-0.3-0.6-0.9-1.1-1.1-1.8c2,0.1,3.1,1.3,4.7,0
		C514.5,190.6,513.2,191.1,511.3,191z M518.1,194.2c0.3,2.6-4.7,3.6-5.8,1.4c2.4,0.2,3.3-1.3,4.7-2.2
		C517.1,194,517.8,193.9,518.1,194.2z M518.8,200.7c-1,0.8-1.6,2-3.6,1.8c-0.2-0.7-1-0.7-0.7-1.8
		C516.4,201.3,518.3,199.2,518.8,200.7z M517,207.5c1.5-1,3.7-1.4,5-2.5C524.3,208,518.2,210.2,517,207.5z M519.2,214.4
		c0.1-1.1-0.8-1.1-0.7-2.2c1.9-0.4,3.7,0.1,5.4-1.1C523,212.9,521.5,214.1,519.2,214.4z M521.4,220.5c0.2-2.5,2.6-2.7,4-4
		C526.8,219.4,523.7,220.2,521.4,220.5z M502.6,221.6c1.5,3.3,1.5,6.2,1.4,9.4c-1.1-3.2-4-6.6-4-9.7
		C500.5,221.4,501.4,221.4,502.6,221.6z M527.5,225.2c-0.5,1.5-1.6,2.4-3.6,2.5c-0.3-0.8-0.8-1.4-0.7-2.5
		C524.8,225.4,526.2,224.2,527.5,225.2z"/>
	<path class="st0" d="M131.3,203c0.6,2.7,4.5,0.2,6.8,0.4C137.2,200.8,132.9,202,131.3,203z"/>
	<path class="st0" d="M121.9,205.5c2.6-0.2,3.9,0.2,6.1-0.7c0-0.4,0-0.7,0-1.1C126.6,203.6,122,203.1,121.9,205.5z"/>
	<path class="st0" d="M117.6,203.4c-1.2,0.6-5.1-0.6-5,2.2c2,0.3,2.8-0.6,4.7-0.4C116.9,204.2,117.7,204.2,117.6,203.4z"/>
	<path class="st0" d="M103.5,204.1c-1.8,0.8-5.6-0.6-5.8,1.8C99.4,205.8,103.2,207,103.5,204.1z"/>
	<path class="st0" d="M83.7,207c2.4,0.1,4.6,0,5.8-1.1C88.8,204.3,83.8,204.7,83.7,207z"/>
	<path class="st0" d="M72.2,208.8c1.7-1,6.2,0.7,6.1-2.2C76.9,206.6,72.8,206.8,72.2,208.8z"/>
	<path class="st0" d="M62.1,208.8c0.5,1.3,3.7,0.2,5.8,0C67,206.2,63.7,207.7,62.1,208.8z"/>
	<path class="st0" d="M146.4,237.6c1.2,0.3,5.6,2,5.4-0.7C150.3,237.6,147.4,235.5,146.4,237.6z"/>
	<path class="st0" d="M210.5,228.5c0.2,2.1,2.6,1.2,4,0.7C213.8,228.2,211.2,227.3,210.5,228.5z"/>
	<path class="st0" d="M49.2,184.7c-2.9,3.9-2.2,9.9-2.9,15.5c-0.5,4.3-2.3,11.6,0.4,15.5c-3.1,9.7-0.9,18.8-0.4,29.2
		c0.2,4.4-0.3,9.9,2.9,11.9c1.7,1.1,8.3,2.3,11.2,2.9c3.7,0.7,7.7,0.3,11.2,0.7c9.4,1,21.5,3.2,32.4,3.2c14.1,0.1,28.3-3,38.5-2.2
		c8.3-4.7,14.2-12,19.4-19.8c-1.2-12.9-4.9-25.2-7.2-38.2c3.7-4.4,0.5-11.4-0.4-16.2C119.2,181.6,86.6,177.1,49.2,184.7z
		 M63.9,185.4c11.8-1.3,27.2-1.1,41-0.4c7.3,0.4,14.8-0.7,21.6,0.4c7.4,1.1,13.7,4,20.2,5c-1.4,2.3-3.5,4-5,6.1
		c-26.5,0.3-55-0.2-83.2,5.4c-3.8-3.2-5.6-10.2-6.5-15.1C57.2,187.4,60.7,185.7,63.9,185.4z M55.3,202.7c1.6,4.8-0.2,10.7-1.4,15.8
		c-1.5-2.1-3.2-4-4.7-6.1c1.6,0,3.4,0.3,3.6-1.1c-0.8-1.2-3.3-0.6-4.7-0.4c0-6.1,0.6-13.2,2.5-18.4
		C50.5,196.7,54.1,199.1,55.3,202.7z M152.1,199.8c-1.9,0.4-3.8,0.8-4,2.9c0.7-0.6,2-0.6,2.9-1.1c-1.3,3-2.9,5.7-4.7,8.3
		c-1.4-6.7-0.9-14.6,4.7-16.9C151.1,195.6,152,197.3,152.1,199.8z M142.4,198.7c-0.5,6.2-0.3,10,0.7,16.6c-3.7,0.9-8.5,1.3-11.5,1.8
		c-1.7-1.2-2.7-3.6-4.7-5c-2.9-2-11.3-3.2-16.2-3.6c-9.4-0.8-21,0.7-28.8,2.5c-7.7,1.8-11.9,6.5-14.8,11.5c-3.4-0.2-4.4,0.1-7.9-0.4
		c0-5.9-0.7-12.5-0.4-17.6C88.5,204.3,113.4,201.7,142.4,198.7z M157.5,239.7c-1.8,0.1-4.1-1.2-5.4-0.4c0.8,1.4,3.1,1.5,5,1.8
		c-3.5,4.2-7,10.2-11.5,12.2c-0.3-12.8-0.3-23.4-0.7-35.6c4.6-1.1,4-7.5,7.6-9.7C155.5,218,156.3,228.4,157.5,239.7z M142.1,257.4
		c-6,1.2-11.9,2.6-18.4,2.9c-8.8,0.4-17.6-0.9-26.3-1.4c-13-0.8-26.2-0.4-37.4-2.9c-0.9-4.9,0.6-11,0.4-14.4
		c1.5-0.8,4.8,0.2,4.3-2.5c-1.7,0.1-3,0.6-4.3,1.1c-0.6-5.4-0.8-11.2-2.2-15.8c3.3-0.1,5.7,0.8,8.6,1.1c-3.2,7.6-1.8,19.9,3.6,24.1
		c2.1-3.8,1.5-10.2,3.6-14c2,4.7,2.9,10.6,6.1,14c3-3.7,3.1-10.3,5.8-14.4c3.7,4.2,3.4,12.5,8.3,15.5c1-5.6,1.7-11.5,4-15.8
		c1.8,4.6,2.1,11.8,5.8,15.5c3.6-3.7,3-10.9,5-15.5c3.3,5,3.3,13.3,7.2,17.6c4.6-4.4,5.3-12.7,7.6-19.4c1.8,6.9,2.7,14.2,6.8,19.4
		c8.2-6.2,6.2-20.9,3.6-31.7c2.2-0.8,5.2-0.8,7.2-1.8C140.5,231.7,141.4,243.9,142.1,257.4z M54.2,224.3c1.7,10.5,2,19.9,0.7,30.6
		c-1.8-0.1-2.7-1.2-4.3-1.4c-0.6-2.4-0.8-5.2-1.1-7.9c1.6,0.3,4.2,0.4,4-2.2c-1.4,0.2-3.1,0.2-4.3,0.7c-1.4-6.7-1.3-17.9,0-24.1
		C50.7,221.5,52.3,223.1,54.2,224.3z"/>
	<path class="st0" d="M179.5,176.7c-8.3,16.9-6.8,38.4-4.7,59.4c2.1,1.3,2.1,4,3.6,5.8c2,2.5,5.7,3,7.9,5.4
		c10.4,0.2,21.5,2.6,30.2-1.8c5.8-2.9,7.7-9.4,12.2-13.7c-0.8-4.3-0.3-8.3-1.1-13c-1.2-7.5-5.6-15.2-2.2-21.2
		c-2.3-6.2-4.6-12.4-7.9-17.6C204.4,179.7,194.4,175.1,179.5,176.7z M214.8,182.1c-2.5,11.8-20.9,2.8-29.2,6.5
		c-1.2-3.2-3-5.8-3.6-9.7C193.3,178.1,203.2,181.9,214.8,182.1z M183.5,192.1c-2.6,2.9-0.5,7.9-0.7,10.4c-4-4.1-8.1-13-2.9-18.4
		C180.6,187.3,182.7,189,183.5,192.1z M221.3,199c-1.7,1.5-2.8,3.7-5,4.7c-1.1-6.4-4.7-15.1,1.4-18.7
		C218.8,189.7,221.2,193.2,221.3,199z M212.3,204.7c-1.1,0.9-2.7,1.2-4.7,1.1c-1.2-11.3-13.3-7-13.3,2.2c-3.4,0-4.9-0.7-7.6-0.7
		c0.8-4.4,0.9-10.7,0.4-14.4c7.9-2.7,16-0.8,23.4-1.8C212.1,195.3,211.5,199.6,212.3,204.7z M176.6,204c0.2-1.7,1.5-3.9,0-3.6
		c0.4-0.1,0.6-0.4,0.7-0.7c2.3,2.4,3.3,6.1,6.1,7.9c0,12.6-0.4,23.9,2.5,35.6c-2.2-1.2-5.3-4.5-7.2-7.2c0.9-1.1,2.9-0.9,2.9-2.9
		c-1.6-0.3-2,0.6-3.2,0.7C178,225.2,175.5,213,176.6,204z M196.4,207.3c-0.1-3.4,3.8-3.3,2.9-6.5c0.4,0,0.7,0,1.1,0
		C201,203.5,198.6,206.2,196.4,207.3z M201.5,205.1c0.1-1.4-0.2-3.1,1.1-3.2C203.2,202.8,202.9,205.1,201.5,205.1z M223.4,230.3
		c-1.3,1.2-3.2-0.3-4,1.1c1.1,0.6,2.7,1.3,4,0.7c0.7,4.8-3.6,4.6-5.4,6.8c1.1-13.2-0.4-22.2-0.7-33.5c1.1-0.5,1.8-1.6,3.2-1.8
		C223.2,213.3,222.3,221.1,223.4,230.3z M214.1,207.3c0.2,0,0.4,0.1,0.4,0.4c0,0.1,0,0.2,0,0.4c1.6,10.3,2.2,25,1.1,34.2
		c-7,1.8-17.6,2.8-25.2,2.2c-0.4-4.9-2.6-8.9-1.1-13c1-1,4.1,0,3.6-2.5c-0.6-0.9-1.9,0.5-3.2,0c-0.5-7.2-2.3-12.8-2.2-19.4
		c1,0.8,5.6,0.5,7.9,1.1c1.5,5.3-0.8,12.9,1.1,18.7c0.9,2.7,4.5,6.6,7.2,6.5c2.1-0.1,5.5-3.5,6.1-6.1c1.8-7.1-2-15.3-1.1-21.2
		C210.1,207.8,212.8,206.8,214.1,207.3z M204.7,211.6c0-1.4,0.3-2.6,1.4-2.9C206.8,209.9,206.4,211.6,204.7,211.6z M200.4,212.7
		c1.1-1.3,1.6-3.2,3.2-4C202.8,210.3,202.1,212,200.4,212.7z M207.2,215.5c0.4-1.2-1.8-2.9,0-3.2C207.6,212.7,208,215.1,207.2,215.5
		z M198.9,226c1.8-3.2,4.1-6,4-11.2c0.4,0,0.7,0,1.1,0C204.1,219.1,203.6,225.3,198.9,226z M200.7,215.5c0.1,2.9-1.3,4.3-2.5,5.8
		c-0.2-2.4-0.3-5.2,1.4-6.5C199.8,215.3,200.1,215.5,200.7,215.5z M204,224.2c0.1-1.9,0.9-6.3,1.8-8.6
		C205.7,218.1,207.1,223,204,224.2z M207.2,225.3c0.1-2.1,0.2-4.2,0.7-5.8C207.8,221.1,209.2,224.4,207.2,225.3z M198.2,223.8
		c0.3-2.1,2.1-2.7,2.9-4.3C200.5,221.3,200,223.2,198.2,223.8z M204.7,231.4c1.3-0.9,1.3-3,2.5-4C207.3,229.4,206.1,232,204.7,231.4
		z M200.4,232.1c-0.9-1.5,0.2-3.6,1.8-3.6C202.4,230.5,201.4,231.3,200.4,232.1z"/>
	<path class="st0" d="M316.5,217.1c0.1,2.7-2.9,5.7-1,7.9C317.8,223.9,319.1,218.3,316.5,217.1z"/>
	<path class="st0" d="M316.7,208.4c-1.5,2-2,5.8,0.9,6.5C318.3,213.1,317.7,209.8,316.7,208.4z"/>
	<path class="st0" d="M315.4,227.9c-2.6,1-3.7,3.5-4.9,6C313.2,234.7,315.8,230.4,315.4,227.9z"/>
	<path class="st0" d="M311.3,199.6c1.9,1.7,1.4,5.6,4.1,6.6C315.9,203.6,314,200.3,311.3,199.6z"/>
	<path class="st0" d="M270.6,199c-1.9,5.2-6.1,7-7.2,11.6c-0.9,3.7-0.4,9-0.1,12.2c1.5,12.8,13.9,20.5,26.7,21.1
		c3.6,0.2,7.3-1.4,11.2-1.4c1.5,0,3.2,0.6,4.7,0.5c10.8-0.7,18.4-10.7,20.2-21.3c1.7-10.5-3.6-27-11.5-31.4
		c-4.9-2.7-9.5-1.6-15.4-1.2c-4,0.3-7.6-0.7-10.8,0C281.6,190.5,276.5,195.4,270.6,199z M315.7,195.8c5.8,5.6,7.8,11.2,8.3,21.5
		c0.3,6.1-1.3,8.1-3.3,11.8c-2.8,5-3.9,8.3-10,8.3c-1-0.4,0.4-3-1-2.9c-4.1,4-12.7,3.4-14.7-2.3c5.4-2.5,10.5-5.5,12.3-11.8
		c-1.7-8.8-5.4-17.5-16-16.8c-0.1-5.2,5.2-12,10.1-11.9c4.3,0,7,4.4,9.9,5.7c0-4.3-4.4-4.5-6.6-6.7
		C310,190.2,313.3,193.4,315.7,195.8z M291.4,222.7c-0.1-1.2-0.6-2-0.6-3.3c4,1.4,8.9-1,12.6,0.1c0.3,0.1,0.4,0.3,0.3,0.7
		C300.7,222.2,296.8,223.2,291.4,222.7z M290.3,214c4.4-0.3,12,0,12.5,2.6C299.4,214.7,293.4,216.6,290.3,214z M290,210.1
		c3.1-0.6,8.3-0.4,9.7,1.8C296.8,210.9,292.1,212.4,290,210.1z M265.1,221.8c-0.6-6.2,1.7-10.4,3.7-14.3c5-9.5,13.6-13.8,25-15.7
		c-1.5,4-3.9,7-4.7,11.7c-6.6,1.6-17.7,9.4-17.8,16.3c-0.2,9.2,11.5,14,21.2,13c1.3,2.6,3.4,4.5,4.4,7.4
		C281.6,244.6,266.5,235.1,265.1,221.8z M290.5,207.9c0.5-2.6,5.1-0.3,6.5,0.6C295.2,207.9,292.7,208,290.5,207.9z M275.5,224.7
		c4.5,2.6,10.6,2.8,16.1,3.8c0,0.4,0,0.7,0,1.1C284.9,230.5,278.5,228.3,275.5,224.7z M275.3,218.2c4.6-0.1,8.5,1.2,13.3,1.2
		c0.5,0.9,1.1,1.7,1,3.3C282.8,221.7,279.7,221.4,275.3,218.2z M277.2,215.4c3.2-0.5,8.8-2.2,11.2-1.1
		C285.1,215.6,280.5,215.2,277.2,215.4z M285.1,207.7c0.9-0.6,1.9-1.2,3.3-1.3c0.1,0.5,0.5,0.7,0.3,1.5
		C288.1,208.3,285.5,208.5,285.1,207.7z M278.8,211.8c1.8-2,6.9-2.8,9.4-1.8c0,0.5,0,1,0,1.4C284.7,211,281.3,212.5,278.8,211.8z"/>
</g>
</svg>
