<svg version="1.2" xmlns="http://www.w3.org/2000/svg" viewBox="0 0 235 126" width="235" height="126">
	<title>angel_grub_2-svg</title>
	<style>
		.s0 { fill: #fefeff } 
		.s1 { fill: #00bef3 } 
		.s2 { fill: #67d8f7 } 
		.s3 { fill: #009bbb } 
		.s4 { fill: #00a4c8 } 
		.s5 { fill: #0590aa } 
	</style>
	<g id="Layer">
		<g id="Layer">
			<path id="Layer" class="s0" d="m87 123.9q-42 0-84 0c-0.8 0-1-0.1-1-1q0-60.5 0-120.9c0-1 0.3-1.1 1.1-1.1 76.3 0 152.5 0 228.8 0 0.8 0 1.1 0.1 1.1 1.1q0 60.5 0 120.9c0 0.9-0.2 1-1 1-25.6 0-51.1 0-76.7 0-0.1-0.7 0.1-1.2 0.9-1.2 1.4 0 2.8-0.4 4.2-0.6 1.4-0.2 2.9 0 4.3-0.3 2.5-0.6 5-1.1 7.5-1.7 1.6-0.4 3.3-0.6 4.8-1.3 1.9-0.9 4-1.3 5.8-2.4 1.4-0.9 3.2-1.2 4.7-1.9 2.6-1.3 5-2.9 7.6-4.2 1.3-0.6 2.6-1.4 3.8-2.4 0.9-0.8 1.7-1.7 2.8-2.4 3.3-2.1 5.9-5.1 8.4-8 1.9-2.2 3.6-4.6 4.9-7.3 1.4-2.9 3.4-5.4 4.5-8.5 1-2.8 1.9-5.5 2.7-8.3 0.5-1.6 0.8-3.4 0.4-5.1 0-0.7 0.1-1.5 0.1-2.2 0.8-0.6 1.4-0.8 1.6 0.7 0.8-2.5 0.5-4.8 0.7-7 0.2-2.5 0.1-5.1 0.1-7.6 0-3.7 0.1-7.3-0.6-11 0-0.2 0.1-0.5-0.3-0.6-0.5-0.1-0.4 0.3-0.4 0.6-0.1 0.5-0.2 1.1-0.4 1.6-0.2 0.6-0.4 0-0.6 0-0.1-0.7-0.1-1.5-0.2-2.2 0.3-0.2 0.2-0.5 0.2-0.8-0.3-1.8-0.5-3.6-1.2-5.3-1.1-2.8-2.6-5.2-4.7-7.2-2.4-2.5-5.3-4.5-8.7-5.6-0.4-0.1-0.8-0.4-1.2-0.7-1.6-1.3-3.4-1.6-5.3-1.2-0.2 0-0.3 0-0.5 0-0.3-0.3-0.5-0.3-0.8 0-1.2 0.2-2.3-0.4-3.5-0.3q-0.9-0.6-1.8 0c-1.1 0-2.3 0-3.4 0q-0.1-0.3-0.3 0c-0.7 0-1.3 0-2 0-0.2 0-0.3-0.1-0.5-0.1-2.1 0-4.2 0.4-6.3 0.4-2.1 0-4 0.5-5.9 1.1-0.7 0.2-1.5 0.1-2.1-0.5-1-1.1-2.1-2-2.9-3.2-1.9-2.8-4.7-4.4-7.3-6.5-0.1-0.4-0.4-0.6-0.8-0.5-1.2-1.1-2.8-1.5-4.1-2.4-1.2-0.9-2.6-1.1-3.8-1.7-0.1-0.3-0.4-0.4-0.7-0.5-1.6-0.8-3.6-0.9-5.2-1.7-1.5-0.8-2.9-1-4.5-1q-9.6 0-19.2 0c-0.4 0-0.9-0.2-1.3 0.2-0.8 0.2-1.7 0.3-2.5 0.3-0.9-0.5-1.8-0.2-2.5 0.4-0.6 0.5-1.1 0.8-1.9 0.8-1.3 0-2.6 0.3-3.8 0.9-1.7 0.7-3.2 1.8-5.1 1.9-0.5 0-1 0.4-1.2 0.9-1.7 0.7-3.5 1.4-5 2.5-0.4 0-0.8 0-1 0.5-1.2 0-2 0.7-2.6 1.7-0.1 0.1-0.2 0.2-0.3 0.2-0.6 0-1.4-0.1-1.8 0.3-1 1-2.3 1.6-3.3 2.5-1.8 1.7-3.6 3.2-5.2 5.1-1.8 2.2-3.9 4-4.8 6.8-0.3 1-1.5 1.2-2.2 0.5-1.9-1.8-3.7-3.6-5.6-5.4-3.2-3.1-6.4-6.2-10.5-8.1 0 0 0-0.1-0.1-0.1-0.1-0.3-0.3-0.4-0.6-0.4-1.8-0.9-3.5-2.2-5.5-2.8-1.7-0.5-3.3-1.4-5.1-1.7 0-0.4-0.4-0.5-0.7-0.6-1.3-0.2-2.7-0.3-4-0.2-0.3 0-0.6 0-1-0.1q-0.1-0.3-0.3 0c-1.4 0-2.8 0-4.2 0.1-2.1-0.6-3.3-0.3-4.2 1-1.5 0.2-2.8 1-4.2 1.5-0.3-0.1-0.6 0.1-0.8 0.2-3.7 1.8-6.8 4.5-10 7-2.3 1.8-3.8 4.4-5.8 6.5-1.2 1.3-1.9 2.9-2.9 4.4-0.6 1-1.4 2-1.7 3-1.1 3.2-2.5 6.4-2.5 9.9 0 0.6-0.2 1.1-1 0.9-0.8-0.2-0.7 0.3-0.7 0.8-0.5 6.4-0.3 12.8 0.1 19.2 0 0.4 0 1 0.6 1.3 0.1-0.8-0.1-1.9 1.3-1.6q0 0.4 0 0.9c-0.4 0.3-0.2 0.8-0.2 1.2 0.1 2.2 0.8 4.3 1.5 6.5 1.2 3.6 2.8 6.9 4.5 10.3 0.3 0.6 0.4 1.2 0.8 1.7 1.9 2.6 3.6 5.3 5.7 7.6 2.3 2.6 4.9 4.9 7.4 7.4 1.4 1.4 3.2 2 4.7 3.2 1.3 1 2.6 2.1 4 2.9 1.8 1 3.6 2 5.3 3.2 1.5 1.1 3.4 1.7 4.7 3.1 0.1 0.1 0.1 0.1 0.2 0.1 2.3 0.4 4.2 1.7 6.2 2.6 2 0.8 4 1.6 6 2.5 3.2 1.4 6.5 2.8 10.1 3.3 0.6 0.1 1.2 0.1 1.8 0.5 1.5 0.9 3.2 1.3 5 1.2 2.1-0.1 4 0.4 6 0.7 0.9 0.6 1.3 0.9 1.1 1.8z"/>
			<path id="Layer" fill-rule="evenodd" class="s1" d="m222.6 40.4c0.1 0.7 0.1 1.5 0.2 2.2 0 4.5 0 9.1 0 13.6 0 0.9 0 1.8-0.1 2.6-0.3 2.4-0.2 4.7-0.1 7.1 0 0.7-0.1 1.5-0.1 2.2-0.5 0.3-0.2 0.9-0.4 1.3-1.1 1.9-1.7 4-1.9 6.2-0.1 0.7-0.3 1.4-0.8 2-0.7 0.9-1.3 2-1.3 3.2-0.1 1-0.6 1.8-1.1 2.6-0.4 0.5-0.6 1-0.8 1.5-1 2-1.7 4.3-3.1 6-1.5 1.8-2.8 3.7-4.3 5.5-2.6 3.1-5.4 5.8-8.5 8.3-3.3 2.6-6.8 4.9-10.5 6.8-2.4 1.2-4.5 2.9-7.1 3.6-2.3 0.6-4.2 2-6.6 2.3-1.1 0.1-2.3 0.2-3.4 0.7-1.6 0.8-3.3 1.2-5.1 1.3-1.7 0.1-3.4 0.2-5 0.8-1.4 0.6-3 1-4.6 1.1-4.7 0.2-9.5 0.3-14.2 0.3-3.4 0-6.8 0.5-10.1 0.9-1 0.1-1.3 0.4-1 1.3-11.3 0-22.7 0-34 0-0.1-0.5 0.6-0.5 0.6-1-0.3-0.3-0.7-0.4-1.1-0.4-3.8 0.3-7.5-0.9-11.3-0.8q-2 0-3.9 0c-0.8 0-1.6-0.1-2.3-0.6-1.2-1-2.6-1.5-4.1-1.5-1.9 0-3.6-0.6-5.2-1.5-0.9-0.5-1.9-0.8-2.8-0.7-0.8 0-1.5-0.2-2.2-0.5-1.3-0.5-2.3-1.8-3.8-1.5-1.2 0.2-2-0.2-2.8-1-0.8-0.8-1.7-1.1-2.7-1.1-1 0-1.8-0.4-2.5-1-0.3-0.3-0.7-0.6-1-0.7-2.2-0.4-3.7-2.2-5.8-2.8-0.2 0-0.3-0.2-0.4-0.3-1.6-1.2-3.4-2.1-5-3.4-0.8-0.7-1.7-1.5-2.7-1.9-2.8-1.1-4.9-3.2-7.1-5-1.4-1.1-2.6-2.6-3.9-3.8-1.2-1-2.2-2.2-3-3.4-0.8-1.3-1.7-2.6-2.6-3.7-1.4-1.6-2.3-3.5-3.6-5.2-1.5-1.9-2.4-4.1-3.3-6.4-1.4-3.4-2.6-6.8-3.3-10.4-0.1-0.4-0.1-0.7-0.5-0.7q0-0.4 0-0.9c0.1-0.7 0.3-1.4 0.3-2.2 0-5.7 0-11.3 0-17 0-1.3 0.2-2.7 0.6-3.9 0.7-1.6 1.1-3.4 1.8-5 0.9-2.2 2.2-4.2 3.4-6.3 0.2-0.4 0.6-0.7 0.8-1.1 0.5-1.6 1.7-2.8 2.7-4.1 1.4-1.8 3.1-3.4 4.9-4.8 2.5-2 4.9-4.2 7.8-5.6 0.7-0.3 1.1-1 1.1-1.8 1.4-0.6 2.7-1.3 4.2-1.5 1.6 0.3 2.9-0.3 4.2-1 1.4 0 2.8 0 4.2-0.1q0.1 0 0.3 0c0.3 0 0.6 0 1 0.1 1.5 0.5 3.2 0.2 4.7 0.8 1.8 0.3 3.4 1.2 5.1 1.7 2 0.6 3.6 1.8 5.5 2.8 0 0.4 0.1 0.7 0.6 0.4 0 0 0.1 0 0.1 0.1 0.1 0.9 0.8 1.5 1.4 1.9 2.8 2 5.4 4.1 7.8 6.6 1.9 2 4.1 3.9 6 6 1 1.1 2 1.3 3.1 1 1.1-0.3 1.8-1.3 1.8-2.6 0-0.4 0-0.8 0.2-1.2 1.7-2.3 3.4-4.7 5.4-6.7 1.7-1.6 3.8-2.7 5.5-4.3 0.8-0.8 1.8-1.4 2.3-2.4 0.1-0.1 0.2-0.2 0.3-0.2 1.2 0 1.9-0.9 2.6-1.7 0.5 0.1 0.8 0 1-0.5 1.5-1.1 3.3-1.8 5-2.5 0.9 0.2 1.8-0.1 2.7-0.3 1.6-0.4 3.4-0.6 4.9-1.3 1.7-0.8 3.5-1.4 5.1-2.2 0.7-0.3 1.4-0.5 1.8-1.2 0.8 0 1.7-0.1 2.5-0.3 0.7 0.6 1.5 0.8 2.4 0.8 4.7 0 9.4-0.1 14.1 0 2.8 0.1 5.7-0.4 8.5 1.3 1.5 0.9 3.9 0.9 5.9 0.8 1.3 0.6 2.7 0.9 3.8 1.7 1.3 0.9 2.9 1.4 4.1 2.4 0.1 0.5 0.4 0.5 0.8 0.5 0 1.1 1 1.8 1.6 2.3 3 2.6 5.6 5.6 8.4 8.5 0.5 0.5 0.9 0.6 1.5 0.7 1.4 0.2 2.5-0.7 3.8-0.7 3.3-0.1 6.4-1.5 9.6-1.9l0.1-0.1c0.7 0 1.3 0 2 0q0.1 0 0.3 0c1.1 0 2.3 0 3.4 0q0.9 0.3 1.8 0c1.2-0.1 2.3 0.5 3.5 0.3 0.3 0 0.5 0 0.8 0 0.2 0 0.3 0 0.5 0 0.3 0.6 0.9 0.8 1.5 1.1 1.1 0.5 2.4 0.4 3.5 0.9 1.8 0.8 3.5 1.8 5.1 2.8 2.5 1.5 4.6 3.5 6.3 5.9 1 1.5 1.9 3.1 2.4 5 0.2 1.5 1.2 3.2 1.8 4.9zm-116.1-11.8c-0.9 0.3-1.4 1.1-2.1 1.6-1.9 1.6-3.6 3.4-5.8 4.7-1.3 0.8-2.6 1.6-3.5 2.9-1.8 2.4-3.9 4.5-6.5 6.1-0.4 0.2-0.8 0.7-1.2 0.4-1.5-1.4-3.6-2.2-4.7-4.1-1.8-3.2-4.8-4.9-7.7-6.9-1.5-1.6-3.1-3.1-5.3-3.7-2.2-2.4-5-2.3-7.8-1.8-1.9 0.4-3.7 1.2-5.7 0.4-1.2-0.4-2-1.6-1.7-2.8 0.2-0.5 0.5-0.9 0.8-1.4 0.5-0.8 0.3-2.1-0.4-2.7-1.1 0-2.2-0.2-3.2 0.2-2.1 0.2-3.8 1.3-5.3 2.7-0.8 0.7-1.5 1.5-2.4 2-2.1 1-3.7 2.7-5.4 4.1-1.5 1.2-2.8 2.9-4.9 3.2-0.3 0-0.4 0.2-0.6 0.4-0.8 0.8-1.6 1.7-2.4 2.5-0.7 0.7-1.1 1.4-1.3 2.3-0.4 1.7-1.4 3-3.3 3.3-1.2 0.2-1.9 0.8-2.3 1.8-0.5 1.4-1 2.9-1 4.4 0 1.8 0.5 3.5 0 5.3-0.1 0.4 0 0.8 0.2 1.2 0.5 0.7 0.5 1.5 0.5 2.4 0 1.4-0.4 2.8 0.2 4.1 0.8 1.6 1.1 3.5 2.4 4.9 0.3 0.3 0.5 0.7 0.4 1.2-0.3 1.2 0.5 1.9 1.4 2.4 0.9 0.6 1.7 1.2 2.7 1.7 2 0.9 2.4 1.7 2.3 4 0 0.9 0 1.7 0.7 2.5 0.6 0.6 1.3 1.2 1.9 1.8 0.5 0.5 0.6 1 0.3 1.6-0.8 1.9 0.2 4.5 2.2 5.2 1.1 0.4 1.9 1.1 2.6 2 1.2 1.6 2.4 3.3 4.9 2.9 0.8-0.1 1.6 0.4 2.2 1q1.5 1.5 3 3c0.3 0.3 0.5 0.6 0.9 0.6 1.6-0.1 2.6 0.9 3.6 1.9 0.7 0.7 1.4 1 2.5 0.7 0.6-0.2 1.2-0.4 1.8 0 1 0.8 2.2 1.1 3.4 1.3 4.3 0.7 8.5 1.9 12.9 2.3 2.1 0.2 4.2 0.6 6.3 0.1 0.8-0.2 1.8-0.1 2.6 0.4 1.1 0.6 2.3 1.1 3.6 0.8 2.2-0.6 4.2 0.2 6.3 0.5 4.2 0.5 8.3 1.7 12.4 2.7 3 0.7 6 1.2 9.1 1.1 1.8-0.1 3.5 0.3 5.2 1.2 1.3 0.7 2.8 0.7 4.1 0.4 1.9-0.4 3.7-0.4 5.5 0.3 0.5 0.2 1.2 0.5 1.7 0.2 1.6-1 3.4-0.6 5.1-0.7 0.6 0 1.1-0.1 1.5-0.5 1.2-1.5 2.9-1.6 4.5-1.4 1.8 0.2 3.3 0.1 4.9-0.9 0.8-0.5 1.8-0.2 2.7-0.2 1.4 0 2.6-0.4 3.8-1.1 0.7-0.5 1.6-0.7 2.4-0.9 2.5-0.7 5.1-1 7.3-2.3 0.9-0.6 1.9-0.8 2.9-0.9 0.6 0 1.2-0.2 1.8-0.5 1.2-0.5 2-1.7 3.3-2 2.4-0.5 4.4-1.6 6.5-2.8 0.9-0.5 1.9-1 3-1.1 1-0.1 2-0.3 2.9-0.8 1.9-0.9 3.4-2.3 5.3-3.2 2.3-1.1 4.3-2.4 5.9-4.3 1.4-1.7 3.5-3 3.7-5.5 0-0.3 0.3-0.6 0.6-0.7 1.8-0.8 2.8-2.7 4.5-3.6 0.5-0.3 0.7-0.8 1-1.2 0.8-1.2 0.9-2.7 1.8-3.8 1.2-1.3 2.1-2.7 3.1-4.2 0.6-0.9 1.1-1.7 0.9-2.9-0.1-0.7 0.3-1.2 0.8-1.8 1.3-1.5 2-3.2 2-5.2 0.1-3.8-0.4-7.5-0.3-11.3 0-0.6-0.2-1.1-0.6-1.6-1.1-1.2-2.2-2.4-3.7-3.2-0.6-0.3-0.9-0.9-1.3-1.4-1.2-1.8-2.5-3.4-5.1-3.2-1.1 0.1-2.2 0.7-3.4 0.3-1.6-0.5-3.1-0.4-4.7 0.3-1.5 0.6-3.2 0.9-4.7-0.6-0.8-0.8-2.1-0.7-2.9 0-2 1.8-4.7 1.5-6.9 2.9-1.5 0.9-3.3 0.3-4.9 0.5-1.6 0.1-2.9-0.5-4.2-1.4-0.9-0.7-1.6-1.5-1.6-2.8 0-1.2-0.4-2.3-1.7-2.8-1.7-0.8-3.1-1.8-4.2-3.5-1.5-2.2-3.7-3.9-6.3-4.8-1.5-1.6-3-3.2-4.5-4.7-1.2-1.4-2.5-2.6-4.5-2.8q-0.7 0-1.5 0c-3.6-0.2-7.1 0.3-10.7 0-2.4-0.2-4.7 0-7.1 0-2.1 0-4 0.5-5.6 2-0.6 0.5-1.2 1.1-2.1 1-1.7-0.1-3.2 0.6-4.4 1.5-2.7 1.9-5.9 2.9-8.5 4.9-0.9 0.8-2.3 0.8-2.9 1.9z"/>
			<path id="Layer" class="s2" d="m132.5 123.9c-0.3-0.9-0.1-1.2 1-1.3 3.4-0.4 6.7-0.9 10.1-0.9 4.7 0 9.5-0.1 14.2-0.3 1.5-0.1 3.1-0.5 4.6-1.1 1.6-0.7 3.3-0.7 5-0.8 1.8-0.1 3.5-0.5 5.1-1.3 1.1-0.6 2.3-0.6 3.4-0.7 2.4-0.3 4.3-1.7 6.6-2.3 2.6-0.7 4.8-2.4 7.1-3.6 3.7-1.9 7.2-4.2 10.5-6.8 3.1-2.5 5.9-5.2 8.5-8.3 1.5-1.8 2.8-3.7 4.3-5.5 1.4-1.7 2.1-4 3.1-6 0.3-0.5 0.5-1 0.8-1.5 0.6-0.7 1.1-1.6 1.1-2.6 0.1-1.2 0.6-2.3 1.3-3.2 0.5-0.6 0.8-1.3 0.8-2 0.2-2.2 0.8-4.3 1.9-6.2 0.2-0.4 0-0.9 0.4-1.3 0.4 1.7 0.1 3.5-0.4 5.1-0.9 2.8-1.7 5.6-2.7 8.3-1.1 3.1-3.1 5.6-4.5 8.5-1.3 2.7-3 5.1-4.9 7.3-2.5 2.9-5.1 5.9-8.4 8-1.1 0.7-1.9 1.6-2.8 2.4-1.1 1-2.4 1.7-3.8 2.4-2.6 1.3-5 2.9-7.6 4.2-1.6 0.8-3.3 1.1-4.7 1.9-1.8 1.1-3.9 1.4-5.8 2.4-1.5 0.7-3.2 0.9-4.8 1.3-2.5 0.7-5 1.1-7.5 1.7-1.4 0.3-2.9 0.2-4.3 0.3-1.4 0.2-2.7 0.6-4.2 0.6-0.7 0-1 0.5-0.9 1.2-7.3 0.1-14.9 0.1-22.5 0.1z"/>
			<path id="Layer" class="s2" d="m12.3 64.6c0.5 0 0.5 0.3 0.5 0.7 0.7 3.6 2 7 3.3 10.4 0.9 2.2 1.8 4.5 3.3 6.4 1.3 1.7 2.2 3.5 3.6 5.2 0.9 1.1 1.8 2.4 2.6 3.7 0.8 1.3 1.9 2.4 3 3.4 1.4 1.2 2.5 2.6 3.9 3.8 2.3 1.8 4.4 3.9 7.1 5 1 0.4 1.8 1.3 2.7 1.9 1.6 1.2 3.4 2.1 5 3.4 0.1 0.1 0.3 0.2 0.4 0.3 2.1 0.6 3.6 2.4 5.8 2.8 0.4 0.1 0.7 0.4 1 0.7 0.7 0.6 1.5 1 2.5 1 1 0 1.9 0.4 2.7 1.1 0.7 0.8 1.6 1.2 2.8 1 1.5-0.2 2.6 1 3.8 1.5 0.7 0.3 1.4 0.5 2.2 0.5 1 0 1.9 0.2 2.8 0.7 1.6 0.9 3.3 1.4 5.2 1.5 1.4 0 2.9 0.5 4.1 1.5 0.6 0.5 1.5 0.6 2.3 0.6q2 0 3.9 0c3.8-0.1 7.5 1.1 11.3 0.8 0.4 0 0.8 0.1 1.1 0.4 0 0.5-0.7 0.5-0.6 1-3.8 0-7.7 0-11.5 0 0.1-0.9-0.2-1.2-1.1-1.3-2-0.3-4-0.8-6-0.7-1.8 0.1-3.5-0.3-5-1.2-0.6-0.3-1.2-0.4-1.8-0.5-3.5-0.5-6.8-1.9-10.1-3.3-2-0.9-4-1.7-6-2.5-2.1-0.8-4-2.2-6.2-2.6-0.1 0-0.2 0-0.2-0.1-1.3-1.5-3.2-2-4.7-3.1-1.7-1.2-3.4-2.3-5.3-3.2-1.4-0.8-2.7-1.9-4-2.9-1.5-1.2-3.3-1.9-4.7-3.2-2.5-2.4-5.1-4.8-7.4-7.4-2.1-2.4-3.8-5.1-5.7-7.6-0.4-0.5-0.5-1.1-0.8-1.7-1.7-3.3-3.3-6.7-4.5-10.3-0.7-2.1-1.4-4.2-1.5-6.5-0.1-0.4-0.2-0.8 0.2-1.2z"/>
			<path id="Layer" class="s2" d="m35.8 11.9c0 0.8-0.5 1.5-1.1 1.8-3 1.4-5.3 3.5-7.8 5.6-1.8 1.5-3.5 3-4.9 4.8-1 1.3-2.2 2.5-2.7 4.1-0.1 0.4-0.5 0.7-0.8 1.1-1.2 2.1-2.5 4.1-3.4 6.3-0.7 1.6-1.1 3.4-1.8 5-0.5 1.2-0.6 2.6-0.6 3.9-0.1 5.7 0 11.3 0 17 0 0.8-0.2 1.5-0.3 2.2-1.4-0.4-1.1 0.7-1.3 1.6-0.6-0.3-0.5-0.9-0.6-1.3-0.4-6.4-0.6-12.8-0.1-19.2 0-0.5 0-0.9 0.7-0.8 0.7 0.2 1-0.4 1-0.9 0-3.5 1.4-6.7 2.5-9.9 0.4-1.1 1.1-2.1 1.7-3 1-1.5 1.7-3.1 2.9-4.4 2-2.1 3.5-4.7 5.8-6.5 3.2-2.5 6.3-5.2 10-7 0.2-0.3 0.5-0.5 0.8-0.4z"/>
			<path id="Layer" class="s2" d="m99.2 13.4c-0.6 1-1.5 1.7-2.3 2.4-1.7 1.6-3.8 2.6-5.5 4.3-2.1 2-3.7 4.4-5.4 6.7-0.3 0.4-0.3 0.8-0.2 1.2 0 1.3-0.6 2.3-1.8 2.6-1.1 0.3-2.1 0.2-3.1-1-1.8-2.1-4-3.9-6-6-2.4-2.5-5-4.6-7.8-6.6-0.6-0.5-1.4-1-1.4-1.9 4.1 1.9 7.3 5 10.5 8.1 1.9 1.8 3.7 3.6 5.6 5.4 0.7 0.7 1.9 0.5 2.2-0.5 0.9-2.8 3-4.7 4.8-6.8 1.6-1.9 3.5-3.4 5.2-5.1 1-1 2.3-1.5 3.3-2.5 0.6-0.5 1.3-0.3 1.9-0.3z"/>
			<path id="Layer" class="s2" d="m222.5 66c-0.1-2.4-0.2-4.7 0.1-7.1 0.1-0.9 0.1-1.7 0.1-2.6 0-4.5 0-9.1 0-13.6 0.2 0 0.4 0.6 0.6 0 0.1-0.5 0.2-1 0.4-1.6 0.1-0.3-0.1-0.7 0.4-0.6 0.3 0 0.2 0.3 0.3 0.6 0.7 3.6 0.7 7.3 0.6 11 0 2.5 0.2 5.1-0.1 7.6-0.2 2.3 0.1 4.6-0.7 7-0.2-1.6-0.9-1.3-1.7-0.7z"/>
			<path id="Layer" class="s2" d="m222.6 40.4c-0.6-1.7-1.5-3.4-2-5.1-0.6-1.8-1.4-3.4-2.4-5-1.7-2.4-3.7-4.4-6.3-5.9-1.7-1-3.3-2.1-5.1-2.8-1.1-0.5-2.4-0.4-3.5-0.9-0.6-0.2-1.2-0.4-1.5-1.1 2-0.4 3.8-0.2 5.3 1.2 0.3 0.3 0.8 0.5 1.2 0.7 3.4 1.1 6.2 3.1 8.7 5.6 2 2 3.6 4.4 4.7 7.2 0.7 1.7 0.9 3.5 1.2 5.3-0.1 0.3-0.1 0.6-0.3 0.8z"/>
			<path id="Layer" class="s2" d="m155.8 6.1c-2 0.1-4.4 0.1-5.9-0.8-2.8-1.7-5.6-1.3-8.5-1.3-4.7-0.1-9.4 0-14.1 0-0.9 0-1.7-0.2-2.4-0.8 0.4-0.4 0.9-0.2 1.3-0.2q9.6 0 19.2 0c1.6 0 3.1 0.2 4.5 1 1.6 0.9 3.5 0.9 5.2 1.7 0.3 0 0.6 0.1 0.7 0.4z"/>
			<path id="Layer" class="s2" d="m189.5 19.4c0 0-0.1 0.1 0 0-3.3 0.5-6.4 1.9-9.7 2-1.3 0-2.5 0.9-3.8 0.7-0.6-0.1-1-0.2-1.5-0.7-2.7-2.9-5.4-5.9-8.4-8.5-0.7-0.6-1.6-1.2-1.6-2.3 2.5 2 5.4 3.7 7.3 6.5 0.8 1.2 1.9 2.2 2.9 3.2 0.6 0.6 1.3 0.7 2.1 0.5 1.9-0.6 3.8-1.1 5.9-1.1 2.1 0 4.2-0.4 6.3-0.4 0.2 0 0.3 0.1 0.5 0.1z"/>
			<path id="Layer" class="s2" d="m122.5 3.5c-0.4 0.6-1.1 0.8-1.8 1.2-1.7 0.8-3.5 1.4-5.1 2.2-1.5 0.7-3.2 0.9-4.9 1.3-0.9 0.2-1.8 0.4-2.7 0.3 0.3-0.5 0.7-0.9 1.2-0.9 1.9-0.1 3.4-1.2 5.1-1.9 1.2-0.5 2.5-0.8 3.8-0.9 0.8 0 1.3-0.3 1.9-0.8 0.7-0.7 1.6-1 2.5-0.5z"/>
			<path id="Layer" class="s2" d="m44.3 9.4c-1.3 0.7-2.7 1.4-4.2 1 0.8-1.3 2-1.6 4.2-1z"/>
			<path id="Layer" class="s2" d="m54.5 10.2c-1.5-0.5-3.2-0.3-4.7-0.8 1.3-0.1 2.7 0 4 0.2 0.3 0.1 0.7 0.1 0.7 0.6z"/>
			<path id="Layer" class="s2" d="m102 11.4c-0.7 0.8-1.3 1.7-2.6 1.7 0.6-1 1.4-1.7 2.6-1.7z"/>
			<path id="Layer" class="s2" d="m197 19.4c-0.6 0.1-1.2 0.2-1.8 0q0.9-0.6 1.8 0z"/>
			<path id="Layer" class="s2" d="m103 10.9c-0.2 0.5-0.5 0.6-1 0.5 0.2-0.5 0.6-0.5 1-0.5z"/>
			<path id="Layer" class="s2" d="m164.5 10.7c-0.4 0-0.7 0-0.8-0.5 0.4-0.1 0.7 0.1 0.8 0.5z"/>
			<path id="Layer" class="s2" d="m65.6 15c-0.5 0.3-0.5 0-0.6-0.4 0.3 0 0.5 0.1 0.6 0.4z"/>
			<path id="Layer" class="s2" d="m201.3 19.6c-0.3 0-0.5 0-0.8 0 0.2-0.2 0.5-0.2 0.8 0z"/>
			<path id="Layer" class="s2" d="m48.8 9.3q-0.1 0-0.3 0 0.1-0.2 0.3 0z"/>
			<path id="Layer" class="s2" d="m191.8 19.3q-0.2 0-0.3 0c0-0.1 0.1-0.2 0.3 0z"/>
			<path id="Layer" fill-rule="evenodd" class="s3" d="m69.8 29.7c2.2 0.6 3.8 2.1 5.3 3.7 0 0.9 0.4 1.6 1 2.2 0.9 0.9 2.1 1.6 2.5 2.7 0.4 1.2 1.2 1.8 2.2 2.3 0.6 0.3 1.1 0.7 1.6 1.2 1.4 1.3 2.3 3 3.6 4.4 1.5 1.6 2.1 3.2 1.9 5.2-0.1 0.5 0 0.9 0.5 1.2q1.2 0.7 2.4 1.5c0.5 0.3 0.9 0.2 0.8-0.5-0.3-1.5 0.1-3.2-1.1-4.5-0.6-0.7-0.8-1.5-0.3-2.3 0.8-1.3 1.4-2.7 2.6-3.8 1.3-1.2 2.6-2.4 3.1-4.1 0.1-0.5 0.6-0.8 1-1.1 0 0.5-0.1 0.9 0 1.4 0.5 1.6 0.2 2.7-1.5 3.4-0.9 0.3-0.7 1.2-0.3 1.8 0.7 1.1 2.7 1.6 3.9 1.2 1.2-0.4 2.1-1.3 3.2-1.9 1.1-0.6 1.1-1.5 0.8-2.5-0.4-1.4-0.2-2.3 0.9-3.2 0.9-0.8 0.9-1.4-0.3-1.8-1.4-0.5-2.8-0.5-4.2 0.1 0.3-1.1 1.5-1.2 2.1-1.9 1.1-1.3 2.4-2.5 3.8-3.7 0.7-0.6 1.2-1.2 1.4-2.1 0.3 0 0.7 0 1 0-0.4 1.3-0.8 2.5-1.9 3.3-0.8 0.6-0.8 1.3-0.1 2 0.4 0.4 0.7 0.8 0.8 1.4 0.2 0.9 0.9 1.4 1.8 1.5 0.8 0.1 1.4-0.6 1.6-1.2 0.6-1.5 1.6-2 3.1-1.8 1.2 0.1 2-0.5 2.2-1.7 0.3-1.3 1-1.8 2.3-1.8 1.7 0 3.3 0.3 4.9 0.5 1.7 0.2 3.4 0.6 5.1-0.4 1.1-0.7 2.1 0 2.6 0.9 0.6 1.1 1.5 1.2 2.5 0.9 0.7-0.2 1.4-0.3 2.1 0 1.6 0.8 1.8 2.7 0.4 4-1.1 1-1.4 2.1-1 3.4 0.1 0.3 0.1 0.7 0.1 1 0.1 1.4 0.9 1.9 2.6 1.9 1.5 0 1.8-0.3 1.9-1.8 0-1.6 0.5-2.3 2-2.7 1.9-0.6 3.5 0.2 4.5 1.8 1.5 2.4 3.2 4.7 6.7 4.3 0.8-0.1 1.6 0.1 2.1 0.9 0.5 0.7 1.1 1 1.9 0.9 0.5 0 1-0.1 1.2 0.5 0.4 1.2 0.8 2.3 1.6 3.4 0.3 0.5 0.4 1.1 0 1.5-0.3 0.5-0.9 0.5-1.4 0.4-0.8-0.2-1.5 0.1-2.1 0.8-0.6 0.7-0.3 1.5-0.3 2.3 0 1.1-0.4 1.5-1.5 1.4q-1-0.2-2.1 0.3c-0.6 0.3-1.2 0.7-1.2 1.4 0 0.7 0.7 0.8 1.2 1 2.2 0.8 3.9 1.8 4.8 4.2 0.7 1.9 0.9 2.1-0.6 3.6-0.8 0.8-1 1.6-0.5 2.7 0.7 1.5 0.4 2.2-1 3.1-1.2 0.8-2.3 0.6-3.3-0.5-0.1-0.2-0.3-0.3-0.5-0.3-1 0-2.2 1.7-1.7 2.7q0.5 0.9 0 1.8c-0.1 0.3-0.4 0.5-0.7 0.4-0.4 0-0.4-0.4-0.4-0.7 0-0.4 0.1-0.7 0.2-1.1 0.1-0.3 0.1-0.5-0.2-0.6-0.6-0.3-2.5 0.1-2.8 0.7-0.4 1 0.6 1.2 1.1 1.7 0.2 0.2 0.5 0.4 0.7 0.5 0.8 0.2 0.8 0.6 0.6 1.3-0.2 0.7 0.1 1.3 0.6 1.8 0.6 0.5 1.2 0.3 1.7-0.1 0.7-0.6 1.5-0.7 2.3-0.6 2.4 0 4.7 0 7.1 0.2 0.9 0.1 1.3-0.4 1-1.2-0.3-1 0-1.9 0.4-2.7 0.5-1.1 1.1-2.3 0.4-3.4-1.2-2-0.4-3.9 0.3-5.7 1-2.7 1.8-3 4.2-1.5 1 0.6 3.3 0 3.8-1q0.3-0.6 0-1.2c-0.8-1.6-1.7-3-3.8-2.7-0.4 0.1-0.8-0.1-1.1-0.5-0.3-0.5 0-0.8 0.3-1.1 1.1-1.2 1.9-2.5 1.1-4.2-0.3-0.5 0.1-1 0.5-1.4 0.4-0.4 0.8-0.2 1.3 0 0.9 0.5 2 0.8 2.5 1.8 0.2 0.3 0.5 0.4 0.9 0.4 1.2 0.1 1.9-0.5 2.5-1.5 0.9-1.6 2.5-2.4 4.2-2.4 2.8 0 2.8 0.1 1.9-2.7-0.5-1.4-1.4-1.9-2.9-1.7-0.4 0.1-0.8 0.1-1.2-0.2-1.2-0.8-2.3-1.6-2.7-3.1-0.3-1-0.9-1.5-2-0.9-1.7 0.8-3.2 0.4-4.6-0.6-0.8-0.6-1.3-1.4-2.1-1.9-1.6-1.1-3.1-2.2-4.2-3.9-1.3-2.1-1.1-2.9 1.3-3.3 0.7-0.1 1.2-0.4 1.4-1.1 0.2-0.7-0.4-1.1-0.8-1.4-0.6-0.4-1-0.8-1.3-1.5-1-2.4-2.8-4.1-4.7-5.8-0.3-0.3-0.7-0.3-1-0.2-0.5 0.2-0.4 0.6-0.3 1 0.1 1.7 0.7 3.3 1.1 4.9 0.5 1.8 0.5 1.8-1.2 2.7-0.8 0.4-1 0.9-0.7 1.7 0.5 1.1 1.2 2 2.2 2.6 0.8 0.5 1.7 1 1.7 2.1-1.1-1.3-2.8-1.9-3.9-3.3-1.4-1.8-3.2-3.2-4.5-5.1-0.8-1.2-2.1-1.1-2.8-0.3-0.7 0.8-0.5 2.1 0.7 2.7 2.4 1.2 2.8 3.6 3.5 5.8 0.6 1.9 1.5 2.9 3.6 2.9 1.2 0 2.2 0.5 2.9 1.4 0.3 0.4 0.4 1.1 0.6 1.6 0.3 0.9 1.1 1.1 1.9 1 0.9-0.1 1.5-0.4 1.7-1.3 0.3-1.1-0.2-2.3-1.7-3.4-0.6-0.4-1.2-0.8-1.3-1.5 0.8 0.3 1.5 0.7 2.2 1 0.8 0.4 1.6 1.1 1.7 2 0.2 1.5 0.9 2.6 2 3.6 0.9 0.8 0.8 1.5-0.2 2.3-0.8 0.6-1.6 0.5-2.2-0.4-0.5-0.8-1.2-1.1-2.1-1-0.6 0-1.2 0.1-1.7-0.1-0.6-0.2-0.9-0.5-1-1.1-0.5-2.9-1.6-3.7-3.9-3.5-1.3 0.1-2.3-0.6-2.6-1.6-0.6-1.7-1.6-3.3-2.1-5-0.5-1.6-2.4-2.8-4-2.4-1.5 0.4-2.6 0.1-3.5-1.3-0.6-0.9-1.4-1.4-2.6-1-1.4 0.6-2.8-0.2-3.1-1.8-0.2-1.2-0.7-2.4-1.1-3.6-0.7-2.3-2.9-2.9-4.8-1.5-0.5 0.4-0.6 0.8-0.2 1.2q0.6 0.6 1.2 1.5 0.6 1-0.3 1.8c-0.6 0.4-1.2 0.5-1.9 0-0.9-0.7-0.7-1.7-0.7-2.6 0.1-1.5-0.1-1.9-1.6-2.2-1.4-0.2-1.9 0.2-1.7 1.6 0.2 1.3-0.5 2.2-1.7 2-0.8-0.1-1.7-0.3-2.5-0.3-1.5-0.1-3.1-0.9-4.5-0.1-1.2 0.6-2.5 0.8-3.8 0.7 0.1-0.5 0.5-0.6 0.9-0.7 1.1-0.5 2.4-0.8 3.4-1.5 2.1-1.7 4.5-2.5 7-2.8 1.6-0.2 3.1-1.3 4.9-0.7 1.1 0.4 2-0.1 2.5-1.1 0.7-1.2 2-1.8 3.3-1.5 2.4 0.6 5.1 0 7.4 1.4 0.4 0.2 1.1 0.1 1.6-0.1 1.4-0.5 2.8-0.9 4.1-1.5 0.5-0.2 1.3 0.2 1.4-0.7q0.7 0 1.5 0c1.1 1.5 2.8 2.2 4.5 2.8 1.5 1.6 3 3.2 4.5 4.7 0 0.5 0.4 0.8 0.7 1.1 1.3 1.4 2.7 2.7 3.9 4.2 1.6 2 1.6 3.1-0.3 4.8-0.8 0.7-0.8 1.2 0.1 1.8 1.1 0.7 1.9 2 3.3 2.3 0.4 0.1 0.6 0.5 0.8 0.9 0.7 1.6 1.2 1.8 2.9 1.3 0.9-0.3 1.8-0.8 2.6-0.2 1.3 0.9 2.5 0.6 3.7 0.1 0.4-0.2 0.8-0.2 1.2-0.3 0 0.5-0.4 0.5-0.7 0.8-0.2 0.2-0.3 0.4-0.1 0.8 0.4 0.6 1.8 1 2.6 0.8 1.1-0.3 0.9-1 0.7-1.8 1.1 0 2.2 0.3 3.2 0 1.5-0.4 3.1-0.9 4.4-1.9 0.7-0.5 1.4-0.9 2.2-0.1 0.4 0.3 0.9 0.4 1.4 0.2 0.8-0.3 1.5-0.2 2.3-0.2-0.1 0.6-0.6 0.4-1 0.5-0.9 0.4-1.4 1.1-1.3 2.1 0.1 0.8 0.6 1.5 1.5 1.6 1 0.1 1.5-0.6 1.7-1.4 0.1-0.4 0.2-0.7 0.4-1 0.5-0.8 0.3-1.3-0.4-1.7 0.2-0.6 0.8-0.4 1.1-0.6 2.1-1 3.5-0.9 4.8 0.8 1.2 1.6 2.8 2.2 4.5 2.5 2.4 0.5 4.5 1.6 6.8 2.3 0.8 0.2 1.2 0.9 1.3 1.7 0.1 0.5-0.3 1-0.7 1.2-0.7 0.4-1.3-0.1-1.8-0.5-0.2-0.2-0.4-0.3-0.6-0.4q-1.2-0.6-2.1 0.3c-0.6 0.6-0.1 1.3 0.3 1.7 1.2 0.9 2.2 2.2 3.9 2.1 1.5-0.1 2.3 1.1 2.2 2.5-0.1 0.9-0.2 1.8-0.1 2.7 0.2 2-0.8 3.3-2.4 4.4-1.6 1.2-3.5 2.1-4.9 3.6q-0.5 0.6-1.2 0.3c-0.7-0.3-1.6-0.3-1.7 0.6-0.1 1 0.8 1 1.5 1 0.7 0 1.1 0.3 1.4 0.8 0.7 1.5 0 4.4-1.2 5.4-0.7 0.5-1.1 0.6-1.5-0.3-0.6-1.5-2.8-2.7-4.4-2.3-1 0.3-1.4-0.1-1.5-1.1 0-0.4-0.2-0.8-0.3-1.2-0.5-1.7-1.8-2.3-3.4-1.6-1 0.4-1.9 0.4-2.7-0.2-0.6-0.4-1.2-0.7-1.9-0.4-1.2 0.4-2.2 0-3.2-0.4-0.9-0.4-1.7-0.6-2.6-0.1-1.1 0.7-0.9 1.9-1.1 2.9-0.1 0.4 0.3 0.6 0.7 0.5 1.8-0.5 3.7-0.2 5.4-0.8 1-0.3 1.4 0 1.6 0.9 0.1 0.4 0.2 0.7 0.3 1.1 0.3 1.9 1.3 2.5 3.2 2.1 0.9-0.2 1.7-0.6 2.6-0.9 0.6-0.3 1.2-0.3 1.2 0.7 0.1 2 0.7 3.8 2.2 5.2 0.1 0.1 0.1 0.1 0.2 0.2 0.1 0.3 0.4 0.6 0.2 0.9-0.2 0.3-0.6 0.3-0.9 0.3-0.4 0-0.7-0.2-1.1-0.2-0.9-0.1-2.2-0.3-2.5 0.9-0.6 2-1.7 2.4-3.6 2.2-1.4-0.1-2.8-0.2-3.9-1.1-0.3-0.2-0.5-0.5-0.9-0.4-2.1 0.2-4-0.9-6.1-1.2-2.1-0.3-3 0-3.8 2-0.2 0.4-0.6 0.8-0.1 1.3 0.5 0.5 0.8-0.1 1.2-0.2 0.8-0.3 1.5-0.7 2.4-0.4 0.9 0.4 1.3 1.2 1.3 2.1 0 1-0.8 1.6-1.8 1.8-0.6 0.2-1.3 0.3-1.3 1.1q0 0.5 0.2 0.7-0.4-0.3-0.9-0.6c-0.5-0.3-1-0.8-1.6-0.5-0.6 0.3-0.3 1-0.4 1.4 0 2.4 2 3.7 4 2.7 1.2-0.6 1.3-1.5 0.2-2.2q-0.1-0.1-0.3-0.2c0.8 0.3 1.4 0.9 1.9 1.6 0.6 0.7 0.5 1.3-0.5 1.6-0.7 0.2-1.4 0.5-2.1 0.8-0.8 0.3-1.7 0.8-2.6 0.5-1-0.3-1.9 0-2.8 0.3-0.5 0.2-1.1 0.4-1.4 0-1.2-1.5-2.7-1.1-4.2-1.1-1.4 0-2.9 2.1-2.5 3.4 0.1 0.4 0.4 0.3 0.7 0.3 0.9 0 1.6 0.2 1.9 1.1 0.3 1 0 1.9-0.8 2.6-1 0.8-2 1.4-3.2 1.8-0.9 0.3-1.8 0.8-2.4 1.5-0.9 1.1-2.1 1.4-3.3 1.6-0.8 0.1-1.9-0.1-2.3-1-0.3-0.8 0.4-1.4 0.8-2 0.3-0.4 0.8-0.7 1.3-0.9 0.6-0.4 1.3-0.8 1.2-1.6-0.1-0.9 0.4-1.5 0.9-2.1 1.9-2.5 1.4-4.8-1.3-6.2-0.4-0.2-0.9-0.4-1.3-0.1-0.4 0.3-0.3 0.8-0.2 1.2 0.5 1.9 0.1 2.4-1.8 2.4-1.2 0-1.9 0.5-2 1.7-0.1 0.6-0.2 1.1-0.4 1.7-0.8 2.4-2.8 3.2-4.9 1.8-0.5-0.3-1.1-0.7-1.6-0.5-1.5 0.7-2.5-0.1-3.6-0.8-1.1-0.7-2.1-0.1-2.2 1.1-0.1 1.2 0.1 2.4 0.5 3.5 0.3 0.9 0.8 1 1.5 0.2 0.8-1 1.8-1.4 2.9-0.7 1.7 1.1 3.3 1.2 5.2 0.6 0.9-0.3 1.7 0.3 2.2 0.9 0.5 0.7 0.1 1.3-0.4 1.9-0.9 1.1-2.1 1.4-3.5 1.2-1.8-0.2-3.6-1.1-5.5 0-0.7 0.4-1.7 0.3-2.4-0.3-0.6-0.5-0.2-1.1 0-1.7 0.1-0.3 0-0.6-0.4-0.6-1 0-2-0.2-3 0.1-0.4 0.1-0.8 0.3-0.8 0.8 0 0.5 0.3 0.7 0.7 0.9 0.5 0.2 0.9 0.3 1.4 0.6 1.1 0.6 1.1 1.1 0.3 2-1.7 2-3.6 2.8-5.9 0.9-0.1-0.1-0.3-0.1-0.5-0.2-0.7-0.2-1-0.6-1.1-1.4 0-1.7-0.7-3.1-2.5-3.8-0.7-0.3-1.5-0.5-2.2-0.1-0.7 0.4-0.4 1.2-0.2 1.8 0.2 0.7 0 1.2-0.7 1.4-0.7 0.2-0.8-0.4-1-0.9-0.4-1.6-1.6-2.5-3.3-2.5-0.8 0-1.7 0.2-2.5-0.2-1.1-0.6-2.2-0.6-3.4-0.5-0.5 0-1 0.1-1.5 0-2.5-0.5-4.4 0.4-5.9 2.4-0.8 1.1-2.3 1.1-3.1 0-0.3-0.4-0.7-0.9-1-1.2-1-1-1.6-1-2.4 0.3-0.8 1.3-1.6 1.6-3.3 1.2-0.8-0.2-1.7-0.5-2.6-0.4-2.1 0.1-4-0.7-5.9-1.4-1.1-0.4-1.9-0.4-2.7 0.4-0.5 0.5-2.8 0.8-3.2 0.4-1.4-1.6-3-1.6-5-1.4-3.8 0.4-7.5-0.3-11.2-1-1-0.2-2.2-0.2-3-0.9 1-0.5 1.9 0 2.9 0.2 1.9 0.3 3.8 1 5.7 0.8 0.3 0 0.7 0 1 0.1 1.9 0.7 3.9 0.6 5.7 0.1 1.4-0.4 2.4 0 3.4 0.9 1.5 1.4 2.4 1.2 3.2-0.6 0.8-2 1.3-2.2 3.3-1.2 0.7 0.3 1.2 0.3 1.8-0.3 0.9-1 2-1.6 3.1-2.3 0.8-0.5 1.6-0.6 2.3 0.3 0.4 0.6 0.8 0.6 1.3 0.1 0.2-0.3 0.6-0.4 0.9-0.6 1.7-1 2.2-0.7 2.8 1.1 0.9 2.9 2.4 5.2 6.5 3.5 1.3-0.5 2.5-1.3 3.7-2 0.4-0.3 0.9-0.4 1.2-0.1 1.5 1.4 3.2 1.1 4.9 0.7 0.3-0.1 0.9-0.1 0.9-0.5 0-0.5-0.4-0.6-0.8-0.8-1.2-0.5-2.2-1.2-2.4-2.6-0.1-0.8-0.6-1.2-1.2-1.7-0.9-0.8-1.3-0.8-1.8 0.4-0.7 1.6-1.5 1.8-3 0.8-1.1-0.7-2.1-1.5-3.5-1.5-1 0-1.9-0.5-1.9-1.7-0.1-0.8-0.2-1.7-1-1.8-0.8-0.1-1.6 0.3-2 1-0.9 1.3-2 1.6-3.5 1.4-1-0.1-1.5-0.6-1.5-1.6q0-1.4 0-2.7c0-0.7 0.1-1.6-0.8-1.8-0.9-0.2-2-0.5-2.8 0.2-0.8 0.7-1.6 1.3-2.5 1.9-0.5 0.3-0.9 0.8-1.5 0.2-0.7-0.6 0-1 0.3-1.5 0.9-1.9 2.7-3.4 1.9-5.9-0.3-0.9-0.8-1.3-1.7-0.8-1.2 0.7-2.1 1.9-2.8 3.1-1 1.7-1 1.7-2.9 1.4q-0.9-0.2-1.8-0.3c-1-0.2-1.3-0.7-1.2-1.8 0.1-1.1 1.1-1.9 0.9-3.1-0.1-0.7 0.1-1.4 0.6-2 0.9-1.1 1.1-2.4 0.1-3.2-0.8-0.7-1.5-2-2.9-2-1.1 0-2.2-0.3-3.3 0.4-0.5 0.3-1 0-1.4-0.4-1.6-1.6-3.4-2.9-5.8-3.1-1-0.1-1.9-0.6-2.8-1.1-1.5-0.8-3.1-1.3-4.8-0.4-0.7 0.4-1.4 0.6-2 0.9-0.8 0.3-1.1-0.2-1.6-0.6-0.3-0.3-0.6-0.8-0.2-1.1 1.4-1.1 2.5-2.8 4.6-2.6 1.3 0.1 2.1-0.4 2.5-1.6 0.4-1 1.2-1.4 2.2-1.1 0.9 0.3 1.8 0.5 2.7 0.9 0.9 0.4 1.3 1 0.9 2-0.4 0.9-0.4 1.8-0.2 2.7 0.2 1.4 0.8 1.6 2 0.8 0.6-0.4 1-1 1-1.8-0.1-1.5-0.3-3-1.7-4-0.4-0.3-0.7-0.8-0.9-1.3-0.7-2.1-1.5-4.2-3-6-0.6-0.7-1.2-1-2-1-2.7 0-5.4 2.7-5.5 5.5 0 0.7 0 1.6-0.9 1.7-1.4 0.1-2.5 0.6-3.5 1.6-0.8 0.7-1.8 0.8-2.7-0.2-0.8-0.9-0.2-1.5 0.2-2.2 0.4-0.7 1-1.3 1.4-2.1 0.6-1.2 0.1-2-1.2-2.4-0.9-0.3-1.5 0.4-2.2 0.6-0.9 0.3-1.7 0.1-2.3-0.5-0.5-0.5-0.6-1.5 0-1.9 1.9-1.6 1-3.3 0.2-4.9-0.3-0.7-0.8-0.9-1.6-0.3-1.4 1.1-0.9 2.4-0.7 3.8 0.2 1.4-0.6 2.7-1.7 2.5-1.7-0.3-3.5-0.4-5-1.4-0.8-0.5-1.7-0.6-2.4-0.2-1.5 0.8-2.3-0.1-3.1-1-0.7-0.7-1-1.8-0.6-2.8 0.3-0.9 1.1-1.4 2.2-1.4 1.7 0 2.6-0.9 2.7-2 0.1-1.1 0.2-2.3-0.4-3.3-0.6-1.2-0.2-2.1 0.4-3 0.2-0.3 0.6-0.6 0.7-1 1.1-3.2 4.9-2.9 6.7-1.4 1 0.9 2 1.1 3.3 1.1 1.2 0 1.5 0.5 1.1 1.7-0.1 0.4-0.3 0.8-0.6 1.1-1.2 1.5-1.1 3.1-0.2 4.7 0.5 0.9 1.4 1.1 2.2 1.1 0.8 0 1.1-0.7 1.2-1.5 0.2-1.1 0.7-2 1.9-2.3 0.5-0.1 1.1-0.5 1.6-0.8 1.3-0.8 1.6-1.8 0.7-3-0.7-1.1-1.1-2.2-1.2-3.4-0.1-0.4-0.2-0.9-0.4-1.3-0.4-1-1.2-1.5-2.2-1.2-1.6 0.5-3.4 0.7-4.9 1.6-0.9 0.5-1.6 0.4-2.3-0.3-1-1-2-1.9-2.9-2.9-0.6-0.6-1.2-0.7-1.9-0.5-1 0.2-1.8 0.6-2.4 1.4-1.5 1.8-3.7 3.1-4.5 5.5-0.1 0.4-0.5 0.7-0.9 1-0.3 0.2-0.6 0.6-0.6 0.9-0.2 1.7-1.2 3.3-0.7 5.1 0.2 0.7 0 1.1-1 1-1.6-0.2-3.2-0.5-4.7-0.8-1.3-0.2-2.4 1.1-2 2.4 0.1 0.5 0.3 1 0.5 1.5 0.4 0.9 0.2 1.5-0.5 2.1-0.7 0.6-1.2 1.4-1 2.3 0.2 0.8 0.1 1.5-0.2 2.3-0.1 0.4-0.1 0.7 0.2 0.9 0.4 0.2 0.7 0.2 1-0.1 0.4-0.4 0.8-0.8 1.2-1.3 0.6-0.7 1.2-1 2-0.3 0.3 0.2 0.5 0.4 0.8 0.6 2.1 1.6 2.1 1.6 0.7 3.9-0.5 0.8-0.8 1.6-0.4 2.6 1 2.3 0.8 2.7-1.3 4-0.4 0.2-0.7 0.4-0.5 0.9 0.7 1.3 3.2 1.7 4.1 0.5 0.4-0.6 0.4-1.4 0.5-2.1 0.3-1.1 0.9-2.1 2-2.3 1.1-0.2 1.3 1 1.8 1.8 0.1 0.2 0.1 0.5 0.3 0.7 0.7 1.5 1.4 2.9 3.3 3.4 2 0.5 2.2 1.8 1 3.3-0.6 0.8-1.1 1.7-0.7 2.6 0.4 0.8 1.3 0.5 2 0.5h0.1c1.9 0 2.6 0.6 3 2.4 0.3 1.3 0.7 2.5 0.9 3.7 0.2 0.7 0.6 1 1.3 1.2 1.4 0.3 2 1 1.8 2.5-0.2 1.2 0.4 1.8 1.5 2.1 0.3 0.1 0.6 0.2 0.8 0.3 1.9 0.9 2.7 0.5 3.5-1.4 0.3-0.7 0.4-1.4 0.1-2.2-0.1-0.3-0.3-0.7 0.2-0.8 0.3-0.1 0.6 0.3 0.7 0.6 0.2 1 0.4 2 0.3 3.1-0.1 0.8-0.4 1.7-1.3 1.8-1 0.1-1.7 0.6-2.3 1.2-0.9 0.8-1.7 0.7-2.6 0.3-0.3-0.2-0.7-0.3-1-0.5-0.7-0.6-0.7-0.1-0.8 0.5-0.2 0.9 0.5 1.6 0.5 2.4-1.2-1.2-1.9-2.8-2.9-4.1-0.4-0.6-0.4-1.2-0.1-1.9 0.4-0.7 0.2-1.2-0.3-1.8-0.5-0.6-1-1.2-0.9-2.1 0.2-1.4-0.3-1.8-1.6-1.5-2.9 0.8-4.8-0.3-5.5-3.3-0.2-0.7-0.4-1.5-1.3-1.7-2.3-0.5-3.1-2.1-3.5-4.2-0.3-1.5-1.2-2.5-2.8-2.8-0.5-0.1-1-0.3-1.6-0.4-1.7-0.4-2.8-2-3.1-3.7-0.1-0.8-0.4-1.4-0.7-2.1-0.9-2.3-1.9-4.6-1.4-7.2 0.1-0.7 0.1-1.4-0.2-2.1-0.5-1.1-0.2-2.1 0.5-2.9q1.2-1.4 0.3-3c-0.8-1.5-0.6-1.9 0.5-3.2 0.7-0.7 1.6-1.1 2.1-1.9 0.7-1.1 1.5-2 3-1.4 0.6 0.2 0.9-0.1 1-0.8 0-0.5-0.1-1-0.2-1.5-0.5-1.6-0.3-2 1.1-2.9 0.5-0.3 1.2-0.5 1.4-1.2 0.5-2.1 2.5-2.6 4-3.1 2.6-0.9 4-3.1 6-4.6 0.1 0 0.1-0.1 0.1-0.2 0.8-2.2 2.5-3.4 4.5-4.3 1.2-0.6 2.3-1.5 2.6-2.9 1.1-0.4 2.1-0.3 3.2-0.2 0.2 1.4-0.3 2.4-1.4 3.2-0.3 0.3-0.7 0.5-0.8 0.9-0.4 2.1-1.7 3.7-3 5.2-0.5 0.6-1 1.2-0.6 2.1 0.6 1.9 2.8 2.5 4.5 0.9 1.3-1.2 2.4-1.3 3.8-0.3 0.7 0.5 1.5 0.6 1.6-0.7 0.1-1.3 1.1-1.4 2-1.2 1 0.3 1.9 0 2.8-0.2 1.5-0.2 2.5-1.5 4-1.6 1.5 0 2.2 0.3 2.8-0.2zm109.3 56.6q0.5 0.3 1 0.6 0 0 0 0c-0.4-0.2-0.7-0.3-1-0.6zm-110.8-37.9c1.5 0.7 3 1.3 4.5 2 0.6 0.3 1 1 1.6 1.3 0.3 0.1 0.6 0.2 0.8 0 0.3-0.2 0.3-0.5 0.2-0.8-0.8-1.6-0.7-3.7-2.8-4.7-1.5-0.7-1.5-1.6-0.5-2.9 0.6-0.8 0.4-1.7 0.2-2.5-0.2-0.7-1-0.4-1.5-0.4-1-0.1-2 0.2-2.8-0.6-0.2-0.2-0.5-0.2-0.7 0q-1.7 1.5-2.7 3.3c-0.2 0.4-0.1 1 0.1 1.4 0.5 1 1.1 1.7 2.1 2.2 0.7 0.5 1.3 0.9 1.5 1.7-0.2 0-0.5 0-0.7-0.1-0.6-0.3-1.1-0.6-1.6 0.1-0.6 0.7-0.4 1.4 0.2 1.9 1.1 1 2.4 1.9 3.6 2.8 0.3 0.2 0.8 0.2 1.2-0.1 0.3-0.3 0.3-0.6 0.3-1-0.2-1.1-1-1.6-1.8-2.3-0.6-0.4-1.2-0.6-1.2-1.3zm73.5 25c1.3 0 2.7 0 3.6-0.7 0.8-0.7 1.7-1.3 2.6-1.8 1.2-0.6 1.4-1.7 0.4-2.1-1.4-0.6-1.6-1.5-1.5-2.7 0.1-0.5-0.3-0.9-0.5-1.4-0.5-1.5-1-2.9 0.1-4.4 0.3-0.4 0.4-0.9 0.1-1.5-0.5-1.2-1.4-1.3-2.5-1-1.5 0.4-2.8 0.1-3.1-0.9-0.3-1.2-0.8-2.5 0-3.8 0.9-1.6 0.6-2.7-0.8-3.9-0.2-0.1-0.3-0.2-0.5-0.3-0.5-0.3-0.7-0.8-0.5-1.3 0.2-0.6 0.7-0.6 1.3-0.6 0.3 0 0.6 0.2 0.8 0.2 0.8 0.1 1.4-0.3 1.5-1.1 0.1-0.9-0.5-1.1-1.3-1.1-1 0-2 0.2-2.9 0.5-1.9 0.6-2 0.8-1.4 2.6 0.4 1.2 0.5 2.3-0.4 3.3-0.7 0.8-1.4 0.9-2.2 0.2-0.4-0.4-0.8-0.9-1-1.4-0.4-0.7-0.9-1.2-1.7-1.3-1-0.1-2.4 0.8-2.9 2.1-0.4 1.2 0.1 1.9 1.2 2.3 0.6 0.2 0.8 0.8 0.8 1.4 0 0.3-0.2 0.8-0.6 0.8-0.9 0.1-1.8 0.2-2.3-0.8-0.2-0.4-0.4-0.8-0.7-1-0.7-0.5-1.3-0.3-1.9 0.2-0.6 0.6 0.2 0.8 0.4 1.2 0.1 0.3 0.5 0.5 0.7 0.7 0.9 0.7 1 1.7 0.4 2.6-0.3 0.5-0.8 1.1-0.8 1.7-0.3 1.9-1.5 3.1-2.7 4.5-1.2 1.4-1.2 1.6-0.1 3 0.7 0.8 0.3 1.8-0.8 2-0.4 0.1-0.9 0-1.4 0-2.3 0-3.6 1.8-2.9 3.9 0.5 1.5 2 2.6 3.1 2.2 1.5-0.6 2.8-0.5 4.2 0.2 1.1 0.6 2.1 0.2 2.8-0.6 0.9-1.1 2-1.2 3.2-1 1.9 0.3 3.7 0.2 5.2-1.3 0.6-0.6 1.3-0.8 2.1-0.3 1.1 0.5 2 0.8 2.9 0.7zm-36.3-19c-0.6-0.1-1.3 0-1.8 0.4-0.6 0.4-0.9 0.9-0.3 1.5 0.8 1 2.1 1.3 3.2 0.8 0.8-0.4 1.3-0.1 1.7 0.5 0.4 0.6 0.9 1.1 1.4 1.6 0.8 0.9 0.7 1.4-0.3 1.9-0.4 0.2-0.8 0.5-1.2 0.7-1 0.6-1.2 1.5-0.7 2.5 0.4 0.8 2.2 1.7 2.9 1.6 0.3-0.1 0.4-0.2 0.6-0.5 0.5-1 1.3-1.7 1.5-2.8 0.1-0.5 0.5-1 0.9-1.1 1.4-0.3 1.9-1.3 2.2-2.6 0.2-0.7 0.4-1.5 1.2-1.8 1.1-0.4 2.3-0.8 3.4-0.9 1.7-0.2 2.4-0.9 2.5-2.6 0-1 0.4-1.6 1.3-2 2-0.9 3-2.6 3.4-4.6 0.3-1.3 0.8-2.3 1.8-3.2 0.6-0.5 1.2-0.9 1.7-1.5 1.2-1.2 1.1-2.8-0.1-4.1-1-1.1-2.4-1-3.6 0.1-0.8 0.8-1.6 1.4-2.8 0.9-1.4-0.6-2.2-1.7-2.4-3.1-0.1-1.1-0.4-2.2-0.3-3.3 0-0.3 0-0.6-0.3-0.8-1.3-1.3-4.3-0.9-5.2 0.6-0.7 1-1.3 2.4-2.7 2.4-1.9 0-2.8 0.9-3.3 2.6-0.3 1-0.9 1.5-2.1 1-1.2-0.5-2.2 0.2-2.4 1.5 0 0.3 0 0.7 0 1 0 1.5-0.6 2.8-2.1 3.3-1.5 0.5-2.5 1.8-3.7 2.7-0.5 0.4-0.9 0.9-0.9 1.6-0.1 0.8-0.5 1.5-1 2.1-0.3 0.3-0.7 0.7-0.3 1.2 0.4 0.4 0.9 0.2 1.3 0 1.3-0.8 2.7-1.1 4.2-0.6 0.6 0.2 1.4 0.4 1.1-0.9-0.2-0.6 0.2-1.2 0.5-1.7 0.4-0.7 0.9-1.4 1.2-2.2 0.7-1.4 2.2-1.6 3.2-0.3 0.8 1 1 2.2 1.2 3.4 0.1 0.8-0.4 1-1.1 1.1-1 0.1-1.7 0.6-2.3 1.3-0.3 0.3-0.4 0.7-0.2 1.1 0.6 1.4 0.6 1.4-0.9 1.3-0.1-0.1-0.2-0.1-0.4-0.1zm45 33.3c0-0.9 0-1.7-0.3-2.6-0.6-1.7-2-2.4-3.4-3-0.8-0.4-1.3-0.8-1.3-1.8 0-0.6-0.2-1.2-0.6-1.7-0.6-0.8-1.4-0.6-2.2-0.4-0.6 0.2-0.4 0.7-0.3 1.2 0.5 1.5 0.3 1.7-1.3 1.7-1.4 0-1-1-1.1-1.8 0-0.5 0-0.9-0.5-1.1-0.6-0.2-1.1-0.2-1.5 0.2-1 0.8-1 2.3 0.2 2.8 1.6 0.8 1.6 2.2 1.9 3.5 0.1 0.6-0.2 1-0.7 1.3-0.6 0.3-1 0.2-1.5-0.1-0.6-0.4-1-1-1.3-1.6-0.2-0.5-0.4-1.2-1.1-1.2-0.8 0-1 0.7-1.3 1.3-0.5 1.6-1.8 2.2-3.4 1.7-0.8-0.2-1.2-1-1.9-1.4-0.4-0.2-0.7-0.7-1.2-0.3-0.4 0.3-0.4 0.9-0.2 1.3 0.4 1.1 0.7 2.2-0.2 3.3-0.2 0.2-0.1 0.8 0 1.1 0.3 0.8 0.2 1.6 0.2 2.4 0 1.2-0.7 1.8-1.6 1-2-1.7-4.6-2.3-6.3-4.3-0.3-0.4-0.9-0.5-1.3 0-0.4 0.5 0.1 0.6 0.5 0.8 0.9 0.5 0.7 1.1 0.2 1.7-0.7 0.9-0.6 1.6-0.1 2.6 1 2 2.6 3 4.5 3.9 2.2 1.1 2.9 1 4.8-0.7 0.5-0.5 1.1-1.1 1.8-0.7 1.1 0.6 2.3 1.1 2.8 2.4 0.3 0.6 0.6 1.3 1.2 1.7 0.4 0.2 0.7 0.3 1.1 0 0.4-0.3 0.3-0.7 0.1-1-0.1-0.3-0.3-0.5-0.4-0.8-0.9-1.3-0.6-2.8 1-3 1.9-0.3 3.6-1.1 5.4-1.4 0.8-0.1 1.6 0.1 2.3-0.4 1.2-0.8 2.5-1.1 3.8-1.3 2.8-0.6 3.1-0.9 3.6-3.6-0.4-0.6-0.4-1.1-0.4-1.7zm27.6-18.8c-0.6-0.1-1.5 0.1-2.3 0.3-1.3 0.3-2 1.5-1.4 2.6 0.5 0.9 0.6 2 1.1 2.9 0.1 0.3 0.4 0.7 0.1 1-0.4 0.3-0.8 0.3-1.2 0.1-0.9-0.4-1.5-1.1-2-2-0.6-1.1-2.5-1.7-3.2-0.9-0.8 0.9-1.7 1-2.8 0.9-0.7 0-1.1 0.2-1.3 0.9-0.5 2.1 0.8 3.9 3 3.8 1.1 0 1.4 0.4 1.5 1.3 0 0.3 0 0.6 0.1 0.9 0.2 0.6 0.3 1.2-0.3 1.6-0.6 0.4-1.2 0.3-1.8 0-0.4-0.2-0.7-0.4-1.1-0.6-0.5-0.4-0.9-0.5-1.4-0.1-0.6 0.4-1.2 0.7-1.9 0.9-0.7 0.2-0.7 0.7-0.7 1.3 0.1 0.5 0.2 1.1 0.7 1.2 0.5 0.1 1-0.2 1.2-0.7 0.1-0.1 0.1-0.3 0.2-0.4 0.7-1.1 1.8-1.1 2.4 0 0.5 0.9 1.2 1.7 2 2.4 1.1 0.9 2.3 0.6 2.9-0.7 0.6-1.4 1.1-1.6 2.7-1.3 1.5 0.3 2.1-0.2 1.7-1.7-0.4-1.3-0.3-2.5 0-3.8 0.1-0.6 0.1-1.3 0-2-0.3-1.7 0.4-2.5 2.1-2.8 0.6-0.1 1.5 0 1.8-0.6 0.7-1.1 0.9-2.4 0.5-3.7-0.3-1.1-1.4-0.8-2.6-0.8zm-86.9-8.5c0-1.3-1.2-3.3-2.3-3.9-0.7-0.3-1.5-0.3-1.8 0.4-0.6 1.2-1.6 2.3-1.9 3.6-0.4 1.3-1 2.3-2.4 2.8-0.6 0.2-1.1 0.8-0.9 1.5 0.1 0.8 0.9 0.8 1.5 0.8q0.3 0 0.6 0c1.5 0.1 2.7 0.8 3.4 2.1 0.8 1.3 0.6 2.4-0.4 3.5-0.6 0.7-0.3 2.2 0.5 2.8 1.5 1.2 1.5 1.2 0.6 2.6-0.1 0.1-0.2 0.2-0.2 0.3-0.2 0.5-0.3 1.2 0.4 1.3 0.6 0.2 1.3-0.1 1.4-0.8 0.1-0.4 0.1-0.8-0.2-1.2-0.4-0.8 0.1-1.1 0.7-1.3 1.3-0.5 2.9 0.2 3.6 1.6 0.1 0.3 0.4 0.5 0.6 0.8 0.5 0.7 1.1 1.2 2 0.6 0.7-0.5 0.7-1.7 0.1-2.5-0.4-0.5-0.9-0.7-1.5-0.9-1.5-0.8-1.8-1.8-1.1-3.3 0.5-0.9 0.7-1.9 0.9-3 0.1-0.9-0.1-1.6-1.2-1.8-0.7-0.1-1.3-0.6-1.4-1.3-0.4-1.6-1.9-3-1-4.7zm85.5 7.7c1 0.1 2.2 0 3.3-0.5 0.8-0.4 0.9-0.9 0.3-1.4-0.9-0.7-1.7-1.5-3-1.3-0.9 0.1-1.6-0.3-2-1.1-0.7-1.4-2.1-2.2-2.9-3.5-0.4-0.7-1.1-0.4-1.7 0-0.6 0.4-0.5 0.8-0.2 1.4 0.4 0.7 1 1.2 1.5 1.8 0.6 0.7 0.8 1.5 0.5 2.3-0.3 0.7-1.1 0.3-1.7 0.4q-0.3 0-0.6 0c-2-0.3-2.9 0.3-3.4 2.2-0.3 1.3-0.7 1.6-2 0.9-0.4-0.2-0.9-0.3-1.3-0.4-0.7-0.2-1.4-0.4-1.8 0.4-0.5 1.1 0 2 0.6 2.9 0.5 0.6 1 0.5 1.8 0.2 0.9-0.4 1.6-1.3 2.7-1.3 1.4 0 2.9-0.2 4.3 0.4 0.6 0.3 1.1 0.1 1.4-0.6 1.1-2.5 1.5-2.8 4.2-2.8zm22.9-12.7c-0.8 0-1.8 0.1-2 0.9-0.3 0.8 0.6 1.2 1.2 1.7 1.9 1.5 1.9 3.7 0 5-0.4 0.3-0.8 0.4-0.8 1-0.2 1.7 1.2 3.6 2.9 4 0.6 0.1 1.3 0.4 1.7-0.2 0.4-0.6-0.2-1-0.4-1.5-0.8-2.4-1-4 1.8-4.7 0.7-0.2 1.3-0.7 1.9-1.1 1.1-0.8 1.1-1.2 0.2-2.1-1.6-1.5-4.1-1.4-5.7-3-0.1-0.1-0.5 0-0.8 0zm-94.2 6.8c1-0.3 1.9-0.6 2.3-1.6 0.3-0.7 0.2-1.4-0.8-1.5-1.8-0.1-2.9-1.4-4.2-2.3-0.8-0.5-1.3-1.4-0.6-2.4 0.3-0.5 0.6-1 0.2-1.5-0.5-0.5-1.1-0.8-1.9-0.4-1.3 0.5-2.6 1.2-4.2 1.1-0.6 0-1.1 0.4-1.1 1-0.1 0.6 0.2 1.1 0.9 1.3 0.4 0.1 0.7 0.2 1.1 0.2 1.4-0.1 2.3 0.6 2.6 1.9 0.6 3.3 3.6 3.1 5.7 4.2zm19.8 15c0-0.8-1.2-1.5-2.1-1.2q-0.9 0.5-1.8 0.9c-1 0.4-1.5 1.1-1.4 2.2 0.1 1.1 0 2.3-0.5 3.3-0.9 1.9-1 2.1 0.4 3.7 0.2 0.2 0.5 0.5 0.6 0.8 1.2 2.7 1.9 1.6 3.2 0.2 0.1-0.1 0.2-0.3 0.3-0.4 1.1-1.6 1-2.5-0.2-4-0.4-0.5-0.7-1.1-0.6-1.7 0.1-1.1 0.5-2.2 1.4-3 0.4-0.1 0.7-0.3 0.7-0.8zm26.5-54.5c0-1.2-2.3-2.9-3.3-2.5-0.4 0.2-0.6 0.5-0.7 0.9-0.1 0.8-0.3 1.6-0.3 2.5 0 1.3-0.8 2-2 2q-0.6 0-1.2 0c-1.3 0.2-1.8 1.4-1.1 2.5 0.7 0.9 1.3 1 2.2 0 0.9-1 1.8-1 2.7-0.2 0.7 0.6 1.4 1.1 2 1.7 0.4 0.4 0.9 0.7 1.4 0.4 0.6-0.3 0.5-0.9 0.3-1.6-0.3-0.7-0.4-1.5-0.6-2.3-0.2-1.2 0.4-2.3 0.6-3.4zm-71.2 26.4c0.2 0 0.3 0 0.5 0 0.5-0.1 1-0.2 1.2-0.7 0.2-0.6-0.4-0.7-0.8-1-0.5-0.3-1-0.6-1.4-1-1.1-1-1-1.7 0.2-2.4 0.4-0.3 0.9-0.5 0.8-1.1-0.1-0.6-0.6-0.9-1-1-1.2-0.3-1.7-1.2-2-2.3-0.2-0.7-0.5-1.3-1-1.9-0.8-0.9-1.6-0.9-2.2 0.2-0.4 0.6-0.7 1.2-0.9 1.9-0.7 1.7 0.2 3.4 2 3.8q1.2 0.3 1.5 1.5c0.1 0.5 0.2 1.1 0.3 1.6 0.4 1.5 1.4 2.4 2.8 2.4zm-15.1-17.2c-1.2 0-2.1 0.5-3.1 0.6-0.4 0.1-1 0.2-1.1 0.9 0 0.6 0.4 0.8 0.9 1 0.8 0.5 1.6 1 1.6 2.2 0 1.3 0.6 1.7 2 1.4 1-0.2 2-0.2 2.9 0.3 0.6 0.3 1.3 0.6 1.9 0.8 1.3 0.3 2.2-0.7 1.8-2-0.4-1.6-1.9-1.8-3.1-2.1-1.1-0.3-1.8-0.8-2.1-1.9-0.2-1-0.9-1.2-1.7-1.2zm86 22c1.3 0 2.2-0.5 2.4-1.5 0.2-0.9 1-1.9 0-2.8-1.2-1.1-3.7-0.8-4.6 0.6-0.5 0.8-1.1 1-2 0.8-0.7-0.2-1.5-0.4-2.2-0.4-1.2 0-1.5 0.7-0.9 1.7 0.4 0.7 0.8 1.3 1.2 2 0.7 1.1 1.9 1.4 2.9 0.6 1-0.9 1.8-2 3.2-1zm-53.6 29c0 1.5 0.5 2.1 2 2 1.2-0.1 2.3 0.1 3.3 0.8 0.7 0.4 1.5 0.5 2.2 0.7 0.6 0.2 1.2 0.4 1.7 0.9 1 1 2.4 0.5 3.5 0.8 0.1 0 0.4-0.1 0.5-0.3 0.4-0.4 0.4-2.6 0-3.1-0.7-0.7-1.3-0.2-1.9 0.1-0.4 0.2-0.8 0.4-1.3 0.5-0.5 0.2-1 0.2-1.3-0.3-0.4-0.7-1.1-0.8-1.8-0.9-1.7-0.2-3.6-0.2-3.8-2.6 0-0.4-0.4-0.7-0.9-0.8-0.9-0.1-2.2 1.2-2.2 2.2zm89.1-40.1c-0.5 0.3-1 0.4-1.4 0.8-0.7 0.6-1.5 0.9-2.3 1.3-1.1 0.4-1.8 1.5-1.6 2.5 0.2 0.8 2.4 2.8 3 2.7 0.2 0 0.3-0.1 0.5-0.2 1.2-0.9 2.5-1.6 3.5-2.7 0.5-0.6 1.1-1.1 0.7-2.1-0.4-1.2-1.4-1.7-2.4-2.3zm-73.3 39.3c1.1 0 1.8-0.7 1.9-2.2 0.1-0.8 0.4-1.4 1-1.9 0.8-0.7 1.6-1.8 1.4-2.8-0.5-2.7-3.3-4.3-6-3.6-0.6 0.2-1.1 0.3-1.6-0.2-0.5-0.5-1.1-0.6-1.7-0.1-0.4 0.4-0.5 0.9-0.2 1.4 0.5 0.6 1.1 0.4 1.7 0.1 0.6-0.4 1.1-0.3 1.7 0.1 1.5 1.3 2.4 2.9 3.2 4.7 0.3 0.8 0.2 1.3-0.6 1.7-0.6 0.3-1.2 0.8-1.5 1.4-0.2 0.3-0.5 0.6-0.2 1 0.2 0.5 0.6 0.4 0.9 0.4zm-19.2-23.7c1.6 0.7 3.2 1.4 4 3.1 0.4 0.8 0.8 1.5 1.4 2.2 0.8 0.9 0.6 1.6-0.4 2.2-0.4 0.2-0.7 0.5-0.8 0.9-0.3 1.2-0.8 2.2-1.7 2.9-0.2 0.2-0.3 0.5-0.4 0.8-0.1 0.7 0.1 1.1 0.9 0.7 1.1-0.4 2-0.9 1.8-2.3 0-0.3 0.1-0.7 0.3-0.9 1.1-0.9 1.6-2.3 2.7-3.3 1.6-1.5 1.5-1.9-0.4-3.1-0.2-0.1-0.4-0.2-0.5-0.3-1.3-0.4-2.2-1.2-2.4-2.7-0.1-0.9-0.9-1.6-1.7-1.2-0.9 0.6-1.8 0.7-2.8 1zm58.6 5.9c0-2-1.7-3.5-3.6-3.4-1.4 0.1-1.9 1-1.6 3 0 0.1 0 0.2 0 0.2-0.4 2.8 1.1 3.1 3.1 3.6 0.7 0.2 1-0.1 1.2-0.5 0.3-1 0.6-2.1 0.9-2.9zm36.8 13.8c0.6 0 1.1-0.1 1.7-0.2 0.6-0.1 1.2 0 1.9-0.1 0.5-0.1 1.1-0.3 1.3-0.9 0.2-0.5-0.3-0.8-0.6-1.1-0.6-0.6-1.2-1.3-1.4-2.1-0.3-0.9-1.1-1.2-2-1.3-0.8-0.1-1.3 0.4-1.7 1-0.4 0.7-0.8 1.3-1.3 2-0.8 0.9-0.5 1.9 0.6 2.5 0.4 0.3 1 0.2 1.5 0.2zm-146.3-34.1c-0.7 0-1.2 0.3-1.4 0.9-0.7 2 0.4 4.6 2.2 5.6 1 0.5 1.8 0.3 2.5-0.5 0.6-0.8 1.1-1.6 0.3-2.5-0.4-0.4-0.7-0.9-0.9-1.4-0.6-1.3-1.4-1.9-2.7-2.1zm16.6 13.4c1.1 0 1.4-0.1 1.8-0.7 0.8-1.1 0.6-1.7-1.1-2.6-1.3-0.7-1.7-1.7-1.8-3q0-0.5 0-0.9c-0.1-0.4-0.2-0.8-0.6-0.9-0.4-0.1-0.6 0.1-0.9 0.4-0.8 0.9-0.9 2-0.6 3.1 0.2 0.8 0.6 1.6 0.8 2.5 0.4 1.8 0.7 2.1 2.4 2.1zm132.1 0.3c0.2-0.8-0.2-1.5-1.2-1.5-1.3-0.1-2.6 0-3.5 0.9-1.6 1.6-2 2.5 0.4 3.8 2.1 1 4.3-0.5 4.3-3.2zm-145.9-26.6c1.7 0 3.1-0.9 4.2-2.9 0.2-0.4 0.9-0.8 0.3-1.4-0.5-0.6-1.1-1-1.9-0.9-2 0.3-3.4 2-3.6 4-0.1 0.9 0.2 1.3 1 1.2zm146.4 21.5c0.3-0.1 0.6-0.2 0.8-0.2 0.7 0 1.2-0.4 1.4-1 0.1-0.6-0.4-1-0.9-1.4-0.9-0.6-2-0.6-2.9-1.3-1.3-1.1-2.5-0.7-3.2 0.8-0.5 1-0.2 1.4 0.9 1.4 1.2-0.1 2.2 0.1 2.9 1.1 0.3 0.4 0.7 0.5 1 0.6zm-89.1 18.3c1.6 0 2.5-1.1 3.3-2.3 0.8-1.3 0.1-2.4-1.4-2.5-1.3-0.1-2.7 1.1-3.4 2.7-0.4 1.2 0.2 2.1 1.5 2.1zm9.4 6.2c0-1.3-1-2.4-2.3-2.4-1.6 0-2.7 0.6-2.7 1.6 0 1.3 1.4 2.8 2.8 2.9 1.2 0 2.2-0.9 2.2-2.1zm1.1-6.5c1-0.1 1.7-0.6 1.9-1.6 0.2-0.9-0.6-1-1.2-1.2-0.8-0.2-1.6-0.5-2.4-0.7-0.7-0.1-1.3-0.1-1.6 0.7-0.3 0.8-0.1 1.3 0.6 1.8 0.8 0.7 1.8 0.8 2.7 1zm-50.1-21c0-0.6-0.1-1.2-0.6-1.5-0.6-0.3-1.2-0.2-1.8 0.2-0.4 0.3-0.9 0.7-1.2 1.1-0.5 0.8-0.4 1.6 0.2 2.3 0.3 0.4 0.7 0.8 1.4 0.6 0.9-0.4 2-1.8 2-2.7zm131.7-2.9c0.1-0.8-0.1-1.5-1.2-1.5-1.1 0-2.7 1.2-2.8 2.1 0 0.8 1 1.6 2 1.6 1.3 0 2-0.8 2-2.2zm-86.5 1.9c0-1.1-0.6-1.9-1.5-1.9-0.8 0-2.2 1.7-2.2 2.8 0 0.8 0.7 1.1 1.3 1.2 1.1 0.1 2.4-1.1 2.4-2.1zm52.5 28.3c0.1 0.7 0.2 1.4 0.2 2.1 0 0.8 0.4 1.5 1.1 1.5 0.7 0 1.3-0.7 1.4-1.5 0.1-1-0.4-1.8-0.9-2.6-0.3-0.4-0.5-1.2-1.2-1-0.6 0.3-0.5 1-0.6 1.5zm19.8-17.3c-1.7 0-2 0.2-2 1.1 0 1.1 0.9 1.9 2.1 1.9 1.3 0 1.9-0.6 1.8-1.9-0.2-1.1-1.1-1.1-1.9-1.1zm-99.4-8.5c-0.8 0.1-1.8 0.1-2 1.1-0.2 1 0.8 1.2 1.5 1.5h0.1c1 0.4 1.9 0.1 2.7-0.4 0.4-0.3 0.2-0.7 0-1-0.4-0.9-1.3-1.1-2.3-1.2zm20.4 36c-0.8 0.1-1.3 0.6-1.3 1.5 0 0.9 0.5 1.7 1.4 1.9 0.9 0.1 2.2-1 2.2-1.7 0.2-0.6-1.2-1.7-2.3-1.7zm11 5.3c0.9 0 1.5-0.4 1.5-1.1 0-0.8-1.2-1.9-2.2-1.9-0.8 0-1.3 0.3-1.3 1.1 0 1 0.9 1.9 2 1.9zm12.5-13c-0.9 0-1.5 0.5-1.5 1.2 0 0.8 1.7 1.9 2.8 1.8 0.5 0 0.9-0.2 0.9-0.8 0.1-1.1-1.1-2.2-2.2-2.2zm-6.8 1.2c-0.2-0.6 0.1-1.6-1-1.7-0.8-0.1-1.7 1.3-1.7 2.4 0 0.7 0.2 1.3 1 1.3 1 0 1.8-0.9 1.7-2zm-40.4-25c0.1-1.1-0.5-1.4-1.5-1.5-0.9-0.1-1.2 0.5-1.2 1.2-0.1 0.8 0.9 1.8 1.6 1.8 0.9 0 1.1-0.6 1.1-1.5zm64.4-14.4c0.1-1-0.3-1.5-1.3-1.5-0.8 0-1.4 0.2-1.4 1.2 0 0.8 0.9 1.6 1.8 1.6 0.7-0.2 1-0.6 0.9-1.3zm-12.9-6.7c0-0.4 0-0.8-0.7-0.8-0.9 0-2 0.8-1.9 1.5 0.1 0.5 0.3 0.9 0.9 1 0.9 0 1.6-0.7 1.7-1.7zm-57.8 0c0 0.6 0.1 1.1 0.9 1.1q0.9 0 0.9-0.9c-0.1-0.6-0.2-1.3-1-1.3-0.8 0-0.8 0.6-0.8 1.1z"/>
			<path id="Layer" fill-rule="evenodd" class="s4" d="m51.8 21.7c-0.3 1.4-1.4 2.4-2.6 2.9-2 1-3.7 2.1-4.5 4.3 0 0.1-0.1 0.2-0.1 0.2-2 1.6-3.3 3.8-6 4.6-1.6 0.5-3.5 1-4 3.1-0.2 0.7-0.9 0.8-1.4 1.2-1.4 0.9-1.6 1.3-1.1 2.9 0.2 0.5 0.2 1 0.2 1.5 0 0.6-0.4 1-1 0.8-1.5-0.6-2.3 0.3-3 1.4-0.5 0.8-1.4 1.2-2.1 1.9-1.2 1.2-1.3 1.7-0.5 3.2 0.6 1.1 0.5 2-0.3 3-0.7 0.8-1 1.8-0.5 2.9 0.3 0.7 0.3 1.4 0.2 2.1-0.5 2.6 0.5 4.9 1.4 7.2 0.3 0.6 0.4 1.1 0.6 1.8q-0.1-0.2-0.2-0.3c-1.4-1.3-1.7-3.2-2.4-4.9-0.6-1.2-0.1-2.7-0.2-4.1 0-0.8 0-1.7-0.5-2.4-0.2-0.4-0.3-0.8-0.2-1.2 0.5-1.8-0.1-3.5 0-5.3 0-1.5 0.5-3 1-4.4 0.4-1 1.2-1.6 2.3-1.8 1.9-0.3 2.9-1.6 3.3-3.3 0.2-1 0.6-1.7 1.3-2.3 0.8-0.8 1.6-1.7 2.4-2.5 0.2-0.2 0.3-0.4 0.6-0.4 2.1-0.3 3.3-2 4.9-3.2 1.8-1.4 3.3-3.2 5.4-4.1 0.9-0.4 1.6-1.3 2.4-2 0.8-1.5 2.4-2.7 4.6-2.8zm-24.7 45c0.2 0.2 0.3 0.5 0.2 0.8q-0.1-0.2-0.1-0.5 0-0.2-0.1-0.3zm3.2 4c0.5 0.1 1 0.3 1.6 0.4 1.6 0.2 2.5 1.3 2.8 2.8 0.4 2.1 1.2 3.7 3.5 4.2 0.8 0.2 1.1 1 1.3 1.7 0.7 3 2.6 4.1 5.5 3.3 1.3-0.4 1.8 0.1 1.6 1.5-0.1 0.9 0.3 1.5 0.9 2.1 0.5 0.6 0.7 1.1 0.3 1.8-0.4 0.6-0.4 1.3 0.1 1.9 1 1.4 1.7 2.9 2.9 4.1 0.5 0.7 1.3 0.8 2 1 1.6 0.2 3.2 0.7 4.6 1.5 0.2 0.1 0.4 0 0.6 0 0.8-0.1 1.6 0.1 2.2 0.7 1.7 1.7 4 1.5 6.1 2 0.2 0 0.5 0 0.7 0 0.9 0.7 2 0.7 3 0.9 3.7 0.7 7.4 1.4 11.2 1 1.9-0.2 3.6-0.2 5 1.4 0.4 0.5 2.7 0.1 3.2-0.4 0.8-0.8 1.6-0.8 2.7-0.4 1.9 0.7 3.8 1.5 5.9 1.4 0.9-0.1 1.7 0.2 2.6 0.4 1.7 0.4 2.5 0.1 3.3-1.2 0.8-1.2 1.4-1.3 2.4-0.3 0.4 0.4 0.7 0.8 1 1.2 0.8 1 2.3 1 3.1 0 1.5-2 3.4-2.9 5.9-2.4q0.7 0.1 1.5 0c1.2 0 2.3 0 3.4 0.5 0.8 0.4 1.6 0.2 2.5 0.2 1.7 0 2.8 0.9 3.3 2.5 0.1 0.5 0.2 1.2 1 0.9 0.6-0.2 0.8-0.8 0.7-1.4-0.2-0.6-0.4-1.4 0.2-1.8 0.6-0.4 1.4-0.2 2.2 0.1 1.8 0.7 2.4 2.1 2.5 3.8 0 0.8 0.3 1.2 1.1 1.4 0.2 0 0.3 0.1 0.5 0.2 2.3 1.8 4.1 1 5.9-0.9 0.8-0.9 0.8-1.4-0.3-2-0.4-0.2-0.9-0.4-1.4-0.6-0.4-0.2-0.7-0.4-0.7-0.9 0-0.5 0.4-0.7 0.8-0.8 1-0.2 2-0.1 3-0.1 0.4 0 0.5 0.3 0.4 0.6-0.1 0.6-0.5 1.3 0 1.7 0.7 0.5 1.7 0.6 2.4 0.3 1.9-1.1 3.7-0.2 5.5 0 1.3 0.2 2.6-0.2 3.5-1.2 0.5-0.6 0.9-1.2 0.4-1.9-0.5-0.7-1.3-1.2-2.2-0.9-1.9 0.7-3.5 0.5-5.2-0.6-1.1-0.7-2.1-0.4-2.9 0.7-0.7 0.8-1.1 0.7-1.5-0.2-0.4-1.1-0.6-2.3-0.5-3.5 0.1-1.3 1.1-1.8 2.2-1.1 1.1 0.7 2.1 1.6 3.6 0.8 0.5-0.2 1.1 0.2 1.6 0.5 2.1 1.4 4.1 0.6 4.9-1.8 0.2-0.5 0.3-1.1 0.4-1.7 0.2-1.2 0.8-1.7 2-1.7 2 0.1 2.3-0.4 1.8-2.4-0.1-0.4-0.2-0.8 0.2-1.2 0.4-0.4 0.9-0.2 1.3 0.1 2.8 1.5 3.3 3.8 1.3 6.2-0.5 0.6-0.9 1.2-0.9 2.1 0.1 0.8-0.6 1.2-1.2 1.6-0.5 0.3-1 0.5-1.3 0.9-0.5 0.6-1.1 1.2-0.8 2 0.4 0.9 1.4 1.1 2.3 1 1.2-0.2 2.4-0.5 3.3-1.6 0.6-0.7 1.5-1.2 2.4-1.5 1.2-0.4 2.3-1.1 3.2-1.8 0.8-0.6 1.1-1.6 0.8-2.6-0.2-0.9-1-1.1-1.9-1.1-0.3 0-0.6 0.1-0.7-0.3-0.4-1.4 1.1-3.4 2.5-3.4 1.5-0.1 3-0.4 4.2 1.1 0.3 0.4 0.9 0.2 1.4 0 0.9-0.4 1.8-0.6 2.8-0.3 0.9 0.3 1.8-0.2 2.6-0.5 0.7-0.3 1.4-0.5 2.1-0.8 0.9-0.3 1-0.9 0.5-1.6-0.5-0.7-1.1-1.2-1.9-1.6-0.6-0.2-1.2-0.5-1.2-1.3 0-0.8 0.7-0.9 1.3-1.1 1-0.3 1.8-0.8 1.8-1.8 0-0.8-0.4-1.7-1.3-2.1-0.9-0.3-1.6 0.1-2.4 0.4-0.4 0.1-0.7 0.7-1.2 0.2-0.4-0.4 0-0.9 0.1-1.3 0.8-2 1.7-2.3 3.8-2 2 0.3 3.9 1.4 6.1 1.2 0.4 0 0.6 0.2 0.9 0.4 1.2 0.9 2.5 1 3.9 1.1 1.9 0.2 3-0.2 3.6-2.2 0.3-1.2 1.5-0.9 2.5-0.9 0.4 0 0.7 0.2 1.1 0.2 0.3 0 0.7 0 0.9-0.3 0.2-0.4-0.1-0.6-0.2-0.9 0-0.1-0.1-0.1-0.2-0.2-1.5-1.4-2.1-3.2-2.2-5.2 0-1-0.6-1-1.2-0.7-0.8 0.4-1.7 0.7-2.6 0.9-1.9 0.4-2.9-0.2-3.2-2.1-0.1-0.4-0.2-0.7-0.3-1.1-0.2-0.9-0.6-1.2-1.6-0.9-1.7 0.5-3.6 0.3-5.4 0.8-0.3 0.1-0.8-0.2-0.7-0.5 0.2-1 0-2.3 1.1-2.9 0.9-0.5 1.7-0.3 2.6 0.1 1 0.5 2.1 0.9 3.2 0.4 0.7-0.2 1.3 0 1.9 0.4 0.8 0.7 1.7 0.7 2.7 0.2 1.6-0.7 2.9-0.1 3.4 1.6q0.2 0.6 0.3 1.2c0.1 0.9 0.4 1.3 1.5 1.1 1.5-0.4 3.8 0.9 4.4 2.3 0.4 0.9 0.8 0.9 1.5 0.3 1.3-1 2-3.9 1.2-5.4-0.3-0.6-0.7-0.8-1.4-0.8-0.7 0-1.7 0-1.5-1 0.1-0.9 0.9-0.9 1.7-0.6q0.8 0.3 1.2-0.3c1.4-1.5 3.2-2.4 4.9-3.6 1.6-1.1 2.6-2.4 2.4-4.4-0.1-0.9 0-1.8 0.1-2.7 0.1-1.5-0.7-2.6-2.2-2.5-1.7 0.1-2.7-1.2-3.9-2.1-0.4-0.3-0.8-1.1-0.3-1.7q0.9-0.9 2.1-0.3c0.2 0.1 0.4 0.2 0.6 0.4 0.5 0.5 1 0.9 1.8 0.5 0.5-0.2 0.8-0.8 0.7-1.2-0.2-0.7-0.5-1.4-1.3-1.7-2.3-0.6-4.5-1.8-6.8-2.3-1.7-0.4-3.3-1-4.5-2.5-1.3-1.7-2.8-1.8-4.8-0.8-0.4 0.2-0.9 0-1.1 0.6-0.3 0-0.7 0-1 0-0.8 0-1.6-0.1-2.3 0.2-0.5 0.2-1 0.1-1.4-0.2-0.8-0.7-1.5-0.4-2.2 0.1-1.3 1-2.9 1.5-4.4 1.9-1 0.3-2.1 0-3.2 0-0.2 0-0.5 0-0.7 0-0.1-0.7-0.6-0.4-1-0.5-0.2 0-0.5 0-0.7 0-0.4 0.1-0.8 0.1-1.2 0.3-1.3 0.6-2.5 0.8-3.7-0.1-0.8-0.6-1.8-0.1-2.6 0.2-1.7 0.6-2.2 0.3-2.9-1.3-0.2-0.4-0.4-0.8-0.8-0.9-1.4-0.4-2.2-1.6-3.3-2.3-0.9-0.6-0.9-1.1-0.1-1.8 1.9-1.7 1.9-2.8 0.3-4.8-1.2-1.5-2.6-2.8-3.9-4.2-0.3-0.3-0.7-0.6-0.7-1.1 2.6 1 4.8 2.6 6.3 4.8 1.1 1.6 2.5 2.7 4.2 3.5 1.2 0.6 1.6 1.6 1.7 2.8 0 1.3 0.7 2.1 1.6 2.8 1.2 0.9 2.6 1.5 4.2 1.4 1.6-0.1 3.4 0.4 4.9-0.5 2.1-1.4 4.9-1.1 6.9-2.9 0.8-0.7 2.1-0.8 2.9 0 1.5 1.5 3.2 1.3 4.7 0.6 1.6-0.7 3.2-0.8 4.7-0.3 1.2 0.4 2.3-0.2 3.4-0.3 2.6-0.2 3.9 1.4 5.1 3.2 0.4 0.6 0.7 1.1 1.3 1.4 1.4 0.8 2.5 2 3.7 3.2 0.4 0.4 0.6 1 0.6 1.6-0.1 3.8 0.4 7.5 0.3 11.3-0.1 2-0.8 3.7-2 5.2-0.4 0.5-0.8 1.1-0.8 1.8 0.1 1.1-0.4 1.9-0.9 2.9-0.9 1.5-1.9 2.9-3.1 4.2-1 1.1-1 2.6-1.8 3.8-0.3 0.4-0.6 1-1 1.2-1.7 1-2.7 2.8-4.5 3.6-0.3 0.1-0.6 0.4-0.6 0.7-0.3 2.5-2.3 3.8-3.7 5.5-1.6 1.9-3.6 3.2-5.9 4.3-1.9 0.9-3.4 2.3-5.3 3.2-1 0.5-2 0.7-2.9 0.8-1.1 0.2-2.1 0.6-3 1.1-2.1 1.2-4.1 2.3-6.5 2.8-1.3 0.2-2.1 1.5-3.3 2-0.6 0.2-1.1 0.4-1.8 0.5-1 0-2 0.3-2.9 0.9-2.2 1.4-4.8 1.6-7.3 2.3-0.8 0.2-1.7 0.5-2.4 0.9-1.2 0.7-2.4 1.1-3.8 1.1-0.9 0-1.9-0.3-2.7 0.2-1.5 1-3.1 1.1-4.9 0.9-1.6-0.2-3.3 0-4.5 1.4-0.3 0.4-0.9 0.5-1.5 0.5-1.7 0.1-3.5-0.3-5.1 0.7-0.5 0.3-1.1 0-1.7-0.2-1.8-0.8-3.6-0.8-5.5-0.3-1.4 0.3-2.8 0.3-4.1-0.4-1.6-0.9-3.4-1.2-5.2-1.2-3.1 0.1-6.1-0.4-9.1-1.1-4.1-1-8.2-2.2-12.4-2.7-2.1-0.3-4.1-1-6.3-0.5-1.2 0.3-2.5-0.2-3.6-0.8-0.9-0.5-1.8-0.6-2.6-0.4-2.1 0.5-4.2 0.1-6.3-0.1-4.3-0.4-8.6-1.6-12.9-2.3-1.3-0.2-2.4-0.5-3.4-1.3-0.6-0.5-1.2-0.2-1.8 0-1 0.4-1.8 0-2.5-0.7-1-1-2-2-3.6-1.9-0.4 0-0.6-0.4-0.9-0.6q-1.5-1.5-3-3c-0.6-0.6-1.4-1.2-2.2-1-2.5 0.4-3.7-1.3-4.9-2.9-0.7-0.9-1.5-1.5-2.6-2-1.9-0.8-3-3.3-2.2-5.2 0.3-0.6 0.1-1.1-0.3-1.6-0.6-0.6-1.3-1.1-1.9-1.8-0.7-0.8-0.8-1.7-0.7-2.5 0.1-2.3-0.3-3.1-2.3-4-1-0.4-1.9-1.1-2.7-1.7-0.8-0.6-1.6-1.2-1.4-2.4q0 0 0-0.1c0.4 1.5 1.4 2.8 3 3.2zm153.7 19.7c0 1.2 0.4 1.7 1.1 1.7 1.2 0 2.4-1.1 2.4-2.3 0-1-0.5-1.5-1.4-1.5-1.2 0.1-2.1 1-2.1 2.1z"/>
			<path id="Layer" class="s4" d="m69.8 29.7c-0.6 0.5-1.3 0.3-1.9 0.3-1.5 0.1-2.5 1.4-4 1.6-0.9 0.1-1.8 0.4-2.8 0.2-0.9-0.3-1.9-0.1-2 1.2-0.1 1.3-0.9 1.2-1.6 0.7-1.4-1-2.4-0.9-3.8 0.3-1.7 1.6-3.9 0.9-4.5-0.9-0.3-0.9 0.1-1.6 0.6-2.1 1.4-1.5 2.6-3.1 3-5.2 0.1-0.4 0.4-0.7 0.8-0.9 1.1-0.8 1.6-1.9 1.4-3.2 0.7 0.6 0.9 1.9 0.4 2.7-0.3 0.5-0.7 0.9-0.8 1.4-0.4 1.2 0.4 2.3 1.7 2.8 2 0.7 3.8-0.1 5.7-0.4 2.7-0.9 5.6-1 7.8 1.5z"/>
			<path id="Layer" class="s4" d="m106.5 28.6c-0.2 0.9-0.7 1.5-1.4 2.1-1.3 1.2-2.6 2.4-3.8 3.7-0.6 0.8-1.8 0.9-2.1 1.9-1.1 0-1.8 0.9-2.5 1.5-0.4 0.2-0.9 0.6-1 1.1-0.5 1.8-1.8 3-3.1 4.1-1.2 1.1-1.8 2.5-2.6 3.8-0.5 0.8-0.3 1.6 0.3 2.3 1.2 1.3 0.8 3 1.1 4.5 0.1 0.7-0.3 0.8-0.8 0.5q-1.2-0.7-2.4-1.5c-0.5-0.3-0.5-0.7-0.5-1.2 0.3-2.1-0.4-3.6-1.9-5.2-1.2-1.4-2.2-3.1-3.6-4.4-0.5-0.5-1-0.9-1.6-1.2-1-0.5-1.8-1.1-2.2-2.3-0.4-1.2-1.6-1.9-2.5-2.7-0.6-0.6-1-1.3-1-2.2 2.9 1.9 5.9 3.7 7.7 6.9 1 1.9 3.1 2.7 4.7 4.1 0.4 0.3 0.8-0.1 1.2-0.4 2.6-1.6 4.7-3.6 6.5-6.1 0.9-1.3 2.2-2.1 3.5-2.9 2.2-1.3 3.9-3.1 5.8-4.7 0.8-0.6 1.3-1.3 2.2-1.7z"/>
			<path id="Layer" class="s4" d="m147.7 17.4c-0.2 0.9-1 0.5-1.4 0.7-1.3 0.6-2.7 1-4.1 1.5-0.5 0.2-1.2 0.3-1.6 0.1-2.3-1.3-5-0.8-7.4-1.4-1.3-0.3-2.6 0.3-3.3 1.5-0.6 1.1-1.4 1.6-2.5 1.1-1.8-0.7-3.3 0.4-4.9 0.7-2.6 0.4-4.9 1.2-7 2.8-0.9 0.7-2.2 1.1-3.4 1.5-0.4 0.2-0.8 0.2-0.9 0.7-1.4 0.5-2.3 1.7-3.7 2-0.3 0-0.7 0-1 0 0.6-1.1 2-1.1 2.9-1.9 2.6-2 5.8-3 8.5-4.9 1.2-0.8 2.7-1.6 4.4-1.5 0.8 0.1 1.5-0.5 2.1-1 1.6-1.5 3.5-2 5.6-2 2.4 0 4.8-0.2 7.1 0 3.5 0.5 7.1-0.1 10.6 0.1z"/>
			<path id="Layer" class="s4" d="m153.7 20.2c-1.7-0.5-3.4-1.2-4.5-2.8 2 0.2 3.3 1.4 4.5 2.8z"/>
			<path id="Layer" fill-rule="evenodd" class="s5" d="m52.5 95.1c-0.7-0.2-1.5-0.3-2-1 0-0.8-0.7-1.5-0.5-2.4 0.1-0.6 0.1-1.1 0.8-0.5 0.3 0.2 0.7 0.4 1 0.5 0.9 0.4 1.8 0.5 2.6-0.3 0.6-0.6 1.3-1.1 2.3-1.2 0.9-0.1 1.1-1 1.3-1.8 0.2-1-0.1-2.1-0.3-3.1-0.1-0.3-0.3-0.7-0.7-0.6-0.5 0.1-0.3 0.5-0.2 0.8 0.3 0.8 0.2 1.5-0.1 2.2-0.7 1.9-1.6 2.2-3.5 1.4-0.3-0.1-0.5-0.2-0.8-0.3-1-0.3-1.6-1-1.5-2.1 0.2-1.4-0.4-2.2-1.8-2.5-0.7-0.1-1.1-0.5-1.3-1.2-0.3-1.2-0.7-2.5-0.9-3.7-0.4-1.8-1.1-2.4-3-2.4h-0.1c-0.7-0.1-1.7 0.3-2-0.5-0.4-0.9 0.1-1.9 0.7-2.6 1.3-1.5 1-2.8-1-3.3-1.9-0.5-2.6-1.9-3.3-3.4-0.1-0.2-0.1-0.5-0.3-0.7-0.4-0.8-0.6-2-1.8-1.8-1.1 0.2-1.7 1.2-2 2.3-0.2 0.7-0.1 1.5-0.5 2.1-0.8 1.2-3.4 0.9-4.1-0.5-0.3-0.6 0.1-0.7 0.5-0.9 2.1-1.3 2.3-1.7 1.3-4-0.4-1-0.1-1.8 0.4-2.6 1.4-2.2 1.4-2.2-0.7-3.9-0.3-0.2-0.5-0.4-0.8-0.6-0.8-0.7-1.4-0.3-2 0.3-0.4 0.4-0.8 0.9-1.2 1.3-0.3 0.3-0.7 0.3-1 0.1-0.3-0.2-0.3-0.5-0.2-0.9 0.2-0.7 0.3-1.5 0.2-2.3-0.2-0.9 0.2-1.7 1-2.3 0.7-0.6 0.9-1.2 0.5-2.1-0.2-0.5-0.4-1-0.5-1.5-0.4-1.3 0.7-2.6 2-2.4 1.6 0.3 3.2 0.6 4.7 0.8 1 0.1 1.2-0.3 1-1-0.5-1.8 0.4-3.4 0.7-5.1 0-0.3 0.3-0.7 0.6-0.9 0.4-0.3 0.7-0.6 0.9-1 0.8-2.4 3-3.7 4.5-5.5 0.7-0.8 1.5-1.2 2.4-1.4 0.8-0.2 1.4-0.1 1.9 0.5 0.9 1 1.9 1.9 2.9 2.9 0.7 0.7 1.4 0.9 2.3 0.3 1.5-0.9 3.3-1.1 4.9-1.6 1-0.3 1.8 0.2 2.2 1.2 0.2 0.4 0.3 0.9 0.4 1.3 0.2 1.2 0.5 2.4 1.2 3.4 0.9 1.2 0.6 2.2-0.7 3-0.5 0.3-1 0.7-1.6 0.8-1.3 0.3-1.8 1.2-1.9 2.3-0.1 0.8-0.4 1.5-1.2 1.5-0.8 0-1.7-0.2-2.2-1.1-0.9-1.7-1-3.2 0.2-4.7 0.3-0.3 0.4-0.7 0.6-1.1 0.4-1.1 0-1.7-1.1-1.7-1.2 0-2.3-0.2-3.3-1.1-1.7-1.5-5.6-1.7-6.7 1.4-0.1 0.4-0.5 0.7-0.7 1-0.6 0.9-1.1 1.8-0.4 3 0.5 1 0.5 2.2 0.4 3.3-0.1 1.2-1.1 2-2.7 2-1.1 0-1.9 0.4-2.2 1.4-0.3 1 0 2.1 0.6 2.8 0.8 0.9 1.6 1.8 3.1 1 0.7-0.4 1.6-0.3 2.4 0.2 1.5 1 3.3 1 5 1.4 1.1 0.2 1.9-1.1 1.7-2.5-0.2-1.3-0.6-2.7 0.7-3.8 0.8-0.6 1.2-0.4 1.6 0.3 0.8 1.6 1.7 3.3-0.2 4.9-0.5 0.5-0.5 1.4 0 1.9 0.6 0.6 1.4 0.8 2.3 0.5 0.7-0.3 1.2-0.9 2.2-0.6 1.2 0.4 1.8 1.2 1.2 2.4-0.4 0.7-0.9 1.4-1.4 2.1-0.4 0.7-1 1.3-0.2 2.2 0.9 0.9 1.9 0.9 2.7 0.2 1-0.9 2.1-1.5 3.5-1.6 0.9-0.1 0.9-0.9 0.9-1.7 0.1-2.8 2.8-5.5 5.5-5.5 0.9 0 1.5 0.3 2 1 1.5 1.8 2.3 3.8 3 6 0.2 0.5 0.4 1 0.9 1.3 1.4 1 1.6 2.4 1.7 4 0 0.8-0.3 1.3-1 1.8-1.1 0.8-1.8 0.6-2-0.8-0.2-0.9-0.1-1.8 0.2-2.7 0.4-1 0-1.6-0.9-2q-1.4-0.6-2.7-0.9c-1-0.3-1.8 0-2.2 1.1-0.4 1.2-1.2 1.7-2.5 1.6-2.1-0.1-3.2 1.5-4.6 2.6-0.4 0.3-0.2 0.8 0.2 1.1 0.4 0.4 0.8 1 1.6 0.6 0.7-0.3 1.4-0.6 2-0.9 1.7-0.9 3.3-0.4 4.8 0.4 0.9 0.5 1.8 1 2.8 1.1 2.4 0.2 4.2 1.5 5.8 3.1 0.4 0.4 1 0.7 1.4 0.4 1.1-0.7 2.2-0.3 3.3-0.4 1.4 0 2 1.2 2.9 2 0.9 0.8 0.7 2.1-0.1 3.2-0.4 0.6-0.7 1.2-0.6 2 0.2 1.2-0.7 2-0.9 3.1-0.1 1.1 0.1 1.6 1.2 1.8q0.9 0.2 1.8 0.3c1.9 0.4 2 0.4 2.9-1.4 0.7-1.3 1.6-2.4 2.8-3.1 0.9-0.5 1.4-0.1 1.7 0.8 0.8 2.5-1 4-1.9 5.9-0.2 0.5-0.9 0.9-0.3 1.5 0.6 0.6 1.1 0.1 1.5-0.2 0.8-0.6 1.7-1.2 2.5-1.9 0.8-0.7 1.9-0.4 2.8-0.2 0.9 0.2 0.8 1.1 0.8 1.8q0 1.4 0 2.7c0 1 0.5 1.5 1.5 1.6 1.4 0.1 2.6-0.1 3.5-1.4 0.4-0.7 1.3-1.1 2-1 0.8 0.2 1 1 1 1.8 0.1 1.2 1 1.7 1.9 1.7 1.4 0 2.4 0.8 3.5 1.5 1.5 1 2.3 0.8 3-0.8 0.5-1.2 0.8-1.3 1.8-0.4 0.5 0.5 1.1 1 1.2 1.7 0.2 1.4 1.2 2.1 2.4 2.6 0.4 0.2 0.9 0.3 0.8 0.8 0 0.4-0.6 0.4-0.9 0.5-1.7 0.4-3.4 0.7-4.9-0.7-0.4-0.4-0.8-0.2-1.2 0.1-1.2 0.7-2.4 1.5-3.7 2-4.2 1.7-5.7-0.6-6.5-3.5-0.6-1.9-1.1-2.2-2.8-1.1-0.3 0.2-0.7 0.4-0.9 0.6-0.5 0.6-0.9 0.5-1.3-0.1-0.7-0.9-1.5-0.8-2.3-0.3-1.1 0.6-2.2 1.3-3.1 2.3-0.5 0.6-1.1 0.6-1.8 0.3-2-0.9-2.5-0.8-3.3 1.2-0.8 1.9-1.7 2.1-3.2 0.6-1-0.9-2-1.3-3.4-0.9-1.9 0.5-3.8 0.7-5.7-0.1-0.3-0.1-0.7-0.1-1-0.1-2 0.1-3.8-0.5-5.7-0.8-0.9-0.1-1.9-0.6-2.9-0.2-0.2 0-0.5 0-0.7 0-0.5-0.9-1.3-1.2-2.3-1.2-1.2-0.1-2.2-0.3-3.1-1.2-0.5-0.5-1-1.1-1.9-1.1-0.9 0.1-1.8-0.3-2.6-0.5-1.1-0.5-2.3-0.9-3.5-0.3zm16.7-13.3c-0.9 0-1.7 0.5-2.5 0.7-1 0.2-1.8 0.7-1.7 2 0 0.4-0.3 0.9-0.5 1.4-1 2.4-1.1 3.7 1.5 4.3 0.8 0.2 1.5 0.4 2.2 0.7 0.4 0.2 0.8 0.1 0.9-0.3 0.6-2 2-3.5 3.3-5.1 0.4-0.5 0.6-1.1 0.2-1.6-1-0.9-2-1.8-3.4-2.1zm15.3 15.6c1.5 0.1 2.3-0.9 1.6-1.6-1.1-1.2-1.9-2.8-3.8-2.9-0.7 0-1.2-0.4-1.5-1-1-1.9-2.8-3-4.5-4.2-0.7-0.6-1.5-0.4-1.8 0.5-0.6 1.8-1.7 3.2-3 4.5-0.3 0.4-0.4 0.7 0.1 1 0.9 0.6 2.2 0.2 2.6-0.8q0.3-0.6 0.6-1.2c0.2-0.4 0.7-0.4 1.1-0.4 0.5 0.1 0.6 0.4 0.6 0.8 0 0.3 0 0.7 0 1 0 2.2 1.4 3.9 3.6 3.8 1.6 0.1 3.1 0 4.4 0.5zm-37.5-31.3c0.2 1.3 0.3 3.1 1.7 4.3 0.6 0.5 1.1 0.5 1.7 0.2 0.6-0.3 0.9-1 0.7-1.6-0.5-1.2-0.5-2.4-0.6-3.6-0.1-1.3-0.9-1.9-1.9-1.8-1.2 0.1-1.6 0.7-1.6 2.5zm-7.7-5.2c0.7 0.2 1.4-0.2 2.1-0.5 0.9-0.5 1-1.2 0.9-2.1-0.1-0.9-0.7-1.1-1.4-1.3-0.3-0.1-0.6-0.2-1-0.3-0.7-0.2-1.4-0.5-1.9 0.2-0.5 0.9-1 1.9-0.7 2.9 0.2 0.9 1 1.2 2 1.1z"/>
			<path id="Layer" class="s5" d="m107.5 28.7c1.4-0.3 2.4-1.6 3.7-2 1.3 0.1 2.6-0.1 3.8-0.7 1.5-0.8 3 0.1 4.5 0.1 0.8 0 1.6 0.1 2.5 0.3 1.2 0.2 1.8-0.7 1.7-2-0.2-1.4 0.3-1.9 1.7-1.6 1.5 0.3 1.8 0.6 1.6 2.2-0.1 0.9-0.3 1.9 0.7 2.6 0.7 0.6 1.3 0.5 1.9 0q0.9-0.6 0.3-1.8c-0.3-0.6-0.7-1-1.2-1.5-0.5-0.5-0.3-0.9 0.2-1.2 1.9-1.4 4.1-0.8 4.8 1.5 0.4 1.2 0.9 2.3 1.1 3.6 0.3 1.5 1.7 2.3 3.1 1.8 1.3-0.5 2 0.1 2.6 1 0.9 1.3 2 1.7 3.5 1.3 1.6-0.4 3.5 0.8 4 2.4 0.5 1.8 1.5 3.3 2.1 5 0.3 1 1.3 1.7 2.6 1.6 2.3-0.2 3.4 0.6 3.9 3.5 0.1 0.6 0.4 1 1 1.1 0.6 0.2 1.2 0.2 1.7 0.1 0.9-0.1 1.6 0.2 2.1 1 0.6 0.9 1.4 1 2.2 0.4 1-0.8 1.1-1.5 0.2-2.3-1.1-1-1.8-2.1-2-3.6-0.1-0.9-0.9-1.6-1.7-2-0.7-0.3-1.4-0.7-2.2-1-0.4 0-0.6-0.2-0.7-0.5-0.1-1.1-0.9-1.6-1.7-2.1-1.1-0.6-1.8-1.5-2.2-2.6-0.3-0.8-0.1-1.3 0.7-1.7 1.7-0.9 1.6-0.9 1.2-2.7-0.4-1.6-1-3.2-1.1-4.9 0-0.3-0.2-0.8 0.3-1 0.4-0.1 0.7-0.1 1 0.2 1.9 1.7 3.7 3.4 4.7 5.8 0.3 0.6 0.7 1.1 1.3 1.5 0.5 0.3 1.1 0.7 0.8 1.4-0.2 0.6-0.7 1-1.4 1.1-2.4 0.4-2.6 1.2-1.3 3.3 1.1 1.7 2.6 2.8 4.2 3.9 0.8 0.5 1.4 1.3 2.1 1.9 1.4 1.1 3 1.5 4.6 0.6 1.1-0.6 1.7-0.1 2 0.9 0.4 1.5 1.5 2.3 2.7 3.1 0.4 0.3 0.8 0.2 1.2 0.2 1.5-0.3 2.4 0.3 2.9 1.7 1 2.8 1 2.7-1.9 2.7-1.8 0-3.3 0.8-4.2 2.4-0.6 1-1.3 1.6-2.5 1.5-0.4 0-0.7-0.1-0.9-0.4-0.5-1-1.6-1.3-2.5-1.8-0.4-0.2-0.8-0.4-1.3 0-0.4 0.4-0.8 0.9-0.5 1.4 0.9 1.7 0.1 3-1.1 4.2-0.3 0.3-0.6 0.6-0.3 1.1 0.2 0.4 0.6 0.6 1.1 0.5 2.2-0.4 3 1.1 3.8 2.7q0.3 0.6 0 1.2c-0.6 1-2.8 1.6-3.8 1-2.5-1.4-3.2-1.2-4.2 1.5-0.7 1.8-1.5 3.7-0.3 5.7 0.7 1.1 0.1 2.4-0.4 3.4-0.5 0.9-0.7 1.8-0.4 2.7 0.2 0.9-0.2 1.3-1 1.2-2.4-0.3-4.7-0.2-7.1-0.2-0.9 0-1.6 0.1-2.3 0.6-0.5 0.4-1.1 0.6-1.7 0.1-0.6-0.4-0.8-1.1-0.6-1.8 0.2-0.7 0.2-1.1-0.6-1.3-0.3-0.1-0.5-0.3-0.7-0.5-0.5-0.5-1.5-0.7-1.1-1.7 0.2-0.6 2.2-1 2.8-0.7 0.3 0.1 0.3 0.4 0.2 0.6-0.1 0.4-0.1 0.7-0.2 1.1 0 0.3 0 0.6 0.4 0.7 0.3 0 0.6-0.2 0.7-0.4q0.5-0.9 0-1.8c-0.4-0.9 0.7-2.7 1.7-2.7 0.2 0 0.4 0.1 0.5 0.3 1 1.1 2 1.2 3.3 0.5 1.5-0.9 1.7-1.6 1-3.1-0.5-1.1-0.3-1.9 0.5-2.7 1.5-1.5 1.3-1.7 0.6-3.6-0.9-2.4-2.7-3.5-4.8-4.2-0.5-0.2-1.2-0.4-1.2-1 0-0.7 0.6-1 1.2-1.4 0.7-0.4 1.4-0.4 2.1-0.3 1.1 0.1 1.5-0.3 1.5-1.4 0-0.8-0.3-1.6 0.3-2.3 0.6-0.7 1.3-1 2.1-0.8 0.6 0.2 1.1 0.2 1.4-0.4 0.3-0.5 0.3-1.1 0-1.5-0.7-1-1.2-2.2-1.6-3.4-0.2-0.7-0.8-0.6-1.2-0.5-0.8 0.1-1.4-0.2-1.9-0.9-0.5-0.7-1.3-0.9-2.1-0.9-3.4 0.4-5.1-1.9-6.7-4.3-1.1-1.6-2.6-2.4-4.5-1.8-1.5 0.5-2 1.2-2 2.7 0 1.5-0.3 1.8-1.9 1.8-1.8 0.1-2.6-0.5-2.6-1.9 0-0.3 0-0.7-0.1-1-0.4-1.4-0.1-2.4 1-3.4 1.5-1.3 1.2-3.2-0.4-4-0.7-0.3-1.4-0.2-2.1 0-1 0.3-1.9 0.2-2.5-0.9-0.5-0.9-1.5-1.6-2.6-0.9-1.7 1-3.4 0.6-5.1 0.4-1.6-0.2-3.3-0.4-4.9-0.5-1.3 0-2.1 0.5-2.3 1.8-0.2 1.2-1 1.8-2.2 1.7-1.5-0.2-2.5 0.3-3.1 1.8-0.2 0.6-0.7 1.3-1.6 1.2-0.9-0.1-1.6-0.5-1.8-1.5-0.1-0.5-0.5-1-0.8-1.4-0.7-0.7-0.7-1.5 0.1-2 0.8-0.7 1.2-1.9 1.6-3.1z"/>
			<path id="Layer" fill-rule="evenodd" class="s4" d="m141.8 73.4c-0.9 0.1-1.8-0.2-2.6-0.7q-1.2-0.8-2.1 0.3c-1.5 1.5-3.3 1.6-5.2 1.3-1.3-0.2-2.3-0.1-3.2 1-0.7 0.8-1.7 1.2-2.8 0.6-1.4-0.7-2.7-0.8-4.2-0.2-1.1 0.5-2.6-0.6-3.1-2.2-0.7-2.1 0.6-3.9 2.9-3.9 0.5 0 0.9 0.1 1.4 0 1.1-0.2 1.5-1.2 0.8-2-1.2-1.4-1.2-1.6 0.1-3 1.1-1.3 2.4-2.6 2.7-4.5 0.1-0.6 0.5-1.1 0.8-1.7 0.6-0.9 0.5-1.9-0.4-2.6-0.3-0.2-0.6-0.4-0.7-0.7-0.2-0.4-1-0.6-0.4-1.2 0.6-0.6 1.2-0.7 1.9-0.2 0.4 0.3 0.5 0.6 0.7 1 0.5 1 1.4 0.9 2.3 0.8 0.4-0.1 0.6-0.5 0.6-0.8 0-0.6-0.3-1.2-0.8-1.4-1.1-0.4-1.6-1.1-1.2-2.3 0.5-1.3 1.9-2.3 2.9-2.1 0.8 0.1 1.4 0.6 1.7 1.3 0.3 0.5 0.6 1 1 1.4 0.8 0.7 1.5 0.6 2.2-0.2 0.9-1.1 0.8-2.1 0.4-3.3-0.6-1.9-0.5-2 1.4-2.6 1-0.3 1.9-0.5 2.9-0.5 0.8 0 1.4 0.3 1.3 1.1-0.1 0.8-0.7 1.2-1.5 1.1-0.3 0-0.6-0.2-0.8-0.2-0.5 0-1 0-1.3 0.6-0.2 0.5 0 1 0.5 1.3 0.2 0.1 0.4 0.2 0.5 0.3 1.4 1.2 1.8 2.3 0.8 3.9-0.8 1.3-0.3 2.6 0 3.8 0.2 1 1.6 1.3 3.1 0.9 1.1-0.3 1.9-0.1 2.5 1 0.3 0.6 0.2 1.1-0.1 1.5-1.1 1.5-0.6 2.9-0.1 4.4 0.2 0.5 0.5 0.9 0.5 1.4-0.2 1.3 0.1 2.2 1.5 2.7 0.9 0.4 0.7 1.5-0.4 2.1-1 0.5-1.8 1.1-2.6 1.8-1.2 0.7-2.6 0.7-3.9 0.7zm-5.8-6.8c1.6 0 1.6 0.1 2.8-1.8 1.6-2.5 1.7-3.4-1.1-4.6 0 0-0.1 0-0.1-0.1-1-0.7-1.7-0.2-2.3 0.7q-0.9 1.3-1.8 2.7c-0.9 1.4-0.2 2.9 1.5 3 0.4 0.2 0.7 0.1 1 0.1z"/>
			<path id="Layer" fill-rule="evenodd" class="s4" d="m105.5 54.4c0.2 0 0.3 0 0.5 0 1.5 0.1 1.5 0.1 0.9-1.3-0.2-0.4-0.1-0.8 0.2-1.1 0.6-0.7 1.4-1.2 2.3-1.3 0.7-0.1 1.2-0.3 1.1-1.1-0.2-1.2-0.5-2.4-1.2-3.4-1-1.3-2.5-1.1-3.2 0.3-0.4 0.7-0.8 1.4-1.2 2.2-0.3 0.5-0.7 1.1-0.5 1.7 0.3 1.3-0.5 1.1-1.1 0.9-1.5-0.6-2.9-0.3-4.2 0.6-0.4 0.2-0.9 0.4-1.3 0-0.5-0.5 0-0.8 0.3-1.2 0.5-0.6 0.9-1.3 1-2.1 0.1-0.7 0.5-1.2 0.9-1.6 1.2-0.9 2.2-2.2 3.7-2.7 1.6-0.5 2.1-1.8 2.1-3.3 0-0.3 0-0.7 0-1 0.2-1.3 1.2-2 2.4-1.5 1.2 0.5 1.8 0 2.1-1 0.5-1.6 1.4-2.6 3.3-2.6 1.4 0 2-1.4 2.7-2.4 1-1.6 3.9-1.9 5.2-0.6 0.2 0.2 0.3 0.5 0.3 0.8-0.1 1.1 0.2 2.2 0.3 3.3 0.2 1.4 1 2.5 2.4 3.1 1.2 0.5 2-0.1 2.8-0.9 1.2-1.2 2.6-1.2 3.6-0.1 1.2 1.3 1.3 2.9 0.1 4.1-0.5 0.5-1.1 1-1.7 1.5-1 0.8-1.5 1.9-1.8 3.2-0.4 2-1.4 3.7-3.4 4.6-1 0.4-1.3 1-1.3 2-0.1 1.7-0.8 2.4-2.5 2.6-1.2 0.2-2.3 0.6-3.4 0.9-0.8 0.3-1 1.1-1.2 1.8-0.3 1.2-0.8 2.2-2.2 2.6-0.5 0.1-0.8 0.6-0.9 1.1-0.2 1.1-1 1.9-1.5 2.8-0.1 0.2-0.3 0.4-0.6 0.5-0.7 0.2-2.6-0.8-2.9-1.6-0.5-1-0.3-1.9 0.7-2.5 0.4-0.2 0.8-0.5 1.2-0.7 1-0.6 1.1-1.1 0.3-1.9-0.5-0.5-1-1-1.4-1.6-0.4-0.6-0.9-0.8-1.7-0.5-1.2 0.5-2.4 0.2-3.2-0.8-0.5-0.6-0.3-1.2 0.3-1.5 0.4-0.3 1.1-0.4 1.7-0.3zm17.1-11.5c-1.7 0.4-3.6 1.9-4.9 3.8-1 1.5-1.8 3.1-2.2 5-0.3 1.4 0.3 2.7 1.7 3.1 1.5 0.5 3.3-0.3 3.4-1.7 0.2-2.4 1.8-3.5 3.8-4.3 0.8-0.4 1.5-0.9 1.5-1.9 0-0.7-0.2-1.5-0.4-2.2-0.4-1.7-0.5-1.8-2.9-1.8zm-5.4 0.8c1.5 0.1 2.3-0.8 3-1.9 0.6-0.9 0.2-1.8-0.9-1.9-1.7-0.1-3.4 0-5-0.5-0.6-0.2-1.2 0.3-1.5 0.9-0.3 0.4-0.4 0.9 0 1.1 1.4 0.9 2.6 2.1 4.4 2.3z"/>
			<path id="Layer" class="s4" d="m150.5 87.7c0 0.5 0.1 1.1 0 1.6-0.5 2.7-0.8 3-3.6 3.6-1.3 0.3-2.7 0.5-3.8 1.3-0.7 0.5-1.5 0.2-2.3 0.4-1.8 0.3-3.5 1.1-5.4 1.4-1.6 0.2-2 1.7-1 3 0.2 0.2 0.3 0.5 0.4 0.8 0.2 0.3 0.3 0.7-0.1 1-0.4 0.4-0.7 0.3-1.1 0-0.6-0.4-1-1-1.2-1.7-0.5-1.3-1.7-1.8-2.8-2.4-0.7-0.4-1.3 0.3-1.8 0.7-1.9 1.7-2.5 1.8-4.8 0.7-1.8-0.9-3.5-2-4.5-3.9-0.5-1-0.6-1.8 0.1-2.6 0.5-0.6 0.7-1.2-0.2-1.7-0.3-0.2-0.8-0.3-0.5-0.8 0.4-0.5 1-0.3 1.3 0 1.7 2 4.4 2.6 6.3 4.3 0.9 0.8 1.6 0.3 1.6-1 0-0.8 0.1-1.6-0.2-2.4-0.1-0.3-0.2-0.9 0-1.1 0.9-1.1 0.6-2.1 0.2-3.3-0.1-0.4-0.2-0.9 0.2-1.3 0.5-0.4 0.8 0.2 1.2 0.3 0.7 0.3 1.1 1.1 1.9 1.4 1.6 0.4 2.9-0.1 3.4-1.7 0.2-0.7 0.5-1.3 1.3-1.3 0.7 0 0.9 0.7 1.1 1.2 0.3 0.7 0.7 1.2 1.3 1.6 0.5 0.3 0.9 0.5 1.5 0.1 0.5-0.3 0.9-0.7 0.7-1.3-0.3-1.3-0.3-2.8-1.9-3.5-1.2-0.5-1.2-2-0.2-2.8 0.5-0.4 1-0.4 1.5-0.2 0.6 0.2 0.5 0.7 0.5 1.1 0 0.8-0.3 1.7 1.1 1.8 1.6 0 1.8-0.2 1.3-1.7-0.2-0.5-0.3-1 0.3-1.2 0.7-0.2 1.6-0.4 2.2 0.4 0.4 0.5 0.6 1.1 0.6 1.7 0 1 0.5 1.4 1.3 1.8 1.4 0.7 2.8 1.3 3.4 3 0.7 1 0.6 1.9 0.7 2.7z"/>
			<path id="Layer" class="s5" d="m178.1 68.9c1.2 0.1 2.3-0.3 2.7 1 0.4 1.3 0.2 2.6-0.5 3.7-0.3 0.6-1.2 0.5-1.8 0.6-1.7 0.2-2.3 1.1-2.1 2.8 0.1 0.6 0.1 1.3 0 2-0.3 1.3-0.4 2.5 0 3.8 0.5 1.5-0.1 2-1.7 1.7-1.6-0.3-2.1-0.1-2.7 1.3-0.6 1.3-1.8 1.6-2.9 0.7-0.8-0.7-1.4-1.5-2-2.4-0.7-1.1-1.7-1.1-2.4 0-0.1 0.1-0.1 0.3-0.2 0.4-0.3 0.5-0.7 0.8-1.2 0.7-0.6-0.1-0.7-0.7-0.7-1.2-0.1-0.5 0-1 0.7-1.3 0.7-0.2 1.3-0.6 1.9-0.9 0.6-0.4 1-0.3 1.4 0.1 0.3 0.3 0.7 0.5 1.1 0.6 0.6 0.3 1.2 0.4 1.8 0 0.6-0.4 0.5-1 0.3-1.6-0.1-0.3-0.1-0.6-0.1-0.9-0.1-0.9-0.4-1.4-1.5-1.3-2.2 0.1-3.5-1.7-3-3.8 0.2-0.7 0.6-0.9 1.3-0.9 1.1 0.1 2 0 2.8-0.9 0.7-0.8 2.6-0.2 3.2 0.9 0.5 0.9 1.1 1.6 2 2 0.4 0.2 0.8 0.2 1.2-0.1 0.4-0.3 0.1-0.7-0.1-1-0.5-0.9-0.6-2-1.1-2.9-0.6-1.1 0.1-2.3 1.4-2.6 0.8-0.4 1.6-0.6 2.2-0.5z"/>
			<path id="Layer" class="s5" d="m91.2 60.4c-0.9 1.7 0.6 3.1 0.9 4.7 0.2 0.7 0.7 1.1 1.4 1.3 1.1 0.2 1.3 0.9 1.2 1.8-0.2 1-0.4 2-0.9 3-0.7 1.5-0.4 2.5 1.1 3.3 0.5 0.3 1.1 0.5 1.5 0.9 0.6 0.7 0.6 1.9-0.1 2.5-0.9 0.6-1.5 0.1-2-0.6-0.2-0.3-0.4-0.5-0.6-0.8-0.6-1.4-2.2-2.1-3.6-1.6-0.5 0.2-1.1 0.6-0.7 1.3 0.2 0.4 0.3 0.8 0.2 1.2-0.2 0.7-0.8 1-1.4 0.8-0.7-0.2-0.6-0.8-0.4-1.3 0-0.1 0.1-0.2 0.2-0.3 0.9-1.4 0.9-1.4-0.6-2.6-0.8-0.6-1.1-2.1-0.5-2.8 1-1.1 1.2-2.2 0.4-3.5-0.8-1.3-1.9-2-3.4-2.1q-0.3 0-0.6 0c-0.7 0-1.4 0-1.5-0.8-0.1-0.7 0.3-1.2 0.9-1.5 1.4-0.5 2-1.5 2.4-2.8 0.4-1.3 1.3-2.4 1.9-3.6 0.4-0.8 1.2-0.8 1.8-0.4 1.2 0.6 2.4 2.6 2.4 3.9z"/>
			<path id="Layer" class="s4" d="m176.7 68.1c-2.8 0-3.2 0.3-4 2.5-0.3 0.7-0.7 0.9-1.4 0.6-1.4-0.6-2.9-0.4-4.3-0.4-1.1 0-1.8 0.9-2.7 1.3-0.7 0.3-1.3 0.4-1.8-0.2-0.7-0.8-1.2-1.8-0.6-2.9 0.4-0.7 1.1-0.6 1.8-0.4 0.4 0.1 0.9 0.2 1.3 0.4 1.3 0.6 1.7 0.4 2-0.9 0.4-1.9 1.4-2.5 3.4-2.2 0.2 0 0.4 0.1 0.6 0 0.6-0.1 1.4 0.3 1.7-0.4 0.3-0.8 0.1-1.6-0.5-2.3-0.5-0.6-1.2-1-1.5-1.8-0.3-0.5-0.4-1 0.2-1.4 0.6-0.3 1.2-0.7 1.7 0 0.8 1.3 2.2 2.1 2.9 3.5 0.3 0.7 1.1 1.2 2 1.1 1.3-0.2 2.1 0.6 3 1.3 0.7 0.5 0.5 1.1-0.3 1.4-1.3 0.8-2.5 0.9-3.5 0.8z"/>
			<path id="Layer" class="s4" d="m157.2 37.9c0.1 0.3 0.4 0.5 0.7 0.5 0.1 0.8 0.8 1.1 1.3 1.5 1.5 1.1 2 2.2 1.7 3.4-0.3 0.9-0.9 1.2-1.7 1.3-0.9 0.1-1.6-0.1-1.9-1-0.2-0.5-0.3-1.2-0.6-1.6-0.7-0.9-1.6-1.5-2.9-1.4-2.1 0-3.1-1-3.6-2.9-0.6-2.2-1-4.6-3.5-5.8-1.2-0.6-1.3-1.9-0.7-2.7 0.7-0.8 2-0.9 2.8 0.3 1.3 1.9 3.1 3.3 4.5 5.1 1.1 1.4 2.8 2 3.9 3.3z"/>
			<path id="Layer" class="s4" d="m68.3 48.4c-0.2-0.8-0.8-1.2-1.5-1.6-0.9-0.5-1.6-1.3-2.1-2.2-0.2-0.5-0.4-1-0.1-1.4q1.1-1.9 2.7-3.3c0.2-0.2 0.5-0.2 0.7 0 0.8 0.8 1.9 0.5 2.8 0.6 0.5 0 1.3-0.3 1.5 0.4 0.2 0.8 0.4 1.7-0.2 2.5-1 1.3-1 2.2 0.5 2.9 2.1 1 2 3.1 2.8 4.7 0.1 0.3 0 0.6-0.2 0.8-0.3 0.2-0.5 0.1-0.8 0-0.7-0.3-1-1-1.6-1.3-1.5-0.8-3-1.4-4.5-2.1z"/>
			<path id="Layer" class="s5" d="m96.8 37.9c0.7-0.6 1.4-1.5 2.5-1.5 1.4-0.6 2.8-0.6 4.2-0.1 1.2 0.4 1.2 1 0.3 1.8-1.1 0.9-1.3 1.8-0.9 3.2 0.3 0.9 0.2 1.9-0.8 2.5-1.1 0.6-2 1.5-3.2 1.9-1.2 0.4-3.2-0.1-3.9-1.2-0.4-0.6-0.5-1.5 0.3-1.8 1.7-0.7 2-1.8 1.5-3.4-0.1-0.5 0-0.9 0-1.4z"/>
			<path id="Layer" class="s5" d="m199.6 55.4c0.3 0 0.7-0.1 0.9 0.1 1.6 1.6 4.1 1.5 5.7 3 1 0.9 0.9 1.3-0.2 2.1-0.6 0.4-1.2 0.9-1.9 1.1-2.8 0.7-2.6 2.3-1.8 4.7 0.2 0.5 0.8 0.9 0.4 1.5-0.5 0.6-1.1 0.3-1.7 0.2-1.7-0.4-3.1-2.3-2.9-4 0.1-0.6 0.5-0.7 0.8-1 1.9-1.3 1.9-3.6 0-5-0.6-0.4-1.5-0.8-1.2-1.7 0.2-1 1.1-1 1.9-1z"/>
			<path id="Layer" class="s5" d="m105.4 62.2c-2.1-1.1-5.1-0.9-5.7-4.2-0.2-1.2-1.1-2-2.6-1.9-0.4 0-0.7-0.1-1.1-0.2-0.7-0.2-1-0.7-0.9-1.3 0.1-0.6 0.6-1 1.1-1 1.5 0.1 2.8-0.6 4.2-1.1 0.8-0.3 1.4 0 1.9 0.4 0.5 0.4 0.1 1-0.2 1.5-0.7 1-0.2 1.9 0.6 2.4 1.3 0.9 2.4 2.2 4.2 2.3 0.9 0.1 1 0.7 0.8 1.5-0.4 1-1.3 1.3-2.3 1.6z"/>
			<path id="Layer" class="s5" d="m125.2 77.2c0 0.4-0.3 0.6-0.6 0.9-0.8 0.8-1.2 1.9-1.4 3-0.1 0.7 0.1 1.2 0.6 1.7 1.2 1.4 1.3 2.4 0.2 4-0.1 0.1-0.2 0.3-0.3 0.4-1.3 1.4-2 2.5-3.2-0.2-0.1-0.3-0.4-0.5-0.6-0.8-1.4-1.6-1.4-1.8-0.4-3.7 0.5-1 0.6-2.2 0.5-3.3-0.1-1.1 0.4-1.8 1.4-2.2q0.9-0.5 1.8-0.9c0.8-0.4 2 0.3 2 1.1z"/>
			<path id="Layer" class="s5" d="m151.7 22.7c-0.3 1.1-0.8 2.2-0.5 3.5 0.2 0.8 0.3 1.5 0.6 2.3 0.2 0.6 0.3 1.2-0.3 1.6-0.5 0.3-1 0-1.4-0.4-0.6-0.6-1.3-1.1-2-1.7-1-0.9-1.8-0.9-2.7 0.2-0.9 1-1.5 1-2.2 0-0.8-1.1-0.3-2.3 1.1-2.5 0.4-0.1 0.8 0 1.2 0 1.3-0.1 2-0.8 2-2 0-0.8 0.2-1.6 0.3-2.5 0.1-0.5 0.3-0.8 0.7-0.9 0.9-0.5 3.3 1.3 3.2 2.4z"/>
			<path id="Layer" class="s5" d="m80.5 49.1c-1.4 0-2.4-0.9-2.7-2.4-0.1-0.5-0.2-1.1-0.3-1.6q-0.3-1.2-1.5-1.5c-1.8-0.4-2.7-2.1-2-3.8 0.3-0.7 0.6-1.3 0.9-1.9 0.6-1 1.4-1.1 2.2-0.2 0.5 0.5 0.8 1.2 1 1.9 0.3 1.1 0.8 2 2 2.3 0.4 0.1 0.9 0.4 1 1 0.1 0.6-0.4 0.8-0.8 1.1-1.2 0.7-1.3 1.5-0.2 2.4 0.4 0.4 1 0.6 1.4 1 0.3 0.2 1 0.4 0.8 1-0.2 0.5-0.7 0.6-1.2 0.7-0.3 0.1-0.5 0-0.6 0z"/>
			<path id="Layer" class="s5" d="m65.4 31.9c0.7 0 1.4 0.2 1.7 1.2 0.3 1 1 1.6 2.1 1.9 1.2 0.3 2.7 0.5 3.1 2.1 0.4 1.3-0.5 2.3-1.8 2-0.7-0.2-1.3-0.5-1.9-0.8-0.9-0.5-1.9-0.5-2.9-0.3-1.3 0.3-2-0.2-2-1.4 0-1.2-0.8-1.7-1.6-2.2-0.5-0.3-0.9-0.5-0.9-1 0-0.6 0.7-0.8 1.1-0.9 1.1-0.1 2-0.6 3.1-0.6z"/>
			<path id="Layer" class="s4" d="m151.4 53.9c-1.3-1-2.1 0.2-3.1 1.1-0.9 0.8-2.2 0.5-2.9-0.6-0.4-0.7-0.8-1.3-1.2-2-0.6-1-0.3-1.7 0.9-1.7 0.7 0 1.5 0.2 2.2 0.4 0.9 0.2 1.5 0 2-0.8 0.9-1.4 3.4-1.7 4.6-0.6 1 0.9 0.2 1.9 0 2.8-0.4 0.9-1.2 1.4-2.5 1.4z"/>
			<path id="Layer" class="s5" d="m97.8 82.9c0-1 1.3-2.2 2.3-2.1 0.5 0 0.8 0.3 0.9 0.8 0.3 2.4 2.1 2.5 3.8 2.6 0.7 0.1 1.4 0.1 1.8 0.9 0.3 0.5 0.8 0.5 1.3 0.3 0.4-0.1 0.9-0.3 1.3-0.5 0.6-0.3 1.3-0.8 1.9-0.1 0.4 0.4 0.4 2.7 0 3.1-0.1 0.1-0.4 0.3-0.5 0.3-1.2-0.3-2.5 0.2-3.5-0.8-0.5-0.5-1.1-0.7-1.7-0.9-0.8-0.2-1.6-0.3-2.2-0.7-1-0.7-2.1-0.8-3.3-0.8-1.7-0.1-2.2-0.6-2.1-2.1z"/>
			<path id="Layer" class="s5" d="m186.9 42.8c1.1 0.6 2 1.1 2.5 2.2 0.4 0.9-0.2 1.5-0.7 2.1-1 1.1-2.3 1.9-3.5 2.7-0.1 0.1-0.3 0.2-0.5 0.2-0.6 0.1-2.8-1.9-3-2.7-0.2-1 0.5-2 1.6-2.5 0.8-0.3 1.6-0.7 2.3-1.3 0.2-0.2 0.8-0.4 1.3-0.7z"/>
			<path id="Layer" class="s5" d="m113.6 82.1c-0.3 0-0.7 0.1-0.9-0.3-0.3-0.4 0.1-0.7 0.2-1 0.3-0.7 0.9-1.1 1.5-1.4 0.8-0.4 0.9-1 0.6-1.7-0.8-1.8-1.7-3.4-3.2-4.7-0.6-0.5-1.1-0.5-1.7-0.1-0.6 0.3-1.2 0.5-1.7-0.1-0.3-0.4-0.3-1 0.2-1.4 0.6-0.5 1.1-0.4 1.7 0.1 0.5 0.5 1 0.4 1.6 0.2 2.7-0.7 5.5 0.9 6 3.6 0.2 1-0.5 2.1-1.4 2.8-0.6 0.5-1 1.1-1 1.9-0.1 1.5-0.8 2.1-1.9 2.1z"/>
			<path id="Layer" class="s4" d="m94.4 58.4c1-0.2 1.9-0.4 2.9-0.9 0.8-0.4 1.5 0.3 1.7 1.2 0.2 1.5 1.1 2.3 2.4 2.7 0.2 0.1 0.4 0.2 0.5 0.3 1.9 1.2 2 1.5 0.4 3.1-1 1-1.6 2.3-2.7 3.3-0.2 0.2-0.4 0.6-0.3 0.9 0.2 1.4-0.7 1.9-1.8 2.3-0.8 0.3-1-0.1-0.9-0.7 0-0.3 0.2-0.6 0.4-0.8 0.9-0.8 1.4-1.8 1.7-2.9 0.1-0.4 0.4-0.7 0.8-0.9 1-0.6 1.2-1.3 0.4-2.2-0.6-0.7-1-1.4-1.4-2.2-0.9-1.8-2.5-2.5-4.1-3.2z"/>
			<path id="Layer" class="s5" d="m153 64.3c-0.3 0.8-0.5 1.9-1 2.9-0.2 0.4-0.5 0.7-1.2 0.5-2-0.5-3.4-0.8-3.1-3.6 0-0.1 0-0.2 0-0.2-0.2-2 0.3-2.9 1.6-3 2-0.1 3.7 1.4 3.7 3.4z"/>
			<path id="Layer" class="s5" d="m189.8 78.1c-0.5 0-1.1 0-1.6-0.3-1.1-0.6-1.3-1.6-0.6-2.5 0.5-0.6 0.9-1.2 1.3-2 0.3-0.7 0.8-1.2 1.7-1 0.8 0.1 1.7 0.4 2 1.3 0.3 0.9 0.8 1.5 1.4 2.1 0.3 0.3 0.8 0.6 0.6 1.1-0.2 0.5-0.7 0.8-1.3 0.9-0.6 0.1-1.3 0-1.9 0.1-0.5 0.3-1 0.3-1.6 0.3z"/>
			<path id="Layer" class="s4" d="m43.5 44c1.3 0.2 2.2 0.8 2.6 2 0.2 0.5 0.6 1 0.9 1.4 0.8 1 0.4 1.8-0.3 2.5-0.7 0.9-1.5 1.1-2.5 0.5-1.9-1-2.9-3.6-2.2-5.6 0.3-0.5 0.8-0.8 1.5-0.8z"/>
			<path id="Layer" class="s5" d="m60.1 57.4c-1.7 0-2-0.3-2.4-2-0.2-0.8-0.6-1.7-0.8-2.5-0.3-1.1-0.3-2.2 0.6-3.1 0.2-0.3 0.5-0.4 0.9-0.4 0.4 0.1 0.5 0.5 0.6 0.9q0 0.4 0 0.9c0.1 1.3 0.4 2.4 1.8 3 1.7 0.8 1.8 1.4 1.1 2.6-0.5 0.5-0.7 0.6-1.8 0.6z"/>
			<path id="Layer" class="s4" d="m192.2 57.7c0 2.7-2.2 4.2-4.3 3.1-2.4-1.2-2-2.2-0.4-3.8 0.9-0.9 2.3-1 3.5-0.9 1 0.1 1.4 0.8 1.2 1.6z"/>
			<path id="Layer" class="s5" d="m46.3 31.1c-0.8 0.1-1.1-0.4-1-1.2 0.2-2.1 1.6-3.7 3.6-4 0.8-0.1 1.4 0.3 1.9 0.9 0.5 0.6-0.1 1-0.3 1.4-1.1 2-2.5 3-4.2 2.9z"/>
			<path id="Layer" class="s4" d="m192.7 52.6c-0.3 0-0.7-0.2-1-0.6-0.7-1-1.8-1.2-2.9-1.1-1.1 0.1-1.3-0.4-0.9-1.4 0.7-1.6 1.9-1.9 3.2-0.8 0.9 0.7 2 0.7 2.9 1.3 0.5 0.4 1 0.7 0.9 1.4-0.1 0.6-0.6 1-1.4 1-0.2 0-0.4 0.1-0.8 0.2z"/>
			<path id="Layer" class="s5" d="m103.6 70.9c-1.3 0-1.9-0.8-1.4-2 0.6-1.6 2-2.8 3.4-2.7 1.5 0.1 2.2 1.2 1.4 2.5-0.9 1.1-1.8 2.2-3.4 2.2z"/>
			<path id="Layer" class="s4" d="m113 77.1c0 1.2-1 2.1-2.2 2-1.4-0.1-2.8-1.5-2.8-2.9 0-1 1.1-1.6 2.7-1.6 1.3 0 2.3 1.1 2.3 2.5z"/>
			<path id="Layer" class="s5" d="m176.2 86.6c0.1-0.5-0.2-1.1 0.4-1.4 0.6-0.3 1.1 0.2 1.6 0.5 0.7 0.5 1.5 0.9 2.2 1.4 1.1 0.7 1 1.6-0.2 2.2-1.9 1.1-4-0.3-4-2.7z"/>
			<path id="Layer" class="s5" d="m68.3 48.4c0.1 0.7 0.6 0.9 1 1.3 0.7 0.6 1.6 1.1 1.8 2.3 0.1 0.4 0.1 0.7-0.3 1-0.4 0.3-0.8 0.4-1.2 0.1-1.2-0.9-2.4-1.8-3.6-2.8-0.5-0.5-0.8-1.1-0.2-1.9 0.5-0.7 1.1-0.4 1.6-0.1 0.4 0.1 0.6 0.1 0.9 0.1z"/>
			<path id="Layer" class="s4" d="m114.1 70.6c-0.9-0.3-1.9-0.3-2.7-1-0.7-0.5-0.8-1-0.6-1.8 0.3-0.8 1-0.9 1.6-0.7 0.8 0.2 1.6 0.4 2.4 0.7 0.6 0.2 1.4 0.3 1.2 1.2-0.2 1-0.9 1.6-1.9 1.6z"/>
			<path id="Layer" class="s4" d="m64 49.6c0 0.9-1.1 2.4-1.9 2.7-0.6 0.2-1-0.2-1.4-0.6-0.5-0.7-0.7-1.5-0.2-2.3 0.3-0.4 0.7-0.8 1.2-1.1 0.5-0.4 1.2-0.5 1.8-0.2 0.5 0.2 0.5 0.9 0.5 1.5z"/>
			<path id="Layer" class="s5" d="m195.7 46.7c0 1.4-0.8 2.2-2 2.2-1 0-2-0.8-2-1.6 0-0.9 1.7-2.1 2.8-2.1 1.1 0 1.3 0.6 1.2 1.5z"/>
			<path id="Layer" class="s5" d="m193.2 39.4c0.3 0 0.7 0 1 0 0.7 0.4 0.9 1 0.4 1.7-0.2 0.3-0.3 0.7-0.4 1-0.3 0.9-0.7 1.6-1.7 1.4-0.9-0.1-1.4-0.8-1.5-1.6-0.1-1 0.4-1.7 1.3-2.1 0.3 0 0.9 0.2 0.9-0.4z"/>
			<path id="Layer" class="s5" d="m109.2 48.6c0 1.1-1.3 2.2-2.4 2-0.6-0.1-1.2-0.4-1.3-1.2 0-1.1 1.4-2.8 2.2-2.8 1 0.1 1.6 0.8 1.5 2z"/>
			<path id="Layer" class="s4" d="m161.7 76.9c0.1-0.5 0-1.2 0.6-1.5 0.8-0.3 1 0.5 1.2 1 0.5 0.8 1.1 1.6 0.9 2.6-0.1 0.8-0.7 1.5-1.4 1.5-0.7 0-1.1-0.7-1.1-1.5 0.1-0.7-0.1-1.4-0.2-2.1z"/>
			<path id="Layer" class="s4" d="m181.5 59.6c0.8 0 1.8 0 1.9 1.1 0.2 1.3-0.4 1.9-1.8 1.9-1.2 0-2.1-0.8-2.1-1.9 0-0.9 0.3-1.1 2-1.1z"/>
			<path id="Layer" class="s4" d="m82.1 51.1c0.9 0.1 1.8 0.3 2.4 1.2 0.2 0.3 0.4 0.7 0 1-0.8 0.5-1.7 0.8-2.7 0.4h-0.1c-0.7-0.3-1.7-0.5-1.5-1.5 0.1-1 1.1-0.9 1.9-1.1z"/>
			<path id="Layer" class="s4" d="m102.5 87.1c1.1 0 2.4 1 2.4 1.8 0 0.7-1.4 1.8-2.2 1.7-1-0.2-1.4-1-1.4-1.9-0.1-1 0.4-1.5 1.2-1.6z"/>
			<path id="Layer" class="s5" d="m113.5 92.4c-1.1 0-2-0.8-2-1.9 0-0.8 0.5-1.1 1.3-1.1 1 0 2.2 1.1 2.2 1.9 0 0.7-0.6 1.1-1.5 1.1z"/>
			<path id="Layer" class="s4" d="m126 79.4c1.1 0 2.3 1.1 2.2 2.1 0 0.6-0.4 0.8-0.9 0.8-1.2 0.1-2.8-1-2.8-1.8 0-0.6 0.6-1.1 1.5-1.1z"/>
			<path id="Layer" class="s4" d="m119.2 80.6c0 1.1-0.8 2-1.7 2-0.8 0-1-0.6-1-1.3 0-1.1 0.9-2.5 1.7-2.4 1.1 0.1 0.9 1.1 1 1.7z"/>
			<path id="Layer" class="s4" d="m78.8 55.6c0 0.8-0.2 1.5-1.1 1.5-0.7 0-1.7-1-1.6-1.8 0.1-0.7 0.4-1.3 1.2-1.2 0.9 0.1 1.6 0.4 1.5 1.5z"/>
			<path id="Layer" class="s4" d="m143.2 41.2c0.1 0.7-0.2 1.2-1 1.2-0.9 0-1.8-0.8-1.8-1.6 0-0.9 0.6-1.2 1.4-1.2 1.1 0 1.5 0.6 1.4 1.6z"/>
			<path id="Layer" class="s5" d="m177.2 40.9c0.2 0 0.5 0 0.7 0 0.1 0.7 0.6 0.5 1 0.5 0.2 0 0.5 0 0.7 0 0.3 0.8 0.4 1.5-0.7 1.8-0.8 0.3-2.3-0.1-2.6-0.8-0.2-0.3-0.1-0.5 0.1-0.8 0.4-0.2 0.8-0.2 0.8-0.7z"/>
			<path id="Layer" class="s5" d="m130.3 34.5c0 1.1-0.8 1.7-1.7 1.7-0.6 0-0.9-0.5-0.9-1-0.1-0.8 1-1.5 1.9-1.5 0.7-0.1 0.7 0.4 0.7 0.8z"/>
			<path id="Layer" class="s5" d="m72.5 34.5c0-0.6 0-1.1 0.7-1.1 0.8 0 0.9 0.7 1 1.3q0.1 0.9-0.9 0.9c-0.7 0-0.8-0.5-0.8-1.1z"/>
			<path id="Layer" class="s3" d="m184 90.4c0-1.1 0.9-2 2.1-2 1 0 1.4 0.5 1.4 1.5 0 1.2-1.1 2.3-2.4 2.3-0.8-0.1-1.1-0.6-1.1-1.8z"/>
			<path id="Layer" class="s3" d="m52.5 95.1c1.2-0.6 2.4-0.2 3.6 0.2 0.9 0.3 1.7 0.6 2.6 0.5 0.9-0.1 1.4 0.6 1.9 1.1 0.9 0.9 1.9 1.1 3.1 1.2 0.9 0.1 1.8 0.3 2.3 1.2-2.1-0.5-4.4-0.4-6.1-2-0.6-0.6-1.3-0.8-2.2-0.7-0.2 0-0.5 0.1-0.6 0-1.4-0.8-3-1.3-4.6-1.5z"/>
			<path id="Layer" class="s3" d="m179 41.4c-0.4 0-0.9 0.2-1-0.5 0.4 0 0.9-0.2 1 0.5z"/>
			<path id="Layer" class="s3" d="m69.2 81.8c1.4 0.3 2.4 1.1 3.3 2.1 0.5 0.5 0.2 1.1-0.2 1.6-1.2 1.6-2.7 3.1-3.3 5.1-0.1 0.4-0.5 0.5-0.9 0.3-0.7-0.3-1.5-0.6-2.2-0.7-2.6-0.5-2.5-1.8-1.5-4.3 0.2-0.5 0.6-0.9 0.5-1.4-0.1-1.3 0.7-1.8 1.7-2 0.9-0.1 1.7-0.7 2.6-0.7z"/>
			<path id="Layer" fill-rule="evenodd" class="s3" d="m84.5 97.4c-1.3-0.5-2.8-0.3-4.4-0.3-2.2 0.1-3.6-1.6-3.6-3.8 0-0.3 0-0.7 0-1 0-0.4-0.1-0.7-0.6-0.8-0.4-0.1-0.9-0.1-1.1 0.4q-0.3 0.6-0.6 1.2c-0.4 1-1.8 1.3-2.6 0.8-0.5-0.3-0.4-0.7-0.1-1 1.2-1.3 2.3-2.8 3-4.5 0.3-0.9 1.1-1.1 1.8-0.5 1.6 1.2 3.4 2.3 4.5 4.2 0.3 0.6 0.8 0.9 1.5 1 2 0 2.8 1.7 3.8 2.9 0.7 0.5-0.2 1.4-1.6 1.4zm-4.5-1.3c0.8 0.1 1.5-0.4 2.4-0.5 0.3 0 0.5-0.2 0.5-0.4 0-0.4-0.3-0.5-0.6-0.6-1.2-0.3-2.3-0.9-3.2-1.7-0.5-0.4-0.8-0.3-1.1 0.3-0.3 0.5-0.7 1-0.3 1.7 0.6 0.8 1.2 1.3 2.3 1.2z"/>
			<path id="Layer" class="s3" d="m47 66.1c0-1.8 0.4-2.4 1.5-2.5 1-0.1 1.8 0.6 1.9 1.8 0.1 1.2 0.1 2.4 0.6 3.6 0.2 0.6 0 1.2-0.7 1.6-0.6 0.3-1.2 0.3-1.7-0.2-1.3-1.2-1.4-3-1.6-4.3z"/>
			<path id="Layer" class="s3" d="m39.3 60.9c-1 0.2-1.8-0.2-2-1.1-0.3-1 0.2-2 0.7-2.9 0.5-0.8 1.2-0.5 1.9-0.2 0.3 0.1 0.6 0.2 1 0.3 0.7 0.2 1.4 0.4 1.4 1.3 0.1 0.9 0 1.7-0.9 2.1-0.7 0.3-1.4 0.7-2.1 0.5z"/>
			<path id="Layer" class="s1" d="m136 66.6q-0.5 0-0.9 0c-1.7-0.1-2.5-1.6-1.5-3q0.9-1.3 1.8-2.7c0.6-0.9 1.3-1.3 2.3-0.7 0 0 0.1 0 0.1 0.1 2.7 1.2 2.7 2.1 1.1 4.6-1.3 1.8-1.3 1.7-2.9 1.7z"/>
			<path id="Layer" class="s1" d="m122.6 42.9c2.4 0 2.6 0.1 3 1.8 0.2 0.7 0.4 1.5 0.4 2.2 0 1-0.7 1.6-1.5 1.9-1.9 0.8-3.5 1.9-3.8 4.3-0.1 1.4-1.9 2.2-3.4 1.7-1.4-0.4-2-1.7-1.7-3.1 0.4-1.8 1.2-3.5 2.2-5 1.2-1.9 3-3.4 4.8-3.8z"/>
			<path id="Layer" class="s3" d="m117.2 43.7c-1.8-0.2-3-1.4-4.4-2.2-0.4-0.2-0.3-0.8 0-1.1 0.4-0.5 0.9-1.1 1.5-0.9 1.7 0.5 3.4 0.4 5 0.5 1 0.1 1.5 1 0.9 1.9-0.7 1-1.5 1.9-3 1.8z"/>
			<path id="Layer" class="s4" d="m80 96.1c-1.1 0.1-1.8-0.4-2.3-1.3-0.4-0.7 0-1.2 0.3-1.7 0.3-0.5 0.6-0.7 1.1-0.3 0.9 0.8 2 1.4 3.2 1.7 0.3 0.1 0.6 0.2 0.6 0.6 0 0.3-0.3 0.4-0.5 0.4-0.8 0.2-1.6 0.7-2.4 0.6z"/>
		</g>
	</g>
</svg>