<?xml version="1.0" encoding="utf-8"?>
<!-- Generator: Adobe Illustrator 27.9.0, SVG Export Plug-In . SVG Version: 6.00 Build 0)  -->
<svg version="1.1" id="Layer_1" xmlns="http://www.w3.org/2000/svg" xmlns:xlink="http://www.w3.org/1999/xlink" x="0px" y="0px"
	 viewBox="0 0 58.905 57.426" style="enable-background:new 0 0 58.905 57.426;" xml:space="preserve">
<style type="text/css">
	.st0{fill:#092B39;}
</style>
<path id="Path_834" class="st0" d="M10.827,13.226c12.443,0.616,24.914,0.341,37.318-0.823c3.126-0.294,3.157-5.215,0-4.92
	C35.741,8.647,23.27,8.922,10.827,8.306C7.662,8.15,7.67,13.07,10.827,13.226"/>
<path id="Path_835" class="st0" d="M12.118,30.042c11.579,0.667,23.192,0.453,34.739-0.64c3.126-0.294,3.155-5.218,0-4.92
	c-11.547,1.093-23.16,1.307-34.739,0.64C8.955,24.94,8.966,29.861,12.118,30.042"/>
<path id="Path_836" class="st0" d="M12.255,47.92c12.127-0.161,24.255-0.371,36.382-0.53c3.162-0.043,3.172-4.962,0-4.92
	C36.51,42.629,24.382,42.839,12.255,43C9.092,43.043,9.083,47.962,12.255,47.92"/>
</svg>
