<?xml version="1.0" encoding="utf-8"?>
<!-- Generator: Adobe Illustrator 27.5.0, SVG Export Plug-In . SVG Version: 6.00 Build 0)  -->
<svg version="1.1" xmlns="http://www.w3.org/2000/svg" xmlns:xlink="http://www.w3.org/1999/xlink" x="0px" y="0px"
	 viewBox="0 0 315.65 453.43" style="enable-background:new 0 0 315.65 453.43;" xml:space="preserve">
<style type="text/css">
	.st0{fill:#6D6E72;}
	.st1{fill:#EE3430;}
	.st2{fill:#0B293A;}
	.st3{fill:#C0AB97;}
	.st4{fill-rule:evenodd;clip-rule:evenodd;fill:#0B293A;}
	.st5{fill:#919498;}
	.st6{fill:#F48E24;}
</style>
<g id="Layer_2">
	<path class="st0" d="M176.84,19.52c-5.89,1.27-9.83,4.03-13.01,9.15c-3.17,5.12-7.17,9.81-7.5,15.83
		c-0.16,3.01,2.11,8.46,3.91,10.88c1.41,1.9,6.49,5.32,8.65,6.28c13.06,5.81,28.14,8.63,42.42,9.21c-4.67-2.54-9.96-5.49-11.86-8.93
		c-4.52-8.17-6.56-16.05,0.28-23.02c-1.24,5.83,1.97,10.85,5.72,15.49c3.75,4.64,7.83,4.12,13.05,6.99
		c7.6,4.18,15.27,7.1,21.13,12.54c1.17,2.5,4.19,5.44,6.98,9.77c1.53,2.65,3.31,5.97,2.65,13.67c-0.43,5.03-2.88,13.54-5.72,17.72
		c-6.36,9.37-13.53,23.86-5.3,33.91c2.23-7.95,9.63-18.28,18.7-20.93c1.12,9.91,3.77,20.48,1.95,30.14
		c-2.23,11.86-5.15,20.41-15.77,27.07c2.37,0.28,7.83,1.15,12.14,0.42s7.74-3.56,9.07-2.23c-4.47,15.07-10.03,18.91-12.56,33.07
		c-2.66,14.9,2.65,36.98,8.51,43.4c-1.24-5.05,2.77-25.9,5.58-30.28c6.98-10.9,10.19-15.07,13.26-28.88
		c2.79,2.93,5.73,7.9,7.95,17.58c5.21-8.3,7.04-17.49,3.21-26.51c-3.83-9.02-3.82-15.51-4.88-25.26c-1.07-9.76,2.2-15.62,5.58-24.84
		c1.51-4.11,3.05-15.18,3.49-19.53c1.26-12.56,1.53-27.77-0.98-41.44c-1.71-9.31-5.16-17.44-10.74-25.53
		c-8.79-8.37-15.64-15.06-24.28-21.21c-11.05-7.86-29.07-17.16-42.42-19.53C204.53,12.45,187.17,17.29,176.84,19.52z"/>
</g>
<g id="Layer_1">
	<g>
		<g id="XMLID_00000123437312308849751060000004527363172130737817_">
			<path class="st1" d="M168.78,200.95c-6.39-1.85-14.85-1.97-20.88-0.72c-1.81-0.97-2.55-3.06-1.68-5.52
				c2.54-3.21,6.24-1.06,10.32,0.24C162.32,196.79,166.29,197.12,168.78,200.95z"/>
			<path class="st1" d="M171.18,202.87c-4.96,1.99-13.25,6.03-19.92,6.24c-3.04,0.09-3.93-1.83-5.04-3.84
				c1.4-3.26,4.43-3.86,8.88-4.08C160.28,200.94,166.79,202.25,171.18,202.87z"/>
			<path class="st2" d="M276.55,432.74c1.16-0.29,2.33-0.59,3.49-0.89c0.03,0.32,0.06,0.63,0.1,0.94
				C279.06,432.66,277.53,432.98,276.55,432.74z"/>
			<path class="st2" d="M258.06,253.99c-0.3,1.03,1,2.52,1.2,3.84C259.66,256.71,258.53,255.04,258.06,253.99z M255.18,235.03
				c-0.52,0.04-0.76-0.2-0.72-0.72c-0.69,0.56,0.45,1.29,0.24,2.16C255.05,236.17,255.16,235.64,255.18,235.03z M253.98,240.31
				c0.42,2.46,1.34,4.43,1.68,6.96C256.15,244.86,256.06,240.96,253.98,240.31z M253.5,239.59c0.69-3.01-0.44-6.27-1.2-8.64
				C252.08,233.5,253.37,236.6,253.5,239.59z M257.1,256.63c-4.27-8.43-5.74-19.2-6.83-30.36l1.28-0.12
				c0.11,1.61,0.61,3.16,1.23,4.08c0.3-0.97,0.38-1.99,0.33-3.02l0.84-0.01c0.03,1.52,0.3,3.07,0.51,3.51
				c0.05-0.48,0.08-0.9,0.09-1.29l0.84,0.02c0,0.33,0.11,0.77,0.03,1.03c0.27-0.14,0.41-0.41,0.46-0.77l1.22,0.27
				c-0.14,0.67-0.28,1.33-0.24,2.18c0.36-0.65,0.62-1.38,0.86-2.15l0.27,0.08c-0.53,1.6-0.94,3.18-1.13,4.71
				c-0.28,2.31,0.57,3.47,1.2,5.28c0.72-1.29,1.3-4.48-0.24-5.28c0.7-2.46,1.81-3.23,1.44-6.48c0.32-1.14,1.25-0.62,1.68-0.72
				l0.85,0.36c-0.24,0.64-0.45,1.32-0.61,2.04c0.23-0.33,0.44-0.68,0.64-1.05l0.67,0.39c-0.84,1.41-1.53,2.98-1.31,5.46h-0.72
				c-0.47,0.8-0.53,4.1-0.72,6c0.24-0.24,0.4-0.56,0.51-0.93l1.95,0.42c-0.02,0.09-0.04,0.18-0.06,0.27
				c-1.21,6.07-1.14,15.39-0.24,21.84C259.33,261.8,258.27,258.93,257.1,256.63z"/>
			<path class="st2" d="M242.7,367.99c-1.7-2.43-4.32-4.07-3.84-7.68l2.11-0.49c0.42,1.09,0.91,2.13,1.49,3.13
				c8.59,12.21,23.48,18.12,30.96,31.44c0,2.65,1.84,4.96,2.64,7.92c0.84,3.06,1.36,6.3,1.92,9.84c1.04,6.47,1.36,13.43,2.06,19.7
				c-1.16,0.3-2.33,0.6-3.49,0.89c-0.31-0.08-0.56-0.21-0.73-0.43c-1.37-2.66,0.22-2.68,0.48-4.8c0.33-2.64-0.48-5.96-0.72-8.88
				c-0.7-8.77-2.27-17.6-5.52-23.52c-1.26-2.31-3.04-3.66-4.8-5.52c-5.96-6.33-14.14-9.07-19.44-15.84
				C244.67,372.27,244.04,369.88,242.7,367.99z"/>
			<path class="st2" d="M238.86,360.31c-5.69-9.82-5.01-23.58-4.8-36.96c0.09-5.53-0.24-11.17-0.24-16.8
				c0-11.38,1.9-22.66,2.64-32.88c0.77-10.58-0.61-21.78,1.44-30.48c1-4.22,3.75-7.09,6-10.32c0.45-0.65,0.88-1.31,1.28-1.97
				l0.66,0.43c-1.65,2.81-3.3,5.98-3.86,8.5c-0.48,2.19-0.43,4.97-0.96,7.68c-2.2,11.44-1.37,28.66-1.44,41.76
				c-0.03,6.97-1.25,13.93-1.68,20.64c-0.43,6.93-1.42,13.69-1.44,20.4c0,4.1,0.96,8.46,1.44,12.72c0.76,6.61,1.25,12.1,3.07,16.79
				L238.86,360.31z"/>
			<path class="st2" d="M195.18,380.71c0.38,3.49-2.84,8.22-5.28,8.64c0.22-1.96,2.37-2.45,2.64-4.56c0.65-4.87-3.77-7.3-8.16-8.64
				c1.33-2.96,6.13-0.05,8.64,0.24C193.33,378.09,194.98,378.83,195.18,380.71z"/>
			<path class="st2" d="M291.18,97.03c-0.67,1.08,0.04,2.84,0,4.08C292.35,100.28,291.24,98.17,291.18,97.03z M289.74,138.31
				c0.26-2.58,0.77-3.43,1.2-5.76C290.24,133.48,288.88,139.35,289.74,138.31z M289.5,76.39c1.49,2.35,1.83,5.85,2.64,8.88
				c0.24-2.88-0.46-6.9-2.16-8.64C289.98,76.4,289.69,76.44,289.5,76.39z M292.14,124.63c0.62-0.27,0.48-1.29,0.48-2.16
				C292.08,123.34,292.37,123.62,292.14,124.63z M291.9,117.43c0.24,0.33,0.4-0.1,0.72,0.48c-0.04,0.28-0.43,0.2-0.72,0.24
				c-0.04,0.2,0.1,0.23,0.24,0.24c0.24,0.01,0.19,0.29,0.24,0.48c0.83-2.74,0.96-4.69,1.2-7.92
				C292.03,113.25,293.24,115.71,291.9,117.43z M293.34,92.95c-1.46,0.13,0.18,0.98-0.24,2.16
				C293.55,95.69,293.27,93.53,293.34,92.95z M293.1,92.71c0.7-1.15-0.27-1.27-0.48-2.4C292.11,90.02,292.86,92.21,293.1,92.71z
				 M288.78,191.59c0.18,0.67-0.63,2.89,0.48,3.36C289.3,193.64,289.09,192.56,288.78,191.59z M289.02,85.03
				c-0.48,0.66,0.02,2.37,0.72,2.64C290.29,86.95,289.06,85.96,289.02,85.03z M289.74,199.03c-0.64,2.24-0.69,8.48-0.96,11.28
				C290.11,207.55,289.67,203.03,289.74,199.03z M287.59,115.93c0.27-0.84-0.19-1.36-0.01-3.54
				C286.78,112.84,287.59,115.42,287.59,115.93z M287.1,211.75c0.65-0.54,0.49-1.59,0-2.16C286.81,209.67,287.3,210.97,287.1,211.75
				z M286.62,83.59c0,1.53,0.82,4.3,1.2,6.24c0.57-2.17,0.32-4.23-0.24-6.72C286.75,82.93,287.23,84.89,286.62,83.59z M287.1,200.23
				c-0.81,2.34,0.43,4.69,0.48,6.96C288.24,205.01,287.17,202.48,287.1,200.23z M286.86,194.23c-0.73,0.52,0.23,1.35,0,2.16
				C287.51,196.72,286.68,194.97,286.86,194.23z M286.14,71.59c-0.1,2.53,1.78,6.94,2.88,9.84
				C288.77,78.41,287.33,74.49,286.14,71.59z M285.66,85.03c-0.25,2.42,1,5.41,1.44,7.92C287.69,90.2,285.95,87.7,285.66,85.03z
				 M285.66,127.51c0.51-1.15,1.2-3.22,0.72-4.56C285.6,124.04,286.26,125.67,285.66,127.51z M286.14,197.83
				c0.01-0.89-0.36-1.39-0.72-1.92C285.09,196.18,285.48,197.76,286.14,197.83z M285.9,120.31c0.42-0.71,0.51-1.73,0.48-2.88
				C285.8,118.27,286,118.75,285.9,120.31z M287.34,124.39c-1.41,2.86-1.28,7.45-1.92,10.56
				C286.67,132.76,287.95,127.92,287.34,124.39z M285.42,72.79c0.54-0.25-0.31-1.1,0-1.92C284.55,71.37,285.31,72.02,285.42,72.79z
				 M285.18,128.95c-0.35-0.15-0.48,1.74-0.24,2.4C285.49,131.02,285.03,129.68,285.18,128.95z M285.18,202.63
				c-0.72,1.7,0.24,4.79,0.96,6.96C287.01,207.04,285.82,204.47,285.18,202.63z M284.17,98.2c-0.03-0.46-0.06-1.44,0.05-2.85
				c-0.87,0.5-0.39,0.84-0.24,1.68C284.08,97.57,284.14,97.96,284.17,98.2z M284.2,98.51c0-0.01,0-0.05-0.01-0.1
				C284.19,98.47,284.19,98.5,284.2,98.51z M284.46,109.99c0.95-3.45,0.62-9.67,0.96-13.68C284.87,99.88,283.6,105.63,284.46,109.99
				z M284.46,172.39c-0.24,2.69-0.02,6.35,1.44,8.4C286,178.37,284.63,175.34,284.46,172.39z M284.22,178.63
				c-1.18,3.96,0.36,6.9,0.96,10.8c0.73-2.65-0.51-4.66-0.24-7.2c2.08,4.8,2.46,14.31,3.36,20.88c0.92-6.73-0.79-15.85-2.88-21.84
				c-0.34,0.05-0.08,0.72-0.48,0.72C284.36,180.81,284.72,180.03,284.22,178.63z M283.98,185.59c-0.87,2.05,1.14,4.58,1.2,7.2
				C285.8,190.33,284.19,188.02,283.98,185.59z M285.18,91.75c-0.44-2.51-1.48-4.43-2.4-6.48C282.76,87.29,283.53,90.6,285.18,91.75
				z M283.5,79.75c-0.52-0.04-0.1,0.85-0.24,1.2c0.28-0.04,0.43,0.05,0.48,0.24C284.43,80.87,283.56,80.12,283.5,79.75z
				 M282.78,133.03c0.54-0.33,0.94-3.11,0.48-4.56C282.68,129.57,283.31,131.88,282.78,133.03z M282.06,74.47
				c-0.39,0.88,0.52,2.52,0.96,3.36C283.88,76.48,282.08,75.74,282.06,74.47z M283.98,203.11c0.45-2.6-0.91-5.49-1.68-7.68
				C282.05,197.85,283.15,200.98,283.98,203.11z M283.26,154.39c-0.68,6.61-0.88,12.79-0.48,20.64
				C283.5,168.03,283.17,162.57,283.26,154.39z M282.54,186.55c0.54,4.16,1.27,7.41,2.16,10.08c0.89,2.63-0.02-1.84-0.24-2.88
				C283.87,190.89,283.01,189.49,282.54,186.55z M282.06,174.55c-0.69,0.47,0.09,1.5,0,2.16
				C282.8,176.19,281.83,175.36,282.06,174.55z M280.86,60.07c-0.17,1.78,1.11,4.17,2.64,5.04
				C282.62,63.43,281.54,61.96,280.86,60.07z M281.58,196.15c0.33,0.54-0.26-1.69-0.48-2.16
				C280.56,194.47,281.33,195.67,281.58,196.15z M281.82,107.59c-0.53,0.99-0.94,4.26,0.24,5.76
				C282.18,110.71,281.79,110.06,281.82,107.59z M281.34,148.63c0.58,0.09-0.13-1.09,0.72-0.72c-0.42-0.97,0.73-3.5,0-5.28
				C281.3,143.82,281.66,146.9,281.34,148.63z M281.82,121.27c-0.68,2-0.65,3.38-0.72,5.76
				C282.27,126.04,281.66,123.27,281.82,121.27z M281.58,185.83c-1.29,4.12,1.65,7.67,2.4,11.76
				C283.89,193.92,282.02,189.96,281.58,185.83z M279.66,72.55c0.86-2-1.2-3.27-1.92-5.04C277.6,69.02,279.2,70.85,279.66,72.55z
				 M280.14,127.27c0.75-4.02,1.24-8.05,1.2-12C280.46,119.28,280.15,122.7,280.14,127.27z M280.38,162.07
				c-0.5-1.64-0.02,2.96-0.24,3.36C280.99,164.68,280.13,163.55,280.38,162.07z M281.58,148.87c-1.08,2.29-1.19,7.05-0.48,10.56
				c0.73-3.04,0.58-6.94,1.2-10.08C281.56,149.56,281.59,150.16,281.58,148.87z M279.18,178.87c-0.99,2.06,0.69,5.53,1.2,7.68
				c0.56-0.96,0.09-2.96,0.24-4.32c-0.55,0.08-0.92-0.04-1.2-0.24C279.56,180.73,279,180.17,279.18,178.87z M279.42,135.91
				c-0.75,0.39,0.5,0.76,0.48,1.2c0.33-0.16,0.45-0.51,0.48-0.96c-0.19,0.05-0.24,0.24-0.48,0.24
				C279.69,136.28,279.47,136.18,279.42,135.91z M278.7,187.27c-0.14,0.95,0.4,3.28,1.44,3.84
				C280.49,189.96,279.02,188.56,278.7,187.27z M279.9,132.79c1.43-0.89,0.95-3.99,0.24-5.28
				C279.71,129.15,279.83,131.24,279.9,132.79z M277.98,73.27c-0.34,1.07,1.22,2.3,1.44,3.6C279.7,75.87,278.47,74.31,277.98,73.27z
				 M278.7,117.43c0.63-1.49,0.12-2.62,0.24-4.56C278.66,113.12,278.13,116.3,278.7,117.43z M280.14,198.07
				c0.43-0.68-1.09-1.45-1.2-2.4C277.92,196.24,279.93,197.22,280.14,198.07z M278.94,91.99c0.36-1.71-0.48-2.23-0.72-3.36
				c-0.56,0.81,0.33,2.23,0.48,3.12C278.51,92.57,279.06,93.12,278.94,91.99z M277.98,136.39c-0.39,0.56-1.02,3.19,0,3.6
				C277.54,139.19,278.24,137.78,277.98,136.39z M278.46,167.59c-0.5,3.61-1.19,6.75-0.24,10.08
				C278.79,174.95,278.64,170.78,278.46,167.59z M276.78,168.31c0.5-0.62,0.51-1.73,0.48-2.88
				C276.77,166.05,276.75,167.16,276.78,168.31z M277.5,84.79c-0.99,2.6,2.06,3.22,2.64,5.04C280.77,88.53,278.04,86.51,277.5,84.79
				z M276.78,79.99c-0.3,1.93,1.1,4.14,2.64,5.52C278.61,83.61,277.66,81.83,276.78,79.99z M276.78,101.11
				c-0.92,1.05-0.57,4.64,0,5.76C277.51,105.18,276.61,103.04,276.78,101.11z M276.78,73.75c0.46,3.06,2.17,6.96,3.6,9.84
				C280.22,80.23,278.02,76.83,276.78,73.75z M277.02,187.27c-0.98,0.91,0.14,1.95,0.48,2.88
				C278.11,189.37,277.13,188.14,277.02,187.27z M277.26,158.47c-0.91,0.13-0.35,1.72-0.96,2.16
				C276.73,160.96,277.02,159.12,277.26,158.47z M277.5,193.51c-0.78,0.42-0.57,1.83-0.96,2.64c0.51-0.3,0.91-0.7,1.2-1.2
				C277.92,194.22,277.5,194.07,277.5,193.51z M276.3,189.43c-0.78,0.64,0.41,1.34,0.48,1.92
				C277.57,190.7,276.13,190.26,276.3,189.43z M276.3,86.47c-0.96,0.63,0.48,2.39,0.48,3.59C277.26,89.16,276.26,87.72,276.3,86.47z
				 M275.34,172.87c0.53,0.28,0.93-1.52,0.48-2.4C275.2,170.8,275.94,172.51,275.34,172.87z M276.78,77.83
				c0.39-1.04-0.89-2.46-0.96-3.84C275.28,75.18,276.13,77.04,276.78,77.83z M276.3,131.35c-0.31-0.22-0.39,1.84-0.48,2.64
				C276.83,133.96,276.06,132.15,276.3,131.35z M276.06,176.23c-0.52,1.04-0.91,3.33-0.72,4.32
				C276.2,179.72,276.06,177.91,276.06,176.23z M275.34,158.95c0.39-1.13,0.49-2.55,0.48-4.08
				C275.29,155.76,274.71,157.67,275.34,158.95z M275.58,139.99c0.6-1.06,0.2-1.74,0.24-3.12
				C274.89,136.99,275.36,139.47,275.58,139.99z M275.58,119.35c-0.96,3.13-0.76,7.4-0.48,10.56
				C276.71,127.08,275.96,122.51,275.58,119.35z M274.62,153.19c0.87,0.3,0.78-2.42,1.2-3.36
				C274.4,149.93,275.23,152.27,274.62,153.19z M276.06,202.63c-0.51,1.25-1.02,2.87-1.44,4.8
				C275.41,206.13,275.8,204.44,276.06,202.63z M274.62,75.91c-0.67,0.46,0.05,1.54,0.24,1.92
				C275.54,77.37,274.53,76.58,274.62,75.91z M275.1,182.95c-0.94-0.15-0.28,1.32-0.48,1.92
				C275.04,184.49,275.14,183.79,275.1,182.95z M274.62,102.31c-0.45,1.82-0.62,4.08,0,5.76
				C275.12,106.61,274.89,103.8,274.62,102.31z M274.86,85.03c-0.72,0.33-0.21,1.45,0,2.16C275.58,86.69,274.54,85.93,274.86,85.03z
				 M274.86,115.99c-0.72,1.29-0.27,2.3-0.24,3.84c-0.06,0.43,0.23,0.49,0.24,0.24c0-0.24,0-0.48,0-0.72
				C275.31,118.12,275.26,117.28,274.86,115.99z M274.14,108.55c-0.84,0.16,0.36,2.12,0.48,2.88
				C275.38,110.5,274.02,109.64,274.14,108.55z M280.14,60.79c-1.02-4.26-4.38-6.18-6.48-9.36C275.21,54.2,277.52,58.3,280.14,60.79
				z M274.14,161.83c-0.33-0.4,0.29,2.52-0.24,2.64C274.75,164.97,274.75,162.37,274.14,161.83z M274.62,133.27
				c-1.01,1.06-0.28,3.76-0.24,5.28C275.18,136.79,274.67,134.98,274.62,133.27z M276.3,205.51c-0.93,2.27-1.23,5.16-2.16,7.44
				C275.38,211.95,275.89,208.14,276.3,205.51z M273.66,126.31c1.13-2.21,0.47-5.24,0.48-8.16
				C272.91,119.98,273.52,123.8,273.66,126.31z M275.82,190.87c-1.42,2.43-1.38,4.18-2.16,7.68c0.9-0.66,1-2.56,1.68-4.08
				C276.04,192.94,277.24,192.44,275.82,190.87z M273.9,68.47c-0.58,0.76,0.65,1.75,0.72,2.64C275.04,70.53,274.04,69.3,273.9,68.47
				z M273.42,117.91c1.17-1.84-0.12-4.64,0.24-7.2C272.31,112.72,274.02,115.85,273.42,117.91z M274.62,198.55
				c-1.02,1.37-1.68,3.11-1.92,5.28C273.6,202.32,274.05,200.37,274.62,198.55z M276.3,197.59c-1.34,3.45-3.28,6.31-3.84,10.56
				c0.52-0.45,0.53-1.39,1.68-1.2C274.51,203.61,276.75,200.96,276.3,197.59z M272.22,105.19c-0.64,0.89-0.01,2.57,0,3.6
				C272.73,108.04,272.47,105.99,272.22,105.19z M272.94,186.55c-1.1,0.66-0.82,2.69-1.44,3.84
				C272.31,189.44,272.53,187.9,272.94,186.55z M271.98,101.83c-0.93,0.39,0.43,2.38,0.48,3.36c0.55-0.49,0.09-1.99,0.24-2.88
				C272.51,102.1,272.05,102.17,271.98,101.83z M271.26,169.51c0.85-1.55,0.94-3.86,1.44-5.76
				C271.89,165.34,271.42,167.27,271.26,169.51z M271.5,77.35c-0.48,1.69,0.93,3.55,1.2,5.28C272.98,80.63,272.46,78.84,271.5,77.35
				z M271.74,135.67c0.55-0.94-0.08-2.1,0-2.88C271.12,133.43,271.7,134.91,271.74,135.67z M272.22,124.63
				c-0.55,2.59,0.08,7.02,0.72,10.32C273.17,131.94,272.9,126.83,272.22,124.63z M270.78,56.23c-0.39,0.72,0.11,2.6,1.2,2.64
				C272.04,57.53,270.95,57.35,270.78,56.23z M273.18,189.91c-1.46,0.46-2.44,4.76-2.4,6.72
				C272.02,194.89,273.12,192.05,273.18,189.91z M272.22,215.83c-0.72,1.12-0.82,2.85-1.68,3.84
				C271.2,219.57,273.19,216.83,272.22,215.83z M271.02,73.51c-0.46,0.48,0.46,1.61,0.72,2.16
				C272.11,75.29,271.42,73.93,271.02,73.51z M270.78,161.83c0.55-1.61,0.68-3.65,0.96-5.52
				C270.86,157.59,270.78,159.66,270.78,161.83z M271.26,127.27c-0.49,0.06-0.06,1.05-0.48,1.2c0.16,0.4,0.26,2.89,0.48,1.68
				C271.26,129.19,271.26,128.23,271.26,127.27z M271.02,200.95c0.5-1.99,1.48-3.49,1.92-5.52
				C272.08,196.75,270.76,200.09,271.02,200.95z M271.26,162.79c1.89-2.25,1.98-6.54,1.68-9.12
				C271.9,156.74,272.08,159.79,271.26,162.79z M270.3,171.19c-0.61,1.16,0.13,1.64,0,2.88C270.84,173.51,270.5,171.81,270.3,171.19
				z M270.3,87.91c-0.26-0.53,0.18,1.64,0.48,3.12c0.44,2.15,1.18,3.77,1.44,6.24C272.89,93.8,271.58,90.23,270.3,87.91z
				 M271.5,107.35c0.26-0.16,0.29-4.08-0.72-4.56C270.64,104.69,271.47,105.63,271.5,107.35z M269.82,189.43
				c0.55-0.41,0.57-1.35,0.72-2.16C270.05,187.74,269.83,188.47,269.82,189.43z M270.54,93.67c-0.41,1.77-0.18,5.37,1.44,6.48
				C271.82,98.18,271.17,95.84,270.54,93.67z M269.82,139.27c-0.34,0.05-0.08,0.72-0.48,0.72c0.11,2.21-0.01,3.32,0,5.76
				c0,0.56,0,1.12,0,1.68c0.05,0.27,0.24,0.13,0.24,0c0-0.24,0-0.48,0-0.72c0-1.04,0-2.08,0-3.12
				C270.09,142.47,270.24,140.63,269.82,139.27z M269.82,130.63c-0.66,0.31-0.48,1.3-0.24,1.92
				C270.12,132.37,269.68,131.2,269.82,130.63z M268.62,220.39c1.98-0.76,4.23-7.79,4.56-11.76c-1.74,1.13-1.44,4.31-1.92,6.72
				C269.45,216.1,269.86,219.07,268.62,220.39z M272.46,70.87c0.57-3.29-1.17-6.34-3.36-7.68
				C269.33,65.69,271.64,68.17,272.46,70.87z M269.1,214.87c0.54-0.26,0.43-1.18,0.96-1.44C269.58,212.81,269.09,214.2,269.1,214.87
				z M268.86,88.15c0.71-0.42-0.13-1.28,0-1.92C268.25,86.56,268.81,87.7,268.86,88.15z M269.58,216.07c-0.44,1-1.34,1.54-1.2,3.12
				C268.88,218.24,269.38,217.31,269.58,216.07z M268.38,223.75c0.5,0.17,1.09-1.63,1.68-2.16
				C269.16,221.01,268.87,223.1,268.38,223.75z M271.5,187.75c-1.13,3.11-1.99,6.48-3.12,9.6
				C269.88,194.6,270.8,191.28,271.5,187.75z M267.42,47.11c-0.62,0.87,1.1,1.46,1.2,2.4C269.08,48.8,267.69,47.9,267.42,47.11z
				 M268.38,141.67c-0.63,0.46-0.3,2.15-0.48,2.4C268.58,144.73,268.36,142.46,268.38,141.67z M267.9,213.19
				c1.17-1.54,1.71-3.14,1.92-4.56c0.19-1.28-0.72,0.93-0.96,1.44C268.43,211.01,267.94,212.07,267.9,213.19z M267.66,140.71
				c0.57-0.7,0.64-2.42,0.24-3.36C267.11,138.28,267.72,139.32,267.66,140.71z M267.9,149.59c-0.63,2.12,0.12,4.38,0.24,6.48
				c1.25-1.55,1.06-4.25,0.72-6.48C268.39,149.99,268.56,149.57,267.9,149.59z M268.86,70.63c0.41-0.97-0.88-2.31-0.96-3.6
				C267.36,68.14,268.73,69.39,268.86,70.63z M267.66,132.31c1.04-1.74-0.27-2.81-0.24-4.56
				C266.6,129.22,267.98,130.55,267.66,132.31z M266.7,104.23c-0.96,4.17-0.14,10.87,0.24,15.6
				C267.39,115.42,268.11,108.18,266.7,104.23z M267.66,157.03c0.17-1.21-0.4-1.67-0.24-2.88
				C267.2,153.63,266.73,157.15,267.66,157.03z M265.74,217.99c0.74-1.07,2.06-2.68,1.68-4.08
				C266.51,214.92,266.14,216.46,265.74,217.99z M267.18,78.55C266.67,76.06,265.62,77.11,267.18,78.55L267.18,78.55z
				 M266.94,201.67c-0.76,1-0.98,2.54-1.44,3.84C266.34,204.58,266.56,203.04,266.94,201.67z M265.5,149.83
				c0.55-0.49,0.09-1.99,0.24-2.88C264.65,147.47,265.58,149.28,265.5,149.83z M267.9,56.95c0.37-1.25-1.46-2.37-1.92-3.6
				C265.92,54.3,267.6,55.57,267.9,56.95z M265.5,114.55c0.74-0.91-0.29-2.09,0-3.36C265.06,110.95,265.2,113.96,265.5,114.55z
				 M264.78,228.79c1.61-1.04,2.66-4.7,3.84-6.96C266.49,223.29,266.34,226.74,264.78,228.79z M265.5,181.27
				c-0.73,0.13-0.87,1.8-0.24,1.92C265.81,183.01,265.36,181.84,265.5,181.27z M266.46,90.79c0.19-2.91-1.25-4.18-1.92-6.24
				c0,1.85,1.38,4.38,1.92,6.48C266.32,92.21,267.17,90.78,266.46,90.79z M265.5,221.83c1.02-0.91,2.31-3.61,2.64-6
				C267.08,217.64,266.45,219.9,265.5,221.83z M264.78,152.71c-0.45,0.08-0.3,1.89-0.24,2.88
				C265.09,155.1,264.63,153.6,264.78,152.71z M266.94,191.83c-1.2,2.07-1.77,4.79-2.88,6.96
				C265.07,197.59,266.92,194.02,266.94,191.83z M264.54,174.79c0.73,0.4,1.55-1.17,1.68-2.16
				C265.12,172.81,265.14,174.1,264.54,174.79z M264.3,100.39c-0.02,1.04-0.17,5.14,0.96,6.48
				C264.58,105.07,264.92,102.25,264.3,100.39z M267.42,220.15c-1.51,2.24-2.63,4.89-3.12,8.16
				C265.48,225.82,267.63,223.24,267.42,220.15z M265.02,207.43c-0.56,0.63-0.79,1.61-0.96,2.64
				C264.69,209.5,264.66,208.27,265.02,207.43z M263.34,42.07c0.17,1.12,1.68,2.96,3.12,3.6C266.75,44.1,264.19,43.3,263.34,42.07z
				 M263.58,61.03c-0.04,1.57,1.71,3.42,2.4,5.04C266,64.53,264.42,62.51,263.58,61.03z M268.14,54.31
				c-0.11-3.17-3.15-5.49-5.28-7.44C263.53,49.49,266.69,51.68,268.14,54.31z M262.86,173.35c1.85-1.99,2.8-4.89,3.12-8.4
				C264.02,167.17,263.96,170.77,262.86,173.35z M263.1,108.07c0.43-1.07-0.26-3.09-0.24-4.56
				C262.21,104.81,262.91,106.82,263.1,108.07z M265.98,85.75c-0.12-4.28-1.66-9.22-3.6-12.48
				C261.66,77.49,264.67,81.5,265.98,85.75z M262.62,179.83c0.41,0.47,1.34-0.57,1.92-0.72
				C263.88,178.39,262.9,179.37,262.62,179.83z M262.62,44.47c0.71,1.29,1.43,2.57,2.88,3.12
				C264.52,46.57,264.14,44.95,262.62,44.47z M261.66,68.23c-0.41,1.77,0.63,4.17,1.44,5.52C263.14,72.35,262.34,69.72,261.66,68.23
				z M262.86,150.31c0.28,0.33,0.49-1.42,0.48-2.16C263.05,147.79,262.97,149.68,262.86,150.31z M261.66,129.67
				c0.29,0.6-0.11,1.87,0.72,1.92C262.1,130.99,262.5,129.72,261.66,129.67z M262.38,160.63c1.43-0.58,1.61-4.48,1.44-7.44
				c-0.52-0.04-0.1,0.85-0.24,1.2C262.91,156.19,263.04,158.8,262.38,160.63z M261.42,218.95c0.03,0.79,0.85-2.46,1.2-3.6
				c0.5-1.61,1.08-3.43,1.44-4.56c-0.13-1.19-0.12,0.25-0.48,0.24C262.8,214.14,262.04,215.81,261.42,218.95z M260.94,48.31
				c-0.16,0.81,1.23,2.13,1.92,2.88C263.04,51.26,261.91,48.68,260.94,48.31z M261.66,119.59c-1.28,1.07,0.46,2.76,0.24,4.32
				C262.46,122.78,262.11,120.51,261.66,119.59z M261.42,123.67c-0.58,1.63,0.39,3.77,0.24,5.76
				C263.33,128.02,261.43,125.62,261.42,123.67z M261.42,213.19c2.07-5.45,3.79-11.25,5.04-17.52
				C264.07,201.06,260.95,205.51,261.42,213.19z M260.7,118.63c1.62-0.98-0.2-3.88,0-5.76C259.36,114.63,261.47,116.34,260.7,118.63
				z M261.42,202.87c-0.62,1.02-1.89,2.53-1.44,3.84C261.02,205.99,261.14,204.34,261.42,202.87z M259.98,134.47
				c-0.19,1.63,0.17,3.73,0.96,4.8C261.1,137.19,260.46,135.91,259.98,134.47z M260.7,157.99c-0.95,1.26-0.64,2.66-0.72,5.04
				C260.85,161.98,260.33,159.54,260.7,157.99z M261.18,133.75c0.32-2.62-0.89-5.2-0.96-8.64
				C259.87,128.16,260.54,131.29,261.18,133.75z M259.26,204.07c1.7-5.03,5.32-9.39,6-14.64
				C263.21,193.94,260.06,199.9,259.26,204.07z M259.98,58.39c-0.16,0.65,0.9,2.14,1.2,3.12C261.77,60.43,260.42,59.24,259.98,58.39
				z M261.9,42.79c-1.17-1.15-1.56-3.08-3.36-3.6C258.86,40.24,260.64,41.89,261.9,42.79z M259.74,50.47
				c-0.44,0.46,0.89,1.18,1.2,1.68C261.54,51.54,259.97,51.06,259.74,50.47z M258.3,227.11c0.77,0.28,0.76-2.27,1.44-2.88
				C258.77,223.74,259.02,226.54,258.3,227.11z M260.7,211.99c-1.03,3.77-1.62,7.98-2.64,11.76
				C259.61,220.49,260.23,216.31,260.7,211.99z M258.3,49.03c-1.04,0.07,0.57,1.04,0.72,1.44C259.86,49.85,258.16,49.75,258.3,49.03
				z M259.98,179.59c-1.07,0.33-1.48-0.09-2.16,0.72c1.66-0.03,4.39-1.06,4.56-3.36C261.05,177.3,260.37,178.29,259.98,179.59z
				 M257.58,214.39c0.79-1.77,1.43-3.69,1.92-5.76C258.47,210.16,257.76,212.01,257.58,214.39z M257.34,59.59
				c0.12,1.89,2.11,3.97,3.36,5.52C260.91,62.9,258.67,61.07,257.34,59.59z M260.68,183.43c-0.6-0.25-1.87,0.83-2.86,0.96
				C258.74,184.97,259.76,183.65,260.68,183.43z M257.1,90.31c-0.87,0.26-0.1,2.74,0.96,2.64C258.17,91.64,257.46,91.16,257.1,90.31
				z M256.86,43.03c-0.12,1.01,2,1.84,2.64,2.88C259.85,44.67,257.76,43.81,256.86,43.03z M256.14,84.07
				c-0.06,0.71,0.9,2.46,1.44,3.36C258.03,86.33,256.48,85.18,256.14,84.07z M256.14,183.91c0.46,0.67,1.26-0.33,1.92-0.24
				C257.6,183,256.81,184,256.14,183.91z M256.62,93.67c-0.55,0.5-0.23,2.14,0.24,2.4C257.56,95.44,256.33,94.7,256.62,93.67z
				 M257.58,222.31c-0.74,1.23-1.22,2.98-0.96,4.56C257.13,225.53,257.35,223.92,257.58,222.31z M256.62,222.07
				c0.86-2.34,1.72-4.68,1.92-7.68C257.85,216.89,256.66,218.9,256.62,222.07z M255.66,100.15c0.97-0.46,0.51-1.06,0.24-1.92
				C255.36,98.41,255.81,99.58,255.66,100.15z M258.54,59.35c-0.35-1.01-1.73-3.07-3.12-3.84C255.84,57.42,257.5,58.08,258.54,59.35
				z M255.9,88.87c0.25-0.16,0.25-0.55,0.72-0.48c-0.03-1.08-0.84-1.4-0.96-2.4C254.6,86.31,256.14,87.82,255.9,88.87z
				 M254.96,35.91c0.22,0.98,2.33,1.95,2.86,3.28c0.21-0.13,0.35-0.6,0.46-0.32c-0.18-1.01-2.3-1.98-2.86-3.28
				C255.22,35.72,255.08,36.19,254.96,35.91z M256.14,215.35c-0.85,2-1.3,3.03-1.2,5.76C255.78,219.63,255.59,217.11,256.14,215.35z
				 M255.18,124.15c0.43-0.45,0.79-0.97,0.72-1.92C255.28,122.48,255.12,123.2,255.18,124.15z M257.82,169.99
				c-1.07,1.01-1.61,2.55-2.4,3.84C256.3,173.59,257.4,171.49,257.82,169.99z M255.42,79.03c-0.77,1.12,1.73,5.18,0.96,2.16
				C256.25,80.64,255.85,80.12,255.42,79.03z M254.46,104.23c0.68-0.3,0.8-0.98,0.48-1.68C254.58,102.94,253.97,103.7,254.46,104.23
				z M255.66,212.47c-0.67,0.85-1.08,1.95-1.2,3.36C255.12,214.97,255.41,213.73,255.66,212.47z M253.98,213.91
				c1.72-4.61,3.84-8.81,4.8-14.16C256.01,203.63,253.92,208.42,253.98,213.91z M254.22,109.51c0.71-0.58,1-1.57,1.2-2.64
				C254.87,107.6,254.45,108.45,254.22,109.51z M254.22,66.07c-0.58,0.52,0.51,1.4,0.48,2.16C255.43,67.57,254.53,66.5,254.22,66.07
				z M252.78,75.19c-0.58,0.76,0.91,1.48,0.72,2.64C254.31,76.85,253.13,75.81,252.78,75.19z M255.9,45.43
				c-0.17-0.11-1.69-2.92-3.12-3.36C253.67,43.35,254.64,44.53,255.9,45.43z M256.38,41.83c0.09-2.01-2.73-3.18-4.08-4.56
				C252.43,39.07,254.66,40.83,256.38,41.83z M258.78,175.99c-3.42,0.74-4.04,4.27-6.48,6C255.03,181.51,257.5,178.71,258.78,175.99
				z M252.06,219.91c0.55-1.61,1.19-3.14,0.96-5.52C252.49,215.8,252.4,217.76,252.06,219.91z M258.78,171.19
				c-2.23,1.92-3.23,5.09-5.04,7.44C255.57,177.25,257.73,174.14,258.78,171.19z M252.54,91.75c-0.73,0.75,0.21,1.86,0,2.88
				c0.36-0.34,0.76-0.18,0.72,0.48C253.8,94.16,252.6,92.9,252.54,91.75z M253.74,107.59c-1.16,1.47-1.54,3.74-2.4,5.52
				C252.18,112.26,253.18,109.51,253.74,107.59z M254.46,111.91c-0.9,1.98-1.96,3.8-2.64,6
				C252.88,116.08,254.16,114.49,254.46,111.91z M250.86,49.99c-0.31,1.2,1.27,2.57,2.4,3.12
				C253.68,51.81,251.47,51.07,250.86,49.99z M251.1,116.95c-0.29,1.33,1-1.26,0.96-1.2c0.73-1.37,0.91-2.75,1.92-3.84
				C252.33,113.25,251.43,115.48,251.1,116.95z M252.3,70.15c0.42-0.66-0.59-1.96-1.2-2.4C250.55,68.55,252.08,69.33,252.3,70.15z
				 M250.62,77.35c-0.28-0.04-0.42,0.05-0.48,0.24c1.78,4.62,1.79,11.02,4.56,14.64C254.02,86.59,252,82.29,250.62,77.35z
				 M253.26,176.71c-0.98,0.78-1.29,2.22-1.92,3.36C252.09,180.01,252.58,177.63,253.26,176.71z M250.14,61.51
				c-0.43-0.07-0.49,0.23-0.24,0.24c0.97,2.71,2.36,5.01,4.08,6.96C252.99,66.02,252.17,63.16,250.14,61.51z M250.86,182.23
				c-0.34,0.38-1.25,0.19-1.2,0.96C250.48,183.29,251.03,183.12,250.86,182.23z M250.14,89.83c-0.54,2.22,0.4,5.04,0.48,7.44
				C251.39,94.82,250.19,92.27,250.14,89.83z M253.26,124.87c-1.49,0.9-1.86,2.93-3.36,3.84c1.02,0.13,2.3-1.54,3.36-2.16
				C253.26,125.99,253.26,125.43,253.26,124.87z M250.14,65.59c-0.37-0.75-0.71-1.53-1.2-2.16
				C248.67,63.88,249.07,65.7,250.14,65.59z M247.98,182.23c1.01,0.52,2.29-0.75,3.12-1.2c0.1-0.58-1.09,0.13-0.72-0.72
				C249.41,180.77,249.16,181.96,247.98,182.23z M248.22,53.11c-0.4,0.34,0.59,1.32,0.72,1.92
				C249.79,54.25,248.41,53.66,248.22,53.11z M249.42,130.63c-0.79-0.54-1.54,1-2.16,1.44
				C247.96,132.52,248.41,130.67,249.42,130.63z M248.22,184.87c-0.19-0.19-1.47-0.25-1.44,0.48
				C247.28,185.2,248.45,185.74,248.22,184.87z M246.78,130.39c1.79,0.42,2.57-2.23,3.84-3.12
				C249.36,127.37,247.68,129.12,246.78,130.39z M248.22,115.99c-0.55,1.22-1.45,4.07-0.72,3.36c0.83-2.21,1.94-4.15,2.88-6.24
				C250.08,112.69,248.85,114.6,248.22,115.99z M242.7,31.75c1.27,2.25,3.26,3.78,5.04,5.52c0.74-0.23,1.11-1.06,1.55-0.3
				C248.28,34.82,245.55,32.66,242.7,31.75z M246.3,76.39c0.24,0.8,0.77,1.32,0.96,2.16C247.7,78.02,247.19,76.4,246.3,76.39z
				 M245.58,114.31c2.56-2.17,3.38-8.15,5.04-12c-1.05-0.25-1.54,2.13-1.44,3.84C247.28,108.17,246.88,111.68,245.58,114.31z
				 M246.54,38.47c-0.34,0.73,0.6,1.46,1.2,2.16c2.03,2.33,4.81,6.04,7.44,7.68C253.2,45.1,249.38,41.63,246.54,38.47z
				 M246.3,132.55c-1.36-0.79-1.48,1.71-2.4,2.16C244.73,134.97,245.29,132.9,246.3,132.55z M242.7,37.51
				c0.81,1.43,3.52,3.04,4.8,4.8C246.61,40.96,245.2,38.05,242.7,37.51z M244.14,123.67c-0.15,0.88-0.46,1.61-0.48,2.64
				c0.46-0.83,1.08-1.49,1.2-2.64C244.62,123.67,244.38,123.67,244.14,123.67z M243.42,121.51c1.74-1.47,2.02-4.38,3.12-6.48
				c-0.96-0.39-1.33,1.97-1.92,3.6C244.24,119.7,243.67,120.76,243.42,121.51z M243.18,118.39
				C244.7,117.4,244.43,115.56,243.18,118.39L243.18,118.39z M247.98,84.79c0.21-4.13-2.15-7.76-4.56-10.08
				C244.28,77.78,247.11,80.95,247.98,84.79z M242.46,43.75c2.09,2.47,5.37,5.84,8.4,8.16C249.93,48.29,245.26,46.32,242.46,43.75z
				 M248.94,117.67c-3.45,6.3-6.95,12.57-8.64,20.64c0.72-1.85,2.2-3.15,2.88-5.04c0.27-0.74-0.02-1.85,0.24-2.64
				C244.79,126.46,248,122.71,248.94,117.67z M241.26,39.19c1.93,1.32-0.65-0.91-1.68-1.92C239.29,38.2,241.05,39.05,241.26,39.19z
				 M239.58,48.55c-0.33-0.71-1.1-0.97-1.44-1.68C237.68,47.43,238.88,48.37,239.58,48.55z M238.14,45.67
				c2.52,3.41,7.11,6.82,10.56,10.08C246.92,50.65,242.69,48,238.14,45.67z M239.1,33.19c-0.48,0.93,1.58,3.36,3.84,3.12
				C241.94,35,240.26,34.35,239.1,33.19z M238.38,144.07c1.28-1.2,2.05-2.92,3.12-4.32c-1.52-0.56-1.02,2.97-2.88,2.88
				C238.8,143.36,238.38,143.5,238.38,144.07z M242.7,119.59c-1.77,1.82-2.61,4.59-3.12,7.68
				C240.51,124.76,241.94,121.46,242.7,119.59z M236.7,29.83c0.55,0.9,1.33,1.55,2.64,1.68c-0.42-0.51-0.54-0.71-0.24-1.44
				c-0.48,0.08-0.75-0.05-0.72-0.48C237.82,29.67,237.48,29.97,236.7,29.83z M239.34,132.31c-0.76,1.56-1.61,3.02-1.44,5.52
				C238.57,136.18,239.04,134.32,239.34,132.31z M237.42,42.31c-0.59,0.2-1.28,0.31-2.16,0.24c1.52,2.08,4.33,2.88,6.48,4.32
				C240.49,45.16,238.66,44.04,237.42,42.31z M239.34,138.31c0.65-1.52,1.99-4.62,1.44-5.76
				C239.28,133.45,239.95,136.51,239.34,138.31z M235.26,34.39c-0.62,0.72,1.05,1.18,1.2,1.92
				C237.32,35.36,235.9,34.64,235.26,34.39z M235.74,133.75c-0.93,2.39-0.87,5.99-0.24,8.16
				C236.28,139.36,235.62,136.83,235.74,133.75z M237.42,128.71c-0.62,0.83-1.52,3.37-0.48,4.32
				C237.4,131.8,237.92,130.2,237.42,128.71z M233.1,30.79c0.66,1.1,1.65,1.87,2.88,2.4C235,32.41,234.91,30.74,233.1,30.79z
				 M231.66,43.75c-1.05,0.31,1.1,1.21,1.2,1.92C233.44,45,231.7,44.61,231.66,43.75z M230.22,46.15
				c2.73,4.88,6.53,8.67,10.56,12.24C237.98,54.55,234.22,49.59,230.22,46.15z M231.9,54.55c1.51,1.94,3.71,3.17,5.28,5.04
				C236.43,57.86,233.75,55.99,231.9,54.55z M233.58,32.95c-0.39-0.48-0.64-1.12-1.44-1.2C232.4,32.38,232.83,32.82,233.58,32.95z
				 M232.14,63.19c0.66,1.34,3.19,2.89,5.04,3.84C235.6,65.66,233.79,64.5,232.14,63.19z M235.02,67.51
				c-0.98-0.85-2.1-1.57-3.36-2.16C232.66,66.2,233.51,67.18,235.02,67.51z M201.18,30.07c0.37,1.38,1.47,3.43,2.88,4.08
				C203.27,32.62,202.68,30.9,201.18,30.07z M202.14,35.35c-0.78,0.64,0.41,1.34,0.48,1.92C203.51,36.52,202.06,36.09,202.14,35.35z
				 M200.94,43.99c-0.57,0.59,0.72,1.35,0.72,2.16C202.2,45.6,201.07,44.68,200.94,43.99z M200.46,63.91
				c-0.5,1.23,1.5,2.02,2.16,2.88C202.78,65.91,200.79,65.11,200.46,63.91z M203.1,41.35c-0.48-1.28-1.73-1.78-2.4-2.88
				C200.53,39.45,202.24,40.61,203.1,41.35z M203.34,37.99c-0.2,1.56,1.72,3.08,2.64,4.32C205.95,40.99,204.27,39.23,203.34,37.99z
				 M198.78,32.95c-0.44,0.04-0.14,0.81-0.48,0.96c0.27,1.02,1.18,1.39,1.68,2.16C200.51,35.06,198.96,34.06,198.78,32.95z
				 M197.82,61.03c-0.81-2.22-2.74-5.41-3.12-8.88C194.6,54.9,195.76,59.04,197.82,61.03z M194.22,59.59
				c0.36-0.52-0.57-1.81-0.96-2.4C192.6,58.03,194.19,58.66,194.22,59.59z M193.02,32.95c0.59-0.53,1.16-1.09,1.2-2.16
				c-0.24,0-0.48,0-0.72,0C193.44,31.61,192.9,31.94,193.02,32.95z M193.5,36.55c1.63-0.93,1.89-3.24,2.64-5.04
				c-0.37,0.31-1.88,1.63-0.96,1.68c-1.04,0.64-2.12,1.23-2.16,2.88C193.43,35.98,193.48,36.26,193.5,36.55z M193.26,39.19
				c-0.37,0.59-0.35,1.56-0.48,2.4C193.4,41.28,193.71,39.81,193.26,39.19z M191.34,33.67c0.5-0.46,0.46-1.46,0.72-2.16
				C191.21,31.61,191.39,32.75,191.34,33.67z M191.58,40.87c-1.02,0.42-0.69,1.67,0,2.16C192.06,42.76,191.29,41.74,191.58,40.87z
				 M191.1,39.43c0.69-0.03,0.44-1,0.48-1.68C191.1,37.98,191.07,38.67,191.1,39.43z M190.14,51.91c-0.56,0.97,1.41,1.46,1.44,2.64
				C192.11,53.61,190.58,52.68,190.14,51.91z M193.74,16.63c-0.91-0.5-2.45,0.42-3.6,0.48C191.54,17.94,192.44,17.02,193.74,16.63z
				 M190.86,44.47c-1.27,1.25,0.41,3.55,0,5.52C192.48,48.62,191.49,46.12,190.86,44.47z M185.82,54.07c-0.44-0.23-0.8,0.72-0.96,0
				c-0.31,1.36,2.25,1.91,3.36,2.64c0.04-0.59,0.04-1.16-0.24-1.44C186.64,55.87,186.56,54.69,185.82,54.07z M181.26,38.95
				c-0.23,0.36,0.2,1.55,0.24,1.92c0.54-0.1,0.1-1.18,0.24-1.68C181.46,39.23,181.32,39.14,181.26,38.95z M178.38,56.23
				c0.65-2.76-2.1-6.19-3.12-8.88c-0.4-0.09-0.45,0.19-0.48,0.48C176.07,50.54,177.6,53.01,178.38,56.23z M178.86,43.75
				c-0.38-0.07-0.41,0.23-0.72,0.24c0.43,4.62,2.44,7.64,4.56,10.56C182.14,50.49,180.72,47.07,178.86,43.75z M180.54,41.59
				c-0.23-0.56-0.42-1.18-0.48-1.92C179.13,39.92,179.81,41.54,180.54,41.59z M161.1,53.35c-0.4,0.5,0.79,1.45,0.96,2.16
				c0.53-0.03,0.11-1.02,0.24-1.44C161.74,53.99,161.27,53.82,161.1,53.35z M210.3,29.11c-0.19-0.45-2.56-0.79-3.6-1.2
				C207.23,28.98,209,28.81,210.3,29.11z M229.26,41.83c0.46,0.66,1.02,1.22,1.68,1.68C231.03,43.25,230.12,41.95,229.26,41.83z
				 M235.74,41.35c-1.74-2.09-4.09-3.59-6.96-4.56c-0.33,0.39,1.8,2.49,2.88,3.12C232.92,40.64,234.61,40.78,235.74,41.35z
				 M226.86,32.23c0.28,1.09,2.88,1.92,3.84,3.12C230.79,33.9,228.17,33.08,226.86,32.23z M239.82,64.15
				c-3.84-4.48-11.14-9.65-15.84-14.88C227.06,55.47,234.85,59.05,239.82,64.15z M227.82,58.87c-0.66-1.26-1.55-2.29-2.64-3.12
				C225.22,56.68,226.75,58.18,227.82,58.87z M224.7,59.83c-0.34-1.42-2.89-2.7-4.08-4.08C220.79,57.35,223.62,58.36,224.7,59.83z
				 M212.7,20.95c3.39,1.83,6.39,3.35,10.8,3.12C220.14,22.79,216.69,21.6,212.7,20.95z M215.1,35.83c-0.5,0.45,0.96,0.95,1.44,1.2
				C216.39,36.3,215.45,36.36,215.1,35.83z M216.06,49.27c-0.12-3.72-5.4-6.22-7.68-9.36C210.04,42.98,213.83,45.99,216.06,49.27z
				 M218.22,34.39c-0.05-0.44-0.77-2.26-2.4-1.92C216.58,33.15,217.64,33.54,218.22,34.39z M215.1,39.67
				c0.67,0.21,0.57,1.19,1.44,1.2c0.26-0.9-0.9-0.38-0.72-1.2C215.58,39.67,215.34,39.67,215.1,39.67z M213.9,52.63
				c-0.04,1.51,2.04,4.18,3.6,4.08C217.3,54.36,214.75,54.35,213.9,52.63z M215.34,41.83c-0.22,0.31,2.69,2.84,2.16,1.92
				C216.68,43.21,216.15,42.38,215.34,41.83z M215.1,32.95c-0.22-0.42-0.75-0.53-1.44-0.48c0.09,0.64,0.63,0.81,1.2,0.96
				C214.83,33.15,214.92,33,215.1,32.95z M229.74,49.51c-0.52-2.6-4.08-4.24-6-6.24C224.84,45.29,227.66,47.68,229.74,49.51z
				 M227.58,56.71c2.15,1.37,3.15,3.89,5.76,4.8c-1.87-1.8-3.82-3.54-5.52-5.52C227.54,56.03,227.62,56.43,227.58,56.71z
				 M212.46,48.31c-0.35,1.32,1.36,2.64,2.4,3.36C214.94,50.63,213.11,49.42,212.46,48.31z M213.18,18.79
				c-0.31-0.69-1.52-0.49-2.16-0.24C211.28,19.09,212.53,18.64,213.18,18.79z M212.7,55.51c-1.57-1.79-3.58-3.14-5.04-5.04
				C207.69,53.38,210.79,53.93,212.7,55.51z M210.78,30.55c0.54,1.26,1.8,1.27,3.12,0.72C213.16,30.74,211.99,30.62,210.78,30.55z
				 M156.54,52.15c-0.6-1.25-1.26-2.32-1.44-3.6c-1.74-12.91,8.01-18.61,12.24-26.16c4.23-1.32,8.12-4.43,12.96-5.28
				c1.22-0.21,2.63,0.21,3.84,0c1.42-0.24,3.07-1.07,4.56-1.44c4.62-1.15,10.88-3.02,15.6-3.36c0.24,0,0.48,0,0.72,0
				c7.96,0.4,15.1,2.7,23.04,3.12c7.87,2.85,14.66,6.78,22.08,10.08c3.44,3.52,7.85,6.04,12,8.88c4.07,2.78,7.59,6.37,11.28,9.6
				c3.66,3.19,6.72,7.01,10.08,10.8c5.41,6.08,8.21,14.04,11.04,22.56c1.8,9.06,1.93,18.91,2.4,29.04c0.25,5.29-0.85,10.56-1.2,15.6
				c-0.34,5.01-1.8,9.73-2.64,14.4c-0.86,4.85-2.11,10.29-1.92,12.48c-0.86,0.43-1,1.85-1.68,3.6c-0.6,1.58-1.65,3.54-2.16,5.52
				c-1.56,6.07-0.1,11.97,0.96,18.48c0.71,4.34,1.73,8.72,2.88,12.72c2.49,8.58,3.43,18.13,0.96,26.16
				c-1.45,4.73-4.37,8.8-5.76,13.68c-2.46,2.5-4.58,6.61-8.16,7.2c0.76-3.34,3.29-6.94,4.32-11.28c1.6-6.7-0.2-14.9-2.88-20.4
				c-1.51,10.07-7.12,16.85-11.76,24c-2.46,3.81-4.72,7.11-5.7,11.73l-1.95-0.42c0.41-1.35,0.13-3.4,0.21-5.07h0.72
				c1.65-1.79,2.21-4.67,2.64-7.68c-0.41,0.77-0.89,1.47-1.33,2.22l-0.67-0.39c0.62-1.14,1.1-2.43,1.52-3.75
				c-0.63,0.8-1.14,1.72-1.55,2.76l-0.85-0.36c0.99-3.79,3.64-7.89,2.64-11.52c-0.28-0.04-0.42,0.05-0.48,0.24
				c-0.83,4.11-3.5,9-5.11,13.77l-0.27-0.08c0.19-0.64,0.37-1.3,0.58-1.93c-0.21,0.19-0.54,0.26-0.96,0.24
				c-0.01,0.62-0.12,1.14-0.24,1.66l-1.22-0.27c0.04-0.19,0.04-0.42,0.02-0.67c-0.42-0.11-0.51,0.1-0.51,0.41l-0.84-0.02
				c0.05-1.61-0.15-2.73-0.09-5.19c-0.41,0.62-0.53,1.79-0.51,2.97l-0.84,0.01c-0.06-1.25-0.3-2.51-0.57-3.7
				c-0.34,0.02-0.68,0.04-0.72-0.24c-0.27,0.9-0.34,1.91-0.27,2.88l-1.28,0.12c-0.05-0.44-0.09-0.88-0.13-1.32
				c-0.63-0.4-0.77,0.69-0.96,0.96c-0.4,0.6-0.78,1.26-1.2,1.92c-0.64,1.03-1.39,2.23-2.14,3.5l-0.66-0.43
				c1.74-2.88,3.08-5.8,4.96-8.35c0.46-16.9,9.76-24.96,13.2-38.88c-0.66-0.93-1.28,0.6-1.92,0.96c-4.47,2.5-10.48,2.22-16.56,1.68
				c-2.07-0.18-3.76-0.23-3.6-1.68c0.11-0.92,4.06-2.43,5.04-3.12c4.79-3.37,5.8-6.04,8.16-12.24c1.06-2.76,2.58-5.8,3.12-8.64
				c2.13-11.17-0.09-21.42-1.92-31.44c-5.53,1.75-8.43,6.29-11.52,10.56c-1.28,1.78-2.81,3.33-3.6,5.04
				c-1.14,2.5-0.98,5.7-2.88,7.68c-1.6-1.93-2.31-4.92-2.88-7.68c-1.13-5.52-1.23-9.74,0.48-14.64c0.7-2,1.04-4.17,1.68-6
				c0.96-2.7,3.04-4.86,4.32-7.44c0.63-1.26,1.01-2.89,1.68-4.32c1.94-4.09,4.98-10.06,5.52-14.88c0.98-8.65-3.42-15.14-7.68-19.68
				c-2.48-2.66-4.9-5.57-7.68-7.44c-0.64-0.43-1.84-1.38-2.64-0.96c0.28-0.52-0.42-1.08-0.96-1.44c-1.86-1.27-5.79-2.46-7.68-2.88
				c-3.94-3.34-9.24-4.57-13.44-7.44c-5.27-3.6-9.06-8.95-9.84-17.04c-4.9,7.25-2.04,17.16,2.4,22.32c2.14,2.48,5.67,4.71,8.64,6.24
				c1.72,0.88,3.78,0.73,5.28,1.92c-2.19,2.09-6.53,1.47-10.08,1.2c-3.82-0.29-7.92,0.13-11.52-0.24c-3.48-0.36-6.18-2.38-9.12-2.88
				c-3.74-0.64-6.36-0.32-9.36-1.68c-5.58-2.54-9.34-7.28-14.64-10.08c-1-1.24-1.92-2.55-2.4-4.32c-1.91,4.59-3.3,8.27-4.05,13.01
				l-1.25-0.19C153.18,61.12,154.44,56.51,156.54,52.15z M289.5,109.75c0.92-2.14,0.68-3.25,0.24-5.52
				C289.01,104.86,289.78,107.99,289.5,109.75z M259.74,80.23c-0.29-3.07-1.66-7.14-2.88-10.08
				C256.73,72.7,258.43,77.53,259.74,80.23z M246.54,68.47c-0.04-2.04-1.58-4.65-3.36-5.76c0.45,0.67,1.05,1.2,1.44,1.92
				c-0.21,0.35-0.36,0.76-0.96,0.72C244.5,66.51,245.66,67.35,246.54,68.47z M230.94,28.15c0.22-1.5-2.77-1.86-4.56-2.16
				C227.63,26.98,229.61,27.25,230.94,28.15z M221.58,38.47c-0.45-0.5-0.65-1.27-1.68-1.2C220.36,37.77,220.82,38.27,221.58,38.47z
				 M199.74,22.15c0.91,0.71,1.98-0.54,3.6-0.24C201.97,21.32,200.67,21.3,199.74,22.15z M196.14,19.51
				c0.6-0.12,1.45,0.01,1.44-0.72C197.04,18.63,196.04,18.43,196.14,19.51z M196.62,67.75c-0.51-0.52-1.15-0.93-2.16-0.96
				C195.05,67.24,195.64,67.7,196.62,67.75z M188.7,25.99c0.42-0.31,0.95-0.5,0.96-1.2C188.97,24.82,188.52,25.09,188.7,25.99z
				 M184.86,34.87c0.68-0.05,1.03-0.42,0.96-1.2C185.41,33.98,184.88,34.17,184.86,34.87z M177.42,30.55
				c0.76-0.85,1.3-1.9,1.68-3.12C178.22,28.15,177.83,29.36,177.42,30.55z M173.82,55.03c0.24-0.72-1.56-1.47-1.68-2.64
				c-0.21,0.19-0.54,0.26-0.96,0.24C171.87,53.63,172.81,54.37,173.82,55.03z M171.42,30.55c1.66-0.43,1.84-2.32,2.4-3.84
				C172.48,27.45,171.91,28.95,171.42,30.55z M169.02,40.39c0.62-0.27,0.48-1.29,0.48-2.16C168.49,38.59,169.45,39.44,169.02,40.39z
				 M166.86,44.47c0.39-0.64-0.85-1.7-0.96-2.64C165,42.99,166.47,43.81,166.86,44.47z"/>
			<path class="st2" d="M153.42,68.23c-1.04,9.66,1.52,18.04,2.16,26.16c0.97,12.05-2.57,22.82-5.78,32.72l-2.24-0.71
				c1.89-5.96,3.69-12.74,3.94-18.33c0.68-14.94-1.05-29.26,0.94-42.14l1.25,0.19C153.59,66.8,153.5,67.5,153.42,68.23z"/>
			<path class="st3" d="M192.54,384.79c-0.27,2.11-2.42,2.6-2.64,4.56c2.44-0.42,5.66-5.15,5.28-8.64c-0.2-1.88-1.85-2.62-2.16-4.32
				c-2.51-0.29-7.31-3.2-8.64-0.24C188.77,377.49,193.19,379.92,192.54,384.79z M229.5,67.99c0.54,0.36,1.24,0.92,0.96,1.44
				c0.8-0.42,2,0.53,2.64,0.96c2.78,1.87,5.2,4.78,7.68,7.44c4.26,4.54,8.66,11.03,7.68,19.68c-0.54,4.82-3.58,10.79-5.52,14.88
				c-0.67,1.43-1.05,3.06-1.68,4.32c-1.28,2.58-3.36,4.74-4.32,7.44c-0.64,1.83-0.98,4-1.68,6c-1.71,4.9-1.61,9.12-0.48,14.64
				c0.57,2.76,1.28,5.75,2.88,7.68c1.9-1.98,1.74-5.18,2.88-7.68c0.79-1.71,2.32-3.26,3.6-5.04c3.09-4.27,5.99-8.81,11.52-10.56
				c1.83,10.02,4.05,20.27,1.92,31.44c-0.54,2.84-2.06,5.88-3.12,8.64c-2.36,6.2-3.37,8.87-8.16,12.24
				c-0.98,0.69-4.93,2.2-5.04,3.12c-0.16,1.45,1.53,1.5,3.6,1.68c6.08,0.54,12.09,0.82,16.56-1.68c0.64-0.36,1.26-1.89,1.92-0.96
				c-3.44,13.92-12.74,21.98-13.2,38.88c-1.88,2.55-3.22,5.47-4.96,8.35c-0.4,0.66-0.83,1.32-1.28,1.97c-2.25,3.23-5,6.1-6,10.32
				c-2.05,8.7-0.67,19.9-1.44,30.48c-0.74,10.22-2.64,21.5-2.64,32.88c0,5.63,0.33,11.27,0.24,16.8
				c-0.21,13.38-0.89,27.14,4.8,36.96c-0.48,3.61,2.14,5.25,3.84,7.68c1.34,1.89,1.97,4.28,3.12,5.76
				c5.3,6.77,13.48,9.51,19.44,15.84c1.76,1.86,3.54,3.21,4.8,5.52c3.25,5.92,4.82,14.75,5.52,23.52c0.24,2.92,1.05,6.24,0.72,8.88
				c-0.26,2.12-1.85,2.14-0.48,4.8c0.17,0.22,0.42,0.35,0.73,0.43c-20.76,5.21-41.8,9.45-63.1,8.77
				c-27.9-0.89-55.8-10.18-83.29-8.44l-0.02-0.28c1.28-0.78,1.07-3.48,1.2-5.28c0.96-13.14,5.64-23.4,12.72-31.92
				c5.16-6.19,12.48-10.47,19.2-14.4c3.41-1.99,6.98-3.94,11.28-5.52c3.52-1.29,9.43-4.26,11.04-6.72c0.89-1.35,0.63-3.56,1.68-4.8
				c-0.44-2.56-0.51-4.58,0-6c0.34-10.84,0.21-21.37,0.96-30.96c0.24-3.04-0.38-5.85-0.48-8.88c-0.06-2.16,0.33-4.31,0.24-6.48
				c-0.21-5.37-0.92-11.18-0.96-17.28c-0.04-8.45-1.67-16.17-2.33-25.35c-0.63-3.67-2.21-8.68-7.89-10.5
				c-3.28-1.05-7.13-1.74-10.66-2.07c-5.07-0.47-10.53-1.08-14.27-3.13c-4.41-2.42-9.9-6.71-9-14.52c0.67-5.85,6.96-9.08,8.39-15.23
				c1.03-4.38,0.22-7.85-0.24-12.96c4.89-0.52,9.29-1.37,13.2-3.12c3.73-1.66,8.07-2.47,10.32-5.76
				c-8.29-3.61-13.6-13.82-26.4-10.56c2.1-2.96,3.12-7.42,3.1-12.11c-0.01-2.2-0.24-4.44-0.7-6.61c8.24,0.66,12.44,2.07,20.4,0.96
				c2.38-2.1,4.32-4.13,4.08-8.64c-0.2-3.89-4-8.6-7.2-7.2c-0.79,0.35-1.82,2.1-1.68,2.88c0.33,1.84,3.68,1.38,4.56,3.36
				c1.24,2.77-0.25,4.57-1.44,6.72c-4.44,0.36-9.54,1.84-12.96,0c-1.27-0.69-1.97-2.75-3.6-3.84c-1.71-1.15-3.01-2.03-5.52-1.44
				c-1.02,1.36,0.37,3.68-0.24,4.08c-5.09-0.44-9.33-3.54-8.64-8.88c0.23-1.72,1.65-3.98,2.64-6c1.9-3.88,3.51-7.41,4.8-12
				c0.65-2.29,0.82-4.69,1.44-6.96c0.76-2.79,1.68-5.64,2.62-8.56c3.21-9.9,6.75-20.67,5.78-32.72c-0.64-8.12-3.2-16.5-2.16-26.16
				c0.08-0.73,0.17-1.43,0.27-2.11c0.75-4.74,2.14-8.42,4.05-13.01c0.48,1.77,1.4,3.08,2.4,4.32c5.3,2.8,9.06,7.54,14.64,10.08
				c3,1.36,5.62,1.04,9.36,1.68c2.94,0.5,5.64,2.52,9.12,2.88c3.6,0.37,7.7-0.05,11.52,0.24c3.55,0.27,7.89,0.89,10.08-1.2
				c-1.5-1.19-3.56-1.04-5.28-1.92c-2.97-1.53-6.5-3.76-8.64-6.24c-4.44-5.16-7.3-15.07-2.4-22.32c0.78,8.09,4.57,13.44,9.84,17.04
				c4.2,2.87,9.5,4.1,13.44,7.44C223.71,65.53,227.64,66.72,229.5,67.99z"/>
			<path class="st2" d="M152.7,166.87c1.63,1.09,2.33,3.15,3.6,3.84c3.42,1.84,8.52,0.36,12.96,0c1.19-2.15,2.68-3.95,1.44-6.72
				c-0.88-1.98-4.23-1.52-4.56-3.36c-0.14-0.78,0.89-2.53,1.68-2.88c3.2-1.4,7,3.31,7.2,7.2c0.24,4.51-1.7,6.54-4.08,8.64
				c-7.96,1.11-12.16-0.3-20.4-0.96c0.46,2.17,0.69,4.41,0.7,6.61l-0.98,0.01c0-2.43-0.37-4.86-1.16-7.1
				c-0.77-0.21-3.28-0.05-4.08-0.24c-2.31-0.55-9.22-3.38-10.08-5.04c-0.89-1.72-0.62-7.11,0-9.6c0.7-2.76,2.56-5.24,3.84-8.16
				c1.14-2.59,1.98-5.51,3.12-8.16c1.17-2.71,2.33-4.68,3.36-7.68c0.71-2.05,1.51-4.39,2.3-6.87l2.24,0.71
				c-0.94,2.92-1.86,5.77-2.62,8.56c-0.62,2.27-0.79,4.67-1.44,6.96c-1.29,4.59-2.9,8.12-4.8,12c-0.99,2.02-2.41,4.28-2.64,6
				c-0.69,5.34,3.55,8.44,8.64,8.88c0.61-0.4-0.78-2.72,0.24-4.08C149.69,164.84,150.99,165.72,152.7,166.87z"/>
			<path class="st2" d="M147.9,200.23c6.03-1.25,14.49-1.13,20.88,0.72c-2.49-3.83-6.46-4.16-12.24-6
				c-4.08-1.3-7.78-3.45-10.32-0.24C145.35,197.17,146.09,199.26,147.9,200.23z M151.26,209.11c6.67-0.21,14.96-4.25,19.92-6.24
				c-4.39-0.62-10.9-1.93-16.08-1.68c-4.45,0.22-7.48,0.82-8.88,4.08C147.33,207.28,148.22,209.2,151.26,209.11z M174.2,260.44
				c-2.55-0.66-15.55-2.37-19.97-3.55c-6.99-2.45-12.41-6.24-14.12-13.97c-0.25-3.11-0.13-4.97,0.71-7.58
				c1.2-3.76,4.4-6.4,6.6-10.15c2.37-4.02,3.34-8.96,1.2-14.16c-3.94-0.92-7.44-6.09-4.08-10.08c-0.01-1.4-1.94-2.38-1.92-4.08
				c0.03-2.13,2.4-3.11,3.84-5.04c2.41-3.22,3.8-7.89,3.8-12.58l0.98-0.01c0.02,4.69-1,9.15-3.1,12.11
				c12.8-3.26,18.11,6.95,26.4,10.56c-2.25,3.29-6.59,4.1-10.32,5.76c-3.91,1.75-8.31,2.6-13.2,3.12c0.46,5.11,1.27,8.58,0.24,12.96
				c-1.43,6.15-7.72,9.38-8.39,15.23c-0.9,7.81,4.59,12.1,9,14.52c3.74,2.05,9.2,2.66,14.27,3.13c3.53,0.33,7.38,1.02,10.66,2.07
				c5.68,1.82,7.26,6.83,7.89,10.5c0.66,9.18,2.29,16.9,2.33,25.35c0.04,6.1,0.75,11.91,0.96,17.28c0.09,2.17-0.3,4.32-0.24,6.48
				c0.1,3.03,0.72,5.84,0.48,8.88c-0.75,9.59-0.62,20.12-0.96,30.96c-0.51,1.42-0.44,3.44,0,6c-1.05,1.24-0.79,3.45-1.68,4.8
				c-1.61,2.46-7.52,5.43-11.04,6.72c-4.3,1.58-7.87,3.53-11.28,5.52c-6.72,3.93-14.04,8.21-19.2,14.4
				c-7.08,8.52-11.76,18.78-12.72,31.92c-0.13,1.8,0.08,4.5-1.2,5.28c-1.2-0.05-0.51-1.59-0.48-1.92c0.18-1.98,0.75-4.91,0.96-7.68
				c0.77-9.85,4.27-16.8,9.12-23.76c2.96-4.24,6.26-8.77,9.6-11.76c4.16-3.71,10.9-6.66,16.56-10.08c2.59-1.56,5.98-2.64,8.88-4.32
				c1.27-0.73,2.71-1.84,4.08-2.64c1.68-0.98,3.13-1.73,3.84-2.88c3.67-5.87,1.35-14.84,0.72-22.32c-0.44-5.28-0.6-10.42,0-15.6
				c0.21-1.77,1.04-3.48,1.2-5.28c0.17-1.91-0.39-3.53-0.48-5.52c-0.09-2.16,0.34-4.46,0.24-6.72c-0.59-13.87-1.67-28.83-3.12-40.8
				C180.75,268.33,180.59,262.1,174.2,260.44z"/>
		</g>
	</g>
	<path class="st4" d="M180.78,189.19c0.94,1.38,1.8,2.84,2.64,4.32c-0.48,3.27,1.43,6.1,1.68,8.64c0.41,4.09-1.91,6.33-3.36,10.08
		c1.97-0.39,4.96-4.88,5.76-7.44c1.77-5.71-2.52-12.82-6-15.6C181.26,189.19,181.02,189.19,180.78,189.19z"/>
	<path class="st4" d="M70.38,368.71c-0.93,1.27-0.03,2.89,0.24,4.32c0.68-0.2,0.62,0.34,1.2,0.24
		C72.82,371.75,72.46,369.04,70.38,368.71z"/>
	<path class="st4" d="M60.06,373.51c-0.3,2.6,1.01,4.11,3.12,3.6C64.67,375.08,62.23,371.21,60.06,373.51z"/>
	<path class="st4" d="M172.86,96.79c3.46,4.63,7.97-2.6,12.48-1.44c-1.28,3.91-4.67,8.64-2.88,12.72c1.51-2.08,1.13-4.95,2.4-6.96
		c1.03-1.63,2.77-2.12,3.84-3.6c4.43,1.88,3.18,9.47,3.12,13.68c2.62-1.69,1.92-6.62,2.88-9.36c1.92,0.56,3.41,1.55,6,1.44
		c2.63,2.35,1.35,7.98,2.4,10.8c1.26-0.47,0.59-1.92,0.72-2.64c0.38-2.04,1.12-3.81,0.72-6.72c2.93-0.59,5.69-0.55,8.4-0.96
		c1.87,2.05,2.22,5.62,4.08,7.68c0.65-2.58-0.54-6.28-1.68-8.88c0.26-1.26,1.76-1.28,2.4-2.16c2.04,1.49,3.81,4.49,6.24,4.8
		c-0.24-2.29-2.51-4.49-4.08-6.24c2.09-1.59,3.55-3.81,5.52-5.52c0.08-1.44,0.03-2.75-0.72-3.36c-5.34,1.54-5.42,8.34-11.28,9.36
		c-0.72-0.24-0.42,0.53-0.48,0.96c-4.77,1.58-10.67,1.5-14.4-1.2c-4.99-3.61-11.84-8.26-19.68-8.16
		C176.09,91.06,174,94.17,172.86,96.79z"/>
	<path class="st4" d="M205.98,390.31c0.87-1.39-1.57-2.43-1.68-3.84c-0.19-2.59,3.39-3.71,4.32-6.24c6.83-1.58,14.53,0.6,20.4-3.12
		c0-0.24,0-0.48,0-0.72c-0.19-0.13-0.39-0.25-0.72-0.24c-2.06,0.56-2.21,0.45-3.36,1.44c-5.55,0.85-12.26,0.54-18.24,0.96
		c-1.39,1.7-4.66,3.28-4.8,6.24C201.78,387.24,203.88,389.82,205.98,390.31z"/>
	<g id="XMLID_00000088850797734804781680000008919847912505215374_">
		<g>
			<path class="st2" d="M112.86,348.79c4.84,7.68,0.79,20.39-2.4,26.16c-1.79,3.24-4.44,5.88-6.24,9.36
				c-2.32,4.5-3.87,12.83-3.84,18.48c0.03,4.42,0.05,8.52-0.24,12.72c-0.38,5.69,0.36,11.31-0.24,17.28h-2.64
				c-0.44-7.34,0.4-16.2,0.72-23.28c0.32-6.89-0.24-12.62,1.2-18.48c0.69-2.78,1.49-5.48,2.64-7.68c1.69-3.23,5-5.77,5.52-10.08
				c2.5-3.76,5.25-7.92,5.52-13.2c0.42-8.05-3.04-14.3-9.12-17.04c-2.95-3.85-7.82-5.78-13.2-7.2c0.63,1.15,1.3,3.78-0.72,3.84
				c0.06-1.34,0.73-4.05-1.44-4.32c0.44,3.27-3.62,5.46-6,7.44c-3.82-0.66-6.5-2.45-7.68-5.76c-0.67,1.17-1.52,2.15-1.92,3.6
				c2.17,3.58,7.48,5.39,12.24,5.04c0.64-0.05,0.85-0.61,1.44-0.72c1.38-0.25,4.33,0.53,5.28,0.96c4.48,1.99,4.85,7.58,4.8,14.4
				c-1.56,5.08-3.59,9.47-9.36,10.32c-3.61,0.53-6.7-1.57-9.6-2.16c1.19-2.39,3.82-0.23,6.24,0c4.48,0.42,6.66-1.89,8.88-3.6
				c0.35-1.42,0.5-3.02,0.48-4.8c-5.12,1.88-10.1,1.31-14.57,0.3l0.13-0.61c1.05,0.22,2.11,0.41,3.16,0.55
				c2.95,0.4,7.3,0.3,9.84-0.96c3.28-1.63,0.99-5.79,0.96-8.88c-4.05-4.43-13.18-2.48-18.72-4.8c-0.78-1.3-1.79-2.37-2.64-3.6v-4.08
				c3.98-7.03,14.67-4.84,23.52-3.36c3.73,3.2,8.45,5.04,12.48,7.44C109.34,343.26,111.73,346.99,112.86,348.79z M81.9,341.59
				c2.7-0.25,4.01-3.56,5.52-5.04c-2.76-1.53-8.28-1.47-11.52-0.48C76.11,339.41,79.26,341.84,81.9,341.59z"/>
			<path class="st3" d="M103.74,343.03c6.08,2.74,9.54,8.99,9.12,17.04c-0.27,5.28-3.02,9.44-5.52,13.2
				c-0.52,4.31-3.83,6.85-5.52,10.08c-1.15,2.2-1.95,4.9-2.64,7.68c-1.44,5.86-0.88,11.59-1.2,18.48
				c-0.32,7.08-1.16,15.94-0.72,23.28l-0.01,0.79c-7.61-0.13-15.22-0.25-22.83-0.38l0.01-0.54c0.83,0,1.59-1.07,2.19-1.55
				c0.19-0.9-0.29-1.15-0.24-1.92c2.35-6.9,1.42-15.3,0.96-24c-0.4-7.8-3.22-12.75-9.12-16.56c-1.66-1.08-4.36-2.59-6-3.12
				c-4.8-1.56-9.59-1.35-13.92-2.4c-2.21-0.54-4.22-1.41-6.48-2.16c-2.15-0.72-4.45-0.92-6.48-1.92c-5.41-2.68-6.17-9.6-12.48-11.52
				c1.3-3.87-4.53-7.94-6.24-3.84c-0.92-0.35-1.36-2.22-0.96-3.12c3.84-0.95,7.06,0.78,8.88,2.64c5.71,1.02,7.75,7.13,12.24,10.08
				c0.97,0.63,2.18,0.85,3.12,1.44c2.06,1.27,6.35,4.56,9.6,2.64c-1.04-2.03-3.52-1.88-5.28-2.88c-4.62-2.63-9.16-5.24-11.52-10.08
				c-0.09-1.13,1.63-0.46,1.44-1.68c-0.62-1.13-2.27-1.25-3.12-2.16c1.91-2.39-2.4-6.63-3.6-2.4c-1.55-1.67-2.21-3.91-3.12-6
				c-0.87-2.01-2.51-4.03-2.4-6.72c6.67,7.41,13.69,16.55,22.56,22.56c2.86,0.45,5.31,2.24,7.68,3.6c1.93,1.1,4.08,2.94,6.48,2.16
				c-0.4-2.79-4.53-1.87-5.52-4.08c-6.4-2.95-11.94-6.78-15.6-12.48c0.12-1.14,1.17-1.88,0.48-3.12c-7.63,0.49-10.09-7.1-13.2-11.52
				c0.71-3.04-0.01-6.44-3.36-7.2c-0.47-1.58,0.36-3.54,1.68-4.08c1.29-0.34,2.63,1.17,3.36,2.16c-0.71,1.96-0.76,4.1,0,6.48
				c1.77,5.48,9.04,11.49,15.36,14.64c4.83,2.4,8.07,6.55,12.24,9.6c2.77,2.02,6.68,5.27,10.32,6c1.28,0.26,3.27,0.72,4.56-0.24
				c-4.89-2.29-11.25-3.95-15.12-7.92c-0.22-2.96-2.6-4.18-4.56-6.24c0.31-1.47,1.95-2.16,0.72-3.84c-0.91-0.51-1.64-0.05-2.16,0.48
				c0.97-1.59-0.94-2.63-1.68-2.4c-1.34,0.09-0.93,1.95-1.44,2.88c-4.53-0.44-7.02-4.97-10.8-6.96c2.78-2.62-0.06-8.19-4.32-7.2
				c-0.46-1.05-0.9-2.13-1.2-3.36c1.99-2.69,5.91-0.52,7.92,1.2c2.55,2.18,4.55,4.72,7.44,6.72c9.28,6.41,18.72,12.94,31.68,16.32
				c1.03,0.27,2.09,0.54,3.19,0.78c4.47,1.01,9.45,1.58,14.57-0.3c0.02,1.78-0.13,3.38-0.48,4.8c-2.22,1.71-4.4,4.02-8.88,3.6
				c-2.42-0.23-5.05-2.39-6.24,0c2.9,0.59,5.99,2.69,9.6,2.16c5.77-0.85,7.8-5.24,9.36-10.32c0.05-6.82-0.32-12.41-4.8-14.4
				c-0.95-0.43-3.9-1.21-5.28-0.96c-0.59,0.11-0.8,0.67-1.44,0.72c-4.76,0.35-10.07-1.46-12.24-5.04c0.4-1.45,1.25-2.43,1.92-3.6
				c1.18,3.31,3.86,5.1,7.68,5.76c2.38-1.98,6.44-4.17,6-7.44c2.17,0.27,1.5,2.98,1.44,4.32c2.02-0.06,1.35-2.69,0.72-3.84
				C95.92,337.25,100.79,339.18,103.74,343.03z"/>
			<path class="st5" d="M87.42,336.55c-1.51,1.48-2.82,4.79-5.52,5.04c-2.64,0.25-5.79-2.18-6-5.52
				C79.14,335.08,84.66,335.02,87.42,336.55z"/>
			<path class="st2" d="M78.74,359.76l-0.13,0.61c-1.1-0.24-2.16-0.51-3.19-0.78c-12.96-3.38-22.4-9.91-31.68-16.32
				c-2.89-2-4.89-4.54-7.44-6.72c-2.01-1.72-5.93-3.89-7.92-1.2c0.3,1.23,0.74,2.31,1.2,3.36c4.26-0.99,7.1,4.58,4.32,7.2
				c3.78,1.99,6.27,6.52,10.8,6.96c0.51-0.93,0.1-2.79,1.44-2.88c0.74-0.23,2.65,0.81,1.68,2.4c0.52-0.53,1.25-0.99,2.16-0.48
				c1.23,1.68-0.41,2.37-0.72,3.84c1.96,2.06,4.34,3.28,4.56,6.24c3.87,3.97,10.23,5.63,15.12,7.92c-1.29,0.96-3.28,0.5-4.56,0.24
				c-3.64-0.73-7.55-3.98-10.32-6c-4.17-3.05-7.41-7.2-12.24-9.6c-6.32-3.15-13.59-9.16-15.36-14.64c-0.76-2.38-0.71-4.52,0-6.48
				c-0.73-0.99-2.07-2.5-3.36-2.16c-1.32,0.54-2.15,2.5-1.68,4.08c3.35,0.76,4.07,4.16,3.36,7.2c3.11,4.42,5.57,12.01,13.2,11.52
				c0.69,1.24-0.36,1.98-0.48,3.12c3.66,5.7,9.2,9.53,15.6,12.48c0.99,2.21,5.12,1.29,5.52,4.08c-2.4,0.78-4.55-1.06-6.48-2.16
				c-2.37-1.36-4.82-3.15-7.68-3.6c-8.87-6.01-15.89-15.15-22.56-22.56c-0.11,2.69,1.53,4.71,2.4,6.72c0.91,2.09,1.57,4.33,3.12,6
				c1.2-4.23,5.51,0.01,3.6,2.4c0.85,0.91,2.5,1.03,3.12,2.16c0.19,1.22-1.53,0.55-1.44,1.68c2.36,4.84,6.9,7.45,11.52,10.08
				c1.76,1,4.24,0.85,5.28,2.88c-3.25,1.92-7.54-1.37-9.6-2.64c-0.94-0.59-2.15-0.81-3.12-1.44c-4.49-2.95-6.53-9.06-12.24-10.08
				c-1.82-1.86-5.04-3.59-8.88-2.64c-0.4,0.9,0.04,2.77,0.96,3.12c1.71-4.1,7.54-0.03,6.24,3.84c6.31,1.92,7.07,8.84,12.48,11.52
				c2.03,1,4.33,1.2,6.48,1.92c2.26,0.75,4.27,1.62,6.48,2.16c4.33,1.05,9.12,0.84,13.92,2.4c1.64,0.53,4.34,2.04,6,3.12
				c5.9,3.81,8.72,8.76,9.12,16.56c0.46,8.7,1.39,17.1-0.96,24c-0.05,0.77,0.43,1.02,0.24,1.92c-0.6,0.48-1.36,1.55-2.19,1.55
				c-0.15,0-0.3-0.03-0.45-0.11c-1.16-16.87,3.79-34.26-7.44-42c-1.42-0.98-2.93-1.94-4.8-2.64c-6.71-2.52-16.83-1.91-23.52-4.32
				c-8-2.88-9.32-9.27-15.6-13.68c-4-2.81-10.63-3.44-10.32-10.32c3.13-3.41,8.65-0.97,12.72,0c-1.85-3.82-4.45-8.75-6.48-12.48
				c-1.11-2.06-2.76-4.44-3.12-6c-0.91-4.03,1.22-5.55,3.36-7.2c-0.33-1.19-0.23-2.81-0.24-4.32c3.68-2.79,8.35,0.48,10.8,2.88
				c3.73-2.05,5.83,0.78,8.16,2.4c3.64,2.53,6.12,6.06,9.6,8.64c0.57,0.42,1.14,0.79,1.71,1.15c0.68,0.92,1.6,1.7,2.56,2.29
				c0.53,0.33,1.13,0.64,1.75,0.86c-0.01,0.01-0.01,0.01-0.02,0.02C58.77,352.03,68.59,357.6,78.74,359.76z M33.66,344.47
				c0.92-3.15-1.67-5.08-4.32-4.8c0.51,2.45,1.78,4.15,3.84,5.04C33.19,344.48,33.48,344.52,33.66,344.47z M24.06,340.87
				c0.11-1.73-0.34-3.64-1.92-4.32C21.95,337.87,22.8,340.21,24.06,340.87z M18.06,364.63c0.56,1.32,2.72,2.19,4.08,1.92
				C22.13,364.53,19.54,363.03,18.06,364.63z M20.7,342.55c0.64-2.16-1.36-3.75-1.44-6c-1.94,0.34-1.68,4.04-0.72,5.28
				C19.56,341.77,20.45,341.85,20.7,342.55z"/>
			<path class="st5" d="M29.34,339.67c2.65-0.28,5.24,1.65,4.32,4.8c-0.18,0.05-0.47,0.01-0.48,0.24
				C31.12,343.82,29.85,342.12,29.34,339.67z"/>
			<path class="st5" d="M22.14,336.55c1.58,0.68,2.03,2.59,1.92,4.32C22.8,340.21,21.95,337.87,22.14,336.55z"/>
			<path class="st5" d="M22.14,366.55c-1.36,0.27-3.52-0.6-4.08-1.92C19.54,363.03,22.13,364.53,22.14,366.55z"/>
			<path class="st5" d="M19.26,336.55c0.08,2.25,2.08,3.84,1.44,6c-0.25-0.7-1.14-0.78-2.16-0.72
				C17.58,340.59,17.32,336.89,19.26,336.55z"/>
		</g>
	</g>
	<g id="XMLID_00000175286829132698207200000006513338219228726941_">
		<g>
			<path class="st2" d="M62.97,338.58c-0.17,1.15,0.08,2.4-0.55,3.44c-1.93-1.45-2.43-4.4-3.21-6.51c-0.73-1.99-1.53-3.81-2.06-5.64
				c-3.35,2.16-6.82,3.48-10.45,4.55c-1.17,0.34-2.35,0.89-3.58,0.97c2.99-3.28,5.78-6.77,9.34-8.83c-2.26-0.85-4.75-0.82-7.2-1.17
				c-2.47-0.37-4.91-1.12-7.54-2.13c1-0.77,2.36-0.87,3.55-1.11c3.48-0.71,7.29-0.41,10.99-0.51c-1.99-5.78-5.79-11.18-9.02-16.7
				c1.27-0.08,2.61,0.9,3.77,1.73c3.48,2.51,6.31,5.53,10.04,8.05c2.22-2.92,1.89-6.51,3.1-9.6c0.83-2.09,1.76-3.91,3.06-5.97
				c0.06-0.15,0.17-0.09,0.25-0.2c0.03,0.07,0.24,0.1,0.26,0.17c0.79,4.96-0.5,10.9-0.27,15.75c3.28-0.63,6.59-1.52,9.9-2.21
				c1.14-0.24,2.19-0.24,3.32-0.4c1.2-0.16,2.34-1.09,3.55-0.73c-3.81,2.79-8.4,4.91-12.3,8.49c3.07,2.62,6.3,5.36,8.91,8.29
				c-3.89,0.13-7.89-0.21-11.91-0.7C63.58,331.33,63.49,334.95,62.97,338.58z M62.13,340.97c0.8-4.65,0.79-9.14,2.14-13.92
				c3.84,0.32,7.77,1.03,11.46,0.65c-2.77-2.6-5.7-5.49-8.66-7.73c1.85-1.55,5.71-4.43,11.1-7.59c-4.93,0.2-10.11,2.2-15.13,3.08
				c-0.29-5.13,0.96-10.56,0.16-15.58c-1.07,1.43-1.35,2.73-1.91,4.02c-0.2,0.45-0.54,0.83-0.7,1.25c-1.23,3.3-0.8,7.13-3.64,10.24
				c-4.36-3.27-7.74-7.15-12.93-9.82c3.49,5.42,6.89,10.85,9,16.56c-4.69,0.02-9.9-0.47-13.98,1.13c2.87,0.96,5.49,1.67,8.12,2.01
				c2.08,0.27,4.28-0.09,6.2,1c-2.42,1.68-5.5,4.35-7.93,7.06c-0.31,0.35-0.49,0.82-0.81,1.06c3.07-0.67,6.59-1.78,9.58-3.4
				c1.03-0.57,1.96-1.38,3.11-1.75C59.13,333.11,59.84,337.2,62.13,340.97z"/>
			<path class="st6" d="M64.27,327.05c-1.35,4.77-1.34,9.26-2.14,13.92c-2.29-3.77-3-7.86-4.81-11.72
				c-1.15,0.37-2.08,1.18-3.11,1.75c-2.99,1.63-6.52,2.74-9.58,3.4c0.32-0.23,0.5-0.71,0.81-1.06c2.43-2.71,5.51-5.38,7.93-7.06
				c-1.93-1.09-4.12-0.74-6.2-1c-2.63-0.33-5.24-1.05-8.12-2.01c4.08-1.61,9.29-1.11,13.98-1.13c-2.11-5.71-5.51-11.14-9-16.56
				c5.19,2.67,8.57,6.56,12.93,9.82c2.84-3.11,2.41-6.94,3.64-10.24c0.16-0.42,0.5-0.81,0.7-1.25c0.56-1.29,0.84-2.59,1.91-4.02
				c0.79,5.01-0.45,10.45-0.16,15.58c5.02-0.88,10.21-2.88,15.13-3.08c-5.39,3.15-9.25,6.04-11.1,7.59
				c2.96,2.24,5.89,5.13,8.66,7.73C72.04,328.08,68.11,327.37,64.27,327.05z"/>
		</g>
		<g>
		</g>
	</g>
	<path class="st4" d="M61.28,311.89c0.37,2.62-0.15,5.6-0.11,8c1.63-0.82,4.13-2.24,6.68-2.94c-0.74,1.5-2.81,3.53-4.46,5.06
		c1.7,1.02,2.55,1.76,4.56,3.18c-2.16-0.18-3.79-0.01-6.09-0.57c0.06,2.51,0.67,6.28-0.91,8.05c-0.52-1.4-1.27-3.47-1.94-5.46
		c0,0-3.21,0.86-5.89,2.62c1.41-2.59,2.19-4.93,2.19-4.93c-1.41-0.17-4.14-0.64-5.85-1.08c2.22-0.63,3.74-0.78,5.45-1.57
		c-0.68-2.52-2.32-6.09-2.73-7.95c2.17,1.9,3.31,3.21,4.75,4.86C58.42,317.11,59.71,313.99,61.28,311.89z"/>
</g>
</svg>
