<?xml version="1.0" encoding="utf-8"?>
<!-- Generator: Adobe Illustrator 27.5.0, SVG Export Plug-In . SVG Version: 6.00 Build 0)  -->
<svg version="1.1" id="Layer_1" xmlns="http://www.w3.org/2000/svg" xmlns:xlink="http://www.w3.org/1999/xlink" x="0px" y="0px"
	 viewBox="0 0 311.1 613.69" style="enable-background:new 0 0 311.1 613.69;" xml:space="preserve">
<style type="text/css">
	.st0{fill:#F48E24;}
	.st1{fill:#465B46;}
	.st2{fill:#0B293A;}
	.st3{fill:#5A7A5A;}
	.st4{fill:#98B1B7;}
	.st5{fill:#B4CDD1;}
	.st6{fill:#C0AB97;}
	.st7{fill:#EE3430;}
	.st8{fill-rule:evenodd;clip-rule:evenodd;fill:#0B293A;}
</style>
<g>
	<g id="XMLID_00000088102734349840860880000013929587410604586117_">
		<g>
			<path class="st0" d="M228.78,496.29c0.27,0.9,0.46,1.88,0.53,2.99c-0.76,0.04-1.06,0.54-1.92,0.48
				c-0.51-1.02-0.06-2.98-1.44-3.12c-3.96,0.98-4.86,3.68-6.48,7.44c-0.75,1.73-1.34,3.81-1.92,5.52
				c-2.07,6.04-3.53,11.96-5.52,16.8c-0.6,1.46-0.81,3.57-2.4,4.08c3.05-10.47,7.66-21.46,9.6-33.84c0.2-0.52,0.9-0.53,0.96-1.2
				c-0.03-0.93,0.39-2.09,0.93-3.1c0.23-0.44,0.49-0.86,0.75-1.22c1.11-0.15,2.6,0.44,4.32,0
				C227.18,492.7,228.17,494.3,228.78,496.29z"/>
			<path class="st0" d="M207.47,498.07c-0.29,0.03-0.57,0.07-0.48,0.48c-1.25,0.75-1.45-0.71-2.88-0.48
				c-3.16,3.38-3.99,9.61-5.28,15.12c-0.9,3.85-1.9,6.32-3.36,9.84c-2.13,5.11-2.79,8.39-6,11.04c0.71-2.65,1.69-5.25,2.68-7.9
				c1.23-3.24,2.48-6.55,3.32-10.1c0.57-2.43,1.11-4.92,1.67-7.4c0.92-4.06,1.89-8.09,3.13-11.8c0.36-1.08-0.34-2.35,1.44-2.4
				c-0.3,0.93,0.57,2.99,2.16,1.92c0.52-1.07-0.42-1.92-1.44-2.16C205.53,492.48,207.08,495.12,207.47,498.07z"/>
			<path class="st1" d="M227.87,473.6c0.07,0.87-0.04,1.56-0.24,2.16c-3.09,0.43-6.68,2.22-10.32,1.92
				c-0.62-0.86,0.14-1.99,0.24-2.88c2.84-0.19,5.29-1.58,7.98-1.58C226.29,473.21,227.06,473.32,227.87,473.6z"/>
			<path class="st1" d="M204.11,474.07c1.03,1.14,1.54,3.64,0.72,5.28c-4.05,1.47-11.75,1.67-10.56-4.08
				C197.17,473.98,201.02,473.32,204.11,474.07z"/>
			<path class="st2" d="M299.09,569.39c-0.01,1.5-0.04,3-0.08,4.51c-4.69-2.9-9.44-5.73-14.5-7.9c-9.7-4.16-19.76-7.29-30-10.56
				c-3.34-1.57-6.6-3.22-9.9-4.83l0.86-1.75c3.91,1.78,7.95,3.37,12.16,4.66c4.32,1.33,8.6,2.42,12.72,4.08
				C279.96,561.47,290.03,564.8,299.09,569.39z"/>
			<path class="st2" d="M297.83,472.02c-0.04,1.68-0.07,3.36-0.09,5.04c-7.02-3.65-14.11-7.2-21.39-10.43
				c-16.51-7.33-33.39-13.88-50.4-21.12c-0.09,1.33,0,2.69,0.18,4.03l-2.02,0.31c-0.23-1.54-0.49-3.07-0.8-4.58
				c-1.14-5.54-1.95-8.09-1.92-13.68c0.02-3.77-0.48-7.57-1.31-11.31l1.15-0.25c1.26,5.74,2.32,11.5,3.52,17.32
				c8.17,3.34,15.65,7.93,23.52,11.28c9.19,3.91,17.63,8.73,27.36,12c2.45,1.63,5.14,2.98,7.92,4.32c2.87,1.38,5.55,3.07,8.4,4.56
				c1.37,0.72,2.95,0.99,4.32,1.68C296.79,471.46,297.31,471.73,297.83,472.02z"/>
			<path class="st2" d="M297.55,498.57c-0.01,0.12-0.01,0.23-0.01,0.34c-0.01,1.2-0.03,2.4-0.06,3.61c-5.96-3.02-11.89-6.03-17.77-9
				c-12.33-6.22-25.29-11.86-37.68-17.76c-4.2-2-8.24-4.35-12.48-5.76c0.68,2.17,0.65,4.22,0,5.82l-1.92-0.06
				c0.2-0.6,0.31-1.29,0.24-2.16c-0.81-0.28-1.58-0.38-2.34-0.38l-0.03-1.97c0.71-0.01,1.42,0.05,2.13,0.19
				c-2-5.75-2.35-13.72-3.52-21.58l2.02-0.31c0.41,2.95,1.27,5.83,1.74,8.21c0.28,1.44-0.2,3.1,0.48,4.08
				c0.46,0.67,2.28,1.32,3.36,1.92c3.69,2.04,7.09,3.66,10.32,5.76c2.33,0.94,4.81,2.32,7.2,3.6c2.32,1.24,5.17,2.11,6.48,3.84
				c2.25-0.17,2.81,1.34,4.8,1.44c4.48,3.91,11.1,5.7,16.08,9.12C283.79,490.54,291.32,495.3,297.55,498.57z"/>
			<path class="st2" d="M172.56,472.05c-0.06-0.06-0.1-0.09-0.13-0.14C172.43,471.98,172.49,472.05,172.56,472.05z M172.57,472.05
				c0.89,0.79,4.25,1.98,6.1,2.98c4.82,2.61,10.95,5.03,15.84,7.44c-0.7-1.14-1.36-2.33-2.16-3.36c-0.75-3.09-1.48-6.24-2.1-9.51
				l1.67-0.32c0.3,1.45,0.78,2.82,1.63,4.07c2.92-1.08,7.38-1.62,10.8-1.44c-0.16-2.03-0.34-4.12-0.57-6.23l1.45-0.15
				c0.22,2.27,0.82,4.75,1.04,6.14c-0.23,0.87,1.03,0.24,1.2,0.72c0.67,4.38,0.74,8.52-2.88,9.6c-0.12,2.12,0.71,3.28,0.72,5.28
				c4.4,1.4,9.12,4.44,14.16,6c0.42-0.39,0.73-0.81,0.96-1.25l0.69,0.31c-0.54,1.01-0.96,2.17-0.93,3.1
				c-0.06,0.67-0.76,0.68-0.96,1.2c-1.94,12.38-6.55,23.37-9.6,33.84c1.59-0.51,1.8-2.62,2.4-4.08c1.99-4.84,3.45-10.76,5.52-16.8
				c0.58-1.71,1.17-3.79,1.92-5.52c1.62-3.76,2.52-6.46,6.48-7.44c1.38,0.14,0.93,2.1,1.44,3.12c0.86,0.06,1.16-0.44,1.92-0.48
				c-0.07-1.11-0.26-2.09-0.53-2.99l1.81-0.49c0.36,1.25,0.65,2.58,0.88,3.96c12.49,5.79,24.18,11.26,36,16.32
				c4.03,1.61,8.02,3.64,12.24,5.52c2.19,0.98,4.47,1.91,6.72,2.88c3.43,1.48,6.88,2.98,10.33,4.5c0.01,0.52,0.01,1.04,0.02,1.56
				c0.01,0.12,0.01,0.23,0.02,0.35c-14.72-6.48-29.56-13.11-44.21-19.37c-7.26-3.1-14.32-6.59-21.84-8.64
				c-0.91,0.74-2.97,1.17-4.32,0.72c-1.19-0.57-0.5-3.02-1.44-3.84c-2.37,0.83-2.64,3.61-3.12,5.76
				c-1.69,7.53-3.41,14.31-5.76,20.64c-1.12,1.04-1.99,2.33-2.64,3.84c9.82,6.43,20.28,13.53,32,18.86l-0.86,1.75
				c-4.07-1.98-8.2-3.89-12.66-5.49c-0.99-0.61-0.75,0.44-1.92,0.24c-6.88-3.85-14.26-7.18-21.6-10.56
				c-3.53-2.71-7.2-5.28-11.28-7.44c-0.9,1.74-1.54,3.74-2.64,5.28c-2.5,0.54-2.69,3.39-5.52,3.6c-0.91-4.41,1.38-7.04,2.58-10.28
				l0.58,0.22c-0.99,2.65-1.97,5.25-2.68,7.9c3.21-2.65,3.87-5.93,6-11.04c1.46-3.52,2.46-5.99,3.36-9.84
				c1.29-5.51,2.12-11.74,5.28-15.12c1.43-0.23,1.63,1.23,2.88,0.48c-0.09-0.41,0.19-0.45,0.48-0.48c-0.39-2.95-1.94-5.59-5.04-3.84
				c1.02,0.24,1.96,1.09,1.44,2.16c-1.59,1.07-2.46-0.99-2.16-1.92c-1.78,0.05-1.08,1.32-1.44,2.4c-1.24,3.71-2.21,7.74-3.13,11.8
				l-0.41-0.1c1.16-5.04,2.14-10.26,3.78-14.82c-0.81-2.15-1.21-4.71-1.68-7.2c-1.13-0.73-2.37-0.87-3.6-0.96
				c-11.35-5.81-22.82-11.62-34.36-17.44l0.52-1.04c5.04,0.71,6.5,3.69,11.28,4.8C172.65,472.01,172.61,472.05,172.57,472.05z
				 M210.35,525.2c3.79-8.85,5.92-19.36,8.64-29.28c-4.16-1.63-8.14-4.37-13.2-5.76c2.11,3.41,4.65,6.39,4.08,12.48
				c-1.94,1.9-4.86,1.15-5.04-1.68c-3.11,5.05-2.78,14.82-5.04,19.92c2.55,2,4.95,4.17,8.16,5.52
				C208.99,526.23,208.82,524.86,210.35,525.2z M204.83,479.35c0.82-1.64,0.31-4.14-0.72-5.28c-3.09-0.75-6.94-0.09-9.84,1.2
				C193.08,481.02,200.78,480.82,204.83,479.35z M198.59,484.15c0.11-0.92-0.07-1.53-0.48-1.92c-0.79,0.33-1.68,0.57-2.88,0.48
				C195.88,483.67,197.58,483.57,198.59,484.15z"/>
			<path class="st2" d="M254.03,590.47c-0.32,1.89,2.29,1.96,1.44,3.6c-1.09,1.32-2.76-0.25-4.08,1.2c-0.89-0.46-1.79,0-2.4,0.48
				c-1-0.86-1.63-1.61-3.36-1.2c-2.78-2.74-6.33-4.53-9.84-6.48c-3.41-1.9-6.94-4.19-10.56-5.76c-0.75-0.33-1.65-0.17-2.4-0.48
				c-2.72-1.1-5.26-3.18-7.92-4.56c-6.7-3.48-14.07-5.78-21.12-8.88c-12.02-5.28-23.8-12.34-35.76-17.52
				c-7.28-3.16-15.15-6.95-21.84-9.84c-2.14-0.92-4.33-1.74-6.48-2.64c-12.92-5.44-24.93-12.4-37.92-17.28
				c-6.52-4.1-13.75-6.69-20.64-10.08c-12.14-5.97-24.61-11.1-37.2-16.32c-7.93-3.29-15.92-6.98-23.81-10.78v-11.26
				c4.48,2.22,9.05,4.34,13.49,6.68c0.8,0.42,1.37,1.26,2.16,1.68c1.72,0.93,3.43,1.57,5.04,2.64c3.26,2.17,6.44,4.29,9.6,6
				c8.56,4.62,17.95,8.16,27.12,12.24c14.51,6.45,29.09,13,43.68,19.2c14.61,6.21,28.9,12.64,42.72,20.16
				c10.18,5.54,20.78,10.69,31.2,15.84c3.52,1.74,6.83,4.12,10.32,5.52c4.61,1.85,9.18,2.95,13.44,4.8
				c4.26,1.85,8.18,3.97,12.72,5.28c0.49,1.37,4.56,1.97,4.32,3.36C235.77,580.32,244.59,585.36,254.03,590.47z"/>
			<path class="st2" d="M230.59,495.79l-1.81,0.49c-0.61-1.98-1.6-3.58-2.59-5.17c-1.72,0.44-3.21-0.15-4.32,0
				c-0.26,0.36-0.52,0.78-0.75,1.22l-0.69-0.31c1.69-3.32-1.4-7.95-0.48-11.95c-5.67,1.61-7.38-3.2-5.28-6.72
				c-0.76-2.53-0.15-5.41-1.2-7.92h-1.2c-1.56-1.96-4.39-2.65-6.72-3.84c-0.44,0.95-0.47,2.4-0.32,3.94l-1.45,0.15
				c-0.8-7.78-2.04-15.93-3.75-23.05c-0.59-2.45-0.73-5.11-1.44-7.44c-0.38-1.24-1.24-2.33-1.44-3.6c-0.24-1.5,0.06-3.06-0.24-4.56
				c-0.9-4.52-2.13-10.53-3.12-15.84c-0.83-4.47-1.02-9.06-1.92-13.44c-0.91-4.42-2.65-8.62-2.88-12.96
				c-0.15-2.79-0.11-5.62-0.24-8.4c-0.24-5.24,0.96-12.74,0-19.44c-0.15-1.04-0.1-1.46-0.96-2.4c0.03-0.93,0.81-1.11,0.72-2.16
				c-0.62-1.74-1.33-3.5-1.79-5.42l0.63-0.15c0.36,1.57,0.93,3.02,1.64,4.13c0.47-1.25,0.83-2.89,0.98-4.57l0.57,0.06
				c-0.27,2.65-0.67,5.42-0.11,7.87c0.43,1.9,1.45,3.32,2.16,5.28c1.68,4.62,1.56,10.41,2.4,16.08c2.07,13.94,5.97,26.68,8.4,40.32
				c0.49,2.74,1.29,5.13,1.92,7.68c0.37,1.52,0.12,3.29,0.48,4.8c0.52,2.22,1.61,5.01,2.4,7.68c1.9,6.47,2.94,13.27,5.28,19.92
				c0.93,2.66,1.77,4.47,2.16,7.2c0.41,2.87,0.53,5.84,1.44,9.36c2.26-0.16,5.32-1.36,8.43-1.39l0.03,1.97
				c-2.69,0-5.14,1.39-7.98,1.58c-0.1,0.89-0.86,2.02-0.24,2.88c3.64,0.3,7.23-1.49,10.32-1.92l1.92,0.06
				c-0.72,1.78-2.2,3.02-4.32,3.3c0.41,3.27,0.66,6.69,1.44,9.6C228.56,490.49,229.77,492.95,230.59,495.79z M203.63,450.55
				c2.13,0.83,4.96,2.82,7.44,4.08c-3.16-6.92-2.21-17.96-10.32-19.92C201,439.74,202.9,445.2,203.63,450.55z M198.35,426.08
				c2.6-0.04,3.13,1.99,5.28,2.4c-3.13-21.91-8.95-41.14-12.48-62.64c-1.37,1.43-0.46,4.66-0.48,7.2
				c-0.05,4.86,0.07,9.34,0.96,15.36C193.44,400.68,195.6,414.29,198.35,426.08z"/>
			<path class="st3" d="M227.63,471.43c-0.71-0.14-1.42-0.2-2.13-0.19c-3.11,0.03-6.17,1.23-8.43,1.39
				c-0.91-3.52-1.03-6.49-1.44-9.36c-0.39-2.73-1.23-4.54-2.16-7.2c-2.34-6.65-3.38-13.45-5.28-19.92c-0.79-2.67-1.88-5.46-2.4-7.68
				c-0.36-1.51-0.11-3.28-0.48-4.8c-0.63-2.55-1.43-4.94-1.92-7.68c-2.43-13.64-6.33-26.38-8.4-40.32
				c-0.84-5.67-0.72-11.46-2.4-16.08c-0.71-1.96-1.73-3.38-2.16-5.28c-0.56-2.45-0.16-5.22,0.11-7.87c0.26-2.59,0.4-5.06-0.59-7.01
				c4.56,0.15,7.25-0.22,11.04-0.96c1.64,4.48,0.2,12.29-1.2,17.04c-0.58,1.96-1.97,3.32-1.92,5.28c0.04,1.68,1.06,2.62,1.68,4.08
				c2.12,5.02,3.67,10.64,6,16.08c2.24,5.23,3.92,10.7,6.24,16.08c2.93,6.8,6.43,14.87,8.29,23.25c0.83,3.74,1.33,7.54,1.31,11.31
				c-0.03,5.59,0.78,8.14,1.92,13.68c0.31,1.51,0.57,3.04,0.8,4.58C225.28,457.71,225.63,465.68,227.63,471.43z"/>
			<path class="st2" d="M214.67,397.99c2.99,7.34,4.94,14.67,6.56,22.04l-1.15,0.25c-1.86-8.38-5.36-16.45-8.29-23.25
				c-2.32-5.38-4-10.85-6.24-16.08c-2.33-5.44-3.88-11.06-6-16.08c-0.62-1.46-1.64-2.4-1.68-4.08c-0.05-1.96,1.34-3.32,1.92-5.28
				c1.4-4.75,2.84-12.56,1.2-17.04l0.06-1.72c0.29,0.01,0.59,0.03,0.9,0.04c1.04-2.14,0.4-4.09,0.72-6.72
				c0.09-0.73,0.61-1.4,0.72-2.16c0.69-4.75-1.08-11.3-1.92-17.28c-0.44-3.14-1.54-6.2-2.16-9.12c-0.66-3.12-0.8-6.46-1.44-9.6
				c-0.52-2.53-1.54-5.18-2.4-7.68c-2.46-7.14-5.94-13.85-7.68-20.88c-1.3,0.83-2.39,2.28-3.53,3.78l-1.2-0.09
				c0.74-1.01,1.54-2.74,2.33-4.17c1.11-2.03,2.42-4.41,3.64-6.98l1.33,0.54c-0.51,1.09-0.88,2.22-0.89,3.8
				c1.86,5.18,5.24,8.84,5.76,15.36c7.47,17.85,10.27,39.98,12.72,61.2c-1.07,1.2-2.83,0.53-3.36,1.92c-0.3,0.79,0.47,3.1,0.72,4.8
				c0.39,2.68,0.87,4.85,0.48,6.72c-0.89,4.29-4,7.12-4.08,11.04c-0.05,2.56,1.64,6.26,2.64,9.6
				C207.22,380.52,211.09,389.21,214.67,397.99z"/>
			<path class="st3" d="M203.78,465.68c0.23,2.11,0.41,4.2,0.57,6.23c-3.42-0.18-7.88,0.36-10.8,1.44
				c-0.85-1.25-1.33-2.62-1.63-4.07c-0.5-2.42-0.48-5.05-0.77-7.69c-0.33-2.93-1.29-5.92-1.44-8.88c-0.09-1.75,0.34-3.42,0-5.04
				c-0.37-1.75-1.35-3.35-1.68-5.04c-0.35-1.78-0.2-3.6-0.48-5.52c-0.55-3.69-2.06-7.1-2.88-10.8c-2.44-10.99-2.73-23.58-4.32-35.04
				c-0.59-4.25-0.24-8.39-0.24-12.72c0-5.21-0.67-10.82-0.24-16.32c0.54-7.01,1.18-14.66,0-20.64c2.45-0.03,4.15-0.77,6.48-1.44
				v0.72c-0.31,2.26-0.09,4.25,0.37,6.1c0.46,1.92,1.17,3.68,1.79,5.42c0.09,1.05-0.69,1.23-0.72,2.16c0.86,0.94,0.81,1.36,0.96,2.4
				c0.96,6.7-0.24,14.2,0,19.44c0.13,2.78,0.09,5.61,0.24,8.4c0.23,4.34,1.97,8.54,2.88,12.96c0.9,4.38,1.09,8.97,1.92,13.44
				c0.99,5.31,2.22,11.32,3.12,15.84c0.3,1.5,0,3.06,0.24,4.56c0.2,1.27,1.06,2.36,1.44,3.6c0.71,2.33,0.85,4.99,1.44,7.44
				C201.74,449.76,202.98,457.9,203.78,465.68z"/>
			<path class="st4" d="M201.47,310.64c0.84,5.98,2.61,12.53,1.92,17.28c-0.11,0.76-0.63,1.43-0.72,2.16
				c-0.32,2.63,0.32,4.58-0.72,6.72c-0.31-0.01-0.61-0.03-0.9-0.04c-4.96-0.16-7.91,0.55-13.26,0.76c-2.1-3.81-2.69-8.12-3.84-12.24
				c-1.49-5.35-3.65-10.75-5.76-16.08c-2.5-6.29-4.45-12.94-6.48-20.64c-1.44-5.46-3.11-10.93-3.6-16.32
				c-0.69-7.61,0.22-15.6-0.24-24c2.95-0.16,4.29-3.82,5.52-6.48c1.15,0.05,2.82,1.66,3.36,3.12c-0.58,1.99-1.77,5.43-2.64,7.92
				c-4.58,3.94-1.65,14.76,1.2,17.52c1.53,0.23,2.38,1.14,3.6,1.68c2.28-0.91,3.87-2.93,5.35-4.86c1.14-1.5,2.23-2.95,3.53-3.78
				c1.74,7.03,5.22,13.74,7.68,20.88c0.86,2.5,1.88,5.15,2.4,7.68c0.64,3.14,0.78,6.48,1.44,9.6
				C199.93,304.43,201.03,307.49,201.47,310.64z"/>
			<path class="st2" d="M201.05,336.76l-0.06,1.72c-3.79,0.74-6.48,1.11-11.04,0.96c0.99,1.95,0.85,4.42,0.59,7.01l-0.57-0.06
				c0.22-2.42,0-4.91-0.98-6.47h-1.68c-0.58,2.04-0.5,4.6,0.04,6.91l-0.63,0.15c-0.46-1.85-0.68-3.84-0.37-6.1v-0.72
				c-2.33,0.67-4.03,1.41-6.48,1.44c1.18,5.98,0.54,13.63,0,20.64c-0.43,5.5,0.24,11.11,0.24,16.32c0,4.33-0.35,8.47,0.24,12.72
				c1.59,11.46,1.88,24.05,4.32,35.04c0.82,3.7,2.33,7.11,2.88,10.8c0.28,1.92,0.13,3.74,0.48,5.52c0.33,1.69,1.31,3.29,1.68,5.04
				c0.34,1.62-0.09,3.29,0,5.04c0.15,2.96,1.11,5.95,1.44,8.88c0.29,2.64,0.27,5.27,0.77,7.69l-1.67,0.32
				c-0.89-4.5-1.61-9.21-1.98-14.25c-9.11-4.49-19.1-8.11-27.84-12.96c-0.8-0.32-0.8-1.44-1.44-1.92
				c-21.93-12.28-44.74-23.72-67.68-34.56c-22.87-10.81-44.29-24.29-66.24-35.76c-4.13,3.59-9.94,5.5-14.93,8.24V367.4
				c7.35-3.79,15.29-7.73,21.17-12.13c-7.13,2.55-14.11,5.13-21.17,7.86v-3.79c0.66-0.24,1.31-0.48,1.97-0.71
				c7.41-2.59,14.71-4.39,21.36-8.16c2.29-1.3,5.27-3.24,6.72-3.12c2.22,0.19,4.53,3.46,6.24,4.8c2.41,1.89,4.44,2.98,6,5.04
				c22.21,7.72,42.23,19.81,62.4,29.28c11.1,5.21,22.24,10.94,32.4,16.8c2.05,1.19,3.94,2.79,6,3.84c2.67,1.36,5.65,1.71,7.44,3.6
				c7.87,2.05,14.54,6.58,21.36,8.88c-1.02-6.05-1.53-13.46-2.4-18.72c-3.12-18.75-2.73-39.78-5.28-58.32
				c-0.49-0.55-2.15,0.07-2.64-0.48c-1.41-3.78-6.25-18.22-7.2-21.12c-0.8-2.42-5.12-13.61-6.48-21.08
				c-1.54-10.56-2.21-22.05-3.36-32.68c-0.13-1.23,0.21-2.77-0.24-4.08c-0.43-1.24-3.21-3.6-4.56-5.04
				c-3.43-3.67-6.71-6.65-9.6-10.08c-7.51-8.88-14.83-18.55-21.6-27.36c-5.6-7.29-10.57-15.45-15.6-23.52
				c-2.52-4.05-7.1-13.12-7.1-13.37c-2.27-5.29-4.04-10.96-4.9-17.11c-3.53-7.96-4.6-18.15-5.04-28.8
				c-0.22-5.21-1.06-11.53-1.2-17.52c-0.07-2.81-0.22-5.48-0.48-8.16c-0.23-2.26-0.32-4.85-0.72-6.72c-0.49-2.3-1.88-3.84-1.68-6
				c0.15-1.67,1.47-3.11,2.16-4.56c-0.56-2.82-1.21-5.94-2.64-7.68c-4.89-5.96-14.56-10.52-18.24-18c-1.23-2.5-1.4-5.61-2.16-8.88
				c-0.62-2.66-2.38-6.74,0.48-8.88c3.56,1.15,1.6,7.84,3.12,11.04c-0.13-5.87,0.47-10.62,2.16-14.88c0.81-2.07,1.15-4.73,2.88-6
				c1.44,0.24,1.5,1.85,1.44,3.6c0.46-0.27,1.48-0.92,1.44,0.24c2.05,3.15,0.2,7.3,0,11.52c-0.18,3.72,0.52,6.77,0.96,9.84
				c0.29,2.05-0.13,5.22,2.16,5.28c-0.36-3.39-2.75-7.92-0.48-11.76c4.16,1.78,2.36,7.87,3.84,12c0.34,0.95,1.55,3.34,2.4,4.8
				c2.23,3.86,5.06,7.34,7.2,11.76c1.59,3.28,1.96,5.45,5.76,4.8c4.2,3.36,1.38,9.36,1.2,14.16c-0.08,2,0.07,3.91,0.3,5.76
				c0,0,1.46,8.17,1.62,11.52c0.15,3.35,0.4,13.48,2.41,24.28c0.81,5.19,2.22,9.36,3.83,13.88c1.46,4.11,2.92,8.7,4.8,12.72
				c2.44,5.22,5.21,10.48,7.92,15.6c2.43,4.6,9.32,16.87,10.75,18.94c5.15,8.19,10.86,15.8,17.57,21.86c1.54,1.4,2.96,2.82,3.84,4.8
				c3.45,1.58,4.58,5.5,8.4,6.72c0.72-4.16,3.14-6.62,5.28-9.36c0.07-2.44-0.14-4.79-0.54-7.02l0.45-0.08
				c0.63,3.63,1.16,7.33,2.01,10.7c1.44,0.08,2.01-0.71,2.88-1.2c1.61-9.12-2.15-16.79-5.28-24.24l0.39-0.2
				c2.94,5.56,5.28,11.71,6.33,19.16c2.22,1.78,3.88,4.12,4.56,7.44c2.28,0.2,2.56,2.4,4.56,2.88c3.27-8.04,5.85-16.22,6-25.68
				c0.2-13-2.29-23.67-4.56-34.08c-2.28-10.44-7-19.38-11.52-27.84c-1.67-3.13-9.8-12.55-12.06-14.97
				c-2.54-3.09-5.03-6.12-7.62-8.79c-3.75-3.86-9.13-10.83-12.31-14.99c-1.67-2.07-5.54-6.86-7.37-8.77
				c-2.23-0.58-7.92-6.35-7.92-9.6c0-2.01,1.64-2.79,1.68-4.56c0.05-2.33-1.61-4.59-2.88-5.52c-2.09-1.53-7-2.09-10.32-2.64
				c-2.41-0.4-9.47,0.54-9.84-2.88c-0.16-1.46,2.31-2.47,4.32-2.64c3.15-0.26,5.38,1.58,8.4,0.96c-1.31-2.16-4.86-2.44-7.44-2.88
				c-1.92-0.33-4.57-0.34-6.48,0c-1.42,0.25-2.7,1.14-4.08,1.2c-2.89,0.13-3.59-1.23-5.28-1.92c-1.08-0.44-2.54,0.4-2.88-0.96
				c-0.14-2.22,1.83-2.33,3.36-2.88c-0.4-0.8-1.71-0.69-1.44-2.16c4.46-3.09,12.21-2.7,18.24-0.96c-1.16-2.7-6.96-3.46-4.8-7.2
				c2.15-1.34,4.64,2.75,4.8,0.48c1.03,3.52,4.66,4.41,6.72,7.2c2.79,3.77,4.43,8.73,6.96,12.72c1.75,2.76,4.48,4.35,6.96,6.48
				c0.12-1.31,1.81-1.06,2.4-1.92c2.4,1.28,3.89,3.47,5.52,5.52c11.65,7.68,20.97,19.69,29.87,32.53l-0.72,0.5
				c-1.01-1.46-2.08-2.87-3.23-4.23c-2.71-3.23-5.44-6.4-8.16-9.6c-2.53-2.96-5.44-5.2-8.18-7.75c-1.24-1.16-2.45-2.38-3.58-3.77
				c-2.01-1.12-3.69-2.55-5.28-4.08c-1.18,3.78-1.96,7.96-5.52,9.36c1.77,2.25,3.58,4.49,5.41,6.73c0.57-0.18,1.15-0.35,1.76-0.5
				c-0.51-1.48-1.71-2.29-2.16-3.84c1.93-0.06,3.21,2.54,5.04,3.36c0.99-1.97,1.2-4.71,3.12-5.76c-0.01,3.68-0.02,4.77-0.48,7.68
				c2.46-0.14,4.41,0.23,6.48,0.48c-0.98,2.06-3.73,2.36-5.28,3.84c0.09,1.42,0.9,3.88,0.28,5.29c3.14,3.7,6.3,7.39,9.47,11.06
				c2.06-0.15,3.58,1.61,5.58,1.98c1.22-2.52,1.72-5.77,3.75-7.49c1.14,2.23,0.14,5.76,0.98,7.69c1.49-0.75,3.42-1.05,5.52-1.18
				c-0.69,2.13-2.63,3.02-3.74,4.73c1.73,1.22,4.11,1.8,5.12,3.74c-2.87-0.94-6.22-0.93-9.07-1.18c-0.03,0.3-0.06,0.64-0.09,0.99
				c0.16,0.18,0.31,0.36,0.47,0.54c2.67,3.08,5.2,6.45,7.44,10.08c2.54,4.11,4.93,8.42,7.2,13.68c0.73,1.69,1.43,3.51,2.16,5.28
				c0.72,1.74,1.93,3.42,2.4,5.04c0.44,1.51,0.5,3.19,0.96,4.8c0.46,1.62,0.98,3.34,1.5,5.12c0.73-0.6,1.84-0.83,2.62-1.37
				c-0.19-0.28-0.39-0.54-0.58-0.81l0.2-0.15c0.31,0.4,0.68,0.78,0.91,1.17c-0.45,0.46-1.34,0.48-1.89,0.84
				c0.14,0.24,0.73,0.04,1.05,0.1c-0.17,1.14-1.32,2.19-1.16,4.01c0.92-0.7,1.56-1.67,2.21-2.64c0.84,0.48,1.5,1.15,2.21,1.75
				l-0.17,0.19c-0.6-0.53-1.23-1.08-1.93-1.41c-0.8,0.81-1.37,1.83-2.31,2.5c1.17,4.44,2.17,9.23,2.38,14.22
				c0.14,3.36,0.14,6.73,0,9.84c-0.31,6.71-3.38,11.74-4.08,18.72c-0.11,1.12,0.14,2.24,0,3.36c-0.17,1.32-0.51,2.49-0.96,3.56
				c-1.33,3.21-3.61,5.55-5.04,8.44c-0.36,0.74-0.32,1.65-0.72,2.4c-0.89,1.63-2.26,2.77-2.64,4.56c-1.56,7.39,3.36,16.9,9.36,10.32
				c0.1-0.11,0.21-0.24,0.31-0.39l1.2,0.09c-1.48,1.93-3.07,3.95-5.35,4.86c-1.22-0.54-2.07-1.45-3.6-1.68
				c-2.85-2.76-5.78-13.58-1.2-17.52c0.87-2.49,2.06-5.93,2.64-7.92c-0.54-1.46-2.21-3.07-3.36-3.12c-1.23,2.66-2.57,6.32-5.52,6.48
				c0.46,8.4-0.45,16.39,0.24,24c0.49,5.39,2.16,10.86,3.6,16.32c2.03,7.7,3.98,14.35,6.48,20.64c2.11,5.33,4.27,10.73,5.76,16.08
				c1.15,4.12,1.74,8.43,3.84,12.24C193.14,337.3,196.09,336.6,201.05,336.76z M187.07,444.79c-0.94-4.74-1.18-10.18-2.64-14.4
				c-6.16-1.66-11.25-5.69-17.04-8.4c-8.37-3.92-17.21-7.62-26.16-11.28c-11.51-4.71-22.84-10.18-34.08-15.6
				c-11.16-5.38-22.42-10.64-33.36-16.32c-5.47-2.84-11.5-5.05-16.8-8.16c-5.5-3.23-11.57-6.83-16.8-8.88
				c-3.03,1.29-5.33,3.31-8.4,4.56C81.86,394.38,134.84,419.51,187.07,444.79z M184.2,191.04c0.19-1.15,0.66-2.38,0.87-3.11
				c-0.53,0-1.18,0.29-1.66,0.32C183.68,189.17,183.94,190.1,184.2,191.04z M182.99,338.23c1.42-1.31-0.28-4.22-0.72-6.48
				c-3.72-19.15-12.64-36.21-15.36-55.92c-0.48,8.09,2.08,19.02,4.08,26.64c1.03,3.95,2.07,7.73,3.36,11.52
				c1.22,3.58,3.01,7,4.08,10.56c0.45,1.52,0.32,3.07,0.72,4.56c0.37,1.4,1.49,3.12,1.92,4.8
				C181.46,335.43,180.88,338.18,182.99,338.23z M180.59,338.95c-1.39-4.47-2.85-8.96-4.3-13.49c-1.79-5.59-3.57-11.24-5.19-16.99
				c-1.01,0.96-2.4,1.54-3.46,2.44c0.48,1.36,1.17,2.5,1.45,4.05c-1.21-1.14-2.37-2.33-3.43-3.63c-0.47,0.42-0.93,0.86-1.44,1.26
				c0.02,0.06,0.03,0.13,0.05,0.2c1.08,4.58,3.2,9.09,4.56,13.68c0,0.01,0.01,0.03,0.01,0.04c0.22-0.01,0.41-0.02,0.54-0.05
				c-0.08-0.98-1.2-1.4-1.11-2.21c0.81-0.02,1.72,0.78,2.55,1.11c0.2-1.22,0.39-2.43,1.22-3c0.41,0.97,0.34,2.4,0.78,3.33
				c0.96-0.06,2.15-0.42,3.1-0.11c-0.38,1.09-1.4,1.55-1.99,2.44c0.85,0.4,2.06,0.52,2.55,0.99c-0.9,0.33-2.36-0.03-3.88,0.12
				c-0.62,1.3-0.91,2.93-1.89,3.88c-0.44-0.82-0.43-2.42-0.44-3.33c-0.19,0.01-0.38,0.05-0.57,0.1c0.88,3.66,1.63,7.27,3.45,10.37
				C175.65,339.77,178.16,339.4,180.59,338.95z M168.78,308.42c0.74-0.07,1.67-0.39,2.24-0.23c-3.14-11.15-5.7-22.65-6.66-34.76
				c-0.09,0-0.19,0.01-0.28,0.01c-0.62,1.31-0.91,2.94-1.89,3.88c-0.44-0.81-0.43-2.41-0.44-3.32c-1.24,0.09-2.57,1.14-3.55,0.77
				c0.43-0.93,1.35-1.38,2.11-1.99c-0.54-0.72-1.9-0.62-2-1.78c0.75-0.18,2.04-0.13,2.55-0.22c-0.08-0.98-1.21-1.41-1.11-2.21
				c0.81-0.02,1.72,0.78,2.55,1.1c0.19-1.21,0.39-2.42,1.22-2.99c0.33,0.78,0.36,1.86,0.59,2.74c-0.19-3.89-0.21-7.84-0.01-11.86
				c0.17-3.84,0.54-7.75,1.13-11.73c-0.61-0.6-2.51,2.26-3.6,1.44c-0.83-2.33-0.8-4.24-1.2-6.72c-3.45,3.12-3.8,9.38-3.57,16.18
				c0.62,0.3,1.23,0.67,1.8,0.93c0.24-0.8,0.13-1.95,0.31-2.8h0.31c0.28,0.99,0.68,2.33,0.73,3.21c1.15-0.23,2.55-0.76,3.84-0.52
				c-0.5,1.27-1.84,1.69-2.6,2.7c0.17,1.18,0.76,1.95,1.04,3.01c-1.1-0.45-1.68-1.43-2.8-1.87c-0.75,0.49-1.47,1-2.36,1.35
				c0.08,1.59,0.15,3.16,0.18,4.69c0.05,2.47,0.06,4.94,0.07,7.35c0.03,5.78,0.08,11.24,0.7,15.56c0.9,6.19,3.12,11,5.19,17.58
				c0.52,0.1,1.04,0.2,1.67,0.19c0.3-1.07,0.31-1.78,0.31-3.12c1.13,0.09,1.67,1.65,2.7,2.18c0.41-0.23,1.15-0.61,1.56-0.52
				C169.46,307.45,169,307.82,168.78,308.42z M168.59,245.6c3.43-1.1,3.85-8.66,1.2-11.04c-0.51,3.14-4.98,7.31-7.44,3.6
				c-1.42,1.75-0.35,5.09,0,7.2c2.13-1.23,2.93-3.79,5.04-5.04C168.6,241.26,168.17,243.85,168.59,245.6z M168.99,307.17
				c-0.38-0.02-0.5,0.2-0.83,0.21c-0.08,0.32,0.18,0.31,0.1,0.63c-1.25-0.48-1.39-2.08-2.7-2.5c0.02,1.21-0.17,2-0.42,3.12
				c-0.67-0.04-1.2-0.22-1.8-0.34c0.03,0.18,0.06,0.35,0.1,0.52c0.59,0.4,1.23,0.75,1.7,1.27c-0.55,0.22-0.92,0.62-1.23,1.09
				c0.09,0.38,0.17,0.77,0.26,1.15c0.57-0.49,1.09-1.14,1.6-1.61c0.59,1.41,1.79,2.22,2.7,3.32c-0.1-1.01-0.83-2.29-1.25-3.32
				c1.05-0.73,2.31-1.22,3.12-2.19c-0.83,0.08-1.83,0.41-2.5,0.32C168.11,308.17,168.89,308.02,168.99,307.17z M163.84,310.83
				c0.22-0.32,0.45-0.64,0.68-0.95c-0.29-0.27-0.65-0.48-1.01-0.68C163.61,309.74,163.73,310.3,163.84,310.83z M161.46,262.43
				c0.13-0.78-0.64-1.57-0.73-2.49c0.92-0.61,1.94-1.1,2.5-2.07c-1.39,0.03-2.46,0.38-3.53,0.72c-0.24-0.46-0.08-1.64-0.31-2.38
				c-0.36,0.5-0.34,1.39-0.52,2.07c-0.84-0.23-1.26-0.88-2-1.2c0.01,0.24,0.01,0.47,0.02,0.7c0.39,0.36,0.88,0.73,1.15,1.02
				c-0.24,0.31-0.64,0.45-1.08,0.56c0.02,0.25,0.03,0.5,0.04,0.75c0.42-0.03,0.81-0.05,1.14,0.04c-0.22,0.67-0.69,1.09-1.06,1.61
				c0.01,0.21,0.02,0.41,0.03,0.62c0.97-0.36,1.74-0.92,2.48-1.5C160.26,261.36,160.93,261.83,161.46,262.43z M157.41,260.46
				c-0.12-0.01-0.25,0-0.39,0.01c0.01,0.24,0.02,0.48,0.03,0.72C157.24,260.95,157.39,260.7,157.41,260.46z M156.94,258.92
				c0.17-0.07,0.33-0.14,0.47-0.22c-0.17-0.13-0.34-0.28-0.5-0.44C156.92,258.49,156.93,258.7,156.94,258.92z M153.95,259.04
				c0.88-3.92,0.93-8.67,2.16-12.24c-8.98-9.47-17.58-18.22-25.68-28.56c-1.18-1.5-2.16-3.13-3.11-4.82
				c0.08,0.18,0.16,0.35,0.22,0.55c-1.81-0.61-2.68-2.16-4.38-2.87c-0.77,1.4-1.63,2.71-2.88,3.63c-0.25-1.68,0.56-3.35,1-4.76
				c-0.67,0.03-2.49,0.51-2.75-0.25c0.94-0.47,1.98-0.85,2.88-1.38c-0.55-0.9-1.65-1.82-1.51-3c1.18,0.53,2.11,1.32,3.13,2
				c0.16-0.24,0.31-0.49,0.45-0.75c-2.25-3.65-4.54-7.16-6.73-10.67c-2.4-3.85-3.64-8.08-5.76-12.24c-0.78-1.53-1.51-3.05-2.21-4.58
				c-2.11-4.59-3.93-9.26-5.95-14.38c-0.82-2.08-1.13-4.3-1.92-6.48c-0.39-1.09-1.31-2.01-1.68-3.12c-0.66-1.97-0.94-4.51-1.44-6.72
				c-0.01-0.02-0.01-0.04-0.01-0.06c-0.28-0.1-0.55-0.19-0.83-0.25c-0.97,1.59-1.41,3.72-3.12,4.56c-1.09-1.52-0.09-4.16,0-6
				c-1.42,0.26-2.41,0.96-4.08,0.96c0.31-1.93,2.05-2.42,2.88-3.84c-0.43-1.5-2.04-1.8-2.16-3.6c1.15-0.59,2.08,1.11,3.6,0.96
				c0.06-2.25,0.02-3.29,0.72-5.04c0.78,0,1.27,1.16,1.79,2.23c-0.17-3.69-0.18-7.41-0.47-11.28c-0.04-0.48-0.09-0.95-0.13-1.42
				c-0.36,1.27-0.85,2.39-1.61,3.26c-0.4-1.85-1.13-3.37-1.06-5.69c-1.77,0.61-3.19,2.48-5.51,1.96c1.26-1.71,3.25-2.67,4.44-4.44
				c-0.95-1.49-3.41-2.38-3.55-4.09c2.04,0.1,3.82,1.97,6.21,2.31c0.07-0.13,0.13-0.28,0.18-0.44c-0.6-3.94-1.3-7.81-1.85-11.61
				c-3.11,0.15-5.53-0.39-7.68-1.2h-0.48c0.79,3.84,1.11,7.01,1.44,12.24c0.14,2.34,0.99,4.8,0.96,6.96c0,0.09,0,0.17-0.01,0.26
				c-0.06,2.03-0.46,3.69-0.23,5.5c0.6,4.78,0.98,11.16,1.71,17.07c0.2,1.64,0.43,3.25,0.69,4.77c0.82,4.7,1.7,9.59,2.88,13.68
				c1.22,4.22,2.94,8.21,4.61,12.1c1.19-0.09,2.54,0.44,3.7,0.63c0.59-1.01,0.02-3.19,0.84-3.98c0.73,1.21,1.02,2.84,1.57,4.22
				c0.86-0.25,1.94-0.06,2.83,0.12c0.2,0.04,0.38,0.08,0.55,0.12c-0.33,1.4-1.79,1.67-2.53,2.66c1.06,0.75,2.43,1.19,3.14,2.29
				c-1.38-0.11-3.35-0.05-5.07,0.12c-0.56,1-0.8,2.32-1.31,3.37c0.02,0.07,0.05,0.13,0.07,0.19c0.62,1.99,1.56,3.75,2.88,5.28
				c0.38,4.47,4.8,9.48,7.2,13.2c4.91,7.61,10.81,15.87,16.08,22.8c1.99,2.62,4.4,5.11,6.48,7.68
				C139.76,244.62,146.17,252.99,153.95,259.04z M146.72,114.79c-1.55-1.22-4.11-0.03-6-0.72c1-1.24,1.15-3.32,1.2-5.52
				c-1.22,0.95-1.41,2.91-2.16,4.32c-1.37-0.31-1.51-1.85-2.88-2.16c0.2,0.76,0.91,1.02,0.96,1.92c-0.53,0.44-1.41,0.53-2.29,0.6
				c0.28,0.35,0.56,0.7,0.84,1.04c0.44,0.06,0.86,0.13,1.21,0.28c-0.1,0.28-0.21,0.54-0.34,0.78c0.4,0.49,0.82,0.98,1.23,1.48
				c0.26-0.28,0.52-0.55,0.79-0.82c1.32,1.4,2.11,3.34,3.36,4.8c0.66-1.06-0.06-2.81-0.48-3.6
				C143.65,116.37,145.35,115.75,146.72,114.79z M128.03,103.04c1.88-1.63,5.6-5.37,4.56-9.84c-0.24-1.01-2.48-4.01-3.6-4.08
				c-1.17-0.07-2.86,2.27-3.84,3.36c-0.79,0.87-2.89,2.83-2.88,4.08c0,1.15,1.8,3.2,2.4,3.84
				C125.68,101.47,126.9,102.13,128.03,103.04z M122.75,92c5.11-1.86,0.33-3.93-1.92-6.24c-1.01-1.04-2.54-3.1-3.36-4.8
				c-0.45-0.93-0.45-2.19-0.96-3.12c-0.55-1-1.54-1.86-2.16-2.88c-1.77-2.89-3.69-6.93-6.72-8.16c-0.22-1.06-1.35-1.21-1.68-2.16
				c-0.98,0.25-1.35,0.57-2.4,0.24c-0.98-0.06-0.51-1.57-0.96-2.16c-1.04-0.08-1.26,0.66-1.44,1.44c2.47,2.97,6.18,4.7,8.88,7.44
				c-4.1-1.39-11.34-4.01-17.28-2.16c-0.69,0.59-0.98,1.58-1.92,1.92c-1.13,0.13-0.97-1.92-1.92-1.2c-1.09,0.87,0.1,1.84,0.96,2.16
				c5.13-1.46,13.94-2.54,18.72,0.24c-1.04,0.79-2.1-0.45-2.88-0.72c-5.3-0.18-11.67-0.49-16.32,1.44
				c-0.08,0.73,0.27,1.87-0.48,1.92c-0.58,0.51-1.06-0.54-1.44-0.96c0.72,0.01,1.38,1.02,1.44-0.24c-0.85-1.12-2.66,0.17-2.64,1.44
				c4.07,0.86,6.44-2.55,10.08-2.64c3.43-0.09,6.57,0.28,10.08,1.44c-4.11,0.27-9.04-1.5-13.2,0c0.66,2.72-1.37,2.71-3.36,1.92
				c0.73,1.43,2.49,1.35,4.08,1.2c2.23-0.21,4.57-1.24,7.2-1.2c4.41,0.07,9.79,0.95,11.76,4.08c-1.67,1.77-5.07-0.16-7.2-0.24
				c-0.98,0.03,0.14,1.42-0.96,1.68c-0.81-0.21,0.84-1.93-0.48-1.92c-0.71,0.26-1.08,2.48-2.88,2.4c-0.44-0.43-1.02-1.02-0.24-1.44
				c-0.47-0.53-1.43,0.48-1.2,1.44c1.02,1.9,4.93,0.96,7.92,1.44C115.08,84.74,120.99,85.45,122.75,92z M103.55,63.44
				c-0.17,0.89,0.38,1.06,1.2,0.96C104.67,63.76,104.12,63.59,103.55,63.44z M102.83,80c-0.98-0.11-1.52,1-1.2,1.44
				C102.28,81.21,102.79,80.84,102.83,80z M99.27,183.43c0.13,0.33,0.26,0.67,0.38,1c0-0.38-0.01-0.75-0.04-1.08
				C99.51,183.38,99.38,183.4,99.27,183.43z M98.55,181.65c0.35-0.2,0.71-0.39,1.06-0.59c-0.73-0.62-1.48-1.21-2.12-1.92
				C97.85,179.98,98.2,180.81,98.55,181.65z M95.82,123.98c-0.16-1.37-0.33-2.73-0.53-4.08c-0.01,0.03-0.02,0.07-0.03,0.1
				c-1.77-0.61-3.14-1.6-4.97-2.13c0.96,1.1,1.96,2.18,3.19,3.01c-1.47,1.13-2.92,2.29-4.26,3.56c1.57-0.09,3.31-1.54,4.8-2.31
				c-0.14,1.4-0.14,3.48,0.35,5.15C95.3,126.69,95.57,125.25,95.82,123.98z M93.95,105.44c1.13-2.6,1.66-7.02,0-9.36
				c-3.57-0.67-5.26-0.99-8.64-0.48c-0.71,1.78-0.63,4.33-1.2,6.24C85.84,104.59,90.17,104.74,93.95,105.44z M91.07,75.44
				c0.32,0.93,1.89,0.91,1.68-0.48C92.13,74.37,91.86,75.48,91.07,75.44z M91.79,69.92c-0.25-0.96-0.98,0.03-1.92-0.24
				C90.11,71.05,91.08,70.38,91.79,69.92z M84.83,93.68c2.11,0.1,2.97-0.87,4.56-0.72c-1.39-6.46-5.03-10.65-8.4-15.12
				c-2.35-4.34-3.55-9.23-4.08-14.88c-1.96,0.48,0.05,1.71-0.48,2.64c-2.57-0.76,0.62-3.55-0.48-4.32
				c-3.47,2.54,1.51,8.38,0.96,10.8c-0.19,0.81-1.03,1.23-1.44,1.2c-2.5-0.17-2.32-4.75-2.64-6.96c-0.77-5.27-1.26-12.63,0-17.52
				c-0.56,1.12-1.49,2.18-2.4,1.68c-0.72,5.51-0.3,11.35,0.72,17.76c-1.97-0.34-1.58-3.85-1.68-6c-0.25-5.26-0.6-11.18,0.96-15.12
				c0.03-0.43-0.29-0.51-0.24-0.96c-0.4,0.32-0.81,0.64-1.68,0.48c-1.18,6.16-1.79,16.6,0.24,22.32c-2.32-0.8-1.85-4.36-1.92-6.96
				c-0.12-4.04-0.28-8.67,0.24-12.24c-2.22,5.67-1.75,10.19-0.96,15.6c-5.05-2.56-0.93-10.67-4.8-12.96
				c-0.86,1.58,1.19,1.68,1.2,3.12c0.09,1.21-0.92,1.33-1.68,1.68c1.32,5.61,2.18,11.07,5.28,14.88c2.28,2.8,4.99,5.63,7.92,8.16
				C78.19,83.83,84.01,86.47,84.83,93.68z M71.15,49.76c0.68-0.25,1.22-1.48,0.72-2.16C71.19,47.85,70.56,49,71.15,49.76z
				 M70.19,44.48c0.76-0.62-0.24-1.5-0.24-2.16C68.95,42.64,70,43.88,70.19,44.48z M68.75,45.92c1.3,0.21,0.98-1.47,0.72-2.16
				C68.67,43.89,68.55,45.54,68.75,45.92z M60.83,56.48c1.16,0.02,1.33-1.97,0-1.92V56.48z"/>
			<path class="st2" d="M196.67,195.92c1.02,4.68,1.97,9.56,1.2,15.36c-0.33,2.46-1.46,5.02-1.68,7.92
				c-0.43,5.65-0.06,12.11-0.96,17.76c-0.34,2.08-0.4,4.25-0.71,5.63c-0.57,2.45-1.4,7.3-2.47,10.23c-0.53,1.46-1.18,2.53-1.69,3.62
				l-1.33-0.54c0.73-1.53,1.43-3.13,2.03-4.77c-0.7-1.18-1.48-2.39-2.33-3.3c-1.6,1.36-3.4,2.52-5.66,3.21
				c0.02-2.07,2.16-3.62,3.21-5.29c-0.62-1.58-2.27-2.14-3.03-3.59c1.83-0.38,3.5,1.04,5.29,1.32c0.47-2.35-0.95-5.9,0.57-6.42
				c1.05,1.66,2.84,2.58,3.59,4.54c0.13-0.12,0.25-0.24,0.37-0.37c0.25-3,0.44-6.06,0.72-9.07c0.36-3.86,0.25-7.38,0.24-10.8
				c-0.04-8.28,2.28-18.46,0.72-27.12c-0.38-2.09-1.11-4.21-1.94-6.37c-1.09,0.43-2.22,0.81-3.53,1.02c0.41,1.1,0.95,2.07,1.16,3.37
				c-0.58-0.28-1.15-0.8-1.75-1.33l0.17-0.19c0.33,0.28,0.67,0.55,1.05,0.78c-0.18-1.19-0.75-1.98-1.15-2.95
				c1.05-0.19,2.71-0.35,3.68-0.95c-0.85-0.36-1.98-0.93-3.16-0.63c0.03-0.89,0.61-2.12,0.74-3.26c-0.84,0.6-1.36,1.52-2.11,2.21
				c-0.92-0.62-2.07-1.01-2.94-1.68c-0.01,0.44,0.25,0.85,0.56,1.25l-0.2,0.15c-0.43-0.58-0.85-1.17-1.1-1.93
				c1.2,0.17,2.41,1.24,3.68,1.68c0.97-0.68,1.35-1.94,2.53-2.42c-0.17,1.2-0.51,2.23-0.74,3.37c0.9,0.33,2.06,0.39,2.85,0.82
				c-0.82-2.1-1.68-4.23-2.36-6.38c-0.75-2.38-1.27-4.49-2.16-6.72c-4.1-10.27-9.65-20.99-14.4-30.24
				c-1.59-3.08-3.09-6.04-4.62-8.86c-1.77-3.26-3.58-6.34-5.59-9.23l0.72-0.5c2.06,2.97,4.09,5.98,6.13,8.99
				c5.32,7.87,9.74,16.22,14.4,24.48c2.39,4.23,4.59,8.54,6,13.44c1.41,4.91,3.37,9.87,4.56,14.88
				C195.94,190.03,196.04,193.03,196.67,195.92z"/>
			<path class="st2" d="M196.73,508.57l0.41,0.1c-0.56,2.48-1.1,4.97-1.67,7.4c-0.84,3.55-2.09,6.86-3.32,10.1l-0.58-0.22
				c0.23-0.62,0.42-1.27,0.54-1.96c-2.15,0.08-2.94-3.09-6.24-2.64c-3.72-3.35-8.44-5.43-12.72-7.92
				c-4.43-2.57-8.92-5.01-13.44-7.44c-8.95-4.81-17.59-10.38-26.64-14.88c-9.03-4.49-17.64-9.94-26.4-15.12
				c-8.77-5.18-17.79-10.09-26.4-15.36c-17.29-10.58-34.42-21.24-52.08-30.96c-6.12-3.37-12.14-6.9-18.05-10.58v-8.54
				c8.78,5.52,17.9,10.73,27.17,16c18.39,10.45,37.21,21.26,55.92,31.92c10.94,6.24,21.65,12.5,32.64,18.72
				c1.49,0.84,2.84,1.72,4.56,2.16c0.99-0.32,1.48,1.15,2.64,1.68c1.22,0.57,2.78,1.95,4.56,2.88c1.89,0.99,3.86,1.76,4.8,2.4
				c0.55,0.38,1.14,1.65,1.92,2.16c0.79,0.52,2.13,0.46,3.12,0.96c2.15,1.09,4.74,2.83,7.44,4.08c0.79,0.37,1.6,1.01,2.4,1.44
				c0.86,0.47,1.83,0.72,2.64,1.2c1.56,0.92,2.77,2.53,4.32,3.36c1.01,0.54,2.15,0.65,3.12,1.2c4.64,2.66,8.92,5.77,13.44,8.4
				c4.68,2.72,9.51,4.96,13.44,8.16C195.28,514.57,196.03,511.6,196.73,508.57z"/>
			<path class="st5" d="M194.75,194.24c1.56,8.66-0.76,18.84-0.72,27.12c0.01,3.42,0.12,6.94-0.24,10.8
				c-0.28,3.01-0.47,6.07-0.72,9.07c-0.12,0.13-0.24,0.25-0.37,0.37c-0.75-1.96-2.54-2.88-3.59-4.54c-1.52,0.52-0.1,4.07-0.57,6.42
				c-1.79-0.28-3.46-1.7-5.29-1.32l-1.46-0.44c0.45-1.07,0.79-2.24,0.96-3.56c0.14-1.12-0.11-2.24,0-3.36
				c0.7-6.98,3.77-12.01,4.08-18.72c0.14-3.11,0.14-6.48,0-9.84c-0.21-4.99-1.21-9.78-2.38-14.22c0.94-0.67,1.51-1.69,2.31-2.5
				c0.7,0.33,1.33,0.88,1.93,1.41c0.6,0.53,1.17,1.05,1.75,1.33c-0.21-1.3-0.75-2.27-1.16-3.37c1.31-0.21,2.44-0.59,3.53-1.02
				C193.64,190.03,194.37,192.15,194.75,194.24z"/>
			<path class="st5" d="M190.19,180.79c0.68,2.15,1.54,4.28,2.36,6.38c-0.79-0.43-1.95-0.49-2.85-0.82
				c0.23-1.14,0.57-2.17,0.74-3.37c-1.18,0.48-1.56,1.74-2.53,2.42c-1.27-0.44-2.48-1.51-3.68-1.68c0.25,0.76,0.67,1.35,1.1,1.93
				c0.19,0.27,0.39,0.53,0.58,0.81c-0.78,0.54-1.89,0.77-2.62,1.37c-0.52-1.78-1.04-3.5-1.5-5.12c-0.46-1.61-0.52-3.29-0.96-4.8
				c-0.47-1.62-1.68-3.3-2.4-5.04c-0.73-1.77-1.43-3.59-2.16-5.28c-2.27-5.26-4.66-9.57-7.2-13.68c-2.24-3.63-4.77-7-7.44-10.08
				c-0.16-0.18-0.31-0.36-0.47-0.54c0.03-0.35,0.06-0.69,0.09-0.99c2.85,0.25,6.2,0.24,9.07,1.18c-1.01-1.94-3.39-2.52-5.12-3.74
				c1.11-1.71,3.05-2.6,3.74-4.73l0.07-0.04c1.53,2.82,3.03,5.78,4.62,8.86c4.75,9.25,10.3,19.97,14.4,30.24
				C188.92,176.31,189.44,178.42,190.19,180.79z"/>
			<path class="st0" d="M189.28,186.99c1.18-0.3,2.31,0.27,3.16,0.63c-0.97,0.6-2.63,0.76-3.68,0.95c0.4,0.97,0.97,1.76,1.15,2.95
				c-0.38-0.23-0.72-0.5-1.05-0.78c-0.71-0.6-1.37-1.27-2.21-1.75c-0.65,0.97-1.29,1.94-2.21,2.64c-0.16-1.82,0.99-2.87,1.16-4.01
				c-0.32-0.06-0.91,0.14-1.05-0.1c0.55-0.36,1.44-0.38,1.89-0.84c-0.23-0.39-0.6-0.77-0.91-1.17c-0.31-0.4-0.57-0.81-0.56-1.25
				c0.87,0.67,2.02,1.06,2.94,1.68c0.75-0.69,1.27-1.61,2.11-2.21C189.89,184.87,189.31,186.1,189.28,186.99z"/>
			<path class="st3" d="M188.99,339.92c0.98,1.56,1.2,4.05,0.98,6.47c-0.15,1.68-0.51,3.32-0.98,4.57
				c-0.71-1.11-1.28-2.56-1.64-4.13c-0.54-2.31-0.62-4.87-0.04-6.91H188.99z"/>
			<path class="st5" d="M191.06,251.12c-0.6,1.64-1.3,3.24-2.03,4.77c-1.22,2.57-2.53,4.95-3.64,6.98
				c-0.79,1.43-1.59,3.16-2.33,4.17c-0.1,0.15-0.21,0.28-0.31,0.39c-6,6.58-10.92-2.93-9.36-10.32c0.38-1.79,1.75-2.93,2.64-4.56
				c0.4-0.75,0.36-1.66,0.72-2.4c1.43-2.89,3.71-5.23,5.04-8.44l1.46,0.44c0.76,1.45,2.41,2.01,3.03,3.59
				c-1.05,1.67-3.19,3.22-3.21,5.29c2.26-0.69,4.06-1.85,5.66-3.21C189.58,248.74,190.36,249.95,191.06,251.12z"/>
			<path class="st5" d="M182.27,331.76c0.44,2.26,2.14,5.17,0.72,6.48c-2.11-0.05-1.53-2.8-1.92-4.32c-0.43-1.68-1.55-3.4-1.92-4.8
				c-0.4-1.49-0.27-3.04-0.72-4.56c-1.07-3.56-2.86-6.98-4.08-10.56c-1.29-3.79-2.33-7.57-3.36-11.52c-2-7.62-4.56-18.55-4.08-26.64
				C169.63,295.55,178.55,312.61,182.27,331.76z"/>
			<path class="st4" d="M176.29,325.46c1.45,4.53,2.91,9.02,4.3,13.49c-2.43,0.45-4.94,0.82-7.44,1.2
				c-1.82-3.1-2.57-6.71-3.45-10.37c0.19-0.05,0.38-0.09,0.57-0.1c0.01,0.91,0,2.51,0.44,3.33c0.98-0.95,1.27-2.58,1.89-3.88
				c1.52-0.15,2.98,0.21,3.88-0.12c-0.49-0.47-1.7-0.59-2.55-0.99c0.59-0.89,1.61-1.35,1.99-2.44L176.29,325.46z"/>
			<path class="st4" d="M176.29,325.46l-0.37,0.12c-0.95-0.31-2.14,0.05-3.1,0.11c-0.44-0.93-0.37-2.36-0.78-3.33
				c-0.83,0.57-1.02,1.78-1.22,3c-0.83-0.33-1.74-1.13-2.55-1.11c-0.09,0.81,1.03,1.23,1.11,2.21c-0.13,0.03-0.32,0.04-0.54,0.05
				c0-0.01-0.01-0.03-0.01-0.04c-1.36-4.59-3.48-9.1-4.56-13.68c-0.02-0.07-0.03-0.14-0.05-0.2c0.51-0.4,0.97-0.84,1.44-1.26
				c1.06,1.3,2.22,2.49,3.43,3.63c-0.28-1.55-0.97-2.69-1.45-4.05c1.06-0.9,2.45-1.48,3.46-2.44
				C172.72,314.23,174.5,319.88,176.29,325.46z"/>
			<path class="st4" d="M171.02,308.2c-0.57-0.16-1.5,0.16-2.24,0.23c0.22-0.61,0.68-0.98,0.73-1.77c-0.41-0.09-1.15,0.29-1.56,0.52
				c-1.03-0.53-1.57-2.09-2.7-2.18c0,1.34-0.01,2.05-0.31,3.12c-0.63,0.01-1.15-0.09-1.67-0.19c-2.07-6.58-4.29-11.39-5.19-17.58
				c-0.62-4.32-0.67-9.78-0.7-15.56l0.82-0.01c0.98,0.37,2.31-0.68,3.55-0.77c0.01,0.91,0,2.51,0.44,3.32
				c0.98-0.94,1.27-2.57,1.89-3.88c0.09,0,0.19-0.01,0.28-0.01C165.32,285.55,167.88,297.05,171.02,308.2z"/>
			<path class="st5" d="M169.79,234.56c2.65,2.38,2.23,9.94-1.2,11.04c-0.42-1.74,0.01-4.33-1.2-5.28
				c-2.11,1.25-2.91,3.81-5.04,5.04c-0.35-2.11-1.42-5.45,0-7.2C164.81,241.87,169.28,237.7,169.79,234.56z"/>
			<path class="st2" d="M158.27,161.36c8.82-0.78,12.09,11.68,11.52,19.68c-0.31,4.34-2.15,9.24-4.32,10.32
				c-0.62,7.46-1.87,14.29-3.36,20.88c0.05,0.09,0.1,0.19,0.15,0.28l-0.39,0.2c-1.2,0.64-1.6,2.08-3.12,2.4
				c1.83,3.58,2.75,7.92,3.51,12.34l-0.45,0.08c-0.76-4.3-2.22-8.21-3.78-11.7c-8.56,0.19-4.65-11.39-2.16-14.88
				c-1.05-1.61-1.73-1.67-1.92-3.12c-0.21-1.6,1.19-4.13,1.2-5.04c0.01-0.68,0.37-0.11,0.48-0.48c1.22-4.32-1.73-3.23-3.84-4.8
				c-0.02-3.56,1.41-7.39,1.44-11.52c0.01-2.33-0.62-4.69-0.24-6.72c0.43-2.32,2.49-3.4,1.2-5.52
				C155.59,162.36,156.4,161.53,158.27,161.36z M165.71,174.79c0.42-2.41-3.87-9.66-6.96-9.84c-1.05-0.06-1.69,1.08-2.88,0.72
				c-3.75,5.69-0.57,15.21-3.36,21.6c1.77,1.02,2.87,0.34,5.04,0.72c0.55-1.4,0.02-2.59-0.72-3.36c0.32-0.24,0.89-0.23,0.96-0.72
				c1.64,0.7,1.59,3.37,0.72,4.8c-0.98,0.24-0.97-0.03-2.16,0c1.16,1.62-0.15,4.29-0.72,6.24c3.8-0.81,5.48,5.75,1.2,5.52
				c-0.68,3.55-4.66,8.71-3.12,12.48c1.13,2.78,4.66,2.44,6.72,0.24c2.88-6.23,4.04-16.22,4.08-23.76
				c-1.15,0.11-1.82-0.26-2.16-0.96c-0.4-3.04,3.36-1.92,2.88-5.04c-0.76-1.16-3.07-1.62-3.36-3.12
				C161.21,176.92,165.32,177.01,165.71,174.79z M158.27,198.32c0.64-1.47-1.45-3.21-3.12-2.4
				C154.88,198.03,157.19,197.56,158.27,198.32z M154.91,198.07c0.17,1.42,2.11,1.97,3.12,1.2
				C157.68,198.34,155.49,197.99,154.91,198.07z"/>
			<path class="st5" d="M169.01,134.98l-0.07,0.04c-2.1,0.13-4.03,0.43-5.52,1.18c-0.84-1.93,0.16-5.46-0.98-7.69
				c-2.03,1.72-2.53,4.97-3.75,7.49c-2-0.37-3.52-2.13-5.58-1.98c-3.17-3.67-6.33-7.36-9.47-11.06c0.62-1.41-0.19-3.87-0.28-5.29
				c1.55-1.48,4.3-1.78,5.28-3.84c-2.07-0.25-4.02-0.62-6.48-0.48c0.46-2.91,0.47-4,0.48-7.68l1.21-1.5
				c2.74,2.55,5.65,4.79,8.18,7.75c2.72,3.2,5.45,6.37,8.16,9.6c1.15,1.36,2.22,2.77,3.23,4.23
				C165.43,128.64,167.24,131.72,169.01,134.98z"/>
			<path class="st0" d="M168.16,307.39c0.33-0.01,0.45-0.23,0.83-0.21c-0.1,0.84-0.88,1-1.15,1.67c0.67,0.09,1.67-0.24,2.5-0.32
				c-0.81,0.97-2.07,1.46-3.12,2.19c0.42,1.03,1.15,2.31,1.25,3.32c-0.91-1.1-2.11-1.91-2.7-3.32c-0.51,0.47-1.03,1.12-1.6,1.61
				c-0.09-0.38-0.17-0.77-0.26-1.15c0.31-0.47,0.68-0.87,1.23-1.09c-0.47-0.52-1.11-0.87-1.7-1.27c-0.04-0.17-0.07-0.34-0.1-0.52
				c0.6,0.12,1.13,0.3,1.8,0.34c0.25-1.12,0.44-1.91,0.42-3.12c1.31,0.42,1.45,2.02,2.7,2.5
				C168.34,307.7,168.08,307.7,168.16,307.39z"/>
			<path class="st6" d="M161.87,212.71c3.13,7.45,6.89,15.12,5.28,24.24c-0.87,0.49-1.44,1.28-2.88,1.2
				c-0.85-3.37-1.38-7.07-2.01-10.7c-0.76-4.42-1.68-8.76-3.51-12.34C160.27,214.79,160.67,213.35,161.87,212.71z"/>
			<path class="st6" d="M158.75,164.96c3.09,0.18,7.38,7.43,6.96,9.84c-0.39,2.22-4.5,2.12-3.84,5.52c0.29,1.5,2.6,1.96,3.36,3.12
				c0.48,3.12-3.28,2-2.88,5.04c0.34,0.7,1.01,1.07,2.16,0.96c-0.04,7.54-1.2,17.53-4.08,23.76c-2.06,2.2-5.59,2.54-6.72-0.24
				c-1.54-3.77,2.44-8.93,3.12-12.48c4.28,0.23,2.6-6.33-1.2-5.52c0.57-1.95,1.88-4.62,0.72-6.24c1.19-0.03,1.18,0.24,2.16,0
				c0.87-1.43,0.92-4.1-0.72-4.8c-0.07,0.49-0.64,0.48-0.96,0.72c0.74,0.77,1.27,1.96,0.72,3.36c-2.17-0.38-3.27,0.3-5.04-0.72
				c2.79-6.39-0.39-15.91,3.36-21.6C157.06,166.04,157.7,164.9,158.75,164.96z"/>
			<path class="st4" d="M161.63,247.27c1.09,0.82,2.99-2.04,3.6-1.44c-0.59,3.98-0.96,7.89-1.13,11.73l-0.25-0.01
				c-1.29-0.24-2.69,0.29-3.84,0.52c-0.05-0.88-0.45-2.22-0.73-3.21h-0.31c-0.18,0.85-0.07,2-0.31,2.8
				c-0.57-0.26-1.18-0.63-1.8-0.93c-0.23-6.8,0.12-13.06,3.57-16.18C160.83,243.04,160.8,244.95,161.63,247.27z"/>
			<path class="st4" d="M163.85,257.55l0.25,0.01c-0.2,4.02-0.18,7.97,0.01,11.86c-0.23-0.88-0.26-1.96-0.59-2.74
				c-0.83,0.57-1.03,1.78-1.22,2.99c-0.83-0.32-1.74-1.12-2.55-1.1c-0.1,0.8,1.03,1.23,1.11,2.21c-0.51,0.09-1.8,0.04-2.55,0.22
				c0.1,1.16,1.46,1.06,2,1.78c-0.76,0.61-1.68,1.06-2.11,1.99l-0.82,0.01c-0.01-2.41-0.02-4.88-0.07-7.35
				c-0.03-1.53-0.1-3.1-0.18-4.69c0.89-0.35,1.61-0.86,2.36-1.35c1.12,0.44,1.7,1.42,2.8,1.87c-0.28-1.06-0.87-1.83-1.04-3.01
				C162.01,259.24,163.35,258.83,163.85,257.55z"/>
			<path class="st0" d="M160.73,259.95c0.09,0.92,0.86,1.71,0.73,2.49c-0.53-0.61-1.2-1.08-1.87-1.55c-0.74,0.58-1.51,1.14-2.48,1.5
				c-0.01-0.21-0.02-0.41-0.03-0.62c0.37-0.52,0.84-0.94,1.06-1.61c-0.33-0.09-0.72-0.07-1.14-0.04c-0.01-0.25-0.02-0.5-0.04-0.75
				c0.44-0.11,0.84-0.25,1.08-0.56c-0.27-0.29-0.76-0.66-1.15-1.02c-0.01-0.23-0.01-0.46-0.02-0.7c0.74,0.32,1.16,0.97,2,1.2
				c0.18-0.68,0.16-1.57,0.52-2.07c0.23,0.74,0.07,1.92,0.31,2.38c1.07-0.34,2.14-0.69,3.53-0.72
				C162.67,258.85,161.65,259.33,160.73,259.95z"/>
			<path class="st2" d="M161.39,467.11l-0.52,1.04c-8.91-4.5-17.86-9-26.84-13.52c-5.24-2.63-10.42-5.09-16.08-6.96
				c-5.45-1.8-10.59-4.93-15.84-7.2c-10.58-4.58-21-9.53-30.96-15.12c-0.72-0.42-1.22,0.08-1.68-0.24
				c-11.13-7.66-23.26-13.51-35.04-20.4c-5.62-3.28-11.26-6.77-17.04-10.08c-2.39-1.37-4.81-2.74-7.25-4.07v-7.13
				c4.6,2.7,8.8,6,13.25,8.8c5.86,3.69,12.06,6.77,17.52,11.04c11.92,6.26,22.18,14.94,34.32,21.12c4.01,2.04,8.19,3.62,12,6.24
				c5.81,2.12,11.41,5.26,17.28,7.92c5.39,2.44,10.91,4.94,15.84,7.44c1.15,0.58,2.67,1.41,3.36,2.16c1.09-0.22,1.36,0.4,2.16,0.48
				c3.11,2.16,11.1,5.44,12,6c0.3,0.18,3.59,1.49,4.8,2.16c0.3,0.17,5.77,3.96,6.72,4.08c1.98,0.5,3.34,1.62,5.28,2.16
				C155.99,464.88,160.46,465.32,161.39,467.11z"/>
			<path class="st7" d="M155.15,195.92c1.67-0.81,3.76,0.93,3.12,2.4C157.19,197.56,154.88,198.03,155.15,195.92z"/>
			<path class="st7" d="M158.03,199.28c-1.01,0.77-2.95,0.22-3.12-1.2C155.49,197.99,157.68,198.34,158.03,199.28z"/>
			<path class="st5" d="M156.11,246.79c-1.23,3.57-1.28,8.32-2.16,12.24c-7.78-6.04-14.19-14.41-20.4-22.08
				c-2.08-2.57-4.49-5.06-6.48-7.68c-5.27-6.93-11.17-15.19-16.08-22.8c-2.4-3.72-6.82-8.73-7.2-13.2
				c-1.32-1.53-2.26-3.29-2.88-5.28c-0.02-0.06-0.05-0.12-0.07-0.19c0.51-1.05,0.75-2.37,1.31-3.37c1.72-0.17,3.69-0.23,5.07-0.12
				c-0.71-1.1-2.08-1.54-3.14-2.29c0.74-0.99,2.2-1.26,2.53-2.66c-0.17-0.04-0.35-0.08-0.55-0.12l2.72-0.15
				c0.7,1.53,1.43,3.05,2.21,4.58c2.12,4.16,3.36,8.39,5.76,12.24c2.19,3.51,4.48,7.02,6.73,10.67c-0.14,0.26-0.29,0.51-0.45,0.75
				c-1.02-0.68-1.95-1.47-3.13-2c-0.14,1.18,0.96,2.1,1.51,3c-0.9,0.53-1.94,0.91-2.88,1.38c0.26,0.76,2.08,0.28,2.75,0.25
				c-0.44,1.41-1.25,3.08-1,4.76c1.25-0.92,2.11-2.23,2.88-3.63c1.7,0.71,2.57,2.26,4.38,2.87c-0.06-0.2-0.14-0.37-0.22-0.55
				c0.95,1.69,1.93,3.32,3.11,4.82C138.53,228.57,147.13,237.32,156.11,246.79z"/>
			<path class="st0" d="M140.72,114.07c1.89,0.69,4.45-0.5,6,0.72c-1.37,0.96-3.07,1.58-4.56,2.4c0.42,0.79,1.14,2.54,0.48,3.6
				c-1.25-1.46-2.04-3.4-3.36-4.8c-0.27,0.27-0.53,0.54-0.79,0.82c-0.41-0.5-0.83-0.99-1.23-1.48c0.13-0.24,0.24-0.5,0.34-0.78
				c-0.35-0.15-0.77-0.22-1.21-0.28c-0.28-0.34-0.56-0.69-0.84-1.04c0.88-0.07,1.76-0.16,2.29-0.6c-0.05-0.9-0.76-1.16-0.96-1.92
				c1.37,0.31,1.51,1.85,2.88,2.16c0.75-1.41,0.94-3.37,2.16-4.32C141.87,110.75,141.72,112.83,140.72,114.07z"/>
			<path class="st5" d="M143.85,104.17l-1.21,1.5c-1.92,1.05-2.13,3.79-3.12,5.76c-1.83-0.82-3.11-3.42-5.04-3.36
				c0.45,1.55,1.65,2.36,2.16,3.84c-0.61,0.15-1.19,0.32-1.76,0.5c-1.83-2.24-3.64-4.48-5.41-6.73c3.56-1.4,4.34-5.58,5.52-9.36
				c1.59,1.53,3.27,2.96,5.28,4.08C141.4,101.79,142.61,103.01,143.85,104.17z"/>
			<path class="st4" d="M132.59,93.2c1.04,4.47-2.68,8.21-4.56,9.84c-1.13-0.91-2.35-1.57-3.36-2.64c-0.6-0.64-2.4-2.69-2.4-3.84
				c-0.01-1.25,2.09-3.21,2.88-4.08c0.98-1.09,2.67-3.43,3.84-3.36C130.11,89.19,132.35,92.19,132.59,93.2z"/>
			<path class="st6" d="M120.83,85.76c2.25,2.31,7.03,4.38,1.92,6.24c-1.76-6.55-7.67-7.26-14.88-8.4c-2.99-0.48-6.9,0.46-7.92-1.44
				c-0.23-0.96,0.73-1.97,1.2-1.44c-0.78,0.42-0.2,1.01,0.24,1.44c1.8,0.08,2.17-2.14,2.88-2.4c1.32-0.01-0.33,1.71,0.48,1.92
				c1.1-0.26-0.02-1.65,0.96-1.68c2.13,0.08,5.53,2.01,7.2,0.24c-1.97-3.13-7.35-4.01-11.76-4.08c-2.63-0.04-4.97,0.99-7.2,1.2
				c-1.59,0.15-3.35,0.23-4.08-1.2c1.99,0.79,4.02,0.8,3.36-1.92c4.16-1.5,9.09,0.27,13.2,0c-3.51-1.16-6.65-1.53-10.08-1.44
				c-3.64,0.09-6.01,3.5-10.08,2.64c-0.02-1.27,1.79-2.56,2.64-1.44c-0.06,1.26-0.72,0.25-1.44,0.24c0.38,0.42,0.86,1.47,1.44,0.96
				c0.75-0.05,0.4-1.19,0.48-1.92c4.65-1.93,11.02-1.62,16.32-1.44c0.78,0.27,1.84,1.51,2.88,0.72c-4.78-2.78-13.59-1.7-18.72-0.24
				c-0.86-0.32-2.05-1.29-0.96-2.16c0.95-0.72,0.79,1.33,1.92,1.2c0.94-0.34,1.23-1.33,1.92-1.92c5.94-1.85,13.18,0.77,17.28,2.16
				c-2.7-2.74-6.41-4.47-8.88-7.44c0.18-0.78,0.4-1.52,1.44-1.44c0.45,0.59-0.02,2.1,0.96,2.16c1.05,0.33,1.42,0.01,2.4-0.24
				c0.33,0.95,1.46,1.1,1.68,2.16c3.03,1.23,4.95,5.27,6.72,8.16c0.62,1.02,1.61,1.88,2.16,2.88c0.51,0.93,0.51,2.19,0.96,3.12
				C118.29,82.66,119.82,84.72,120.83,85.76z"/>
			<path class="st2" d="M115.55,593.11c-0.43,1.74,3.48,2.2,2.4,4.08c-1.21,2.09-4.06-1.18-5.28-2.16
				c-5.19-4.16-11.48-8.27-16.56-10.56c-1.4-1.69-3.48-2.4-5.28-3.6c-1.78-1.19-3.42-2.71-5.28-3.84
				c-4.39-2.67-9.15-4.34-13.44-6.72c-4.21-2.34-7.87-5.36-11.76-8.4c-16.05-12.55-33.23-23.97-50.21-35.5v-3.76
				c7.17,4.88,14.31,9.8,21.41,14.78c7.38,5.18,15.18,10.04,22.32,15.6c7.17,5.57,14.67,11.02,22.8,15.12c2.36,3.3,6.44,4.19,9.84,6
				c3.35,1.79,6.53,4.28,9.84,6.24C102.99,584.33,109.02,589.15,115.55,593.11z"/>
			<path class="st5" d="M108.78,179.1l-2.72,0.15c-0.89-0.18-1.97-0.37-2.83-0.12c-0.55-1.38-0.84-3.01-1.57-4.22
				c-0.82,0.79-0.25,2.97-0.84,3.98c-1.16-0.19-2.51-0.72-3.7-0.63c-1.67-3.89-3.39-7.88-4.61-12.1c-1.18-4.09-2.06-8.98-2.88-13.68
				c-0.26-1.52-0.49-3.13-0.69-4.77l0.81-0.1c1.67,0,2.66-0.7,4.08-0.96c-0.09,1.84-1.09,4.48,0,6c1.71-0.84,2.15-2.97,3.12-4.56
				c0.28,0.06,0.55,0.15,0.83,0.25c0,0.02,0,0.04,0.01,0.06c0.5,2.21,0.78,4.75,1.44,6.72c0.37,1.11,1.29,2.03,1.68,3.12
				c0.79,2.18,1.1,4.4,1.92,6.48C104.85,169.84,106.67,174.51,108.78,179.1z"/>
			<path class="st5" d="M96.11,127.04c0.29,3.87,0.3,7.59,0.47,11.28c-0.52-1.07-1.01-2.23-1.79-2.23c-0.7,1.75-0.66,2.79-0.72,5.04
				c-1.52,0.15-2.45-1.55-3.6-0.96c0.12,1.8,1.73,2.1,2.16,3.6c-0.83,1.42-2.57,1.91-2.88,3.84l-0.81,0.1
				c-0.73-5.91-1.11-12.29-1.71-17.07c-0.23-1.81,0.17-3.47,0.23-5.5l0.34,0.01c2.32,0.52,3.74-1.35,5.51-1.96
				c-0.07,2.32,0.66,3.84,1.06,5.69c0.76-0.87,1.25-1.99,1.61-3.26C96.02,126.09,96.07,126.56,96.11,127.04z"/>
			<path class="st0" d="M95.29,119.9c0.2,1.35,0.37,2.71,0.53,4.08c-0.25,1.27-0.52,2.71-1.45,3.3c-0.49-1.67-0.49-3.75-0.35-5.15
				c-1.49,0.77-3.23,2.22-4.8,2.31c1.34-1.27,2.79-2.43,4.26-3.56c-1.23-0.83-2.23-1.91-3.19-3.01c1.83,0.53,3.2,1.52,4.97,2.13
				C95.27,119.97,95.28,119.93,95.29,119.9z"/>
			<path class="st5" d="M95.08,118.49c-0.05,0.16-0.11,0.31-0.18,0.44c-2.39-0.34-4.17-2.21-6.21-2.31c0.14,1.71,2.6,2.6,3.55,4.09
				c-1.19,1.77-3.18,2.73-4.44,4.44l-0.34-0.01c0.01-0.09,0.01-0.17,0.01-0.26c0.03-2.16-0.82-4.62-0.96-6.96
				c-0.33-5.23-0.65-8.4-1.44-12.24h0.48c2.15,0.81,4.57,1.35,7.68,1.2C93.78,110.68,94.48,114.55,95.08,118.49z"/>
			<path class="st4" d="M93.95,96.08c1.66,2.34,1.13,6.76,0,9.36c-3.78-0.7-8.11-0.85-9.84-3.6c0.57-1.91,0.49-4.46,1.2-6.24
				C88.69,95.09,90.38,95.41,93.95,96.08z"/>
			<path class="st6" d="M89.39,92.96c-1.59-0.15-2.45,0.82-4.56,0.72c-0.82-7.21-6.64-9.85-10.8-13.44
				c-2.93-2.53-5.64-5.36-7.92-8.16c-3.1-3.81-3.96-9.27-5.28-14.88c0.76-0.35,1.77-0.47,1.68-1.68c-0.01-1.44-2.06-1.54-1.2-3.12
				c3.87,2.29-0.25,10.4,4.8,12.96c-0.79-5.41-1.26-9.93,0.96-15.6c-0.52,3.57-0.36,8.2-0.24,12.24c0.07,2.6-0.4,6.16,1.92,6.96
				c-2.03-5.72-1.42-16.16-0.24-22.32c0.87,0.16,1.28-0.16,1.68-0.48c-0.05,0.45,0.27,0.53,0.24,0.96
				c-1.56,3.94-1.21,9.86-0.96,15.12c0.1,2.15-0.29,5.66,1.68,6c-1.02-6.41-1.44-12.25-0.72-17.76c0.91,0.5,1.84-0.56,2.4-1.68
				c-1.26,4.89-0.77,12.25,0,17.52c0.32,2.21,0.14,6.79,2.64,6.96c0.41,0.03,1.25-0.39,1.44-1.2c0.55-2.42-4.43-8.26-0.96-10.8
				c1.1,0.77-2.09,3.56,0.48,4.32c0.53-0.93-1.48-2.16,0.48-2.64c0.53,5.65,1.73,10.54,4.08,14.88C84.36,82.31,88,86.5,89.39,92.96z
				"/>
			<path class="st2" d="M62.27,586.4c1.1,0.97,5.83,4.66,5.76,6.24c-0.07,1.54-4.08,3.75-5.76,3.6c-1.06-0.1-3.22-2.13-4.8-3.36
				c-2.46-1.91-3.74-3.76-6.48-4.08c-12.49-10.55-26.87-19.04-40.85-27.87v-8.74c4.25,2.76,8.51,5.51,12.77,8.29
				c4.72,3.07,9.98,5,14.88,7.92c1.46,0.87,2.64,2.23,4.08,3.12c4.77,2.94,9.71,5.79,14.16,9.36
				C57.88,582.91,59.82,584.24,62.27,586.4z"/>
		</g>
		<g>
		</g>
	</g>
</g>
<path class="st8" d="M70.91,69.67c-0.49,0.48-0.89,0.89-0.48,1.68C71.37,71.11,71.5,70.35,70.91,69.67z"/>
<path class="st8" d="M77.39,73.99c-1.05-0.01-1.31,0.77-2.16,0.96C75.82,75.45,77.66,75.16,77.39,73.99z"/>
<path class="st8" d="M108.59,74.23c-0.88-0.22-0.32,1.36,0.24,1.2C109.02,74.76,108.49,74.81,108.59,74.23z"/>
<path class="st8" d="M105.71,80.23c0.43,0.45,0.08,1.68,1.2,1.44C106.93,80.77,106.44,80.38,105.71,80.23z"/>
<path class="st8" d="M128.75,99.91c0.91-0.8,1.49-1.6,1.44-2.4c-0.17-2.8-5.37-3.98-5.04,0C125.28,99.14,126.66,99.77,128.75,99.91z
	 M128.03,98.95c-0.71-0.09-1.22-0.38-1.68-0.72c-0.05-1.25,0.12-2.28,0.96-2.64C128.23,96.37,129.51,97.75,128.03,98.95z"/>
<path class="st8" d="M93.23,101.11c0.17-0.96-0.23-1.37-0.24-2.16c-2.09-1.49-5.29-1.33-5.04,1.44
	C88.15,102.68,91.76,103.26,93.23,101.11z M91.79,101.11c-0.53,0.35-1.16,0.6-2.16,0.48c-0.67-0.96-0.49-3.23,0.96-2.4
	C90.21,99.66,91.33,100.68,91.79,101.11z"/>
<path class="st8" d="M155.87,169.51c0.62,0.5,1.7-0.08,1.92-0.72c1.19,0.22,1.54-0.15,2.64,0.24c0.13-0.19,0.25-0.39,0.24-0.72
	C159.14,167.93,156.77,168.09,155.87,169.51z"/>
<path class="st8" d="M161.63,194.71c-0.39-0.07-0.41,0.23-0.72,0.24c0.27,3.52-0.31,6.04-1.92,8.16
	C162.44,203.11,162.93,197.17,161.63,194.71z"/>
<path class="st8" d="M184.85,272.96c-1.33,0.35-0.29,3.07-1.2,3.84c-1.03-0.55-2.69-1.28-3.84-0.96c0.38,1.78,2.17,2.15,2.64,3.84
	c-0.5,1.4-1.78,2.37-0.48,3.84c1.53-0.15,1.61-1.75,2.64-2.4c1.14,0.7,1.06,2.62,1.92,3.6c0.74,0.17,0.46,0.17,1.2,0
	c-0.11-1.25-0.22-2.5-0.48-3.6c0.4-0.96,2.28-0.44,3.12-0.96c-0.91-1.17-2.5-1.66-4.08-2.16
	C185.73,276.4,185.37,274.6,184.85,272.96z"/>
<path class="st8" d="M224.03,492.07c-0.74,0.06-1.36,0.24-1.92,0.48c-0.02,1.06,0.29,1.8,1.2,1.92
	C224.55,494.3,224.59,492.89,224.03,492.07z"/>
<path class="st8" d="M221.15,496.39c0.72,0,1.44,0,2.16,0C223.92,493.92,220.74,494.53,221.15,496.39z"/>
<path class="st8" d="M200.27,497.59c-0.12,0.75,0.34,0.94,0.48,1.44c0.86,0.14,1.16-0.28,1.68-0.48
	C202.67,497.01,201.05,496.83,200.27,497.59z"/>
<path class="st8" d="M164.27,171.67c-1.1,0.32-3-1.61-5.52-1.68c-1.52-0.04-3.12,0.17-4.08,1.2c1.27,3.09,6.08,2.8,8.88,1.44
	c0.84,0.04,0.29,1.47,1.2,1.44C164.45,173.11,163.79,172.86,164.27,171.67z M158.03,172.87c-0.9-0.38-2.1-0.46-2.4-1.44
	c0.43-0.38,2.03-0.84,2.64-0.24C157.81,171.48,158.6,172.38,158.03,172.87z M162.11,172.39c-0.9-0.18-1.15,0.29-1.92,0.24
	c0-0.48,0-0.96,0-1.44C161.23,171.19,161.91,171.55,162.11,172.39z"/>
<path class="st8" d="M196.55,309.9c-0.74,0.82-0.79,2.33-1.26,3.41c-1.09-0.59-1.83-1.54-2.91-2.15c-0.25,0.95,0.6,1.83,0.88,2.65
	c-0.69,0.37-1.92,0.1-2.53,0.25c0.01,0.85,1.31,1.46,2.15,1.9c-0.59,0.89-1.73,1.21-2.02,2.4c1.16-0.11,1.91-0.62,2.78-1.01
	c0.63,0.81,0.58,2.67,1.01,3.29c0.71-0.72,0.85-2.01,1.14-3.16c0.9,0.25,1.98,1.38,3.03,1.9c-0.02-0.93-1.42-1.52-1.39-2.91
	c0.66-0.12,2.11-0.26,2.91-0.63c-0.65-0.87-2.11-0.93-3.16-1.39C197.15,313.22,196.88,311.19,196.55,309.9z M196.29,314.71
	c1.1,0.25,2.19,0.51,3.03,1.01c-0.96,0.42-1.89,0.03-2.53,0c0.11,0.82,0.38,1.47,0.63,2.15c-0.82-0.24-1.05-1.06-1.77-1.39
	c-0.03,0.1-0.11,0.15-0.25,0.13c0.21,0.9-0.2,2.23-0.76,2.78c-0.4-1.29-0.22-1.82-0.38-2.78c-0.79,0.3-1.75,1.12-2.53,1.01
	c0.5-0.6,1.36-0.83,1.77-1.52c-0.57-0.66-1.57-0.88-2.02-1.64c0.89-0.17,1.81,0.29,2.4,0c0.19-0.64-1.13-1.46-0.76-2.27
	c0.87,0.56,1.4,1.47,2.27,2.02c0.25-1.01,0.54-1.98,1.01-2.78C196.75,312.61,197.02,314,196.29,314.71z"/>
<path class="st8" d="M187.42,289.4c-0.17,0-0.34,0-0.51,0c-0.68,2.01-0.9,4.49-1.72,6.36c-1.89-0.19-3.09-1.93-4.81-1.72
	c0.57,1.55,2.22,2.02,2.92,3.44c-2.06,0.86-3.66,2.18-5.33,3.44c0.75,1.15,3.86-0.21,5.67-0.17c-0.17,2.46-0.36,4.71-0.52,6.53
	c1.73-0.62,3.13-3.05,4.29-4.81c2.73,0.07,5.44,1.09,8.25,0.52c-0.53-0.83-1.59-1.2-2.4-1.72c-0.86-0.55-1.66-1.08-2.4-1.72
	c0.86-1.65,2.33-2.71,2.92-4.64c-1.97,0.26-3.67,0.8-5.67,1.03C187.69,293.67,187.54,291.62,187.42,289.4z"/>
<path class="st8" d="M139.36,231.96c-0.73,0.56-0.98,1.61-1.5,2.39c-0.56-0.37-1.06-0.8-1.71-1.09c-0.08,0.65,0.52,1.15,0.82,1.64
	c-0.49,0.28-1.05,0.49-1.57,0.75c0.14,0.41,1.13,0.15,1.5,0.14c-0.24,0.77-0.68,1.68-0.55,2.59c0.68-0.5,1.15-1.21,1.57-1.98
	c0.93,0.39,1.4,1.23,2.39,1.57c-0.18-0.64-0.59-1.04-0.82-1.64c0.81-0.24,1.52-0.57,2.05-1.09c-0.45-0.34-1.41-0.18-2.05-0.34
	C139.45,233.91,139.6,232.73,139.36,231.96z"/>
<g id="XMLID_00000175286829132698207200000006513338219228726941_">
	<g>
		<path class="st0" d="M90.27,38.36c-4.89-3.62-10.71-6.3-16.6-8.92c5.8-0.61,10.75,0.79,16.19,1.13c0.68-4.16-1.78-7.13-2.56-10.56
			c-0.1-0.44-0.02-0.95-0.1-1.43c-0.24-1.39-0.72-2.63-0.62-4.41c3.41,3.76,5.36,8.99,8.41,13.12c3.71-3.49,6.96-8.01,10.96-10.87
			c-2.78,5.59-4.42,10.12-5.12,12.43c3.7,0.25,7.73,1.06,11.48,1.72c-2.89,2.34-6.55,3.9-9.94,5.74c1.48,4.73,3.95,8.48,5.84,12.81
			c-3.98-1.9-6.82-4.93-10.46-7.18c-0.75,0.95-1.08,2.14-1.64,3.18c-1.6,3-3.95,5.86-6.15,8.1c0.15-0.37,0.04-0.87,0.11-1.33
			c0.54-3.6,1.65-7.52,2.76-10.25c-2.21,0.14-3.84,1.64-5.74,2.56c-2.37,1.15-4.96,2-7.89,2.77C81.74,43.39,86.36,40.95,90.27,38.36
			z"/>
		<path class="st2" d="M89.35,38.36c-4.84-3.74-10.97-6.18-16.71-9.02c1.02-0.76,2.69-0.68,4.1-0.62c4.3,0.19,8.31,1.16,12.81,1.23
			c0.26-3.66-1.98-6.48-2.66-9.73c-0.46-2.2-0.67-4.23-0.72-6.67c-0.03-0.16,0.1-0.17,0.1-0.3c0.06,0.04,0.27-0.06,0.31,0
			c3.39,3.71,5.56,9.39,8.41,13.32c2.39-2.33,4.68-4.88,7.07-7.28c0.82-0.82,1.7-1.4,2.56-2.15c0.92-0.79,1.36-2.2,2.56-2.56
			c-1.66,4.42-4.33,8.71-5.63,13.83c4.01,0.52,8.21,1.04,11.99,2.05c-3.19,2.25-6.71,4.16-10.35,5.95c0.94,3.85,2.85,6.93,4.4,10.25
			c0.49,1.04,1.38,1.96,1.44,3.18c-2.42-0.15-4.46-2.36-6.25-3.69c-1.71-1.27-3.38-2.35-4.82-3.59c-1.62,3.64-3.8,6.65-6.25,9.53
			c-0.79,0.93-1.48,2.03-2.46,2.77c0.7-4.38,1.12-8.83,2.97-12.51c-2.37,0.54-4.42,1.93-6.66,2.98c-2.27,1.05-4.72,1.75-7.49,2.35
			c0.43-1.19,1.51-2.02,2.36-2.87C82.95,42.31,86.31,40.47,89.35,38.36z M89.86,30.57c-5.44-0.34-10.39-1.74-16.19-1.13
			c5.89,2.62,11.71,5.3,16.6,8.92c-3.91,2.59-8.53,5.03-11.07,8.61c2.93-0.77,5.52-1.62,7.89-2.77c1.9-0.92,3.53-2.42,5.74-2.56
			c-1.11,2.73-2.22,6.65-2.76,10.25c-0.07,0.46,0.04,0.96-0.11,1.33c2.2-2.24,4.55-5.1,6.15-8.1c0.56-1.04,0.89-2.23,1.64-3.18
			c3.64,2.25,6.48,5.28,10.46,7.18c-1.89-4.33-4.36-8.08-5.84-12.81c3.39-1.84,7.05-3.4,9.94-5.74c-3.75-0.66-7.78-1.47-11.48-1.72
			c0.7-2.31,2.34-6.84,5.12-12.43c-4,2.86-7.25,7.38-10.96,10.87c-3.05-4.13-5-9.36-8.41-13.12c-0.1,1.78,0.38,3.02,0.62,4.41
			c0.08,0.48,0,0.99,0.1,1.43C88.08,23.44,90.54,26.41,89.86,30.57z"/>
	</g>
	<g>
	</g>
</g>
<path class="st8" d="M91.55,25.25c1.75,1.99,2.95,4.76,4.29,6.75c0.91-1.57,2.22-4.13,3.97-6.12c0.2,1.66-0.42,4.49-0.95,6.67
	c1.99-0.08,3.1,0.08,5.56,0.16c-1.91,1.03-3.18,2.07-5.4,2.86c1.43,2.07,4,4.88,3.65,7.23c-1.2-0.89-2.97-2.21-4.61-3.51
	c0,0-2.22,2.48-3.49,5.42c-0.24-2.94-0.87-5.32-0.87-5.32c-1.27,0.64-3.81,1.74-5.48,2.3c1.51-1.75,2.7-2.7,3.7-4.3
	c-1.95-1.73-5.28-3.82-6.64-5.15c2.86,0.4,4.53,0.87,6.64,1.47C92.03,31.19,91.4,27.88,91.55,25.25z"/>
</svg>
